%TF.GenerationSoftware,KiCad,Pcbnew,(6.0.1)*%
%TF.CreationDate,2022-01-18T02:16:12+08:00*%
%TF.ProjectId,project,70726f6a-6563-4742-9e6b-696361645f70,1.2.2*%
%TF.SameCoordinates,Original*%
%TF.FileFunction,Legend,Top*%
%TF.FilePolarity,Positive*%
%FSLAX46Y46*%
G04 Gerber Fmt 4.6, Leading zero omitted, Abs format (unit mm)*
G04 Created by KiCad (PCBNEW (6.0.1)) date 2022-01-18 02:16:12*
%MOMM*%
%LPD*%
G01*
G04 APERTURE LIST*
%ADD10C,0.300000*%
%ADD11C,0.150000*%
%ADD12C,0.120000*%
%ADD13C,0.200000*%
%ADD14C,0.300000*%
%ADD15C,0.350000*%
G04 APERTURE END LIST*
D10*
X39455428Y47259229D02*
X39455428Y46187800D01*
X39384000Y45973515D01*
X39241142Y45830658D01*
X39026857Y45759229D01*
X38884000Y45759229D01*
X40884000Y45759229D02*
X40169714Y45759229D01*
X40169714Y47259229D01*
X42241142Y45902086D02*
X42169714Y45830658D01*
X41955428Y45759229D01*
X41812571Y45759229D01*
X41598285Y45830658D01*
X41455428Y45973515D01*
X41384000Y46116372D01*
X41312571Y46402086D01*
X41312571Y46616372D01*
X41384000Y46902086D01*
X41455428Y47044943D01*
X41598285Y47187800D01*
X41812571Y47259229D01*
X41955428Y47259229D01*
X42169714Y47187800D01*
X42241142Y47116372D01*
X43312571Y47259229D02*
X43312571Y46187800D01*
X43241142Y45973515D01*
X43098285Y45830658D01*
X42884000Y45759229D01*
X42741142Y45759229D01*
X44741142Y45759229D02*
X44026857Y45759229D01*
X44026857Y47259229D01*
X46098285Y45902086D02*
X46026857Y45830658D01*
X45812571Y45759229D01*
X45669714Y45759229D01*
X45455428Y45830658D01*
X45312571Y45973515D01*
X45241142Y46116372D01*
X45169714Y46402086D01*
X45169714Y46616372D01*
X45241142Y46902086D01*
X45312571Y47044943D01*
X45455428Y47187800D01*
X45669714Y47259229D01*
X45812571Y47259229D01*
X46026857Y47187800D01*
X46098285Y47116372D01*
X47169714Y47259229D02*
X47169714Y46187800D01*
X47098285Y45973515D01*
X46955428Y45830658D01*
X46741142Y45759229D01*
X46598285Y45759229D01*
X48598285Y45759229D02*
X47884000Y45759229D01*
X47884000Y47259229D01*
X49955428Y45902086D02*
X49884000Y45830658D01*
X49669714Y45759229D01*
X49526857Y45759229D01*
X49312571Y45830658D01*
X49169714Y45973515D01*
X49098285Y46116372D01*
X49026857Y46402086D01*
X49026857Y46616372D01*
X49098285Y46902086D01*
X49169714Y47044943D01*
X49312571Y47187800D01*
X49526857Y47259229D01*
X49669714Y47259229D01*
X49884000Y47187800D01*
X49955428Y47116372D01*
X51026857Y47259229D02*
X51026857Y46187800D01*
X50955428Y45973515D01*
X50812571Y45830658D01*
X50598285Y45759229D01*
X50455428Y45759229D01*
X52455428Y45759229D02*
X51741142Y45759229D01*
X51741142Y47259229D01*
X53812571Y45902086D02*
X53741142Y45830658D01*
X53526857Y45759229D01*
X53384000Y45759229D01*
X53169714Y45830658D01*
X53026857Y45973515D01*
X52955428Y46116372D01*
X52884000Y46402086D01*
X52884000Y46616372D01*
X52955428Y46902086D01*
X53026857Y47044943D01*
X53169714Y47187800D01*
X53384000Y47259229D01*
X53526857Y47259229D01*
X53741142Y47187800D01*
X53812571Y47116372D01*
D11*
%TO.C,C22*%
X75509942Y7705058D02*
X75462323Y7657439D01*
X75319466Y7609820D01*
X75224228Y7609820D01*
X75081371Y7657439D01*
X74986133Y7752677D01*
X74938514Y7847915D01*
X74890895Y8038391D01*
X74890895Y8181248D01*
X74938514Y8371724D01*
X74986133Y8466962D01*
X75081371Y8562200D01*
X75224228Y8609820D01*
X75319466Y8609820D01*
X75462323Y8562200D01*
X75509942Y8514581D01*
X75890895Y8514581D02*
X75938514Y8562200D01*
X76033752Y8609820D01*
X76271847Y8609820D01*
X76367085Y8562200D01*
X76414704Y8514581D01*
X76462323Y8419343D01*
X76462323Y8324105D01*
X76414704Y8181248D01*
X75843276Y7609820D01*
X76462323Y7609820D01*
X76843276Y8514581D02*
X76890895Y8562200D01*
X76986133Y8609820D01*
X77224228Y8609820D01*
X77319466Y8562200D01*
X77367085Y8514581D01*
X77414704Y8419343D01*
X77414704Y8324105D01*
X77367085Y8181248D01*
X76795657Y7609820D01*
X77414704Y7609820D01*
%TO.C,M1*%
X19849580Y738877D02*
X18849580Y738877D01*
X19563866Y1072210D01*
X18849580Y1405543D01*
X19849580Y1405543D01*
X19849580Y2405543D02*
X19849580Y1834115D01*
X19849580Y2119829D02*
X18849580Y2119829D01*
X18992438Y2024591D01*
X19087676Y1929353D01*
X19135295Y1834115D01*
%TO.C,C26*%
X63038542Y11540458D02*
X62990923Y11492839D01*
X62848066Y11445220D01*
X62752828Y11445220D01*
X62609971Y11492839D01*
X62514733Y11588077D01*
X62467114Y11683315D01*
X62419495Y11873791D01*
X62419495Y12016648D01*
X62467114Y12207124D01*
X62514733Y12302362D01*
X62609971Y12397600D01*
X62752828Y12445220D01*
X62848066Y12445220D01*
X62990923Y12397600D01*
X63038542Y12349981D01*
X63419495Y12349981D02*
X63467114Y12397600D01*
X63562352Y12445220D01*
X63800447Y12445220D01*
X63895685Y12397600D01*
X63943304Y12349981D01*
X63990923Y12254743D01*
X63990923Y12159505D01*
X63943304Y12016648D01*
X63371876Y11445220D01*
X63990923Y11445220D01*
X64848066Y12445220D02*
X64657590Y12445220D01*
X64562352Y12397600D01*
X64514733Y12349981D01*
X64419495Y12207124D01*
X64371876Y12016648D01*
X64371876Y11635696D01*
X64419495Y11540458D01*
X64467114Y11492839D01*
X64562352Y11445220D01*
X64752828Y11445220D01*
X64848066Y11492839D01*
X64895685Y11540458D01*
X64943304Y11635696D01*
X64943304Y11873791D01*
X64895685Y11969029D01*
X64848066Y12016648D01*
X64752828Y12064267D01*
X64562352Y12064267D01*
X64467114Y12016648D01*
X64419495Y11969029D01*
X64371876Y11873791D01*
%TO.C,J2*%
X294180Y40799667D02*
X1008466Y40799667D01*
X1151323Y40752048D01*
X1246561Y40656810D01*
X1294180Y40513953D01*
X1294180Y40418715D01*
X389419Y41228239D02*
X341800Y41275858D01*
X294180Y41371096D01*
X294180Y41609191D01*
X341800Y41704429D01*
X389419Y41752048D01*
X484657Y41799667D01*
X579895Y41799667D01*
X722752Y41752048D01*
X1294180Y41180620D01*
X1294180Y41799667D01*
%TO.C,C52*%
X63216342Y28152058D02*
X63168723Y28104439D01*
X63025866Y28056820D01*
X62930628Y28056820D01*
X62787771Y28104439D01*
X62692533Y28199677D01*
X62644914Y28294915D01*
X62597295Y28485391D01*
X62597295Y28628248D01*
X62644914Y28818724D01*
X62692533Y28913962D01*
X62787771Y29009200D01*
X62930628Y29056820D01*
X63025866Y29056820D01*
X63168723Y29009200D01*
X63216342Y28961581D01*
X64121104Y29056820D02*
X63644914Y29056820D01*
X63597295Y28580629D01*
X63644914Y28628248D01*
X63740152Y28675867D01*
X63978247Y28675867D01*
X64073485Y28628248D01*
X64121104Y28580629D01*
X64168723Y28485391D01*
X64168723Y28247296D01*
X64121104Y28152058D01*
X64073485Y28104439D01*
X63978247Y28056820D01*
X63740152Y28056820D01*
X63644914Y28104439D01*
X63597295Y28152058D01*
X64549676Y28961581D02*
X64597295Y29009200D01*
X64692533Y29056820D01*
X64930628Y29056820D01*
X65025866Y29009200D01*
X65073485Y28961581D01*
X65121104Y28866343D01*
X65121104Y28771105D01*
X65073485Y28628248D01*
X64502057Y28056820D01*
X65121104Y28056820D01*
%TO.C,C2*%
X14889542Y34590934D02*
X14937161Y34543315D01*
X14984780Y34400458D01*
X14984780Y34305220D01*
X14937161Y34162362D01*
X14841923Y34067124D01*
X14746685Y34019505D01*
X14556209Y33971886D01*
X14413352Y33971886D01*
X14222876Y34019505D01*
X14127638Y34067124D01*
X14032400Y34162362D01*
X13984780Y34305220D01*
X13984780Y34400458D01*
X14032400Y34543315D01*
X14080019Y34590934D01*
X14080019Y34971886D02*
X14032400Y35019505D01*
X13984780Y35114743D01*
X13984780Y35352839D01*
X14032400Y35448077D01*
X14080019Y35495696D01*
X14175257Y35543315D01*
X14270495Y35543315D01*
X14413352Y35495696D01*
X14984780Y34924267D01*
X14984780Y35543315D01*
%TO.C,C15*%
X72471342Y4828543D02*
X72518961Y4780924D01*
X72566580Y4638067D01*
X72566580Y4542829D01*
X72518961Y4399972D01*
X72423723Y4304734D01*
X72328485Y4257115D01*
X72138009Y4209496D01*
X71995152Y4209496D01*
X71804676Y4257115D01*
X71709438Y4304734D01*
X71614200Y4399972D01*
X71566580Y4542829D01*
X71566580Y4638067D01*
X71614200Y4780924D01*
X71661819Y4828543D01*
X72566580Y5780924D02*
X72566580Y5209496D01*
X72566580Y5495210D02*
X71566580Y5495210D01*
X71709438Y5399972D01*
X71804676Y5304734D01*
X71852295Y5209496D01*
X71566580Y6685686D02*
X71566580Y6209496D01*
X72042771Y6161877D01*
X71995152Y6209496D01*
X71947533Y6304734D01*
X71947533Y6542829D01*
X71995152Y6638067D01*
X72042771Y6685686D01*
X72138009Y6733305D01*
X72376104Y6733305D01*
X72471342Y6685686D01*
X72518961Y6638067D01*
X72566580Y6542829D01*
X72566580Y6304734D01*
X72518961Y6209496D01*
X72471342Y6161877D01*
%TO.C,R2*%
X19378980Y43277734D02*
X18902790Y42944400D01*
X19378980Y42706305D02*
X18378980Y42706305D01*
X18378980Y43087258D01*
X18426600Y43182496D01*
X18474219Y43230115D01*
X18569457Y43277734D01*
X18712314Y43277734D01*
X18807552Y43230115D01*
X18855171Y43182496D01*
X18902790Y43087258D01*
X18902790Y42706305D01*
X18474219Y43658686D02*
X18426600Y43706305D01*
X18378980Y43801543D01*
X18378980Y44039639D01*
X18426600Y44134877D01*
X18474219Y44182496D01*
X18569457Y44230115D01*
X18664695Y44230115D01*
X18807552Y44182496D01*
X19378980Y43611067D01*
X19378980Y44230115D01*
%TO.C,C72*%
X81021742Y25485058D02*
X80974123Y25437439D01*
X80831266Y25389820D01*
X80736028Y25389820D01*
X80593171Y25437439D01*
X80497933Y25532677D01*
X80450314Y25627915D01*
X80402695Y25818391D01*
X80402695Y25961248D01*
X80450314Y26151724D01*
X80497933Y26246962D01*
X80593171Y26342200D01*
X80736028Y26389820D01*
X80831266Y26389820D01*
X80974123Y26342200D01*
X81021742Y26294581D01*
X81355076Y26389820D02*
X82021742Y26389820D01*
X81593171Y25389820D01*
X82355076Y26294581D02*
X82402695Y26342200D01*
X82497933Y26389820D01*
X82736028Y26389820D01*
X82831266Y26342200D01*
X82878885Y26294581D01*
X82926504Y26199343D01*
X82926504Y26104105D01*
X82878885Y25961248D01*
X82307457Y25389820D01*
X82926504Y25389820D01*
%TO.C,C18*%
X72750742Y10721343D02*
X72798361Y10673724D01*
X72845980Y10530867D01*
X72845980Y10435629D01*
X72798361Y10292772D01*
X72703123Y10197534D01*
X72607885Y10149915D01*
X72417409Y10102296D01*
X72274552Y10102296D01*
X72084076Y10149915D01*
X71988838Y10197534D01*
X71893600Y10292772D01*
X71845980Y10435629D01*
X71845980Y10530867D01*
X71893600Y10673724D01*
X71941219Y10721343D01*
X72845980Y11673724D02*
X72845980Y11102296D01*
X72845980Y11388010D02*
X71845980Y11388010D01*
X71988838Y11292772D01*
X72084076Y11197534D01*
X72131695Y11102296D01*
X72274552Y12245153D02*
X72226933Y12149915D01*
X72179314Y12102296D01*
X72084076Y12054677D01*
X72036457Y12054677D01*
X71941219Y12102296D01*
X71893600Y12149915D01*
X71845980Y12245153D01*
X71845980Y12435629D01*
X71893600Y12530867D01*
X71941219Y12578486D01*
X72036457Y12626105D01*
X72084076Y12626105D01*
X72179314Y12578486D01*
X72226933Y12530867D01*
X72274552Y12435629D01*
X72274552Y12245153D01*
X72322171Y12149915D01*
X72369790Y12102296D01*
X72465028Y12054677D01*
X72655504Y12054677D01*
X72750742Y12102296D01*
X72798361Y12149915D01*
X72845980Y12245153D01*
X72845980Y12435629D01*
X72798361Y12530867D01*
X72750742Y12578486D01*
X72655504Y12626105D01*
X72465028Y12626105D01*
X72369790Y12578486D01*
X72322171Y12530867D01*
X72274552Y12435629D01*
%TO.C,U7*%
X65688095Y22325820D02*
X65688095Y21516296D01*
X65735714Y21421058D01*
X65783333Y21373439D01*
X65878571Y21325820D01*
X66069047Y21325820D01*
X66164285Y21373439D01*
X66211904Y21421058D01*
X66259523Y21516296D01*
X66259523Y22325820D01*
X66640476Y22325820D02*
X67307142Y22325820D01*
X66878571Y21325820D01*
%TO.C,U6*%
X65688095Y10489420D02*
X65688095Y9679896D01*
X65735714Y9584658D01*
X65783333Y9537039D01*
X65878571Y9489420D01*
X66069047Y9489420D01*
X66164285Y9537039D01*
X66211904Y9584658D01*
X66259523Y9679896D01*
X66259523Y10489420D01*
X67164285Y10489420D02*
X66973809Y10489420D01*
X66878571Y10441800D01*
X66830952Y10394181D01*
X66735714Y10251324D01*
X66688095Y10060848D01*
X66688095Y9679896D01*
X66735714Y9584658D01*
X66783333Y9537039D01*
X66878571Y9489420D01*
X67069047Y9489420D01*
X67164285Y9537039D01*
X67211904Y9584658D01*
X67259523Y9679896D01*
X67259523Y9917991D01*
X67211904Y10013229D01*
X67164285Y10060848D01*
X67069047Y10108467D01*
X66878571Y10108467D01*
X66783333Y10060848D01*
X66735714Y10013229D01*
X66688095Y9917991D01*
%TO.C,U4*%
X59611695Y12463020D02*
X59611695Y11653496D01*
X59659314Y11558258D01*
X59706933Y11510639D01*
X59802171Y11463020D01*
X59992647Y11463020D01*
X60087885Y11510639D01*
X60135504Y11558258D01*
X60183123Y11653496D01*
X60183123Y12463020D01*
X61087885Y12129686D02*
X61087885Y11463020D01*
X60849790Y12510639D02*
X60611695Y11796353D01*
X61230742Y11796353D01*
%TO.C,SW1*%
X10161961Y43990667D02*
X10209580Y44133524D01*
X10209580Y44371620D01*
X10161961Y44466858D01*
X10114342Y44514477D01*
X10019104Y44562096D01*
X9923866Y44562096D01*
X9828628Y44514477D01*
X9781009Y44466858D01*
X9733390Y44371620D01*
X9685771Y44181143D01*
X9638152Y44085905D01*
X9590533Y44038286D01*
X9495295Y43990667D01*
X9400057Y43990667D01*
X9304819Y44038286D01*
X9257200Y44085905D01*
X9209580Y44181143D01*
X9209580Y44419239D01*
X9257200Y44562096D01*
X9209580Y44895429D02*
X10209580Y45133524D01*
X9495295Y45324000D01*
X10209580Y45514477D01*
X9209580Y45752572D01*
X10209580Y46657334D02*
X10209580Y46085905D01*
X10209580Y46371620D02*
X9209580Y46371620D01*
X9352438Y46276381D01*
X9447676Y46181143D01*
X9495295Y46085905D01*
%TO.C,R5*%
X16508780Y43328534D02*
X16032590Y42995200D01*
X16508780Y42757105D02*
X15508780Y42757105D01*
X15508780Y43138058D01*
X15556400Y43233296D01*
X15604019Y43280915D01*
X15699257Y43328534D01*
X15842114Y43328534D01*
X15937352Y43280915D01*
X15984971Y43233296D01*
X16032590Y43138058D01*
X16032590Y42757105D01*
X15508780Y44233296D02*
X15508780Y43757105D01*
X15984971Y43709486D01*
X15937352Y43757105D01*
X15889733Y43852343D01*
X15889733Y44090439D01*
X15937352Y44185677D01*
X15984971Y44233296D01*
X16080209Y44280915D01*
X16318304Y44280915D01*
X16413542Y44233296D01*
X16461161Y44185677D01*
X16508780Y44090439D01*
X16508780Y43852343D01*
X16461161Y43757105D01*
X16413542Y43709486D01*
%TO.C,L1*%
X84936380Y42693534D02*
X84936380Y42217343D01*
X83936380Y42217343D01*
X84936380Y43550677D02*
X84936380Y42979248D01*
X84936380Y43264962D02*
X83936380Y43264962D01*
X84079238Y43169724D01*
X84174476Y43074486D01*
X84222095Y42979248D01*
%TO.C,U13*%
X86700304Y24154620D02*
X86700304Y23345096D01*
X86747923Y23249858D01*
X86795542Y23202239D01*
X86890780Y23154620D01*
X87081257Y23154620D01*
X87176495Y23202239D01*
X87224114Y23249858D01*
X87271733Y23345096D01*
X87271733Y24154620D01*
X88271733Y23154620D02*
X87700304Y23154620D01*
X87986019Y23154620D02*
X87986019Y24154620D01*
X87890780Y24011762D01*
X87795542Y23916524D01*
X87700304Y23868905D01*
X88605066Y24154620D02*
X89224114Y24154620D01*
X88890780Y23773667D01*
X89033638Y23773667D01*
X89128876Y23726048D01*
X89176495Y23678429D01*
X89224114Y23583191D01*
X89224114Y23345096D01*
X89176495Y23249858D01*
X89128876Y23202239D01*
X89033638Y23154620D01*
X88747923Y23154620D01*
X88652685Y23202239D01*
X88605066Y23249858D01*
%TO.C,U12*%
X14441980Y4157105D02*
X15251504Y4157105D01*
X15346742Y4204724D01*
X15394361Y4252343D01*
X15441980Y4347581D01*
X15441980Y4538058D01*
X15394361Y4633296D01*
X15346742Y4680915D01*
X15251504Y4728534D01*
X14441980Y4728534D01*
X15441980Y5728534D02*
X15441980Y5157105D01*
X15441980Y5442820D02*
X14441980Y5442820D01*
X14584838Y5347581D01*
X14680076Y5252343D01*
X14727695Y5157105D01*
X14537219Y6109486D02*
X14489600Y6157105D01*
X14441980Y6252343D01*
X14441980Y6490439D01*
X14489600Y6585677D01*
X14537219Y6633296D01*
X14632457Y6680915D01*
X14727695Y6680915D01*
X14870552Y6633296D01*
X15441980Y6061867D01*
X15441980Y6680915D01*
%TO.C,U3*%
X82477495Y20192220D02*
X82477495Y19382696D01*
X82525114Y19287458D01*
X82572733Y19239839D01*
X82667971Y19192220D01*
X82858447Y19192220D01*
X82953685Y19239839D01*
X83001304Y19287458D01*
X83048923Y19382696D01*
X83048923Y20192220D01*
X83429876Y20192220D02*
X84048923Y20192220D01*
X83715590Y19811267D01*
X83858447Y19811267D01*
X83953685Y19763648D01*
X84001304Y19716029D01*
X84048923Y19620791D01*
X84048923Y19382696D01*
X84001304Y19287458D01*
X83953685Y19239839D01*
X83858447Y19192220D01*
X83572733Y19192220D01*
X83477495Y19239839D01*
X83429876Y19287458D01*
X90256866Y7199315D02*
X90256866Y7675505D01*
X90542580Y7104077D02*
X89542580Y7437410D01*
X90542580Y7770743D01*
X90542580Y8104077D02*
X89542580Y8104077D01*
X89542580Y8342172D01*
X89590200Y8485029D01*
X89685438Y8580267D01*
X89780676Y8627886D01*
X89971152Y8675505D01*
X90114009Y8675505D01*
X90304485Y8627886D01*
X90399723Y8580267D01*
X90494961Y8485029D01*
X90542580Y8342172D01*
X90542580Y8104077D01*
X90542580Y9104077D02*
X89542580Y9104077D01*
X90494961Y9532648D02*
X90542580Y9675505D01*
X90542580Y9913600D01*
X90494961Y10008839D01*
X90447342Y10056458D01*
X90352104Y10104077D01*
X90256866Y10104077D01*
X90161628Y10056458D01*
X90114009Y10008839D01*
X90066390Y9913600D01*
X90018771Y9723124D01*
X89971152Y9627886D01*
X89923533Y9580267D01*
X89828295Y9532648D01*
X89733057Y9532648D01*
X89637819Y9580267D01*
X89590200Y9627886D01*
X89542580Y9723124D01*
X89542580Y9961220D01*
X89590200Y10104077D01*
X90542580Y11056458D02*
X90542580Y10485029D01*
X90542580Y10770743D02*
X89542580Y10770743D01*
X89685438Y10675505D01*
X89780676Y10580267D01*
X89828295Y10485029D01*
X89542580Y11913600D02*
X89542580Y11723124D01*
X89590200Y11627886D01*
X89637819Y11580267D01*
X89780676Y11485029D01*
X89971152Y11437410D01*
X90352104Y11437410D01*
X90447342Y11485029D01*
X90494961Y11532648D01*
X90542580Y11627886D01*
X90542580Y11818362D01*
X90494961Y11913600D01*
X90447342Y11961220D01*
X90352104Y12008839D01*
X90114009Y12008839D01*
X90018771Y11961220D01*
X89971152Y11913600D01*
X89923533Y11818362D01*
X89923533Y11627886D01*
X89971152Y11532648D01*
X90018771Y11485029D01*
X90114009Y11437410D01*
X89875914Y12865981D02*
X90542580Y12865981D01*
X89494961Y12627886D02*
X90209247Y12389791D01*
X90209247Y13008839D01*
X89542580Y13294553D02*
X89542580Y13961220D01*
X90542580Y13532648D01*
X89542580Y14532648D02*
X89542580Y14627886D01*
X89590200Y14723124D01*
X89637819Y14770743D01*
X89733057Y14818362D01*
X89923533Y14865981D01*
X90161628Y14865981D01*
X90352104Y14818362D01*
X90447342Y14770743D01*
X90494961Y14723124D01*
X90542580Y14627886D01*
X90542580Y14532648D01*
X90494961Y14437410D01*
X90447342Y14389791D01*
X90352104Y14342172D01*
X90161628Y14294553D01*
X89923533Y14294553D01*
X89733057Y14342172D01*
X89637819Y14389791D01*
X89590200Y14437410D01*
X89542580Y14532648D01*
X90256866Y15246934D02*
X90256866Y15723124D01*
X90542580Y15151696D02*
X89542580Y15485029D01*
X90542580Y15818362D01*
X90542580Y16151696D02*
X89542580Y16151696D01*
X90256866Y16485029D01*
X89542580Y16818362D01*
X90542580Y16818362D01*
X90542580Y17770743D02*
X90542580Y17294553D01*
X89542580Y17294553D01*
X89542580Y18008839D02*
X89542580Y18675505D01*
X90542580Y18008839D01*
X90542580Y18675505D01*
X79018180Y20184315D02*
X79018180Y19612886D01*
X79018180Y19898600D02*
X78018180Y19898600D01*
X78161038Y19803362D01*
X78256276Y19708124D01*
X78303895Y19612886D01*
X78075295Y5679420D02*
X78075295Y6679420D01*
X78646723Y5679420D02*
X78218152Y6250848D01*
X78646723Y6679420D02*
X78075295Y6107991D01*
X88022552Y19727162D02*
X87974933Y19631924D01*
X87927314Y19584305D01*
X87832076Y19536686D01*
X87784457Y19536686D01*
X87689219Y19584305D01*
X87641600Y19631924D01*
X87593980Y19727162D01*
X87593980Y19917639D01*
X87641600Y20012877D01*
X87689219Y20060496D01*
X87784457Y20108115D01*
X87832076Y20108115D01*
X87927314Y20060496D01*
X87974933Y20012877D01*
X88022552Y19917639D01*
X88022552Y19727162D01*
X88070171Y19631924D01*
X88117790Y19584305D01*
X88213028Y19536686D01*
X88403504Y19536686D01*
X88498742Y19584305D01*
X88546361Y19631924D01*
X88593980Y19727162D01*
X88593980Y19917639D01*
X88546361Y20012877D01*
X88498742Y20060496D01*
X88403504Y20108115D01*
X88213028Y20108115D01*
X88117790Y20060496D01*
X88070171Y20012877D01*
X88022552Y19917639D01*
X78226104Y17318934D02*
X78702295Y17318934D01*
X78130866Y17033220D02*
X78464200Y18033220D01*
X78797533Y17033220D01*
%TO.C,C73*%
X91613542Y28406058D02*
X91565923Y28358439D01*
X91423066Y28310820D01*
X91327828Y28310820D01*
X91184971Y28358439D01*
X91089733Y28453677D01*
X91042114Y28548915D01*
X90994495Y28739391D01*
X90994495Y28882248D01*
X91042114Y29072724D01*
X91089733Y29167962D01*
X91184971Y29263200D01*
X91327828Y29310820D01*
X91423066Y29310820D01*
X91565923Y29263200D01*
X91613542Y29215581D01*
X91946876Y29310820D02*
X92613542Y29310820D01*
X92184971Y28310820D01*
X92899257Y29310820D02*
X93518304Y29310820D01*
X93184971Y28929867D01*
X93327828Y28929867D01*
X93423066Y28882248D01*
X93470685Y28834629D01*
X93518304Y28739391D01*
X93518304Y28501296D01*
X93470685Y28406058D01*
X93423066Y28358439D01*
X93327828Y28310820D01*
X93042114Y28310820D01*
X92946876Y28358439D01*
X92899257Y28406058D01*
%TO.C,C47*%
X5063342Y4301458D02*
X5015723Y4253839D01*
X4872866Y4206220D01*
X4777628Y4206220D01*
X4634771Y4253839D01*
X4539533Y4349077D01*
X4491914Y4444315D01*
X4444295Y4634791D01*
X4444295Y4777648D01*
X4491914Y4968124D01*
X4539533Y5063362D01*
X4634771Y5158600D01*
X4777628Y5206220D01*
X4872866Y5206220D01*
X5015723Y5158600D01*
X5063342Y5110981D01*
X5920485Y4872886D02*
X5920485Y4206220D01*
X5682390Y5253839D02*
X5444295Y4539553D01*
X6063342Y4539553D01*
X6349057Y5206220D02*
X7015723Y5206220D01*
X6587152Y4206220D01*
%TO.C,U1*%
X71250695Y43026820D02*
X71250695Y42217296D01*
X71298314Y42122058D01*
X71345933Y42074439D01*
X71441171Y42026820D01*
X71631647Y42026820D01*
X71726885Y42074439D01*
X71774504Y42122058D01*
X71822123Y42217296D01*
X71822123Y43026820D01*
X72822123Y42026820D02*
X72250695Y42026820D01*
X72536409Y42026820D02*
X72536409Y43026820D01*
X72441171Y42883962D01*
X72345933Y42788724D01*
X72250695Y42741105D01*
%TO.C,D1*%
X19513580Y45754305D02*
X18513580Y45754305D01*
X18513580Y45992400D01*
X18561200Y46135258D01*
X18656438Y46230496D01*
X18751676Y46278115D01*
X18942152Y46325734D01*
X19085009Y46325734D01*
X19275485Y46278115D01*
X19370723Y46230496D01*
X19465961Y46135258D01*
X19513580Y45992400D01*
X19513580Y45754305D01*
X19513580Y47278115D02*
X19513580Y46706686D01*
X19513580Y46992400D02*
X18513580Y46992400D01*
X18656438Y46897162D01*
X18751676Y46801924D01*
X18799295Y46706686D01*
%TO.C,C49*%
X65883342Y24806858D02*
X65835723Y24759239D01*
X65692866Y24711620D01*
X65597628Y24711620D01*
X65454771Y24759239D01*
X65359533Y24854477D01*
X65311914Y24949715D01*
X65264295Y25140191D01*
X65264295Y25283048D01*
X65311914Y25473524D01*
X65359533Y25568762D01*
X65454771Y25664000D01*
X65597628Y25711620D01*
X65692866Y25711620D01*
X65835723Y25664000D01*
X65883342Y25616381D01*
X66740485Y25378286D02*
X66740485Y24711620D01*
X66502390Y25759239D02*
X66264295Y25044953D01*
X66883342Y25044953D01*
X67311914Y24711620D02*
X67502390Y24711620D01*
X67597628Y24759239D01*
X67645247Y24806858D01*
X67740485Y24949715D01*
X67788104Y25140191D01*
X67788104Y25521143D01*
X67740485Y25616381D01*
X67692866Y25664000D01*
X67597628Y25711620D01*
X67407152Y25711620D01*
X67311914Y25664000D01*
X67264295Y25616381D01*
X67216676Y25521143D01*
X67216676Y25283048D01*
X67264295Y25187810D01*
X67311914Y25140191D01*
X67407152Y25092572D01*
X67597628Y25092572D01*
X67692866Y25140191D01*
X67740485Y25187810D01*
X67788104Y25283048D01*
%TO.C,L2*%
X60720733Y19878020D02*
X60244542Y19878020D01*
X60244542Y20878020D01*
X61006447Y20782781D02*
X61054066Y20830400D01*
X61149304Y20878020D01*
X61387400Y20878020D01*
X61482638Y20830400D01*
X61530257Y20782781D01*
X61577876Y20687543D01*
X61577876Y20592305D01*
X61530257Y20449448D01*
X60958828Y19878020D01*
X61577876Y19878020D01*
%TO.C,C62*%
X63216342Y29777658D02*
X63168723Y29730039D01*
X63025866Y29682420D01*
X62930628Y29682420D01*
X62787771Y29730039D01*
X62692533Y29825277D01*
X62644914Y29920515D01*
X62597295Y30110991D01*
X62597295Y30253848D01*
X62644914Y30444324D01*
X62692533Y30539562D01*
X62787771Y30634800D01*
X62930628Y30682420D01*
X63025866Y30682420D01*
X63168723Y30634800D01*
X63216342Y30587181D01*
X64073485Y30682420D02*
X63883009Y30682420D01*
X63787771Y30634800D01*
X63740152Y30587181D01*
X63644914Y30444324D01*
X63597295Y30253848D01*
X63597295Y29872896D01*
X63644914Y29777658D01*
X63692533Y29730039D01*
X63787771Y29682420D01*
X63978247Y29682420D01*
X64073485Y29730039D01*
X64121104Y29777658D01*
X64168723Y29872896D01*
X64168723Y30110991D01*
X64121104Y30206229D01*
X64073485Y30253848D01*
X63978247Y30301467D01*
X63787771Y30301467D01*
X63692533Y30253848D01*
X63644914Y30206229D01*
X63597295Y30110991D01*
X64549676Y30587181D02*
X64597295Y30634800D01*
X64692533Y30682420D01*
X64930628Y30682420D01*
X65025866Y30634800D01*
X65073485Y30587181D01*
X65121104Y30491943D01*
X65121104Y30396705D01*
X65073485Y30253848D01*
X64502057Y29682420D01*
X65121104Y29682420D01*
%TO.C,U5*%
X76367180Y1940896D02*
X77176704Y1940896D01*
X77271942Y1988515D01*
X77319561Y2036134D01*
X77367180Y2131372D01*
X77367180Y2321848D01*
X77319561Y2417086D01*
X77271942Y2464705D01*
X77176704Y2512324D01*
X76367180Y2512324D01*
X76367180Y3464705D02*
X76367180Y2988515D01*
X76843371Y2940896D01*
X76795752Y2988515D01*
X76748133Y3083753D01*
X76748133Y3321848D01*
X76795752Y3417086D01*
X76843371Y3464705D01*
X76938609Y3512324D01*
X77176704Y3512324D01*
X77271942Y3464705D01*
X77319561Y3417086D01*
X77367180Y3321848D01*
X77367180Y3083753D01*
X77319561Y2988515D01*
X77271942Y2940896D01*
%TO.C,C17*%
X73164742Y21008343D02*
X73212361Y20960724D01*
X73259980Y20817867D01*
X73259980Y20722629D01*
X73212361Y20579772D01*
X73117123Y20484534D01*
X73021885Y20436915D01*
X72831409Y20389296D01*
X72688552Y20389296D01*
X72498076Y20436915D01*
X72402838Y20484534D01*
X72307600Y20579772D01*
X72259980Y20722629D01*
X72259980Y20817867D01*
X72307600Y20960724D01*
X72355219Y21008343D01*
X73259980Y21960724D02*
X73259980Y21389296D01*
X73259980Y21675010D02*
X72259980Y21675010D01*
X72402838Y21579772D01*
X72498076Y21484534D01*
X72545695Y21389296D01*
X72259980Y22294058D02*
X72259980Y22960724D01*
X73259980Y22532153D01*
%TO.C,C68*%
X5050342Y8162258D02*
X5002723Y8114639D01*
X4859866Y8067020D01*
X4764628Y8067020D01*
X4621771Y8114639D01*
X4526533Y8209877D01*
X4478914Y8305115D01*
X4431295Y8495591D01*
X4431295Y8638448D01*
X4478914Y8828924D01*
X4526533Y8924162D01*
X4621771Y9019400D01*
X4764628Y9067020D01*
X4859866Y9067020D01*
X5002723Y9019400D01*
X5050342Y8971781D01*
X5907485Y9067020D02*
X5717009Y9067020D01*
X5621771Y9019400D01*
X5574152Y8971781D01*
X5478914Y8828924D01*
X5431295Y8638448D01*
X5431295Y8257496D01*
X5478914Y8162258D01*
X5526533Y8114639D01*
X5621771Y8067020D01*
X5812247Y8067020D01*
X5907485Y8114639D01*
X5955104Y8162258D01*
X6002723Y8257496D01*
X6002723Y8495591D01*
X5955104Y8590829D01*
X5907485Y8638448D01*
X5812247Y8686067D01*
X5621771Y8686067D01*
X5526533Y8638448D01*
X5478914Y8590829D01*
X5431295Y8495591D01*
X6574152Y8638448D02*
X6478914Y8686067D01*
X6431295Y8733686D01*
X6383676Y8828924D01*
X6383676Y8876543D01*
X6431295Y8971781D01*
X6478914Y9019400D01*
X6574152Y9067020D01*
X6764628Y9067020D01*
X6859866Y9019400D01*
X6907485Y8971781D01*
X6955104Y8876543D01*
X6955104Y8828924D01*
X6907485Y8733686D01*
X6859866Y8686067D01*
X6764628Y8638448D01*
X6574152Y8638448D01*
X6478914Y8590829D01*
X6431295Y8543210D01*
X6383676Y8447972D01*
X6383676Y8257496D01*
X6431295Y8162258D01*
X6478914Y8114639D01*
X6574152Y8067020D01*
X6764628Y8067020D01*
X6859866Y8114639D01*
X6907485Y8162258D01*
X6955104Y8257496D01*
X6955104Y8447972D01*
X6907485Y8543210D01*
X6859866Y8590829D01*
X6764628Y8638448D01*
%TO.C,C23*%
X81546742Y2136143D02*
X81594361Y2088524D01*
X81641980Y1945667D01*
X81641980Y1850429D01*
X81594361Y1707572D01*
X81499123Y1612334D01*
X81403885Y1564715D01*
X81213409Y1517096D01*
X81070552Y1517096D01*
X80880076Y1564715D01*
X80784838Y1612334D01*
X80689600Y1707572D01*
X80641980Y1850429D01*
X80641980Y1945667D01*
X80689600Y2088524D01*
X80737219Y2136143D01*
X80737219Y2517096D02*
X80689600Y2564715D01*
X80641980Y2659953D01*
X80641980Y2898048D01*
X80689600Y2993286D01*
X80737219Y3040905D01*
X80832457Y3088524D01*
X80927695Y3088524D01*
X81070552Y3040905D01*
X81641980Y2469477D01*
X81641980Y3088524D01*
X80641980Y3421858D02*
X80641980Y4040905D01*
X81022933Y3707572D01*
X81022933Y3850429D01*
X81070552Y3945667D01*
X81118171Y3993286D01*
X81213409Y4040905D01*
X81451504Y4040905D01*
X81546742Y3993286D01*
X81594361Y3945667D01*
X81641980Y3850429D01*
X81641980Y3564715D01*
X81594361Y3469477D01*
X81546742Y3421858D01*
%TO.C,C21*%
X75587942Y13896343D02*
X75635561Y13848724D01*
X75683180Y13705867D01*
X75683180Y13610629D01*
X75635561Y13467772D01*
X75540323Y13372534D01*
X75445085Y13324915D01*
X75254609Y13277296D01*
X75111752Y13277296D01*
X74921276Y13324915D01*
X74826038Y13372534D01*
X74730800Y13467772D01*
X74683180Y13610629D01*
X74683180Y13705867D01*
X74730800Y13848724D01*
X74778419Y13896343D01*
X74778419Y14277296D02*
X74730800Y14324915D01*
X74683180Y14420153D01*
X74683180Y14658248D01*
X74730800Y14753486D01*
X74778419Y14801105D01*
X74873657Y14848724D01*
X74968895Y14848724D01*
X75111752Y14801105D01*
X75683180Y14229677D01*
X75683180Y14848724D01*
X75683180Y15801105D02*
X75683180Y15229677D01*
X75683180Y15515391D02*
X74683180Y15515391D01*
X74826038Y15420153D01*
X74921276Y15324915D01*
X74968895Y15229677D01*
%TO.C,C45*%
X7082342Y20532058D02*
X7034723Y20484439D01*
X6891866Y20436820D01*
X6796628Y20436820D01*
X6653771Y20484439D01*
X6558533Y20579677D01*
X6510914Y20674915D01*
X6463295Y20865391D01*
X6463295Y21008248D01*
X6510914Y21198724D01*
X6558533Y21293962D01*
X6653771Y21389200D01*
X6796628Y21436820D01*
X6891866Y21436820D01*
X7034723Y21389200D01*
X7082342Y21341581D01*
X7939485Y21103486D02*
X7939485Y20436820D01*
X7701390Y21484439D02*
X7463295Y20770153D01*
X8082342Y20770153D01*
X8939485Y21436820D02*
X8463295Y21436820D01*
X8415676Y20960629D01*
X8463295Y21008248D01*
X8558533Y21055867D01*
X8796628Y21055867D01*
X8891866Y21008248D01*
X8939485Y20960629D01*
X8987104Y20865391D01*
X8987104Y20627296D01*
X8939485Y20532058D01*
X8891866Y20484439D01*
X8796628Y20436820D01*
X8558533Y20436820D01*
X8463295Y20484439D01*
X8415676Y20532058D01*
%TO.C,D2*%
X16643380Y45728905D02*
X15643380Y45728905D01*
X15643380Y45967000D01*
X15691000Y46109858D01*
X15786238Y46205096D01*
X15881476Y46252715D01*
X16071952Y46300334D01*
X16214809Y46300334D01*
X16405285Y46252715D01*
X16500523Y46205096D01*
X16595761Y46109858D01*
X16643380Y45967000D01*
X16643380Y45728905D01*
X15738619Y46681286D02*
X15691000Y46728905D01*
X15643380Y46824143D01*
X15643380Y47062239D01*
X15691000Y47157477D01*
X15738619Y47205096D01*
X15833857Y47252715D01*
X15929095Y47252715D01*
X16071952Y47205096D01*
X16643380Y46633667D01*
X16643380Y47252715D01*
%TO.C,C6*%
X13111542Y34514734D02*
X13159161Y34467115D01*
X13206780Y34324258D01*
X13206780Y34229020D01*
X13159161Y34086162D01*
X13063923Y33990924D01*
X12968685Y33943305D01*
X12778209Y33895686D01*
X12635352Y33895686D01*
X12444876Y33943305D01*
X12349638Y33990924D01*
X12254400Y34086162D01*
X12206780Y34229020D01*
X12206780Y34324258D01*
X12254400Y34467115D01*
X12302019Y34514734D01*
X12206780Y35371877D02*
X12206780Y35181400D01*
X12254400Y35086162D01*
X12302019Y35038543D01*
X12444876Y34943305D01*
X12635352Y34895686D01*
X13016304Y34895686D01*
X13111542Y34943305D01*
X13159161Y34990924D01*
X13206780Y35086162D01*
X13206780Y35276639D01*
X13159161Y35371877D01*
X13111542Y35419496D01*
X13016304Y35467115D01*
X12778209Y35467115D01*
X12682971Y35419496D01*
X12635352Y35371877D01*
X12587733Y35276639D01*
X12587733Y35086162D01*
X12635352Y34990924D01*
X12682971Y34943305D01*
X12778209Y34895686D01*
%TO.C,C16*%
X74173142Y4828543D02*
X74220761Y4780924D01*
X74268380Y4638067D01*
X74268380Y4542829D01*
X74220761Y4399972D01*
X74125523Y4304734D01*
X74030285Y4257115D01*
X73839809Y4209496D01*
X73696952Y4209496D01*
X73506476Y4257115D01*
X73411238Y4304734D01*
X73316000Y4399972D01*
X73268380Y4542829D01*
X73268380Y4638067D01*
X73316000Y4780924D01*
X73363619Y4828543D01*
X74268380Y5780924D02*
X74268380Y5209496D01*
X74268380Y5495210D02*
X73268380Y5495210D01*
X73411238Y5399972D01*
X73506476Y5304734D01*
X73554095Y5209496D01*
X73268380Y6638067D02*
X73268380Y6447591D01*
X73316000Y6352353D01*
X73363619Y6304734D01*
X73506476Y6209496D01*
X73696952Y6161877D01*
X74077904Y6161877D01*
X74173142Y6209496D01*
X74220761Y6257115D01*
X74268380Y6352353D01*
X74268380Y6542829D01*
X74220761Y6638067D01*
X74173142Y6685686D01*
X74077904Y6733305D01*
X73839809Y6733305D01*
X73744571Y6685686D01*
X73696952Y6638067D01*
X73649333Y6542829D01*
X73649333Y6352353D01*
X73696952Y6257115D01*
X73744571Y6209496D01*
X73839809Y6161877D01*
%TO.C,C63*%
X63216342Y31200058D02*
X63168723Y31152439D01*
X63025866Y31104820D01*
X62930628Y31104820D01*
X62787771Y31152439D01*
X62692533Y31247677D01*
X62644914Y31342915D01*
X62597295Y31533391D01*
X62597295Y31676248D01*
X62644914Y31866724D01*
X62692533Y31961962D01*
X62787771Y32057200D01*
X62930628Y32104820D01*
X63025866Y32104820D01*
X63168723Y32057200D01*
X63216342Y32009581D01*
X64073485Y32104820D02*
X63883009Y32104820D01*
X63787771Y32057200D01*
X63740152Y32009581D01*
X63644914Y31866724D01*
X63597295Y31676248D01*
X63597295Y31295296D01*
X63644914Y31200058D01*
X63692533Y31152439D01*
X63787771Y31104820D01*
X63978247Y31104820D01*
X64073485Y31152439D01*
X64121104Y31200058D01*
X64168723Y31295296D01*
X64168723Y31533391D01*
X64121104Y31628629D01*
X64073485Y31676248D01*
X63978247Y31723867D01*
X63787771Y31723867D01*
X63692533Y31676248D01*
X63644914Y31628629D01*
X63597295Y31533391D01*
X64502057Y32104820D02*
X65121104Y32104820D01*
X64787771Y31723867D01*
X64930628Y31723867D01*
X65025866Y31676248D01*
X65073485Y31628629D01*
X65121104Y31533391D01*
X65121104Y31295296D01*
X65073485Y31200058D01*
X65025866Y31152439D01*
X64930628Y31104820D01*
X64644914Y31104820D01*
X64549676Y31152439D01*
X64502057Y31200058D01*
%TO.C,C46*%
X9682542Y33352743D02*
X9730161Y33305124D01*
X9777780Y33162267D01*
X9777780Y33067029D01*
X9730161Y32924172D01*
X9634923Y32828934D01*
X9539685Y32781315D01*
X9349209Y32733696D01*
X9206352Y32733696D01*
X9015876Y32781315D01*
X8920638Y32828934D01*
X8825400Y32924172D01*
X8777780Y33067029D01*
X8777780Y33162267D01*
X8825400Y33305124D01*
X8873019Y33352743D01*
X9111114Y34209886D02*
X9777780Y34209886D01*
X8730161Y33971791D02*
X9444447Y33733696D01*
X9444447Y34352743D01*
X8777780Y35162267D02*
X8777780Y34971791D01*
X8825400Y34876553D01*
X8873019Y34828934D01*
X9015876Y34733696D01*
X9206352Y34686077D01*
X9587304Y34686077D01*
X9682542Y34733696D01*
X9730161Y34781315D01*
X9777780Y34876553D01*
X9777780Y35067029D01*
X9730161Y35162267D01*
X9682542Y35209886D01*
X9587304Y35257505D01*
X9349209Y35257505D01*
X9253971Y35209886D01*
X9206352Y35162267D01*
X9158733Y35067029D01*
X9158733Y34876553D01*
X9206352Y34781315D01*
X9253971Y34733696D01*
X9349209Y34686077D01*
%TO.C,LCD1*%
X21747733Y46421020D02*
X21271542Y46421020D01*
X21271542Y47421020D01*
X22652495Y46516258D02*
X22604876Y46468639D01*
X22462019Y46421020D01*
X22366780Y46421020D01*
X22223923Y46468639D01*
X22128685Y46563877D01*
X22081066Y46659115D01*
X22033447Y46849591D01*
X22033447Y46992448D01*
X22081066Y47182924D01*
X22128685Y47278162D01*
X22223923Y47373400D01*
X22366780Y47421020D01*
X22462019Y47421020D01*
X22604876Y47373400D01*
X22652495Y47325781D01*
X23081066Y46421020D02*
X23081066Y47421020D01*
X23319161Y47421020D01*
X23462019Y47373400D01*
X23557257Y47278162D01*
X23604876Y47182924D01*
X23652495Y46992448D01*
X23652495Y46849591D01*
X23604876Y46659115D01*
X23557257Y46563877D01*
X23462019Y46468639D01*
X23319161Y46421020D01*
X23081066Y46421020D01*
X24604876Y46421020D02*
X24033447Y46421020D01*
X24319161Y46421020D02*
X24319161Y47421020D01*
X24223923Y47278162D01*
X24128685Y47182924D01*
X24033447Y47135305D01*
%TO.C,C13*%
X58796742Y24723058D02*
X58749123Y24675439D01*
X58606266Y24627820D01*
X58511028Y24627820D01*
X58368171Y24675439D01*
X58272933Y24770677D01*
X58225314Y24865915D01*
X58177695Y25056391D01*
X58177695Y25199248D01*
X58225314Y25389724D01*
X58272933Y25484962D01*
X58368171Y25580200D01*
X58511028Y25627820D01*
X58606266Y25627820D01*
X58749123Y25580200D01*
X58796742Y25532581D01*
X59749123Y24627820D02*
X59177695Y24627820D01*
X59463409Y24627820D02*
X59463409Y25627820D01*
X59368171Y25484962D01*
X59272933Y25389724D01*
X59177695Y25342105D01*
X60082457Y25627820D02*
X60701504Y25627820D01*
X60368171Y25246867D01*
X60511028Y25246867D01*
X60606266Y25199248D01*
X60653885Y25151629D01*
X60701504Y25056391D01*
X60701504Y24818296D01*
X60653885Y24723058D01*
X60606266Y24675439D01*
X60511028Y24627820D01*
X60225314Y24627820D01*
X60130076Y24675439D01*
X60082457Y24723058D01*
%TO.C,C14*%
X58796742Y13750258D02*
X58749123Y13702639D01*
X58606266Y13655020D01*
X58511028Y13655020D01*
X58368171Y13702639D01*
X58272933Y13797877D01*
X58225314Y13893115D01*
X58177695Y14083591D01*
X58177695Y14226448D01*
X58225314Y14416924D01*
X58272933Y14512162D01*
X58368171Y14607400D01*
X58511028Y14655020D01*
X58606266Y14655020D01*
X58749123Y14607400D01*
X58796742Y14559781D01*
X59749123Y13655020D02*
X59177695Y13655020D01*
X59463409Y13655020D02*
X59463409Y14655020D01*
X59368171Y14512162D01*
X59272933Y14416924D01*
X59177695Y14369305D01*
X60606266Y14321686D02*
X60606266Y13655020D01*
X60368171Y14702639D02*
X60130076Y13988353D01*
X60749123Y13988353D01*
%TO.C,C70*%
X92765942Y22329143D02*
X92813561Y22281524D01*
X92861180Y22138667D01*
X92861180Y22043429D01*
X92813561Y21900572D01*
X92718323Y21805334D01*
X92623085Y21757715D01*
X92432609Y21710096D01*
X92289752Y21710096D01*
X92099276Y21757715D01*
X92004038Y21805334D01*
X91908800Y21900572D01*
X91861180Y22043429D01*
X91861180Y22138667D01*
X91908800Y22281524D01*
X91956419Y22329143D01*
X91861180Y22662477D02*
X91861180Y23329143D01*
X92861180Y22900572D01*
X91861180Y23900572D02*
X91861180Y23995810D01*
X91908800Y24091048D01*
X91956419Y24138667D01*
X92051657Y24186286D01*
X92242133Y24233905D01*
X92480228Y24233905D01*
X92670704Y24186286D01*
X92765942Y24138667D01*
X92813561Y24091048D01*
X92861180Y23995810D01*
X92861180Y23900572D01*
X92813561Y23805334D01*
X92765942Y23757715D01*
X92670704Y23710096D01*
X92480228Y23662477D01*
X92242133Y23662477D01*
X92051657Y23710096D01*
X91956419Y23757715D01*
X91908800Y23805334D01*
X91861180Y23900572D01*
%TO.C,J1*%
X89306866Y44652420D02*
X89306866Y43938134D01*
X89259247Y43795277D01*
X89164009Y43700039D01*
X89021152Y43652420D01*
X88925914Y43652420D01*
X90306866Y43652420D02*
X89735438Y43652420D01*
X90021152Y43652420D02*
X90021152Y44652420D01*
X89925914Y44509562D01*
X89830676Y44414324D01*
X89735438Y44366705D01*
%TO.C,C71*%
X91140342Y22456143D02*
X91187961Y22408524D01*
X91235580Y22265667D01*
X91235580Y22170429D01*
X91187961Y22027572D01*
X91092723Y21932334D01*
X90997485Y21884715D01*
X90807009Y21837096D01*
X90664152Y21837096D01*
X90473676Y21884715D01*
X90378438Y21932334D01*
X90283200Y22027572D01*
X90235580Y22170429D01*
X90235580Y22265667D01*
X90283200Y22408524D01*
X90330819Y22456143D01*
X90235580Y22789477D02*
X90235580Y23456143D01*
X91235580Y23027572D01*
X91235580Y24360905D02*
X91235580Y23789477D01*
X91235580Y24075191D02*
X90235580Y24075191D01*
X90378438Y23979953D01*
X90473676Y23884715D01*
X90521295Y23789477D01*
D12*
%TO.C,C22*%
X76242580Y6307600D02*
X75961420Y6307600D01*
X76242580Y7327600D02*
X75961420Y7327600D01*
%TO.C,M1*%
X297200Y40298400D02*
X297200Y298400D01*
X297200Y298400D02*
X20297200Y298400D01*
X20297200Y40298400D02*
X297200Y40298400D01*
X20297200Y298400D02*
X20297200Y40298400D01*
%TO.C,C26*%
X66360220Y11438400D02*
X66641380Y11438400D01*
X66360220Y12458400D02*
X66641380Y12458400D01*
%TO.C,J2*%
X2214400Y43497400D02*
X-45600Y43497400D01*
X3814400Y28397400D02*
X3814400Y27397400D01*
X6174400Y44757400D02*
X6174400Y43837400D01*
X7774400Y44757400D02*
X-45600Y44757400D01*
X-45600Y44757400D02*
X-45600Y26637400D01*
X-45600Y26637400D02*
X7774400Y26637400D01*
X2214400Y42997400D02*
X3814400Y42997400D01*
X6174400Y43837400D02*
X7774400Y43837400D01*
X6174400Y43557400D02*
X6174400Y43837400D01*
X6174400Y43557400D02*
X7389400Y43557400D01*
X2214400Y43997400D02*
X2214400Y42997400D01*
X2214400Y27397400D02*
X2214400Y28397400D01*
X6174400Y27557400D02*
X6174400Y27837400D01*
X4314400Y29197400D02*
X-45600Y29197400D01*
X3814400Y42997400D02*
X3814400Y43997400D01*
X2214400Y28397400D02*
X3814400Y28397400D01*
X-45600Y42197400D02*
X4314400Y42197400D01*
X4314400Y42197400D02*
X4314400Y29197400D01*
X3814400Y27397400D02*
X2214400Y27397400D01*
X3814400Y43997400D02*
X2214400Y43997400D01*
X2214400Y42997400D02*
X-45600Y42997400D01*
X7774400Y43837400D02*
X7774400Y44757400D01*
X6174400Y26637400D02*
X6174400Y27557400D01*
X7774400Y27557400D02*
X6174400Y27557400D01*
X7774400Y26637400D02*
X7774400Y27557400D01*
%TO.C,C52*%
X66895380Y29023800D02*
X66614220Y29023800D01*
X66895380Y28003800D02*
X66614220Y28003800D01*
%TO.C,C2*%
X14991600Y32535980D02*
X14991600Y32254820D01*
X13971600Y32535980D02*
X13971600Y32254820D01*
%TO.C,C15*%
X72573400Y2333620D02*
X72573400Y2614780D01*
X71553400Y2333620D02*
X71553400Y2614780D01*
%TO.C,R2*%
X17108700Y43207142D02*
X17108700Y43681658D01*
X18153700Y43207142D02*
X18153700Y43681658D01*
%TO.C,C72*%
X84649980Y25332200D02*
X84368820Y25332200D01*
X84649980Y26352200D02*
X84368820Y26352200D01*
%TO.C,C18*%
X71532000Y11262020D02*
X71532000Y11543180D01*
X70512000Y11262020D02*
X70512000Y11543180D01*
%TO.C,U7*%
X66526200Y22875800D02*
X63076200Y22875800D01*
X66526200Y12755800D02*
X64576200Y12755800D01*
X66526200Y12755800D02*
X68476200Y12755800D01*
X66526200Y22875800D02*
X68476200Y22875800D01*
%TO.C,U6*%
X66500800Y11039400D02*
X68450800Y11039400D01*
X66500800Y11039400D02*
X63050800Y11039400D01*
X66500800Y919400D02*
X68450800Y919400D01*
X66500800Y919400D02*
X64550800Y919400D01*
%TO.C,U4*%
X61673600Y13095400D02*
X61673600Y895400D01*
X61673600Y13095400D02*
X55173600Y13095400D01*
X61673600Y895400D02*
X55173600Y895400D01*
X55173600Y13095400D02*
X55173600Y895400D01*
%TO.C,SW1*%
X12916000Y46915600D02*
X12266000Y46915600D01*
X12266000Y48765600D02*
X12266000Y46915600D01*
X12916000Y41395600D02*
X11647000Y41395600D01*
X10256000Y46915600D02*
X8986000Y46915600D01*
X8986000Y46915600D02*
X8986000Y41395600D01*
X12916000Y46915600D02*
X12916000Y41395600D01*
X10256000Y41395600D02*
X8986000Y41395600D01*
%TO.C,R5*%
X15283500Y43200542D02*
X15283500Y43675058D01*
X14238500Y43200542D02*
X14238500Y43675058D01*
%TO.C,L1*%
X85019400Y40411421D02*
X85019400Y40736979D01*
X83999400Y40411421D02*
X83999400Y40736979D01*
%TO.C,U13*%
X89112200Y27771600D02*
X89512200Y27771600D01*
X89112200Y24471600D02*
X89512200Y24471600D01*
X86612200Y27771600D02*
X86137200Y27771600D01*
X86612200Y24471600D02*
X86212200Y24471600D01*
X86212200Y24471600D02*
X86212200Y24871600D01*
X89512200Y24471600D02*
X89512200Y24871600D01*
X89512200Y27771600D02*
X89512200Y27371600D01*
%TO.C,U12*%
X19375600Y5420600D02*
X19375600Y3220600D01*
X13905600Y5420600D02*
X13905600Y7620600D01*
X19375600Y5420600D02*
X19375600Y7620600D01*
X13905600Y5420600D02*
X13905600Y1820600D01*
%TO.C,U3*%
X88917199Y5286600D02*
X88917199Y20540600D01*
X77790200Y13548600D02*
X77536200Y13548600D01*
X83925200Y5413600D02*
X83925200Y5159600D01*
X77663201Y5286600D02*
X88917199Y5286600D01*
X88917199Y20540600D02*
X77663201Y20540600D01*
X88790200Y13548600D02*
X89044200Y13548600D01*
X83925200Y20413600D02*
X83925200Y20667600D01*
X77790200Y7198600D02*
X77536200Y7198600D01*
X77663201Y20540600D02*
X77663201Y5286600D01*
X88790200Y7198600D02*
X89044200Y7198600D01*
%TO.C,C73*%
X89347220Y29324000D02*
X89628380Y29324000D01*
X89347220Y28304000D02*
X89628380Y28304000D01*
%TO.C,C47*%
X5846780Y3822400D02*
X5565620Y3822400D01*
X5846780Y2802400D02*
X5565620Y2802400D01*
%TO.C,U1*%
X82722600Y27783400D02*
X82032600Y27783400D01*
X82032600Y43553400D02*
X69612600Y43553400D01*
X69612600Y27333400D02*
X69612600Y27783400D01*
X82032600Y43103400D02*
X82032600Y43553400D01*
X82032600Y27333400D02*
X69612600Y27333400D01*
X69612600Y35703400D02*
X69612600Y37383400D01*
X82032600Y35703400D02*
X82032600Y37383400D01*
X82032600Y27333400D02*
X82032600Y27783400D01*
X69612600Y43103400D02*
X69612600Y43543400D01*
%TO.C,D1*%
X18366200Y47977400D02*
X16896200Y47977400D01*
X18366200Y45692400D02*
X18366200Y47977400D01*
X16896200Y47977400D02*
X16896200Y45692400D01*
%TO.C,C49*%
X66385620Y23224000D02*
X66666780Y23224000D01*
X66385620Y24244000D02*
X66666780Y24244000D01*
%TO.C,L2*%
X62001400Y23116000D02*
X60501400Y23116000D01*
X55201400Y23116000D02*
X56701400Y23116000D01*
X55201400Y15716000D02*
X56701400Y15716000D01*
X62001400Y15716000D02*
X62001400Y23116000D01*
X62001400Y15716000D02*
X60501400Y15716000D01*
X55201400Y23116000D02*
X55201400Y15716000D01*
%TO.C,C62*%
X66895380Y29574000D02*
X66614220Y29574000D01*
X66895380Y30594000D02*
X66614220Y30594000D01*
%TO.C,U5*%
X76762400Y4186600D02*
X74962400Y4186600D01*
X76762400Y1066600D02*
X77562400Y1066600D01*
X76762400Y4186600D02*
X77562400Y4186600D01*
X76762400Y1066600D02*
X75962400Y1066600D01*
%TO.C,C17*%
X70867600Y21791780D02*
X70867600Y21510620D01*
X71887600Y21791780D02*
X71887600Y21510620D01*
%TO.C,C68*%
X5859180Y6714000D02*
X5578020Y6714000D01*
X5859180Y7734000D02*
X5578020Y7734000D01*
%TO.C,C23*%
X79249600Y2919580D02*
X79249600Y2638420D01*
X80269600Y2919580D02*
X80269600Y2638420D01*
%TO.C,C21*%
X77170800Y14398620D02*
X77170800Y14679780D01*
X76150800Y14398620D02*
X76150800Y14679780D01*
%TO.C,C45*%
X4689020Y21399200D02*
X4970180Y21399200D01*
X4689020Y20379200D02*
X4970180Y20379200D01*
%TO.C,D2*%
X15496000Y47952000D02*
X14026000Y47952000D01*
X14026000Y47952000D02*
X14026000Y45667000D01*
X15496000Y45667000D02*
X15496000Y47952000D01*
%TO.C,C6*%
X12244400Y32561380D02*
X12244400Y32280220D01*
X13264400Y32561380D02*
X13264400Y32280220D01*
%TO.C,C16*%
X73255200Y2346020D02*
X73255200Y2627180D01*
X74275200Y2346020D02*
X74275200Y2627180D01*
%TO.C,C63*%
X66895380Y32046400D02*
X66614220Y32046400D01*
X66895380Y31026400D02*
X66614220Y31026400D01*
%TO.C,C46*%
X8790000Y31086420D02*
X8790000Y31367580D01*
X9810000Y31086420D02*
X9810000Y31367580D01*
%TO.C,LCD1*%
X23522600Y7943600D02*
X30322600Y7943600D01*
X49922600Y12943600D02*
X49922600Y1943600D01*
X20722600Y943600D02*
X54722600Y943600D01*
X54722600Y47943600D02*
X54722600Y943600D01*
X54722600Y1943600D02*
X20722600Y1943600D01*
X20722600Y943600D02*
X20722600Y47943600D01*
X30322600Y12943600D02*
X49922600Y12943600D01*
X30322600Y7943600D02*
X30322600Y12943600D01*
X20722600Y47943600D02*
X54722600Y47943600D01*
X23522600Y1943600D02*
X23522600Y7943600D01*
%TO.C,C13*%
X56633780Y24544800D02*
X56352620Y24544800D01*
X56633780Y25564800D02*
X56352620Y25564800D01*
%TO.C,C14*%
X56633780Y14617400D02*
X56352620Y14617400D01*
X56633780Y13597400D02*
X56352620Y13597400D01*
%TO.C,C70*%
X92893400Y25804980D02*
X92893400Y25523820D01*
X91873400Y25804980D02*
X91873400Y25523820D01*
%TO.C,J1*%
X93294800Y43161600D02*
X93294800Y39561600D01*
X91214800Y44961600D02*
X88014800Y44961600D01*
X91214800Y37761600D02*
X88014800Y37761600D01*
X86414800Y42661600D02*
X86414800Y40061600D01*
%TO.C,C71*%
X91267800Y25523820D02*
X91267800Y25804980D01*
X90247800Y25523820D02*
X90247800Y25804980D01*
%TD*%
D13*
X16335800Y6737600D03*
X16355411Y4985000D03*
D14*
X76737000Y32928800D03*
X26559300Y42212500D03*
D13*
X36935200Y42479200D03*
D14*
X39290500Y21524200D03*
X30792700Y18328100D03*
X15417650Y27768850D03*
D13*
X37595600Y43469800D03*
D14*
X39518400Y31524200D03*
X15416300Y32524200D03*
X31708200Y33416800D03*
D13*
X13414800Y29169600D03*
X34674600Y42250600D03*
D14*
X33257600Y33416800D03*
X28838000Y33416800D03*
X36534200Y33416800D03*
X39446000Y26524200D03*
X84509400Y29982400D03*
D13*
X13414800Y30719000D03*
D14*
X30158800Y33416800D03*
X21292700Y42152900D03*
D13*
X13414800Y30007800D03*
D14*
X76000400Y41234600D03*
D13*
X13849350Y28588150D03*
D14*
X88700400Y30007800D03*
X15497000Y39024200D03*
X18589900Y18177900D03*
X15396000Y41977800D03*
X39376050Y37960450D03*
X25292700Y18346800D03*
X34934000Y33416800D03*
X13414800Y32573200D03*
X41964400Y31303200D03*
X14202200Y9611600D03*
X31220200Y13523200D03*
X71174400Y42479200D03*
X65002200Y30084000D03*
X49482800Y31379400D03*
X19307600Y16114000D03*
X54842200Y14107400D03*
X43082000Y7097000D03*
X78870600Y42504600D03*
X32795000Y17485600D03*
X40872200Y13675600D03*
X78134000Y37805600D03*
X78134000Y39126400D03*
X9731800Y32649400D03*
X49305000Y38186600D03*
X42751800Y38339000D03*
X36122400Y6919200D03*
X45850600Y31709600D03*
X42294600Y34833800D03*
X64900600Y31557200D03*
X42574000Y26680400D03*
X23651000Y12710400D03*
X6506000Y20863800D03*
X15091200Y37577000D03*
X56112200Y46086000D03*
X64926000Y44993800D03*
X41278600Y9560800D03*
X24209800Y44917600D03*
X40186400Y40142400D03*
X59973000Y44943000D03*
X25784600Y21092400D03*
X36198600Y22057600D03*
X12475000Y47991000D03*
X36681200Y38516800D03*
X66577000Y40980600D03*
X33607800Y44866800D03*
X26318000Y39405800D03*
X41253200Y27417000D03*
X39686940Y24030260D03*
X91215000Y28814000D03*
X43742400Y6563600D03*
X62538400Y9230600D03*
X72393600Y24445200D03*
X43742400Y10094200D03*
X61573200Y14005800D03*
X27664200Y42631600D03*
X70463200Y36053000D03*
X31271000Y21067000D03*
X54918400Y25054800D03*
X56645600Y41006000D03*
X70996600Y27518600D03*
X62538400Y13345400D03*
X39602200Y43342800D03*
X78134000Y40371000D03*
X91291200Y26858200D03*
X46180800Y43596800D03*
X83290200Y40193200D03*
X27384800Y17485600D03*
X32007600Y45324000D03*
X27029200Y8214600D03*
X19028200Y20940000D03*
X66983400Y12837400D03*
X83442600Y42453800D03*
X18266200Y32039800D03*
X45977600Y20152600D03*
X67415200Y24318200D03*
X4042200Y7249400D03*
X4931200Y4353800D03*
X12170200Y7909800D03*
X62411400Y1458200D03*
X36579600Y31709600D03*
X12957600Y2550400D03*
X72774600Y39710600D03*
X18418600Y27391600D03*
X18494800Y38542200D03*
X15218200Y26350200D03*
X41304000Y34173400D03*
X50117800Y41209200D03*
X19841000Y44028600D03*
X33150600Y15758400D03*
X87862200Y26121600D03*
X19739400Y2550400D03*
X14583200Y29169600D03*
X49609800Y46136800D03*
X82579000Y25842200D03*
X32591800Y6995400D03*
X34496800Y6970000D03*
X52708600Y13777200D03*
X61674800Y40955200D03*
X40872200Y8113000D03*
X13186200Y39253400D03*
X38612200Y9866200D03*
X40161000Y10475200D03*
X43526200Y44218800D03*
X56173600Y20264800D03*
X47089000Y20857600D03*
X50673600Y44305000D03*
X61344600Y19212800D03*
X33607800Y9840200D03*
X35309600Y9840200D03*
X31251800Y10608400D03*
X65725800Y23009800D03*
X71453800Y32166800D03*
X31696300Y10163900D03*
X45552300Y26280500D03*
X71453800Y33157400D03*
X70311866Y23455666D03*
X45672800Y39075600D03*
X37037400Y9866200D03*
X34852400Y10576800D03*
X57173600Y44226400D03*
X67173600Y44193400D03*
X35868400Y10602200D03*
X62173600Y44171800D03*
X43526200Y44803000D03*
X37799400Y9866200D03*
X65725800Y20215800D03*
X23638300Y10970500D03*
X40084800Y15402800D03*
X5404343Y22117857D03*
X40389600Y16037800D03*
X4245400Y22870400D03*
X7384400Y3348400D03*
X5963389Y22598889D03*
X40084800Y14615400D03*
X4706220Y23501780D03*
X25479800Y10805400D03*
X4655950Y21291450D03*
X4245400Y20880900D03*
X26140200Y10805400D03*
X24260600Y10805400D03*
X4245400Y21803600D03*
X72901600Y1686800D03*
X74339200Y1676600D03*
X71123600Y1686800D03*
X77041800Y12405600D03*
X69548800Y937300D03*
X85246000Y3003800D03*
X80013600Y17460200D03*
X87760600Y5319000D03*
X85246000Y4019800D03*
X86338200Y17434800D03*
X74171600Y6843000D03*
X69320200Y11872200D03*
X88675000Y9078200D03*
X82452000Y15707600D03*
X87125600Y14894800D03*
X88471800Y17536400D03*
X80039000Y6639800D03*
X72063400Y4404600D03*
X85246000Y1987800D03*
X73765200Y4277600D03*
X85246000Y971800D03*
X71911000Y12151600D03*
X88802000Y12202400D03*
X70437800Y9179800D03*
D13*
X83785500Y6144500D03*
X87074800Y16088600D03*
X82680600Y9129000D03*
X84052200Y9002000D03*
X84598300Y14221700D03*
X78375300Y10208500D03*
X45926800Y42047400D03*
X46384000Y35849800D03*
D14*
X48289000Y45044600D03*
X15853200Y46924200D03*
D13*
X39627600Y46822600D03*
X41278600Y47432200D03*
D14*
X52734000Y16850600D03*
X52657800Y20076400D03*
D13*
X13211600Y9662400D03*
X14329200Y3363200D03*
X66958000Y34122600D03*
X67491400Y33055800D03*
X46815800Y10272000D03*
X46155400Y9738600D03*
X45342600Y10297400D03*
X44860000Y9713200D03*
X54156400Y18323800D03*
X54114100Y20203400D03*
X51159200Y20051000D03*
X47374600Y16495000D03*
X62335200Y7884400D03*
X61090600Y7808200D03*
X60455600Y7427200D03*
X70361600Y5344400D03*
X84712600Y7960600D03*
X80877200Y11770600D03*
X71453800Y8824200D03*
X70463200Y7884400D03*
X80902600Y10500600D03*
X62970200Y19695400D03*
X60912800Y18450800D03*
X62944800Y17180800D03*
X81994800Y10399000D03*
X70717200Y17180800D03*
X84534800Y11669000D03*
X70590200Y18450800D03*
X84534800Y10399000D03*
X73206400Y17714200D03*
X42320000Y23480000D03*
X49305000Y23937200D03*
X45622000Y24597600D03*
X45520400Y25461200D03*
X64214800Y27061400D03*
X65992800Y26045400D03*
D14*
X17809000Y15910800D03*
D13*
X64011600Y24978600D03*
X16869200Y4226800D03*
X14888000Y4480800D03*
D14*
X19536200Y17993600D03*
D13*
X63986200Y24089600D03*
X86439800Y32344600D03*
X43361400Y24216600D03*
X18291600Y9103600D03*
X16310400Y9103600D03*
X17656600Y12202400D03*
X17656600Y3693400D03*
X16225100Y10805400D03*
X15700800Y3668000D03*
X85576200Y33259000D03*
X87100200Y31531800D03*
D15*
X10297200Y25298400D03*
X6314400Y42697400D03*
X6314400Y40697400D03*
X6314400Y38697400D03*
X6314400Y36697400D03*
X6314400Y34697400D03*
X6314400Y32697400D03*
X6314400Y30697400D03*
X6314400Y28697400D03*
X56373600Y10895400D03*
X56373600Y8355400D03*
X56373600Y5815400D03*
X56373600Y3275400D03*
X89614800Y41361600D03*
X92154800Y43901600D03*
X87074800Y43901600D03*
X92154800Y38821600D03*
X87074800Y38821600D03*
M02*
