%TF.GenerationSoftware,KiCad,Pcbnew,(5.1.10)-1*%
%TF.CreationDate,2021-12-05T20:13:46+08:00*%
%TF.ProjectId,project,70726f6a-6563-4742-9e6b-696361645f70,1.0.1*%
%TF.SameCoordinates,Original*%
%TF.FileFunction,Soldermask,Bot*%
%TF.FilePolarity,Negative*%
%FSLAX46Y46*%
G04 Gerber Fmt 4.6, Leading zero omitted, Abs format (unit mm)*
G04 Created by KiCad (PCBNEW (5.1.10)-1) date 2021-12-05 20:13:46*
%MOMM*%
%LPD*%
G01*
G04 APERTURE LIST*
%ADD10O,1.700000X1.700000*%
%ADD11R,1.700000X1.700000*%
%ADD12R,1.200000X1.400000*%
%ADD13R,1.060000X0.400000*%
%ADD14R,1.205000X1.550000*%
%ADD15R,1.910000X0.610000*%
%ADD16R,0.900000X0.800000*%
%ADD17R,1.060000X0.650000*%
%ADD18R,0.800000X0.900000*%
%ADD19R,5.800000X6.400000*%
%ADD20R,1.200000X2.200000*%
%ADD21C,4.500000*%
%ADD22R,2.700000X3.600000*%
%ADD23C,3.500000*%
%ADD24R,3.500000X3.500000*%
%ADD25C,1.400000*%
%ADD26C,2.250000*%
%ADD27R,1.000000X0.950000*%
%ADD28R,4.900000X3.200000*%
G04 APERTURE END LIST*
%TO.C,C58*%
G36*
G01*
X153850000Y-74100000D02*
X153350000Y-74100000D01*
G75*
G02*
X153125000Y-73875000I0J225000D01*
G01*
X153125000Y-73425000D01*
G75*
G02*
X153350000Y-73200000I225000J0D01*
G01*
X153850000Y-73200000D01*
G75*
G02*
X154075000Y-73425000I0J-225000D01*
G01*
X154075000Y-73875000D01*
G75*
G02*
X153850000Y-74100000I-225000J0D01*
G01*
G37*
G36*
G01*
X153850000Y-75650000D02*
X153350000Y-75650000D01*
G75*
G02*
X153125000Y-75425000I0J225000D01*
G01*
X153125000Y-74975000D01*
G75*
G02*
X153350000Y-74750000I225000J0D01*
G01*
X153850000Y-74750000D01*
G75*
G02*
X154075000Y-74975000I0J-225000D01*
G01*
X154075000Y-75425000D01*
G75*
G02*
X153850000Y-75650000I-225000J0D01*
G01*
G37*
%TD*%
%TO.C,C56*%
G36*
G01*
X170250000Y-101800000D02*
X170750000Y-101800000D01*
G75*
G02*
X170975000Y-102025000I0J-225000D01*
G01*
X170975000Y-102475000D01*
G75*
G02*
X170750000Y-102700000I-225000J0D01*
G01*
X170250000Y-102700000D01*
G75*
G02*
X170025000Y-102475000I0J225000D01*
G01*
X170025000Y-102025000D01*
G75*
G02*
X170250000Y-101800000I225000J0D01*
G01*
G37*
G36*
G01*
X170250000Y-100250000D02*
X170750000Y-100250000D01*
G75*
G02*
X170975000Y-100475000I0J-225000D01*
G01*
X170975000Y-100925000D01*
G75*
G02*
X170750000Y-101150000I-225000J0D01*
G01*
X170250000Y-101150000D01*
G75*
G02*
X170025000Y-100925000I0J225000D01*
G01*
X170025000Y-100475000D01*
G75*
G02*
X170250000Y-100250000I225000J0D01*
G01*
G37*
%TD*%
%TO.C,C54*%
G36*
G01*
X183450000Y-82950000D02*
X182950000Y-82950000D01*
G75*
G02*
X182725000Y-82725000I0J225000D01*
G01*
X182725000Y-82275000D01*
G75*
G02*
X182950000Y-82050000I225000J0D01*
G01*
X183450000Y-82050000D01*
G75*
G02*
X183675000Y-82275000I0J-225000D01*
G01*
X183675000Y-82725000D01*
G75*
G02*
X183450000Y-82950000I-225000J0D01*
G01*
G37*
G36*
G01*
X183450000Y-84500000D02*
X182950000Y-84500000D01*
G75*
G02*
X182725000Y-84275000I0J225000D01*
G01*
X182725000Y-83825000D01*
G75*
G02*
X182950000Y-83600000I225000J0D01*
G01*
X183450000Y-83600000D01*
G75*
G02*
X183675000Y-83825000I0J-225000D01*
G01*
X183675000Y-84275000D01*
G75*
G02*
X183450000Y-84500000I-225000J0D01*
G01*
G37*
%TD*%
%TO.C,C53*%
G36*
G01*
X183550000Y-88450000D02*
X183050000Y-88450000D01*
G75*
G02*
X182825000Y-88225000I0J225000D01*
G01*
X182825000Y-87775000D01*
G75*
G02*
X183050000Y-87550000I225000J0D01*
G01*
X183550000Y-87550000D01*
G75*
G02*
X183775000Y-87775000I0J-225000D01*
G01*
X183775000Y-88225000D01*
G75*
G02*
X183550000Y-88450000I-225000J0D01*
G01*
G37*
G36*
G01*
X183550000Y-90000000D02*
X183050000Y-90000000D01*
G75*
G02*
X182825000Y-89775000I0J225000D01*
G01*
X182825000Y-89325000D01*
G75*
G02*
X183050000Y-89100000I225000J0D01*
G01*
X183550000Y-89100000D01*
G75*
G02*
X183775000Y-89325000I0J-225000D01*
G01*
X183775000Y-89775000D01*
G75*
G02*
X183550000Y-90000000I-225000J0D01*
G01*
G37*
%TD*%
%TO.C,C51*%
G36*
G01*
X149150000Y-104275000D02*
X149150000Y-103325000D01*
G75*
G02*
X149400000Y-103075000I250000J0D01*
G01*
X149900000Y-103075000D01*
G75*
G02*
X150150000Y-103325000I0J-250000D01*
G01*
X150150000Y-104275000D01*
G75*
G02*
X149900000Y-104525000I-250000J0D01*
G01*
X149400000Y-104525000D01*
G75*
G02*
X149150000Y-104275000I0J250000D01*
G01*
G37*
G36*
G01*
X147250000Y-104275000D02*
X147250000Y-103325000D01*
G75*
G02*
X147500000Y-103075000I250000J0D01*
G01*
X148000000Y-103075000D01*
G75*
G02*
X148250000Y-103325000I0J-250000D01*
G01*
X148250000Y-104275000D01*
G75*
G02*
X148000000Y-104525000I-250000J0D01*
G01*
X147500000Y-104525000D01*
G75*
G02*
X147250000Y-104275000I0J250000D01*
G01*
G37*
%TD*%
D10*
%TO.C,J5*%
X192900000Y-81080000D03*
X192900000Y-78540000D03*
D11*
X192900000Y-76000000D03*
%TD*%
D12*
%TO.C,Y1*%
X155650000Y-83900000D03*
X155650000Y-86100000D03*
X157350000Y-86100000D03*
X157350000Y-83900000D03*
%TD*%
%TO.C,U12*%
G36*
G01*
X142175000Y-108625000D02*
X142175000Y-108825000D01*
G75*
G02*
X142075000Y-108925000I-100000J0D01*
G01*
X140800000Y-108925000D01*
G75*
G02*
X140700000Y-108825000I0J100000D01*
G01*
X140700000Y-108625000D01*
G75*
G02*
X140800000Y-108525000I100000J0D01*
G01*
X142075000Y-108525000D01*
G75*
G02*
X142175000Y-108625000I0J-100000D01*
G01*
G37*
G36*
G01*
X142175000Y-109275000D02*
X142175000Y-109475000D01*
G75*
G02*
X142075000Y-109575000I-100000J0D01*
G01*
X140800000Y-109575000D01*
G75*
G02*
X140700000Y-109475000I0J100000D01*
G01*
X140700000Y-109275000D01*
G75*
G02*
X140800000Y-109175000I100000J0D01*
G01*
X142075000Y-109175000D01*
G75*
G02*
X142175000Y-109275000I0J-100000D01*
G01*
G37*
G36*
G01*
X142175000Y-109925000D02*
X142175000Y-110125000D01*
G75*
G02*
X142075000Y-110225000I-100000J0D01*
G01*
X140800000Y-110225000D01*
G75*
G02*
X140700000Y-110125000I0J100000D01*
G01*
X140700000Y-109925000D01*
G75*
G02*
X140800000Y-109825000I100000J0D01*
G01*
X142075000Y-109825000D01*
G75*
G02*
X142175000Y-109925000I0J-100000D01*
G01*
G37*
G36*
G01*
X142175000Y-110575000D02*
X142175000Y-110775000D01*
G75*
G02*
X142075000Y-110875000I-100000J0D01*
G01*
X140800000Y-110875000D01*
G75*
G02*
X140700000Y-110775000I0J100000D01*
G01*
X140700000Y-110575000D01*
G75*
G02*
X140800000Y-110475000I100000J0D01*
G01*
X142075000Y-110475000D01*
G75*
G02*
X142175000Y-110575000I0J-100000D01*
G01*
G37*
G36*
G01*
X142175000Y-111225000D02*
X142175000Y-111425000D01*
G75*
G02*
X142075000Y-111525000I-100000J0D01*
G01*
X140800000Y-111525000D01*
G75*
G02*
X140700000Y-111425000I0J100000D01*
G01*
X140700000Y-111225000D01*
G75*
G02*
X140800000Y-111125000I100000J0D01*
G01*
X142075000Y-111125000D01*
G75*
G02*
X142175000Y-111225000I0J-100000D01*
G01*
G37*
G36*
G01*
X142175000Y-111875000D02*
X142175000Y-112075000D01*
G75*
G02*
X142075000Y-112175000I-100000J0D01*
G01*
X140800000Y-112175000D01*
G75*
G02*
X140700000Y-112075000I0J100000D01*
G01*
X140700000Y-111875000D01*
G75*
G02*
X140800000Y-111775000I100000J0D01*
G01*
X142075000Y-111775000D01*
G75*
G02*
X142175000Y-111875000I0J-100000D01*
G01*
G37*
G36*
G01*
X142175000Y-112525000D02*
X142175000Y-112725000D01*
G75*
G02*
X142075000Y-112825000I-100000J0D01*
G01*
X140800000Y-112825000D01*
G75*
G02*
X140700000Y-112725000I0J100000D01*
G01*
X140700000Y-112525000D01*
G75*
G02*
X140800000Y-112425000I100000J0D01*
G01*
X142075000Y-112425000D01*
G75*
G02*
X142175000Y-112525000I0J-100000D01*
G01*
G37*
G36*
G01*
X142175000Y-113175000D02*
X142175000Y-113375000D01*
G75*
G02*
X142075000Y-113475000I-100000J0D01*
G01*
X140800000Y-113475000D01*
G75*
G02*
X140700000Y-113375000I0J100000D01*
G01*
X140700000Y-113175000D01*
G75*
G02*
X140800000Y-113075000I100000J0D01*
G01*
X142075000Y-113075000D01*
G75*
G02*
X142175000Y-113175000I0J-100000D01*
G01*
G37*
G36*
G01*
X147900000Y-113175000D02*
X147900000Y-113375000D01*
G75*
G02*
X147800000Y-113475000I-100000J0D01*
G01*
X146525000Y-113475000D01*
G75*
G02*
X146425000Y-113375000I0J100000D01*
G01*
X146425000Y-113175000D01*
G75*
G02*
X146525000Y-113075000I100000J0D01*
G01*
X147800000Y-113075000D01*
G75*
G02*
X147900000Y-113175000I0J-100000D01*
G01*
G37*
G36*
G01*
X147900000Y-112525000D02*
X147900000Y-112725000D01*
G75*
G02*
X147800000Y-112825000I-100000J0D01*
G01*
X146525000Y-112825000D01*
G75*
G02*
X146425000Y-112725000I0J100000D01*
G01*
X146425000Y-112525000D01*
G75*
G02*
X146525000Y-112425000I100000J0D01*
G01*
X147800000Y-112425000D01*
G75*
G02*
X147900000Y-112525000I0J-100000D01*
G01*
G37*
G36*
G01*
X147900000Y-111875000D02*
X147900000Y-112075000D01*
G75*
G02*
X147800000Y-112175000I-100000J0D01*
G01*
X146525000Y-112175000D01*
G75*
G02*
X146425000Y-112075000I0J100000D01*
G01*
X146425000Y-111875000D01*
G75*
G02*
X146525000Y-111775000I100000J0D01*
G01*
X147800000Y-111775000D01*
G75*
G02*
X147900000Y-111875000I0J-100000D01*
G01*
G37*
G36*
G01*
X147900000Y-111225000D02*
X147900000Y-111425000D01*
G75*
G02*
X147800000Y-111525000I-100000J0D01*
G01*
X146525000Y-111525000D01*
G75*
G02*
X146425000Y-111425000I0J100000D01*
G01*
X146425000Y-111225000D01*
G75*
G02*
X146525000Y-111125000I100000J0D01*
G01*
X147800000Y-111125000D01*
G75*
G02*
X147900000Y-111225000I0J-100000D01*
G01*
G37*
G36*
G01*
X147900000Y-110575000D02*
X147900000Y-110775000D01*
G75*
G02*
X147800000Y-110875000I-100000J0D01*
G01*
X146525000Y-110875000D01*
G75*
G02*
X146425000Y-110775000I0J100000D01*
G01*
X146425000Y-110575000D01*
G75*
G02*
X146525000Y-110475000I100000J0D01*
G01*
X147800000Y-110475000D01*
G75*
G02*
X147900000Y-110575000I0J-100000D01*
G01*
G37*
G36*
G01*
X147900000Y-109925000D02*
X147900000Y-110125000D01*
G75*
G02*
X147800000Y-110225000I-100000J0D01*
G01*
X146525000Y-110225000D01*
G75*
G02*
X146425000Y-110125000I0J100000D01*
G01*
X146425000Y-109925000D01*
G75*
G02*
X146525000Y-109825000I100000J0D01*
G01*
X147800000Y-109825000D01*
G75*
G02*
X147900000Y-109925000I0J-100000D01*
G01*
G37*
G36*
G01*
X147900000Y-109275000D02*
X147900000Y-109475000D01*
G75*
G02*
X147800000Y-109575000I-100000J0D01*
G01*
X146525000Y-109575000D01*
G75*
G02*
X146425000Y-109475000I0J100000D01*
G01*
X146425000Y-109275000D01*
G75*
G02*
X146525000Y-109175000I100000J0D01*
G01*
X147800000Y-109175000D01*
G75*
G02*
X147900000Y-109275000I0J-100000D01*
G01*
G37*
G36*
G01*
X147900000Y-108625000D02*
X147900000Y-108825000D01*
G75*
G02*
X147800000Y-108925000I-100000J0D01*
G01*
X146525000Y-108925000D01*
G75*
G02*
X146425000Y-108825000I0J100000D01*
G01*
X146425000Y-108625000D01*
G75*
G02*
X146525000Y-108525000I100000J0D01*
G01*
X147800000Y-108525000D01*
G75*
G02*
X147900000Y-108625000I0J-100000D01*
G01*
G37*
%TD*%
D11*
%TO.C,U7*%
X161700000Y-108820000D03*
D10*
X161700000Y-111360000D03*
X161700000Y-113900000D03*
X161700000Y-116440000D03*
%TD*%
%TO.C,U5*%
G36*
G01*
X161500000Y-98625000D02*
X161500000Y-97300000D01*
G75*
G02*
X161575000Y-97225000I75000J0D01*
G01*
X161725000Y-97225000D01*
G75*
G02*
X161800000Y-97300000I0J-75000D01*
G01*
X161800000Y-98625000D01*
G75*
G02*
X161725000Y-98700000I-75000J0D01*
G01*
X161575000Y-98700000D01*
G75*
G02*
X161500000Y-98625000I0J75000D01*
G01*
G37*
G36*
G01*
X162000000Y-98625000D02*
X162000000Y-97300000D01*
G75*
G02*
X162075000Y-97225000I75000J0D01*
G01*
X162225000Y-97225000D01*
G75*
G02*
X162300000Y-97300000I0J-75000D01*
G01*
X162300000Y-98625000D01*
G75*
G02*
X162225000Y-98700000I-75000J0D01*
G01*
X162075000Y-98700000D01*
G75*
G02*
X162000000Y-98625000I0J75000D01*
G01*
G37*
G36*
G01*
X162500000Y-98625000D02*
X162500000Y-97300000D01*
G75*
G02*
X162575000Y-97225000I75000J0D01*
G01*
X162725000Y-97225000D01*
G75*
G02*
X162800000Y-97300000I0J-75000D01*
G01*
X162800000Y-98625000D01*
G75*
G02*
X162725000Y-98700000I-75000J0D01*
G01*
X162575000Y-98700000D01*
G75*
G02*
X162500000Y-98625000I0J75000D01*
G01*
G37*
G36*
G01*
X163000000Y-98625000D02*
X163000000Y-97300000D01*
G75*
G02*
X163075000Y-97225000I75000J0D01*
G01*
X163225000Y-97225000D01*
G75*
G02*
X163300000Y-97300000I0J-75000D01*
G01*
X163300000Y-98625000D01*
G75*
G02*
X163225000Y-98700000I-75000J0D01*
G01*
X163075000Y-98700000D01*
G75*
G02*
X163000000Y-98625000I0J75000D01*
G01*
G37*
G36*
G01*
X163500000Y-98625000D02*
X163500000Y-97300000D01*
G75*
G02*
X163575000Y-97225000I75000J0D01*
G01*
X163725000Y-97225000D01*
G75*
G02*
X163800000Y-97300000I0J-75000D01*
G01*
X163800000Y-98625000D01*
G75*
G02*
X163725000Y-98700000I-75000J0D01*
G01*
X163575000Y-98700000D01*
G75*
G02*
X163500000Y-98625000I0J75000D01*
G01*
G37*
G36*
G01*
X164000000Y-98625000D02*
X164000000Y-97300000D01*
G75*
G02*
X164075000Y-97225000I75000J0D01*
G01*
X164225000Y-97225000D01*
G75*
G02*
X164300000Y-97300000I0J-75000D01*
G01*
X164300000Y-98625000D01*
G75*
G02*
X164225000Y-98700000I-75000J0D01*
G01*
X164075000Y-98700000D01*
G75*
G02*
X164000000Y-98625000I0J75000D01*
G01*
G37*
G36*
G01*
X164500000Y-98625000D02*
X164500000Y-97300000D01*
G75*
G02*
X164575000Y-97225000I75000J0D01*
G01*
X164725000Y-97225000D01*
G75*
G02*
X164800000Y-97300000I0J-75000D01*
G01*
X164800000Y-98625000D01*
G75*
G02*
X164725000Y-98700000I-75000J0D01*
G01*
X164575000Y-98700000D01*
G75*
G02*
X164500000Y-98625000I0J75000D01*
G01*
G37*
G36*
G01*
X165000000Y-98625000D02*
X165000000Y-97300000D01*
G75*
G02*
X165075000Y-97225000I75000J0D01*
G01*
X165225000Y-97225000D01*
G75*
G02*
X165300000Y-97300000I0J-75000D01*
G01*
X165300000Y-98625000D01*
G75*
G02*
X165225000Y-98700000I-75000J0D01*
G01*
X165075000Y-98700000D01*
G75*
G02*
X165000000Y-98625000I0J75000D01*
G01*
G37*
G36*
G01*
X165500000Y-98625000D02*
X165500000Y-97300000D01*
G75*
G02*
X165575000Y-97225000I75000J0D01*
G01*
X165725000Y-97225000D01*
G75*
G02*
X165800000Y-97300000I0J-75000D01*
G01*
X165800000Y-98625000D01*
G75*
G02*
X165725000Y-98700000I-75000J0D01*
G01*
X165575000Y-98700000D01*
G75*
G02*
X165500000Y-98625000I0J75000D01*
G01*
G37*
G36*
G01*
X166000000Y-98625000D02*
X166000000Y-97300000D01*
G75*
G02*
X166075000Y-97225000I75000J0D01*
G01*
X166225000Y-97225000D01*
G75*
G02*
X166300000Y-97300000I0J-75000D01*
G01*
X166300000Y-98625000D01*
G75*
G02*
X166225000Y-98700000I-75000J0D01*
G01*
X166075000Y-98700000D01*
G75*
G02*
X166000000Y-98625000I0J75000D01*
G01*
G37*
G36*
G01*
X166500000Y-98625000D02*
X166500000Y-97300000D01*
G75*
G02*
X166575000Y-97225000I75000J0D01*
G01*
X166725000Y-97225000D01*
G75*
G02*
X166800000Y-97300000I0J-75000D01*
G01*
X166800000Y-98625000D01*
G75*
G02*
X166725000Y-98700000I-75000J0D01*
G01*
X166575000Y-98700000D01*
G75*
G02*
X166500000Y-98625000I0J75000D01*
G01*
G37*
G36*
G01*
X167000000Y-98625000D02*
X167000000Y-97300000D01*
G75*
G02*
X167075000Y-97225000I75000J0D01*
G01*
X167225000Y-97225000D01*
G75*
G02*
X167300000Y-97300000I0J-75000D01*
G01*
X167300000Y-98625000D01*
G75*
G02*
X167225000Y-98700000I-75000J0D01*
G01*
X167075000Y-98700000D01*
G75*
G02*
X167000000Y-98625000I0J75000D01*
G01*
G37*
G36*
G01*
X167500000Y-98625000D02*
X167500000Y-97300000D01*
G75*
G02*
X167575000Y-97225000I75000J0D01*
G01*
X167725000Y-97225000D01*
G75*
G02*
X167800000Y-97300000I0J-75000D01*
G01*
X167800000Y-98625000D01*
G75*
G02*
X167725000Y-98700000I-75000J0D01*
G01*
X167575000Y-98700000D01*
G75*
G02*
X167500000Y-98625000I0J75000D01*
G01*
G37*
G36*
G01*
X168000000Y-98625000D02*
X168000000Y-97300000D01*
G75*
G02*
X168075000Y-97225000I75000J0D01*
G01*
X168225000Y-97225000D01*
G75*
G02*
X168300000Y-97300000I0J-75000D01*
G01*
X168300000Y-98625000D01*
G75*
G02*
X168225000Y-98700000I-75000J0D01*
G01*
X168075000Y-98700000D01*
G75*
G02*
X168000000Y-98625000I0J75000D01*
G01*
G37*
G36*
G01*
X168500000Y-98625000D02*
X168500000Y-97300000D01*
G75*
G02*
X168575000Y-97225000I75000J0D01*
G01*
X168725000Y-97225000D01*
G75*
G02*
X168800000Y-97300000I0J-75000D01*
G01*
X168800000Y-98625000D01*
G75*
G02*
X168725000Y-98700000I-75000J0D01*
G01*
X168575000Y-98700000D01*
G75*
G02*
X168500000Y-98625000I0J75000D01*
G01*
G37*
G36*
G01*
X169000000Y-98625000D02*
X169000000Y-97300000D01*
G75*
G02*
X169075000Y-97225000I75000J0D01*
G01*
X169225000Y-97225000D01*
G75*
G02*
X169300000Y-97300000I0J-75000D01*
G01*
X169300000Y-98625000D01*
G75*
G02*
X169225000Y-98700000I-75000J0D01*
G01*
X169075000Y-98700000D01*
G75*
G02*
X169000000Y-98625000I0J75000D01*
G01*
G37*
G36*
G01*
X169500000Y-98625000D02*
X169500000Y-97300000D01*
G75*
G02*
X169575000Y-97225000I75000J0D01*
G01*
X169725000Y-97225000D01*
G75*
G02*
X169800000Y-97300000I0J-75000D01*
G01*
X169800000Y-98625000D01*
G75*
G02*
X169725000Y-98700000I-75000J0D01*
G01*
X169575000Y-98700000D01*
G75*
G02*
X169500000Y-98625000I0J75000D01*
G01*
G37*
G36*
G01*
X170000000Y-98625000D02*
X170000000Y-97300000D01*
G75*
G02*
X170075000Y-97225000I75000J0D01*
G01*
X170225000Y-97225000D01*
G75*
G02*
X170300000Y-97300000I0J-75000D01*
G01*
X170300000Y-98625000D01*
G75*
G02*
X170225000Y-98700000I-75000J0D01*
G01*
X170075000Y-98700000D01*
G75*
G02*
X170000000Y-98625000I0J75000D01*
G01*
G37*
G36*
G01*
X170500000Y-98625000D02*
X170500000Y-97300000D01*
G75*
G02*
X170575000Y-97225000I75000J0D01*
G01*
X170725000Y-97225000D01*
G75*
G02*
X170800000Y-97300000I0J-75000D01*
G01*
X170800000Y-98625000D01*
G75*
G02*
X170725000Y-98700000I-75000J0D01*
G01*
X170575000Y-98700000D01*
G75*
G02*
X170500000Y-98625000I0J75000D01*
G01*
G37*
G36*
G01*
X171000000Y-98625000D02*
X171000000Y-97300000D01*
G75*
G02*
X171075000Y-97225000I75000J0D01*
G01*
X171225000Y-97225000D01*
G75*
G02*
X171300000Y-97300000I0J-75000D01*
G01*
X171300000Y-98625000D01*
G75*
G02*
X171225000Y-98700000I-75000J0D01*
G01*
X171075000Y-98700000D01*
G75*
G02*
X171000000Y-98625000I0J75000D01*
G01*
G37*
G36*
G01*
X171500000Y-98625000D02*
X171500000Y-97300000D01*
G75*
G02*
X171575000Y-97225000I75000J0D01*
G01*
X171725000Y-97225000D01*
G75*
G02*
X171800000Y-97300000I0J-75000D01*
G01*
X171800000Y-98625000D01*
G75*
G02*
X171725000Y-98700000I-75000J0D01*
G01*
X171575000Y-98700000D01*
G75*
G02*
X171500000Y-98625000I0J75000D01*
G01*
G37*
G36*
G01*
X172000000Y-98625000D02*
X172000000Y-97300000D01*
G75*
G02*
X172075000Y-97225000I75000J0D01*
G01*
X172225000Y-97225000D01*
G75*
G02*
X172300000Y-97300000I0J-75000D01*
G01*
X172300000Y-98625000D01*
G75*
G02*
X172225000Y-98700000I-75000J0D01*
G01*
X172075000Y-98700000D01*
G75*
G02*
X172000000Y-98625000I0J75000D01*
G01*
G37*
G36*
G01*
X172500000Y-98625000D02*
X172500000Y-97300000D01*
G75*
G02*
X172575000Y-97225000I75000J0D01*
G01*
X172725000Y-97225000D01*
G75*
G02*
X172800000Y-97300000I0J-75000D01*
G01*
X172800000Y-98625000D01*
G75*
G02*
X172725000Y-98700000I-75000J0D01*
G01*
X172575000Y-98700000D01*
G75*
G02*
X172500000Y-98625000I0J75000D01*
G01*
G37*
G36*
G01*
X173000000Y-98625000D02*
X173000000Y-97300000D01*
G75*
G02*
X173075000Y-97225000I75000J0D01*
G01*
X173225000Y-97225000D01*
G75*
G02*
X173300000Y-97300000I0J-75000D01*
G01*
X173300000Y-98625000D01*
G75*
G02*
X173225000Y-98700000I-75000J0D01*
G01*
X173075000Y-98700000D01*
G75*
G02*
X173000000Y-98625000I0J75000D01*
G01*
G37*
G36*
G01*
X173500000Y-98625000D02*
X173500000Y-97300000D01*
G75*
G02*
X173575000Y-97225000I75000J0D01*
G01*
X173725000Y-97225000D01*
G75*
G02*
X173800000Y-97300000I0J-75000D01*
G01*
X173800000Y-98625000D01*
G75*
G02*
X173725000Y-98700000I-75000J0D01*
G01*
X173575000Y-98700000D01*
G75*
G02*
X173500000Y-98625000I0J75000D01*
G01*
G37*
G36*
G01*
X174000000Y-98625000D02*
X174000000Y-97300000D01*
G75*
G02*
X174075000Y-97225000I75000J0D01*
G01*
X174225000Y-97225000D01*
G75*
G02*
X174300000Y-97300000I0J-75000D01*
G01*
X174300000Y-98625000D01*
G75*
G02*
X174225000Y-98700000I-75000J0D01*
G01*
X174075000Y-98700000D01*
G75*
G02*
X174000000Y-98625000I0J75000D01*
G01*
G37*
G36*
G01*
X174500000Y-98625000D02*
X174500000Y-97300000D01*
G75*
G02*
X174575000Y-97225000I75000J0D01*
G01*
X174725000Y-97225000D01*
G75*
G02*
X174800000Y-97300000I0J-75000D01*
G01*
X174800000Y-98625000D01*
G75*
G02*
X174725000Y-98700000I-75000J0D01*
G01*
X174575000Y-98700000D01*
G75*
G02*
X174500000Y-98625000I0J75000D01*
G01*
G37*
G36*
G01*
X175000000Y-98625000D02*
X175000000Y-97300000D01*
G75*
G02*
X175075000Y-97225000I75000J0D01*
G01*
X175225000Y-97225000D01*
G75*
G02*
X175300000Y-97300000I0J-75000D01*
G01*
X175300000Y-98625000D01*
G75*
G02*
X175225000Y-98700000I-75000J0D01*
G01*
X175075000Y-98700000D01*
G75*
G02*
X175000000Y-98625000I0J75000D01*
G01*
G37*
G36*
G01*
X175500000Y-98625000D02*
X175500000Y-97300000D01*
G75*
G02*
X175575000Y-97225000I75000J0D01*
G01*
X175725000Y-97225000D01*
G75*
G02*
X175800000Y-97300000I0J-75000D01*
G01*
X175800000Y-98625000D01*
G75*
G02*
X175725000Y-98700000I-75000J0D01*
G01*
X175575000Y-98700000D01*
G75*
G02*
X175500000Y-98625000I0J75000D01*
G01*
G37*
G36*
G01*
X176000000Y-98625000D02*
X176000000Y-97300000D01*
G75*
G02*
X176075000Y-97225000I75000J0D01*
G01*
X176225000Y-97225000D01*
G75*
G02*
X176300000Y-97300000I0J-75000D01*
G01*
X176300000Y-98625000D01*
G75*
G02*
X176225000Y-98700000I-75000J0D01*
G01*
X176075000Y-98700000D01*
G75*
G02*
X176000000Y-98625000I0J75000D01*
G01*
G37*
G36*
G01*
X176500000Y-98625000D02*
X176500000Y-97300000D01*
G75*
G02*
X176575000Y-97225000I75000J0D01*
G01*
X176725000Y-97225000D01*
G75*
G02*
X176800000Y-97300000I0J-75000D01*
G01*
X176800000Y-98625000D01*
G75*
G02*
X176725000Y-98700000I-75000J0D01*
G01*
X176575000Y-98700000D01*
G75*
G02*
X176500000Y-98625000I0J75000D01*
G01*
G37*
G36*
G01*
X177000000Y-98625000D02*
X177000000Y-97300000D01*
G75*
G02*
X177075000Y-97225000I75000J0D01*
G01*
X177225000Y-97225000D01*
G75*
G02*
X177300000Y-97300000I0J-75000D01*
G01*
X177300000Y-98625000D01*
G75*
G02*
X177225000Y-98700000I-75000J0D01*
G01*
X177075000Y-98700000D01*
G75*
G02*
X177000000Y-98625000I0J75000D01*
G01*
G37*
G36*
G01*
X177500000Y-98625000D02*
X177500000Y-97300000D01*
G75*
G02*
X177575000Y-97225000I75000J0D01*
G01*
X177725000Y-97225000D01*
G75*
G02*
X177800000Y-97300000I0J-75000D01*
G01*
X177800000Y-98625000D01*
G75*
G02*
X177725000Y-98700000I-75000J0D01*
G01*
X177575000Y-98700000D01*
G75*
G02*
X177500000Y-98625000I0J75000D01*
G01*
G37*
G36*
G01*
X178000000Y-98625000D02*
X178000000Y-97300000D01*
G75*
G02*
X178075000Y-97225000I75000J0D01*
G01*
X178225000Y-97225000D01*
G75*
G02*
X178300000Y-97300000I0J-75000D01*
G01*
X178300000Y-98625000D01*
G75*
G02*
X178225000Y-98700000I-75000J0D01*
G01*
X178075000Y-98700000D01*
G75*
G02*
X178000000Y-98625000I0J75000D01*
G01*
G37*
G36*
G01*
X178500000Y-98625000D02*
X178500000Y-97300000D01*
G75*
G02*
X178575000Y-97225000I75000J0D01*
G01*
X178725000Y-97225000D01*
G75*
G02*
X178800000Y-97300000I0J-75000D01*
G01*
X178800000Y-98625000D01*
G75*
G02*
X178725000Y-98700000I-75000J0D01*
G01*
X178575000Y-98700000D01*
G75*
G02*
X178500000Y-98625000I0J75000D01*
G01*
G37*
G36*
G01*
X179000000Y-98625000D02*
X179000000Y-97300000D01*
G75*
G02*
X179075000Y-97225000I75000J0D01*
G01*
X179225000Y-97225000D01*
G75*
G02*
X179300000Y-97300000I0J-75000D01*
G01*
X179300000Y-98625000D01*
G75*
G02*
X179225000Y-98700000I-75000J0D01*
G01*
X179075000Y-98700000D01*
G75*
G02*
X179000000Y-98625000I0J75000D01*
G01*
G37*
G36*
G01*
X180325000Y-96125000D02*
X180325000Y-95975000D01*
G75*
G02*
X180400000Y-95900000I75000J0D01*
G01*
X181725000Y-95900000D01*
G75*
G02*
X181800000Y-95975000I0J-75000D01*
G01*
X181800000Y-96125000D01*
G75*
G02*
X181725000Y-96200000I-75000J0D01*
G01*
X180400000Y-96200000D01*
G75*
G02*
X180325000Y-96125000I0J75000D01*
G01*
G37*
G36*
G01*
X180325000Y-95625000D02*
X180325000Y-95475000D01*
G75*
G02*
X180400000Y-95400000I75000J0D01*
G01*
X181725000Y-95400000D01*
G75*
G02*
X181800000Y-95475000I0J-75000D01*
G01*
X181800000Y-95625000D01*
G75*
G02*
X181725000Y-95700000I-75000J0D01*
G01*
X180400000Y-95700000D01*
G75*
G02*
X180325000Y-95625000I0J75000D01*
G01*
G37*
G36*
G01*
X180325000Y-95125000D02*
X180325000Y-94975000D01*
G75*
G02*
X180400000Y-94900000I75000J0D01*
G01*
X181725000Y-94900000D01*
G75*
G02*
X181800000Y-94975000I0J-75000D01*
G01*
X181800000Y-95125000D01*
G75*
G02*
X181725000Y-95200000I-75000J0D01*
G01*
X180400000Y-95200000D01*
G75*
G02*
X180325000Y-95125000I0J75000D01*
G01*
G37*
G36*
G01*
X180325000Y-94625000D02*
X180325000Y-94475000D01*
G75*
G02*
X180400000Y-94400000I75000J0D01*
G01*
X181725000Y-94400000D01*
G75*
G02*
X181800000Y-94475000I0J-75000D01*
G01*
X181800000Y-94625000D01*
G75*
G02*
X181725000Y-94700000I-75000J0D01*
G01*
X180400000Y-94700000D01*
G75*
G02*
X180325000Y-94625000I0J75000D01*
G01*
G37*
G36*
G01*
X180325000Y-94125000D02*
X180325000Y-93975000D01*
G75*
G02*
X180400000Y-93900000I75000J0D01*
G01*
X181725000Y-93900000D01*
G75*
G02*
X181800000Y-93975000I0J-75000D01*
G01*
X181800000Y-94125000D01*
G75*
G02*
X181725000Y-94200000I-75000J0D01*
G01*
X180400000Y-94200000D01*
G75*
G02*
X180325000Y-94125000I0J75000D01*
G01*
G37*
G36*
G01*
X180325000Y-93625000D02*
X180325000Y-93475000D01*
G75*
G02*
X180400000Y-93400000I75000J0D01*
G01*
X181725000Y-93400000D01*
G75*
G02*
X181800000Y-93475000I0J-75000D01*
G01*
X181800000Y-93625000D01*
G75*
G02*
X181725000Y-93700000I-75000J0D01*
G01*
X180400000Y-93700000D01*
G75*
G02*
X180325000Y-93625000I0J75000D01*
G01*
G37*
G36*
G01*
X180325000Y-93125000D02*
X180325000Y-92975000D01*
G75*
G02*
X180400000Y-92900000I75000J0D01*
G01*
X181725000Y-92900000D01*
G75*
G02*
X181800000Y-92975000I0J-75000D01*
G01*
X181800000Y-93125000D01*
G75*
G02*
X181725000Y-93200000I-75000J0D01*
G01*
X180400000Y-93200000D01*
G75*
G02*
X180325000Y-93125000I0J75000D01*
G01*
G37*
G36*
G01*
X180325000Y-92625000D02*
X180325000Y-92475000D01*
G75*
G02*
X180400000Y-92400000I75000J0D01*
G01*
X181725000Y-92400000D01*
G75*
G02*
X181800000Y-92475000I0J-75000D01*
G01*
X181800000Y-92625000D01*
G75*
G02*
X181725000Y-92700000I-75000J0D01*
G01*
X180400000Y-92700000D01*
G75*
G02*
X180325000Y-92625000I0J75000D01*
G01*
G37*
G36*
G01*
X180325000Y-92125000D02*
X180325000Y-91975000D01*
G75*
G02*
X180400000Y-91900000I75000J0D01*
G01*
X181725000Y-91900000D01*
G75*
G02*
X181800000Y-91975000I0J-75000D01*
G01*
X181800000Y-92125000D01*
G75*
G02*
X181725000Y-92200000I-75000J0D01*
G01*
X180400000Y-92200000D01*
G75*
G02*
X180325000Y-92125000I0J75000D01*
G01*
G37*
G36*
G01*
X180325000Y-91625000D02*
X180325000Y-91475000D01*
G75*
G02*
X180400000Y-91400000I75000J0D01*
G01*
X181725000Y-91400000D01*
G75*
G02*
X181800000Y-91475000I0J-75000D01*
G01*
X181800000Y-91625000D01*
G75*
G02*
X181725000Y-91700000I-75000J0D01*
G01*
X180400000Y-91700000D01*
G75*
G02*
X180325000Y-91625000I0J75000D01*
G01*
G37*
G36*
G01*
X180325000Y-91125000D02*
X180325000Y-90975000D01*
G75*
G02*
X180400000Y-90900000I75000J0D01*
G01*
X181725000Y-90900000D01*
G75*
G02*
X181800000Y-90975000I0J-75000D01*
G01*
X181800000Y-91125000D01*
G75*
G02*
X181725000Y-91200000I-75000J0D01*
G01*
X180400000Y-91200000D01*
G75*
G02*
X180325000Y-91125000I0J75000D01*
G01*
G37*
G36*
G01*
X180325000Y-90625000D02*
X180325000Y-90475000D01*
G75*
G02*
X180400000Y-90400000I75000J0D01*
G01*
X181725000Y-90400000D01*
G75*
G02*
X181800000Y-90475000I0J-75000D01*
G01*
X181800000Y-90625000D01*
G75*
G02*
X181725000Y-90700000I-75000J0D01*
G01*
X180400000Y-90700000D01*
G75*
G02*
X180325000Y-90625000I0J75000D01*
G01*
G37*
G36*
G01*
X180325000Y-90125000D02*
X180325000Y-89975000D01*
G75*
G02*
X180400000Y-89900000I75000J0D01*
G01*
X181725000Y-89900000D01*
G75*
G02*
X181800000Y-89975000I0J-75000D01*
G01*
X181800000Y-90125000D01*
G75*
G02*
X181725000Y-90200000I-75000J0D01*
G01*
X180400000Y-90200000D01*
G75*
G02*
X180325000Y-90125000I0J75000D01*
G01*
G37*
G36*
G01*
X180325000Y-89625000D02*
X180325000Y-89475000D01*
G75*
G02*
X180400000Y-89400000I75000J0D01*
G01*
X181725000Y-89400000D01*
G75*
G02*
X181800000Y-89475000I0J-75000D01*
G01*
X181800000Y-89625000D01*
G75*
G02*
X181725000Y-89700000I-75000J0D01*
G01*
X180400000Y-89700000D01*
G75*
G02*
X180325000Y-89625000I0J75000D01*
G01*
G37*
G36*
G01*
X180325000Y-89125000D02*
X180325000Y-88975000D01*
G75*
G02*
X180400000Y-88900000I75000J0D01*
G01*
X181725000Y-88900000D01*
G75*
G02*
X181800000Y-88975000I0J-75000D01*
G01*
X181800000Y-89125000D01*
G75*
G02*
X181725000Y-89200000I-75000J0D01*
G01*
X180400000Y-89200000D01*
G75*
G02*
X180325000Y-89125000I0J75000D01*
G01*
G37*
G36*
G01*
X180325000Y-88625000D02*
X180325000Y-88475000D01*
G75*
G02*
X180400000Y-88400000I75000J0D01*
G01*
X181725000Y-88400000D01*
G75*
G02*
X181800000Y-88475000I0J-75000D01*
G01*
X181800000Y-88625000D01*
G75*
G02*
X181725000Y-88700000I-75000J0D01*
G01*
X180400000Y-88700000D01*
G75*
G02*
X180325000Y-88625000I0J75000D01*
G01*
G37*
G36*
G01*
X180325000Y-88125000D02*
X180325000Y-87975000D01*
G75*
G02*
X180400000Y-87900000I75000J0D01*
G01*
X181725000Y-87900000D01*
G75*
G02*
X181800000Y-87975000I0J-75000D01*
G01*
X181800000Y-88125000D01*
G75*
G02*
X181725000Y-88200000I-75000J0D01*
G01*
X180400000Y-88200000D01*
G75*
G02*
X180325000Y-88125000I0J75000D01*
G01*
G37*
G36*
G01*
X180325000Y-87625000D02*
X180325000Y-87475000D01*
G75*
G02*
X180400000Y-87400000I75000J0D01*
G01*
X181725000Y-87400000D01*
G75*
G02*
X181800000Y-87475000I0J-75000D01*
G01*
X181800000Y-87625000D01*
G75*
G02*
X181725000Y-87700000I-75000J0D01*
G01*
X180400000Y-87700000D01*
G75*
G02*
X180325000Y-87625000I0J75000D01*
G01*
G37*
G36*
G01*
X180325000Y-87125000D02*
X180325000Y-86975000D01*
G75*
G02*
X180400000Y-86900000I75000J0D01*
G01*
X181725000Y-86900000D01*
G75*
G02*
X181800000Y-86975000I0J-75000D01*
G01*
X181800000Y-87125000D01*
G75*
G02*
X181725000Y-87200000I-75000J0D01*
G01*
X180400000Y-87200000D01*
G75*
G02*
X180325000Y-87125000I0J75000D01*
G01*
G37*
G36*
G01*
X180325000Y-86625000D02*
X180325000Y-86475000D01*
G75*
G02*
X180400000Y-86400000I75000J0D01*
G01*
X181725000Y-86400000D01*
G75*
G02*
X181800000Y-86475000I0J-75000D01*
G01*
X181800000Y-86625000D01*
G75*
G02*
X181725000Y-86700000I-75000J0D01*
G01*
X180400000Y-86700000D01*
G75*
G02*
X180325000Y-86625000I0J75000D01*
G01*
G37*
G36*
G01*
X180325000Y-86125000D02*
X180325000Y-85975000D01*
G75*
G02*
X180400000Y-85900000I75000J0D01*
G01*
X181725000Y-85900000D01*
G75*
G02*
X181800000Y-85975000I0J-75000D01*
G01*
X181800000Y-86125000D01*
G75*
G02*
X181725000Y-86200000I-75000J0D01*
G01*
X180400000Y-86200000D01*
G75*
G02*
X180325000Y-86125000I0J75000D01*
G01*
G37*
G36*
G01*
X180325000Y-85625000D02*
X180325000Y-85475000D01*
G75*
G02*
X180400000Y-85400000I75000J0D01*
G01*
X181725000Y-85400000D01*
G75*
G02*
X181800000Y-85475000I0J-75000D01*
G01*
X181800000Y-85625000D01*
G75*
G02*
X181725000Y-85700000I-75000J0D01*
G01*
X180400000Y-85700000D01*
G75*
G02*
X180325000Y-85625000I0J75000D01*
G01*
G37*
G36*
G01*
X180325000Y-85125000D02*
X180325000Y-84975000D01*
G75*
G02*
X180400000Y-84900000I75000J0D01*
G01*
X181725000Y-84900000D01*
G75*
G02*
X181800000Y-84975000I0J-75000D01*
G01*
X181800000Y-85125000D01*
G75*
G02*
X181725000Y-85200000I-75000J0D01*
G01*
X180400000Y-85200000D01*
G75*
G02*
X180325000Y-85125000I0J75000D01*
G01*
G37*
G36*
G01*
X180325000Y-84625000D02*
X180325000Y-84475000D01*
G75*
G02*
X180400000Y-84400000I75000J0D01*
G01*
X181725000Y-84400000D01*
G75*
G02*
X181800000Y-84475000I0J-75000D01*
G01*
X181800000Y-84625000D01*
G75*
G02*
X181725000Y-84700000I-75000J0D01*
G01*
X180400000Y-84700000D01*
G75*
G02*
X180325000Y-84625000I0J75000D01*
G01*
G37*
G36*
G01*
X180325000Y-84125000D02*
X180325000Y-83975000D01*
G75*
G02*
X180400000Y-83900000I75000J0D01*
G01*
X181725000Y-83900000D01*
G75*
G02*
X181800000Y-83975000I0J-75000D01*
G01*
X181800000Y-84125000D01*
G75*
G02*
X181725000Y-84200000I-75000J0D01*
G01*
X180400000Y-84200000D01*
G75*
G02*
X180325000Y-84125000I0J75000D01*
G01*
G37*
G36*
G01*
X180325000Y-83625000D02*
X180325000Y-83475000D01*
G75*
G02*
X180400000Y-83400000I75000J0D01*
G01*
X181725000Y-83400000D01*
G75*
G02*
X181800000Y-83475000I0J-75000D01*
G01*
X181800000Y-83625000D01*
G75*
G02*
X181725000Y-83700000I-75000J0D01*
G01*
X180400000Y-83700000D01*
G75*
G02*
X180325000Y-83625000I0J75000D01*
G01*
G37*
G36*
G01*
X180325000Y-83125000D02*
X180325000Y-82975000D01*
G75*
G02*
X180400000Y-82900000I75000J0D01*
G01*
X181725000Y-82900000D01*
G75*
G02*
X181800000Y-82975000I0J-75000D01*
G01*
X181800000Y-83125000D01*
G75*
G02*
X181725000Y-83200000I-75000J0D01*
G01*
X180400000Y-83200000D01*
G75*
G02*
X180325000Y-83125000I0J75000D01*
G01*
G37*
G36*
G01*
X180325000Y-82625000D02*
X180325000Y-82475000D01*
G75*
G02*
X180400000Y-82400000I75000J0D01*
G01*
X181725000Y-82400000D01*
G75*
G02*
X181800000Y-82475000I0J-75000D01*
G01*
X181800000Y-82625000D01*
G75*
G02*
X181725000Y-82700000I-75000J0D01*
G01*
X180400000Y-82700000D01*
G75*
G02*
X180325000Y-82625000I0J75000D01*
G01*
G37*
G36*
G01*
X180325000Y-82125000D02*
X180325000Y-81975000D01*
G75*
G02*
X180400000Y-81900000I75000J0D01*
G01*
X181725000Y-81900000D01*
G75*
G02*
X181800000Y-81975000I0J-75000D01*
G01*
X181800000Y-82125000D01*
G75*
G02*
X181725000Y-82200000I-75000J0D01*
G01*
X180400000Y-82200000D01*
G75*
G02*
X180325000Y-82125000I0J75000D01*
G01*
G37*
G36*
G01*
X180325000Y-81625000D02*
X180325000Y-81475000D01*
G75*
G02*
X180400000Y-81400000I75000J0D01*
G01*
X181725000Y-81400000D01*
G75*
G02*
X181800000Y-81475000I0J-75000D01*
G01*
X181800000Y-81625000D01*
G75*
G02*
X181725000Y-81700000I-75000J0D01*
G01*
X180400000Y-81700000D01*
G75*
G02*
X180325000Y-81625000I0J75000D01*
G01*
G37*
G36*
G01*
X180325000Y-81125000D02*
X180325000Y-80975000D01*
G75*
G02*
X180400000Y-80900000I75000J0D01*
G01*
X181725000Y-80900000D01*
G75*
G02*
X181800000Y-80975000I0J-75000D01*
G01*
X181800000Y-81125000D01*
G75*
G02*
X181725000Y-81200000I-75000J0D01*
G01*
X180400000Y-81200000D01*
G75*
G02*
X180325000Y-81125000I0J75000D01*
G01*
G37*
G36*
G01*
X180325000Y-80625000D02*
X180325000Y-80475000D01*
G75*
G02*
X180400000Y-80400000I75000J0D01*
G01*
X181725000Y-80400000D01*
G75*
G02*
X181800000Y-80475000I0J-75000D01*
G01*
X181800000Y-80625000D01*
G75*
G02*
X181725000Y-80700000I-75000J0D01*
G01*
X180400000Y-80700000D01*
G75*
G02*
X180325000Y-80625000I0J75000D01*
G01*
G37*
G36*
G01*
X180325000Y-80125000D02*
X180325000Y-79975000D01*
G75*
G02*
X180400000Y-79900000I75000J0D01*
G01*
X181725000Y-79900000D01*
G75*
G02*
X181800000Y-79975000I0J-75000D01*
G01*
X181800000Y-80125000D01*
G75*
G02*
X181725000Y-80200000I-75000J0D01*
G01*
X180400000Y-80200000D01*
G75*
G02*
X180325000Y-80125000I0J75000D01*
G01*
G37*
G36*
G01*
X180325000Y-79625000D02*
X180325000Y-79475000D01*
G75*
G02*
X180400000Y-79400000I75000J0D01*
G01*
X181725000Y-79400000D01*
G75*
G02*
X181800000Y-79475000I0J-75000D01*
G01*
X181800000Y-79625000D01*
G75*
G02*
X181725000Y-79700000I-75000J0D01*
G01*
X180400000Y-79700000D01*
G75*
G02*
X180325000Y-79625000I0J75000D01*
G01*
G37*
G36*
G01*
X180325000Y-79125000D02*
X180325000Y-78975000D01*
G75*
G02*
X180400000Y-78900000I75000J0D01*
G01*
X181725000Y-78900000D01*
G75*
G02*
X181800000Y-78975000I0J-75000D01*
G01*
X181800000Y-79125000D01*
G75*
G02*
X181725000Y-79200000I-75000J0D01*
G01*
X180400000Y-79200000D01*
G75*
G02*
X180325000Y-79125000I0J75000D01*
G01*
G37*
G36*
G01*
X180325000Y-78625000D02*
X180325000Y-78475000D01*
G75*
G02*
X180400000Y-78400000I75000J0D01*
G01*
X181725000Y-78400000D01*
G75*
G02*
X181800000Y-78475000I0J-75000D01*
G01*
X181800000Y-78625000D01*
G75*
G02*
X181725000Y-78700000I-75000J0D01*
G01*
X180400000Y-78700000D01*
G75*
G02*
X180325000Y-78625000I0J75000D01*
G01*
G37*
G36*
G01*
X179000000Y-77300000D02*
X179000000Y-75975000D01*
G75*
G02*
X179075000Y-75900000I75000J0D01*
G01*
X179225000Y-75900000D01*
G75*
G02*
X179300000Y-75975000I0J-75000D01*
G01*
X179300000Y-77300000D01*
G75*
G02*
X179225000Y-77375000I-75000J0D01*
G01*
X179075000Y-77375000D01*
G75*
G02*
X179000000Y-77300000I0J75000D01*
G01*
G37*
G36*
G01*
X178500000Y-77300000D02*
X178500000Y-75975000D01*
G75*
G02*
X178575000Y-75900000I75000J0D01*
G01*
X178725000Y-75900000D01*
G75*
G02*
X178800000Y-75975000I0J-75000D01*
G01*
X178800000Y-77300000D01*
G75*
G02*
X178725000Y-77375000I-75000J0D01*
G01*
X178575000Y-77375000D01*
G75*
G02*
X178500000Y-77300000I0J75000D01*
G01*
G37*
G36*
G01*
X178000000Y-77300000D02*
X178000000Y-75975000D01*
G75*
G02*
X178075000Y-75900000I75000J0D01*
G01*
X178225000Y-75900000D01*
G75*
G02*
X178300000Y-75975000I0J-75000D01*
G01*
X178300000Y-77300000D01*
G75*
G02*
X178225000Y-77375000I-75000J0D01*
G01*
X178075000Y-77375000D01*
G75*
G02*
X178000000Y-77300000I0J75000D01*
G01*
G37*
G36*
G01*
X177500000Y-77300000D02*
X177500000Y-75975000D01*
G75*
G02*
X177575000Y-75900000I75000J0D01*
G01*
X177725000Y-75900000D01*
G75*
G02*
X177800000Y-75975000I0J-75000D01*
G01*
X177800000Y-77300000D01*
G75*
G02*
X177725000Y-77375000I-75000J0D01*
G01*
X177575000Y-77375000D01*
G75*
G02*
X177500000Y-77300000I0J75000D01*
G01*
G37*
G36*
G01*
X177000000Y-77300000D02*
X177000000Y-75975000D01*
G75*
G02*
X177075000Y-75900000I75000J0D01*
G01*
X177225000Y-75900000D01*
G75*
G02*
X177300000Y-75975000I0J-75000D01*
G01*
X177300000Y-77300000D01*
G75*
G02*
X177225000Y-77375000I-75000J0D01*
G01*
X177075000Y-77375000D01*
G75*
G02*
X177000000Y-77300000I0J75000D01*
G01*
G37*
G36*
G01*
X176500000Y-77300000D02*
X176500000Y-75975000D01*
G75*
G02*
X176575000Y-75900000I75000J0D01*
G01*
X176725000Y-75900000D01*
G75*
G02*
X176800000Y-75975000I0J-75000D01*
G01*
X176800000Y-77300000D01*
G75*
G02*
X176725000Y-77375000I-75000J0D01*
G01*
X176575000Y-77375000D01*
G75*
G02*
X176500000Y-77300000I0J75000D01*
G01*
G37*
G36*
G01*
X176000000Y-77300000D02*
X176000000Y-75975000D01*
G75*
G02*
X176075000Y-75900000I75000J0D01*
G01*
X176225000Y-75900000D01*
G75*
G02*
X176300000Y-75975000I0J-75000D01*
G01*
X176300000Y-77300000D01*
G75*
G02*
X176225000Y-77375000I-75000J0D01*
G01*
X176075000Y-77375000D01*
G75*
G02*
X176000000Y-77300000I0J75000D01*
G01*
G37*
G36*
G01*
X175500000Y-77300000D02*
X175500000Y-75975000D01*
G75*
G02*
X175575000Y-75900000I75000J0D01*
G01*
X175725000Y-75900000D01*
G75*
G02*
X175800000Y-75975000I0J-75000D01*
G01*
X175800000Y-77300000D01*
G75*
G02*
X175725000Y-77375000I-75000J0D01*
G01*
X175575000Y-77375000D01*
G75*
G02*
X175500000Y-77300000I0J75000D01*
G01*
G37*
G36*
G01*
X175000000Y-77300000D02*
X175000000Y-75975000D01*
G75*
G02*
X175075000Y-75900000I75000J0D01*
G01*
X175225000Y-75900000D01*
G75*
G02*
X175300000Y-75975000I0J-75000D01*
G01*
X175300000Y-77300000D01*
G75*
G02*
X175225000Y-77375000I-75000J0D01*
G01*
X175075000Y-77375000D01*
G75*
G02*
X175000000Y-77300000I0J75000D01*
G01*
G37*
G36*
G01*
X174500000Y-77300000D02*
X174500000Y-75975000D01*
G75*
G02*
X174575000Y-75900000I75000J0D01*
G01*
X174725000Y-75900000D01*
G75*
G02*
X174800000Y-75975000I0J-75000D01*
G01*
X174800000Y-77300000D01*
G75*
G02*
X174725000Y-77375000I-75000J0D01*
G01*
X174575000Y-77375000D01*
G75*
G02*
X174500000Y-77300000I0J75000D01*
G01*
G37*
G36*
G01*
X174000000Y-77300000D02*
X174000000Y-75975000D01*
G75*
G02*
X174075000Y-75900000I75000J0D01*
G01*
X174225000Y-75900000D01*
G75*
G02*
X174300000Y-75975000I0J-75000D01*
G01*
X174300000Y-77300000D01*
G75*
G02*
X174225000Y-77375000I-75000J0D01*
G01*
X174075000Y-77375000D01*
G75*
G02*
X174000000Y-77300000I0J75000D01*
G01*
G37*
G36*
G01*
X173500000Y-77300000D02*
X173500000Y-75975000D01*
G75*
G02*
X173575000Y-75900000I75000J0D01*
G01*
X173725000Y-75900000D01*
G75*
G02*
X173800000Y-75975000I0J-75000D01*
G01*
X173800000Y-77300000D01*
G75*
G02*
X173725000Y-77375000I-75000J0D01*
G01*
X173575000Y-77375000D01*
G75*
G02*
X173500000Y-77300000I0J75000D01*
G01*
G37*
G36*
G01*
X173000000Y-77300000D02*
X173000000Y-75975000D01*
G75*
G02*
X173075000Y-75900000I75000J0D01*
G01*
X173225000Y-75900000D01*
G75*
G02*
X173300000Y-75975000I0J-75000D01*
G01*
X173300000Y-77300000D01*
G75*
G02*
X173225000Y-77375000I-75000J0D01*
G01*
X173075000Y-77375000D01*
G75*
G02*
X173000000Y-77300000I0J75000D01*
G01*
G37*
G36*
G01*
X172500000Y-77300000D02*
X172500000Y-75975000D01*
G75*
G02*
X172575000Y-75900000I75000J0D01*
G01*
X172725000Y-75900000D01*
G75*
G02*
X172800000Y-75975000I0J-75000D01*
G01*
X172800000Y-77300000D01*
G75*
G02*
X172725000Y-77375000I-75000J0D01*
G01*
X172575000Y-77375000D01*
G75*
G02*
X172500000Y-77300000I0J75000D01*
G01*
G37*
G36*
G01*
X172000000Y-77300000D02*
X172000000Y-75975000D01*
G75*
G02*
X172075000Y-75900000I75000J0D01*
G01*
X172225000Y-75900000D01*
G75*
G02*
X172300000Y-75975000I0J-75000D01*
G01*
X172300000Y-77300000D01*
G75*
G02*
X172225000Y-77375000I-75000J0D01*
G01*
X172075000Y-77375000D01*
G75*
G02*
X172000000Y-77300000I0J75000D01*
G01*
G37*
G36*
G01*
X171500000Y-77300000D02*
X171500000Y-75975000D01*
G75*
G02*
X171575000Y-75900000I75000J0D01*
G01*
X171725000Y-75900000D01*
G75*
G02*
X171800000Y-75975000I0J-75000D01*
G01*
X171800000Y-77300000D01*
G75*
G02*
X171725000Y-77375000I-75000J0D01*
G01*
X171575000Y-77375000D01*
G75*
G02*
X171500000Y-77300000I0J75000D01*
G01*
G37*
G36*
G01*
X171000000Y-77300000D02*
X171000000Y-75975000D01*
G75*
G02*
X171075000Y-75900000I75000J0D01*
G01*
X171225000Y-75900000D01*
G75*
G02*
X171300000Y-75975000I0J-75000D01*
G01*
X171300000Y-77300000D01*
G75*
G02*
X171225000Y-77375000I-75000J0D01*
G01*
X171075000Y-77375000D01*
G75*
G02*
X171000000Y-77300000I0J75000D01*
G01*
G37*
G36*
G01*
X170500000Y-77300000D02*
X170500000Y-75975000D01*
G75*
G02*
X170575000Y-75900000I75000J0D01*
G01*
X170725000Y-75900000D01*
G75*
G02*
X170800000Y-75975000I0J-75000D01*
G01*
X170800000Y-77300000D01*
G75*
G02*
X170725000Y-77375000I-75000J0D01*
G01*
X170575000Y-77375000D01*
G75*
G02*
X170500000Y-77300000I0J75000D01*
G01*
G37*
G36*
G01*
X170000000Y-77300000D02*
X170000000Y-75975000D01*
G75*
G02*
X170075000Y-75900000I75000J0D01*
G01*
X170225000Y-75900000D01*
G75*
G02*
X170300000Y-75975000I0J-75000D01*
G01*
X170300000Y-77300000D01*
G75*
G02*
X170225000Y-77375000I-75000J0D01*
G01*
X170075000Y-77375000D01*
G75*
G02*
X170000000Y-77300000I0J75000D01*
G01*
G37*
G36*
G01*
X169500000Y-77300000D02*
X169500000Y-75975000D01*
G75*
G02*
X169575000Y-75900000I75000J0D01*
G01*
X169725000Y-75900000D01*
G75*
G02*
X169800000Y-75975000I0J-75000D01*
G01*
X169800000Y-77300000D01*
G75*
G02*
X169725000Y-77375000I-75000J0D01*
G01*
X169575000Y-77375000D01*
G75*
G02*
X169500000Y-77300000I0J75000D01*
G01*
G37*
G36*
G01*
X169000000Y-77300000D02*
X169000000Y-75975000D01*
G75*
G02*
X169075000Y-75900000I75000J0D01*
G01*
X169225000Y-75900000D01*
G75*
G02*
X169300000Y-75975000I0J-75000D01*
G01*
X169300000Y-77300000D01*
G75*
G02*
X169225000Y-77375000I-75000J0D01*
G01*
X169075000Y-77375000D01*
G75*
G02*
X169000000Y-77300000I0J75000D01*
G01*
G37*
G36*
G01*
X168500000Y-77300000D02*
X168500000Y-75975000D01*
G75*
G02*
X168575000Y-75900000I75000J0D01*
G01*
X168725000Y-75900000D01*
G75*
G02*
X168800000Y-75975000I0J-75000D01*
G01*
X168800000Y-77300000D01*
G75*
G02*
X168725000Y-77375000I-75000J0D01*
G01*
X168575000Y-77375000D01*
G75*
G02*
X168500000Y-77300000I0J75000D01*
G01*
G37*
G36*
G01*
X168000000Y-77300000D02*
X168000000Y-75975000D01*
G75*
G02*
X168075000Y-75900000I75000J0D01*
G01*
X168225000Y-75900000D01*
G75*
G02*
X168300000Y-75975000I0J-75000D01*
G01*
X168300000Y-77300000D01*
G75*
G02*
X168225000Y-77375000I-75000J0D01*
G01*
X168075000Y-77375000D01*
G75*
G02*
X168000000Y-77300000I0J75000D01*
G01*
G37*
G36*
G01*
X167500000Y-77300000D02*
X167500000Y-75975000D01*
G75*
G02*
X167575000Y-75900000I75000J0D01*
G01*
X167725000Y-75900000D01*
G75*
G02*
X167800000Y-75975000I0J-75000D01*
G01*
X167800000Y-77300000D01*
G75*
G02*
X167725000Y-77375000I-75000J0D01*
G01*
X167575000Y-77375000D01*
G75*
G02*
X167500000Y-77300000I0J75000D01*
G01*
G37*
G36*
G01*
X167000000Y-77300000D02*
X167000000Y-75975000D01*
G75*
G02*
X167075000Y-75900000I75000J0D01*
G01*
X167225000Y-75900000D01*
G75*
G02*
X167300000Y-75975000I0J-75000D01*
G01*
X167300000Y-77300000D01*
G75*
G02*
X167225000Y-77375000I-75000J0D01*
G01*
X167075000Y-77375000D01*
G75*
G02*
X167000000Y-77300000I0J75000D01*
G01*
G37*
G36*
G01*
X166500000Y-77300000D02*
X166500000Y-75975000D01*
G75*
G02*
X166575000Y-75900000I75000J0D01*
G01*
X166725000Y-75900000D01*
G75*
G02*
X166800000Y-75975000I0J-75000D01*
G01*
X166800000Y-77300000D01*
G75*
G02*
X166725000Y-77375000I-75000J0D01*
G01*
X166575000Y-77375000D01*
G75*
G02*
X166500000Y-77300000I0J75000D01*
G01*
G37*
G36*
G01*
X166000000Y-77300000D02*
X166000000Y-75975000D01*
G75*
G02*
X166075000Y-75900000I75000J0D01*
G01*
X166225000Y-75900000D01*
G75*
G02*
X166300000Y-75975000I0J-75000D01*
G01*
X166300000Y-77300000D01*
G75*
G02*
X166225000Y-77375000I-75000J0D01*
G01*
X166075000Y-77375000D01*
G75*
G02*
X166000000Y-77300000I0J75000D01*
G01*
G37*
G36*
G01*
X165500000Y-77300000D02*
X165500000Y-75975000D01*
G75*
G02*
X165575000Y-75900000I75000J0D01*
G01*
X165725000Y-75900000D01*
G75*
G02*
X165800000Y-75975000I0J-75000D01*
G01*
X165800000Y-77300000D01*
G75*
G02*
X165725000Y-77375000I-75000J0D01*
G01*
X165575000Y-77375000D01*
G75*
G02*
X165500000Y-77300000I0J75000D01*
G01*
G37*
G36*
G01*
X165000000Y-77300000D02*
X165000000Y-75975000D01*
G75*
G02*
X165075000Y-75900000I75000J0D01*
G01*
X165225000Y-75900000D01*
G75*
G02*
X165300000Y-75975000I0J-75000D01*
G01*
X165300000Y-77300000D01*
G75*
G02*
X165225000Y-77375000I-75000J0D01*
G01*
X165075000Y-77375000D01*
G75*
G02*
X165000000Y-77300000I0J75000D01*
G01*
G37*
G36*
G01*
X164500000Y-77300000D02*
X164500000Y-75975000D01*
G75*
G02*
X164575000Y-75900000I75000J0D01*
G01*
X164725000Y-75900000D01*
G75*
G02*
X164800000Y-75975000I0J-75000D01*
G01*
X164800000Y-77300000D01*
G75*
G02*
X164725000Y-77375000I-75000J0D01*
G01*
X164575000Y-77375000D01*
G75*
G02*
X164500000Y-77300000I0J75000D01*
G01*
G37*
G36*
G01*
X164000000Y-77300000D02*
X164000000Y-75975000D01*
G75*
G02*
X164075000Y-75900000I75000J0D01*
G01*
X164225000Y-75900000D01*
G75*
G02*
X164300000Y-75975000I0J-75000D01*
G01*
X164300000Y-77300000D01*
G75*
G02*
X164225000Y-77375000I-75000J0D01*
G01*
X164075000Y-77375000D01*
G75*
G02*
X164000000Y-77300000I0J75000D01*
G01*
G37*
G36*
G01*
X163500000Y-77300000D02*
X163500000Y-75975000D01*
G75*
G02*
X163575000Y-75900000I75000J0D01*
G01*
X163725000Y-75900000D01*
G75*
G02*
X163800000Y-75975000I0J-75000D01*
G01*
X163800000Y-77300000D01*
G75*
G02*
X163725000Y-77375000I-75000J0D01*
G01*
X163575000Y-77375000D01*
G75*
G02*
X163500000Y-77300000I0J75000D01*
G01*
G37*
G36*
G01*
X163000000Y-77300000D02*
X163000000Y-75975000D01*
G75*
G02*
X163075000Y-75900000I75000J0D01*
G01*
X163225000Y-75900000D01*
G75*
G02*
X163300000Y-75975000I0J-75000D01*
G01*
X163300000Y-77300000D01*
G75*
G02*
X163225000Y-77375000I-75000J0D01*
G01*
X163075000Y-77375000D01*
G75*
G02*
X163000000Y-77300000I0J75000D01*
G01*
G37*
G36*
G01*
X162500000Y-77300000D02*
X162500000Y-75975000D01*
G75*
G02*
X162575000Y-75900000I75000J0D01*
G01*
X162725000Y-75900000D01*
G75*
G02*
X162800000Y-75975000I0J-75000D01*
G01*
X162800000Y-77300000D01*
G75*
G02*
X162725000Y-77375000I-75000J0D01*
G01*
X162575000Y-77375000D01*
G75*
G02*
X162500000Y-77300000I0J75000D01*
G01*
G37*
G36*
G01*
X162000000Y-77300000D02*
X162000000Y-75975000D01*
G75*
G02*
X162075000Y-75900000I75000J0D01*
G01*
X162225000Y-75900000D01*
G75*
G02*
X162300000Y-75975000I0J-75000D01*
G01*
X162300000Y-77300000D01*
G75*
G02*
X162225000Y-77375000I-75000J0D01*
G01*
X162075000Y-77375000D01*
G75*
G02*
X162000000Y-77300000I0J75000D01*
G01*
G37*
G36*
G01*
X161500000Y-77300000D02*
X161500000Y-75975000D01*
G75*
G02*
X161575000Y-75900000I75000J0D01*
G01*
X161725000Y-75900000D01*
G75*
G02*
X161800000Y-75975000I0J-75000D01*
G01*
X161800000Y-77300000D01*
G75*
G02*
X161725000Y-77375000I-75000J0D01*
G01*
X161575000Y-77375000D01*
G75*
G02*
X161500000Y-77300000I0J75000D01*
G01*
G37*
G36*
G01*
X159000000Y-78625000D02*
X159000000Y-78475000D01*
G75*
G02*
X159075000Y-78400000I75000J0D01*
G01*
X160400000Y-78400000D01*
G75*
G02*
X160475000Y-78475000I0J-75000D01*
G01*
X160475000Y-78625000D01*
G75*
G02*
X160400000Y-78700000I-75000J0D01*
G01*
X159075000Y-78700000D01*
G75*
G02*
X159000000Y-78625000I0J75000D01*
G01*
G37*
G36*
G01*
X159000000Y-79125000D02*
X159000000Y-78975000D01*
G75*
G02*
X159075000Y-78900000I75000J0D01*
G01*
X160400000Y-78900000D01*
G75*
G02*
X160475000Y-78975000I0J-75000D01*
G01*
X160475000Y-79125000D01*
G75*
G02*
X160400000Y-79200000I-75000J0D01*
G01*
X159075000Y-79200000D01*
G75*
G02*
X159000000Y-79125000I0J75000D01*
G01*
G37*
G36*
G01*
X159000000Y-79625000D02*
X159000000Y-79475000D01*
G75*
G02*
X159075000Y-79400000I75000J0D01*
G01*
X160400000Y-79400000D01*
G75*
G02*
X160475000Y-79475000I0J-75000D01*
G01*
X160475000Y-79625000D01*
G75*
G02*
X160400000Y-79700000I-75000J0D01*
G01*
X159075000Y-79700000D01*
G75*
G02*
X159000000Y-79625000I0J75000D01*
G01*
G37*
G36*
G01*
X159000000Y-80125000D02*
X159000000Y-79975000D01*
G75*
G02*
X159075000Y-79900000I75000J0D01*
G01*
X160400000Y-79900000D01*
G75*
G02*
X160475000Y-79975000I0J-75000D01*
G01*
X160475000Y-80125000D01*
G75*
G02*
X160400000Y-80200000I-75000J0D01*
G01*
X159075000Y-80200000D01*
G75*
G02*
X159000000Y-80125000I0J75000D01*
G01*
G37*
G36*
G01*
X159000000Y-80625000D02*
X159000000Y-80475000D01*
G75*
G02*
X159075000Y-80400000I75000J0D01*
G01*
X160400000Y-80400000D01*
G75*
G02*
X160475000Y-80475000I0J-75000D01*
G01*
X160475000Y-80625000D01*
G75*
G02*
X160400000Y-80700000I-75000J0D01*
G01*
X159075000Y-80700000D01*
G75*
G02*
X159000000Y-80625000I0J75000D01*
G01*
G37*
G36*
G01*
X159000000Y-81125000D02*
X159000000Y-80975000D01*
G75*
G02*
X159075000Y-80900000I75000J0D01*
G01*
X160400000Y-80900000D01*
G75*
G02*
X160475000Y-80975000I0J-75000D01*
G01*
X160475000Y-81125000D01*
G75*
G02*
X160400000Y-81200000I-75000J0D01*
G01*
X159075000Y-81200000D01*
G75*
G02*
X159000000Y-81125000I0J75000D01*
G01*
G37*
G36*
G01*
X159000000Y-81625000D02*
X159000000Y-81475000D01*
G75*
G02*
X159075000Y-81400000I75000J0D01*
G01*
X160400000Y-81400000D01*
G75*
G02*
X160475000Y-81475000I0J-75000D01*
G01*
X160475000Y-81625000D01*
G75*
G02*
X160400000Y-81700000I-75000J0D01*
G01*
X159075000Y-81700000D01*
G75*
G02*
X159000000Y-81625000I0J75000D01*
G01*
G37*
G36*
G01*
X159000000Y-82125000D02*
X159000000Y-81975000D01*
G75*
G02*
X159075000Y-81900000I75000J0D01*
G01*
X160400000Y-81900000D01*
G75*
G02*
X160475000Y-81975000I0J-75000D01*
G01*
X160475000Y-82125000D01*
G75*
G02*
X160400000Y-82200000I-75000J0D01*
G01*
X159075000Y-82200000D01*
G75*
G02*
X159000000Y-82125000I0J75000D01*
G01*
G37*
G36*
G01*
X159000000Y-82625000D02*
X159000000Y-82475000D01*
G75*
G02*
X159075000Y-82400000I75000J0D01*
G01*
X160400000Y-82400000D01*
G75*
G02*
X160475000Y-82475000I0J-75000D01*
G01*
X160475000Y-82625000D01*
G75*
G02*
X160400000Y-82700000I-75000J0D01*
G01*
X159075000Y-82700000D01*
G75*
G02*
X159000000Y-82625000I0J75000D01*
G01*
G37*
G36*
G01*
X159000000Y-83125000D02*
X159000000Y-82975000D01*
G75*
G02*
X159075000Y-82900000I75000J0D01*
G01*
X160400000Y-82900000D01*
G75*
G02*
X160475000Y-82975000I0J-75000D01*
G01*
X160475000Y-83125000D01*
G75*
G02*
X160400000Y-83200000I-75000J0D01*
G01*
X159075000Y-83200000D01*
G75*
G02*
X159000000Y-83125000I0J75000D01*
G01*
G37*
G36*
G01*
X159000000Y-83625000D02*
X159000000Y-83475000D01*
G75*
G02*
X159075000Y-83400000I75000J0D01*
G01*
X160400000Y-83400000D01*
G75*
G02*
X160475000Y-83475000I0J-75000D01*
G01*
X160475000Y-83625000D01*
G75*
G02*
X160400000Y-83700000I-75000J0D01*
G01*
X159075000Y-83700000D01*
G75*
G02*
X159000000Y-83625000I0J75000D01*
G01*
G37*
G36*
G01*
X159000000Y-84125000D02*
X159000000Y-83975000D01*
G75*
G02*
X159075000Y-83900000I75000J0D01*
G01*
X160400000Y-83900000D01*
G75*
G02*
X160475000Y-83975000I0J-75000D01*
G01*
X160475000Y-84125000D01*
G75*
G02*
X160400000Y-84200000I-75000J0D01*
G01*
X159075000Y-84200000D01*
G75*
G02*
X159000000Y-84125000I0J75000D01*
G01*
G37*
G36*
G01*
X159000000Y-84625000D02*
X159000000Y-84475000D01*
G75*
G02*
X159075000Y-84400000I75000J0D01*
G01*
X160400000Y-84400000D01*
G75*
G02*
X160475000Y-84475000I0J-75000D01*
G01*
X160475000Y-84625000D01*
G75*
G02*
X160400000Y-84700000I-75000J0D01*
G01*
X159075000Y-84700000D01*
G75*
G02*
X159000000Y-84625000I0J75000D01*
G01*
G37*
G36*
G01*
X159000000Y-85125000D02*
X159000000Y-84975000D01*
G75*
G02*
X159075000Y-84900000I75000J0D01*
G01*
X160400000Y-84900000D01*
G75*
G02*
X160475000Y-84975000I0J-75000D01*
G01*
X160475000Y-85125000D01*
G75*
G02*
X160400000Y-85200000I-75000J0D01*
G01*
X159075000Y-85200000D01*
G75*
G02*
X159000000Y-85125000I0J75000D01*
G01*
G37*
G36*
G01*
X159000000Y-85625000D02*
X159000000Y-85475000D01*
G75*
G02*
X159075000Y-85400000I75000J0D01*
G01*
X160400000Y-85400000D01*
G75*
G02*
X160475000Y-85475000I0J-75000D01*
G01*
X160475000Y-85625000D01*
G75*
G02*
X160400000Y-85700000I-75000J0D01*
G01*
X159075000Y-85700000D01*
G75*
G02*
X159000000Y-85625000I0J75000D01*
G01*
G37*
G36*
G01*
X159000000Y-86125000D02*
X159000000Y-85975000D01*
G75*
G02*
X159075000Y-85900000I75000J0D01*
G01*
X160400000Y-85900000D01*
G75*
G02*
X160475000Y-85975000I0J-75000D01*
G01*
X160475000Y-86125000D01*
G75*
G02*
X160400000Y-86200000I-75000J0D01*
G01*
X159075000Y-86200000D01*
G75*
G02*
X159000000Y-86125000I0J75000D01*
G01*
G37*
G36*
G01*
X159000000Y-86625000D02*
X159000000Y-86475000D01*
G75*
G02*
X159075000Y-86400000I75000J0D01*
G01*
X160400000Y-86400000D01*
G75*
G02*
X160475000Y-86475000I0J-75000D01*
G01*
X160475000Y-86625000D01*
G75*
G02*
X160400000Y-86700000I-75000J0D01*
G01*
X159075000Y-86700000D01*
G75*
G02*
X159000000Y-86625000I0J75000D01*
G01*
G37*
G36*
G01*
X159000000Y-87125000D02*
X159000000Y-86975000D01*
G75*
G02*
X159075000Y-86900000I75000J0D01*
G01*
X160400000Y-86900000D01*
G75*
G02*
X160475000Y-86975000I0J-75000D01*
G01*
X160475000Y-87125000D01*
G75*
G02*
X160400000Y-87200000I-75000J0D01*
G01*
X159075000Y-87200000D01*
G75*
G02*
X159000000Y-87125000I0J75000D01*
G01*
G37*
G36*
G01*
X159000000Y-87625000D02*
X159000000Y-87475000D01*
G75*
G02*
X159075000Y-87400000I75000J0D01*
G01*
X160400000Y-87400000D01*
G75*
G02*
X160475000Y-87475000I0J-75000D01*
G01*
X160475000Y-87625000D01*
G75*
G02*
X160400000Y-87700000I-75000J0D01*
G01*
X159075000Y-87700000D01*
G75*
G02*
X159000000Y-87625000I0J75000D01*
G01*
G37*
G36*
G01*
X159000000Y-88125000D02*
X159000000Y-87975000D01*
G75*
G02*
X159075000Y-87900000I75000J0D01*
G01*
X160400000Y-87900000D01*
G75*
G02*
X160475000Y-87975000I0J-75000D01*
G01*
X160475000Y-88125000D01*
G75*
G02*
X160400000Y-88200000I-75000J0D01*
G01*
X159075000Y-88200000D01*
G75*
G02*
X159000000Y-88125000I0J75000D01*
G01*
G37*
G36*
G01*
X159000000Y-88625000D02*
X159000000Y-88475000D01*
G75*
G02*
X159075000Y-88400000I75000J0D01*
G01*
X160400000Y-88400000D01*
G75*
G02*
X160475000Y-88475000I0J-75000D01*
G01*
X160475000Y-88625000D01*
G75*
G02*
X160400000Y-88700000I-75000J0D01*
G01*
X159075000Y-88700000D01*
G75*
G02*
X159000000Y-88625000I0J75000D01*
G01*
G37*
G36*
G01*
X159000000Y-89125000D02*
X159000000Y-88975000D01*
G75*
G02*
X159075000Y-88900000I75000J0D01*
G01*
X160400000Y-88900000D01*
G75*
G02*
X160475000Y-88975000I0J-75000D01*
G01*
X160475000Y-89125000D01*
G75*
G02*
X160400000Y-89200000I-75000J0D01*
G01*
X159075000Y-89200000D01*
G75*
G02*
X159000000Y-89125000I0J75000D01*
G01*
G37*
G36*
G01*
X159000000Y-89625000D02*
X159000000Y-89475000D01*
G75*
G02*
X159075000Y-89400000I75000J0D01*
G01*
X160400000Y-89400000D01*
G75*
G02*
X160475000Y-89475000I0J-75000D01*
G01*
X160475000Y-89625000D01*
G75*
G02*
X160400000Y-89700000I-75000J0D01*
G01*
X159075000Y-89700000D01*
G75*
G02*
X159000000Y-89625000I0J75000D01*
G01*
G37*
G36*
G01*
X159000000Y-90125000D02*
X159000000Y-89975000D01*
G75*
G02*
X159075000Y-89900000I75000J0D01*
G01*
X160400000Y-89900000D01*
G75*
G02*
X160475000Y-89975000I0J-75000D01*
G01*
X160475000Y-90125000D01*
G75*
G02*
X160400000Y-90200000I-75000J0D01*
G01*
X159075000Y-90200000D01*
G75*
G02*
X159000000Y-90125000I0J75000D01*
G01*
G37*
G36*
G01*
X159000000Y-90625000D02*
X159000000Y-90475000D01*
G75*
G02*
X159075000Y-90400000I75000J0D01*
G01*
X160400000Y-90400000D01*
G75*
G02*
X160475000Y-90475000I0J-75000D01*
G01*
X160475000Y-90625000D01*
G75*
G02*
X160400000Y-90700000I-75000J0D01*
G01*
X159075000Y-90700000D01*
G75*
G02*
X159000000Y-90625000I0J75000D01*
G01*
G37*
G36*
G01*
X159000000Y-91125000D02*
X159000000Y-90975000D01*
G75*
G02*
X159075000Y-90900000I75000J0D01*
G01*
X160400000Y-90900000D01*
G75*
G02*
X160475000Y-90975000I0J-75000D01*
G01*
X160475000Y-91125000D01*
G75*
G02*
X160400000Y-91200000I-75000J0D01*
G01*
X159075000Y-91200000D01*
G75*
G02*
X159000000Y-91125000I0J75000D01*
G01*
G37*
G36*
G01*
X159000000Y-91625000D02*
X159000000Y-91475000D01*
G75*
G02*
X159075000Y-91400000I75000J0D01*
G01*
X160400000Y-91400000D01*
G75*
G02*
X160475000Y-91475000I0J-75000D01*
G01*
X160475000Y-91625000D01*
G75*
G02*
X160400000Y-91700000I-75000J0D01*
G01*
X159075000Y-91700000D01*
G75*
G02*
X159000000Y-91625000I0J75000D01*
G01*
G37*
G36*
G01*
X159000000Y-92125000D02*
X159000000Y-91975000D01*
G75*
G02*
X159075000Y-91900000I75000J0D01*
G01*
X160400000Y-91900000D01*
G75*
G02*
X160475000Y-91975000I0J-75000D01*
G01*
X160475000Y-92125000D01*
G75*
G02*
X160400000Y-92200000I-75000J0D01*
G01*
X159075000Y-92200000D01*
G75*
G02*
X159000000Y-92125000I0J75000D01*
G01*
G37*
G36*
G01*
X159000000Y-92625000D02*
X159000000Y-92475000D01*
G75*
G02*
X159075000Y-92400000I75000J0D01*
G01*
X160400000Y-92400000D01*
G75*
G02*
X160475000Y-92475000I0J-75000D01*
G01*
X160475000Y-92625000D01*
G75*
G02*
X160400000Y-92700000I-75000J0D01*
G01*
X159075000Y-92700000D01*
G75*
G02*
X159000000Y-92625000I0J75000D01*
G01*
G37*
G36*
G01*
X159000000Y-93125000D02*
X159000000Y-92975000D01*
G75*
G02*
X159075000Y-92900000I75000J0D01*
G01*
X160400000Y-92900000D01*
G75*
G02*
X160475000Y-92975000I0J-75000D01*
G01*
X160475000Y-93125000D01*
G75*
G02*
X160400000Y-93200000I-75000J0D01*
G01*
X159075000Y-93200000D01*
G75*
G02*
X159000000Y-93125000I0J75000D01*
G01*
G37*
G36*
G01*
X159000000Y-93625000D02*
X159000000Y-93475000D01*
G75*
G02*
X159075000Y-93400000I75000J0D01*
G01*
X160400000Y-93400000D01*
G75*
G02*
X160475000Y-93475000I0J-75000D01*
G01*
X160475000Y-93625000D01*
G75*
G02*
X160400000Y-93700000I-75000J0D01*
G01*
X159075000Y-93700000D01*
G75*
G02*
X159000000Y-93625000I0J75000D01*
G01*
G37*
G36*
G01*
X159000000Y-94125000D02*
X159000000Y-93975000D01*
G75*
G02*
X159075000Y-93900000I75000J0D01*
G01*
X160400000Y-93900000D01*
G75*
G02*
X160475000Y-93975000I0J-75000D01*
G01*
X160475000Y-94125000D01*
G75*
G02*
X160400000Y-94200000I-75000J0D01*
G01*
X159075000Y-94200000D01*
G75*
G02*
X159000000Y-94125000I0J75000D01*
G01*
G37*
G36*
G01*
X159000000Y-94625000D02*
X159000000Y-94475000D01*
G75*
G02*
X159075000Y-94400000I75000J0D01*
G01*
X160400000Y-94400000D01*
G75*
G02*
X160475000Y-94475000I0J-75000D01*
G01*
X160475000Y-94625000D01*
G75*
G02*
X160400000Y-94700000I-75000J0D01*
G01*
X159075000Y-94700000D01*
G75*
G02*
X159000000Y-94625000I0J75000D01*
G01*
G37*
G36*
G01*
X159000000Y-95125000D02*
X159000000Y-94975000D01*
G75*
G02*
X159075000Y-94900000I75000J0D01*
G01*
X160400000Y-94900000D01*
G75*
G02*
X160475000Y-94975000I0J-75000D01*
G01*
X160475000Y-95125000D01*
G75*
G02*
X160400000Y-95200000I-75000J0D01*
G01*
X159075000Y-95200000D01*
G75*
G02*
X159000000Y-95125000I0J75000D01*
G01*
G37*
G36*
G01*
X159000000Y-95625000D02*
X159000000Y-95475000D01*
G75*
G02*
X159075000Y-95400000I75000J0D01*
G01*
X160400000Y-95400000D01*
G75*
G02*
X160475000Y-95475000I0J-75000D01*
G01*
X160475000Y-95625000D01*
G75*
G02*
X160400000Y-95700000I-75000J0D01*
G01*
X159075000Y-95700000D01*
G75*
G02*
X159000000Y-95625000I0J75000D01*
G01*
G37*
G36*
G01*
X159000000Y-96125000D02*
X159000000Y-95975000D01*
G75*
G02*
X159075000Y-95900000I75000J0D01*
G01*
X160400000Y-95900000D01*
G75*
G02*
X160475000Y-95975000I0J-75000D01*
G01*
X160475000Y-96125000D01*
G75*
G02*
X160400000Y-96200000I-75000J0D01*
G01*
X159075000Y-96200000D01*
G75*
G02*
X159000000Y-96125000I0J75000D01*
G01*
G37*
%TD*%
D13*
%TO.C,U4*%
X137700000Y-76110000D03*
X137700000Y-75460000D03*
X137700000Y-74800000D03*
X137700000Y-74150000D03*
X135500000Y-74150000D03*
X135500000Y-74800000D03*
X135500000Y-75460000D03*
X135500000Y-76110000D03*
%TD*%
D14*
%TO.C,U3*%
X129197500Y-99875000D03*
X129197500Y-98325000D03*
X130402500Y-99875000D03*
X130402500Y-98325000D03*
D15*
X132580000Y-101005000D03*
X132580000Y-99735000D03*
X132580000Y-98465000D03*
X132580000Y-97195000D03*
X127020000Y-97195000D03*
X127020000Y-98465000D03*
X127020000Y-99735000D03*
X127020000Y-101005000D03*
%TD*%
D16*
%TO.C,U2*%
X155500000Y-77000000D03*
X157500000Y-77950000D03*
X157500000Y-76050000D03*
%TD*%
D17*
%TO.C,U1*%
X150200000Y-84800000D03*
X150200000Y-82900000D03*
X148000000Y-82900000D03*
X148000000Y-83850000D03*
X148000000Y-84800000D03*
%TD*%
%TO.C,R20*%
G36*
G01*
X153337333Y-78115400D02*
X153887333Y-78115400D01*
G75*
G02*
X154087333Y-78315400I0J-200000D01*
G01*
X154087333Y-78715400D01*
G75*
G02*
X153887333Y-78915400I-200000J0D01*
G01*
X153337333Y-78915400D01*
G75*
G02*
X153137333Y-78715400I0J200000D01*
G01*
X153137333Y-78315400D01*
G75*
G02*
X153337333Y-78115400I200000J0D01*
G01*
G37*
G36*
G01*
X153337333Y-76465400D02*
X153887333Y-76465400D01*
G75*
G02*
X154087333Y-76665400I0J-200000D01*
G01*
X154087333Y-77065400D01*
G75*
G02*
X153887333Y-77265400I-200000J0D01*
G01*
X153337333Y-77265400D01*
G75*
G02*
X153137333Y-77065400I0J200000D01*
G01*
X153137333Y-76665400D01*
G75*
G02*
X153337333Y-76465400I200000J0D01*
G01*
G37*
%TD*%
%TO.C,R15*%
G36*
G01*
X127550000Y-94925000D02*
X127550000Y-95475000D01*
G75*
G02*
X127350000Y-95675000I-200000J0D01*
G01*
X126950000Y-95675000D01*
G75*
G02*
X126750000Y-95475000I0J200000D01*
G01*
X126750000Y-94925000D01*
G75*
G02*
X126950000Y-94725000I200000J0D01*
G01*
X127350000Y-94725000D01*
G75*
G02*
X127550000Y-94925000I0J-200000D01*
G01*
G37*
G36*
G01*
X129200000Y-94925000D02*
X129200000Y-95475000D01*
G75*
G02*
X129000000Y-95675000I-200000J0D01*
G01*
X128600000Y-95675000D01*
G75*
G02*
X128400000Y-95475000I0J200000D01*
G01*
X128400000Y-94925000D01*
G75*
G02*
X128600000Y-94725000I200000J0D01*
G01*
X129000000Y-94725000D01*
G75*
G02*
X129200000Y-94925000I0J-200000D01*
G01*
G37*
%TD*%
%TO.C,R14*%
G36*
G01*
X131300000Y-94925000D02*
X131300000Y-95475000D01*
G75*
G02*
X131100000Y-95675000I-200000J0D01*
G01*
X130700000Y-95675000D01*
G75*
G02*
X130500000Y-95475000I0J200000D01*
G01*
X130500000Y-94925000D01*
G75*
G02*
X130700000Y-94725000I200000J0D01*
G01*
X131100000Y-94725000D01*
G75*
G02*
X131300000Y-94925000I0J-200000D01*
G01*
G37*
G36*
G01*
X132950000Y-94925000D02*
X132950000Y-95475000D01*
G75*
G02*
X132750000Y-95675000I-200000J0D01*
G01*
X132350000Y-95675000D01*
G75*
G02*
X132150000Y-95475000I0J200000D01*
G01*
X132150000Y-94925000D01*
G75*
G02*
X132350000Y-94725000I200000J0D01*
G01*
X132750000Y-94725000D01*
G75*
G02*
X132950000Y-94925000I0J-200000D01*
G01*
G37*
%TD*%
%TO.C,R12*%
G36*
G01*
X137500000Y-78175000D02*
X137500000Y-77625000D01*
G75*
G02*
X137700000Y-77425000I200000J0D01*
G01*
X138100000Y-77425000D01*
G75*
G02*
X138300000Y-77625000I0J-200000D01*
G01*
X138300000Y-78175000D01*
G75*
G02*
X138100000Y-78375000I-200000J0D01*
G01*
X137700000Y-78375000D01*
G75*
G02*
X137500000Y-78175000I0J200000D01*
G01*
G37*
G36*
G01*
X135850000Y-78175000D02*
X135850000Y-77625000D01*
G75*
G02*
X136050000Y-77425000I200000J0D01*
G01*
X136450000Y-77425000D01*
G75*
G02*
X136650000Y-77625000I0J-200000D01*
G01*
X136650000Y-78175000D01*
G75*
G02*
X136450000Y-78375000I-200000J0D01*
G01*
X136050000Y-78375000D01*
G75*
G02*
X135850000Y-78175000I0J200000D01*
G01*
G37*
%TD*%
%TO.C,R11*%
G36*
G01*
X133900000Y-71925000D02*
X133900000Y-72475000D01*
G75*
G02*
X133700000Y-72675000I-200000J0D01*
G01*
X133300000Y-72675000D01*
G75*
G02*
X133100000Y-72475000I0J200000D01*
G01*
X133100000Y-71925000D01*
G75*
G02*
X133300000Y-71725000I200000J0D01*
G01*
X133700000Y-71725000D01*
G75*
G02*
X133900000Y-71925000I0J-200000D01*
G01*
G37*
G36*
G01*
X135550000Y-71925000D02*
X135550000Y-72475000D01*
G75*
G02*
X135350000Y-72675000I-200000J0D01*
G01*
X134950000Y-72675000D01*
G75*
G02*
X134750000Y-72475000I0J200000D01*
G01*
X134750000Y-71925000D01*
G75*
G02*
X134950000Y-71725000I200000J0D01*
G01*
X135350000Y-71725000D01*
G75*
G02*
X135550000Y-71925000I0J-200000D01*
G01*
G37*
%TD*%
%TO.C,R10*%
G36*
G01*
X125175000Y-95875000D02*
X124625000Y-95875000D01*
G75*
G02*
X124425000Y-95675000I0J200000D01*
G01*
X124425000Y-95275000D01*
G75*
G02*
X124625000Y-95075000I200000J0D01*
G01*
X125175000Y-95075000D01*
G75*
G02*
X125375000Y-95275000I0J-200000D01*
G01*
X125375000Y-95675000D01*
G75*
G02*
X125175000Y-95875000I-200000J0D01*
G01*
G37*
G36*
G01*
X125175000Y-97525000D02*
X124625000Y-97525000D01*
G75*
G02*
X124425000Y-97325000I0J200000D01*
G01*
X124425000Y-96925000D01*
G75*
G02*
X124625000Y-96725000I200000J0D01*
G01*
X125175000Y-96725000D01*
G75*
G02*
X125375000Y-96925000I0J-200000D01*
G01*
X125375000Y-97325000D01*
G75*
G02*
X125175000Y-97525000I-200000J0D01*
G01*
G37*
%TD*%
%TO.C,R9*%
G36*
G01*
X133875000Y-74900000D02*
X133325000Y-74900000D01*
G75*
G02*
X133125000Y-74700000I0J200000D01*
G01*
X133125000Y-74300000D01*
G75*
G02*
X133325000Y-74100000I200000J0D01*
G01*
X133875000Y-74100000D01*
G75*
G02*
X134075000Y-74300000I0J-200000D01*
G01*
X134075000Y-74700000D01*
G75*
G02*
X133875000Y-74900000I-200000J0D01*
G01*
G37*
G36*
G01*
X133875000Y-76550000D02*
X133325000Y-76550000D01*
G75*
G02*
X133125000Y-76350000I0J200000D01*
G01*
X133125000Y-75950000D01*
G75*
G02*
X133325000Y-75750000I200000J0D01*
G01*
X133875000Y-75750000D01*
G75*
G02*
X134075000Y-75950000I0J-200000D01*
G01*
X134075000Y-76350000D01*
G75*
G02*
X133875000Y-76550000I-200000J0D01*
G01*
G37*
%TD*%
%TO.C,R8*%
G36*
G01*
X133875000Y-78150000D02*
X133325000Y-78150000D01*
G75*
G02*
X133125000Y-77950000I0J200000D01*
G01*
X133125000Y-77550000D01*
G75*
G02*
X133325000Y-77350000I200000J0D01*
G01*
X133875000Y-77350000D01*
G75*
G02*
X134075000Y-77550000I0J-200000D01*
G01*
X134075000Y-77950000D01*
G75*
G02*
X133875000Y-78150000I-200000J0D01*
G01*
G37*
G36*
G01*
X133875000Y-79800000D02*
X133325000Y-79800000D01*
G75*
G02*
X133125000Y-79600000I0J200000D01*
G01*
X133125000Y-79200000D01*
G75*
G02*
X133325000Y-79000000I200000J0D01*
G01*
X133875000Y-79000000D01*
G75*
G02*
X134075000Y-79200000I0J-200000D01*
G01*
X134075000Y-79600000D01*
G75*
G02*
X133875000Y-79800000I-200000J0D01*
G01*
G37*
%TD*%
%TO.C,R7*%
G36*
G01*
X166325000Y-73075000D02*
X166325000Y-72525000D01*
G75*
G02*
X166525000Y-72325000I200000J0D01*
G01*
X166925000Y-72325000D01*
G75*
G02*
X167125000Y-72525000I0J-200000D01*
G01*
X167125000Y-73075000D01*
G75*
G02*
X166925000Y-73275000I-200000J0D01*
G01*
X166525000Y-73275000D01*
G75*
G02*
X166325000Y-73075000I0J200000D01*
G01*
G37*
G36*
G01*
X164675000Y-73075000D02*
X164675000Y-72525000D01*
G75*
G02*
X164875000Y-72325000I200000J0D01*
G01*
X165275000Y-72325000D01*
G75*
G02*
X165475000Y-72525000I0J-200000D01*
G01*
X165475000Y-73075000D01*
G75*
G02*
X165275000Y-73275000I-200000J0D01*
G01*
X164875000Y-73275000D01*
G75*
G02*
X164675000Y-73075000I0J200000D01*
G01*
G37*
%TD*%
%TO.C,R6*%
G36*
G01*
X163000000Y-73075000D02*
X163000000Y-72525000D01*
G75*
G02*
X163200000Y-72325000I200000J0D01*
G01*
X163600000Y-72325000D01*
G75*
G02*
X163800000Y-72525000I0J-200000D01*
G01*
X163800000Y-73075000D01*
G75*
G02*
X163600000Y-73275000I-200000J0D01*
G01*
X163200000Y-73275000D01*
G75*
G02*
X163000000Y-73075000I0J200000D01*
G01*
G37*
G36*
G01*
X161350000Y-73075000D02*
X161350000Y-72525000D01*
G75*
G02*
X161550000Y-72325000I200000J0D01*
G01*
X161950000Y-72325000D01*
G75*
G02*
X162150000Y-72525000I0J-200000D01*
G01*
X162150000Y-73075000D01*
G75*
G02*
X161950000Y-73275000I-200000J0D01*
G01*
X161550000Y-73275000D01*
G75*
G02*
X161350000Y-73075000I0J200000D01*
G01*
G37*
%TD*%
%TO.C,R3*%
G36*
G01*
X124575000Y-74875000D02*
X124025000Y-74875000D01*
G75*
G02*
X123825000Y-74675000I0J200000D01*
G01*
X123825000Y-74275000D01*
G75*
G02*
X124025000Y-74075000I200000J0D01*
G01*
X124575000Y-74075000D01*
G75*
G02*
X124775000Y-74275000I0J-200000D01*
G01*
X124775000Y-74675000D01*
G75*
G02*
X124575000Y-74875000I-200000J0D01*
G01*
G37*
G36*
G01*
X124575000Y-76525000D02*
X124025000Y-76525000D01*
G75*
G02*
X123825000Y-76325000I0J200000D01*
G01*
X123825000Y-75925000D01*
G75*
G02*
X124025000Y-75725000I200000J0D01*
G01*
X124575000Y-75725000D01*
G75*
G02*
X124775000Y-75925000I0J-200000D01*
G01*
X124775000Y-76325000D01*
G75*
G02*
X124575000Y-76525000I-200000J0D01*
G01*
G37*
%TD*%
%TO.C,R2*%
G36*
G01*
X127975000Y-90900000D02*
X127425000Y-90900000D01*
G75*
G02*
X127225000Y-90700000I0J200000D01*
G01*
X127225000Y-90300000D01*
G75*
G02*
X127425000Y-90100000I200000J0D01*
G01*
X127975000Y-90100000D01*
G75*
G02*
X128175000Y-90300000I0J-200000D01*
G01*
X128175000Y-90700000D01*
G75*
G02*
X127975000Y-90900000I-200000J0D01*
G01*
G37*
G36*
G01*
X127975000Y-92550000D02*
X127425000Y-92550000D01*
G75*
G02*
X127225000Y-92350000I0J200000D01*
G01*
X127225000Y-91950000D01*
G75*
G02*
X127425000Y-91750000I200000J0D01*
G01*
X127975000Y-91750000D01*
G75*
G02*
X128175000Y-91950000I0J-200000D01*
G01*
X128175000Y-92350000D01*
G75*
G02*
X127975000Y-92550000I-200000J0D01*
G01*
G37*
%TD*%
%TO.C,R1*%
G36*
G01*
X127400000Y-86575000D02*
X127400000Y-86025000D01*
G75*
G02*
X127600000Y-85825000I200000J0D01*
G01*
X128000000Y-85825000D01*
G75*
G02*
X128200000Y-86025000I0J-200000D01*
G01*
X128200000Y-86575000D01*
G75*
G02*
X128000000Y-86775000I-200000J0D01*
G01*
X127600000Y-86775000D01*
G75*
G02*
X127400000Y-86575000I0J200000D01*
G01*
G37*
G36*
G01*
X125750000Y-86575000D02*
X125750000Y-86025000D01*
G75*
G02*
X125950000Y-85825000I200000J0D01*
G01*
X126350000Y-85825000D01*
G75*
G02*
X126550000Y-86025000I0J-200000D01*
G01*
X126550000Y-86575000D01*
G75*
G02*
X126350000Y-86775000I-200000J0D01*
G01*
X125950000Y-86775000D01*
G75*
G02*
X125750000Y-86575000I0J200000D01*
G01*
G37*
%TD*%
D18*
%TO.C,Q4*%
X123100000Y-77900000D03*
X122150000Y-79900000D03*
X124050000Y-79900000D03*
%TD*%
D16*
%TO.C,Q3*%
X131600000Y-91300000D03*
X129600000Y-90350000D03*
X129600000Y-92250000D03*
%TD*%
D19*
%TO.C,Q2*%
X128875000Y-77275000D03*
D20*
X126595000Y-83575000D03*
X131155000Y-83575000D03*
%TD*%
D18*
%TO.C,Q1*%
X130600000Y-86300000D03*
X129650000Y-88300000D03*
X131550000Y-88300000D03*
%TD*%
D21*
%TO.C,M1*%
X115000000Y-92950000D03*
%TD*%
%TO.C,L2*%
G36*
G01*
X142935000Y-79625000D02*
X145865000Y-79625000D01*
G75*
G02*
X146100000Y-79860000I0J-235000D01*
G01*
X146100000Y-81740000D01*
G75*
G02*
X145865000Y-81975000I-235000J0D01*
G01*
X142935000Y-81975000D01*
G75*
G02*
X142700000Y-81740000I0J235000D01*
G01*
X142700000Y-79860000D01*
G75*
G02*
X142935000Y-79625000I235000J0D01*
G01*
G37*
G36*
G01*
X142935000Y-73575000D02*
X145865000Y-73575000D01*
G75*
G02*
X146100000Y-73810000I0J-235000D01*
G01*
X146100000Y-75690000D01*
G75*
G02*
X145865000Y-75925000I-235000J0D01*
G01*
X142935000Y-75925000D01*
G75*
G02*
X142700000Y-75690000I0J235000D01*
G01*
X142700000Y-73810000D01*
G75*
G02*
X142935000Y-73575000I235000J0D01*
G01*
G37*
%TD*%
D22*
%TO.C,L1*%
X144250000Y-99900000D03*
X135950000Y-99900000D03*
%TD*%
D23*
%TO.C,J4*%
X113200000Y-99600000D03*
D24*
X113200000Y-104600000D03*
D25*
X108200000Y-96600000D03*
X108200000Y-107600000D03*
%TD*%
%TO.C,J3*%
G36*
G01*
X107650000Y-99400000D02*
X105450000Y-99400000D01*
G75*
G02*
X105200000Y-99150000I0J250000D01*
G01*
X105200000Y-98650000D01*
G75*
G02*
X105450000Y-98400000I250000J0D01*
G01*
X107650000Y-98400000D01*
G75*
G02*
X107900000Y-98650000I0J-250000D01*
G01*
X107900000Y-99150000D01*
G75*
G02*
X107650000Y-99400000I-250000J0D01*
G01*
G37*
G36*
G01*
X107650000Y-105600000D02*
X105450000Y-105600000D01*
G75*
G02*
X105200000Y-105350000I0J250000D01*
G01*
X105200000Y-104850000D01*
G75*
G02*
X105450000Y-104600000I250000J0D01*
G01*
X107650000Y-104600000D01*
G75*
G02*
X107900000Y-104850000I0J-250000D01*
G01*
X107900000Y-105350000D01*
G75*
G02*
X107650000Y-105600000I-250000J0D01*
G01*
G37*
G36*
G01*
X110450000Y-101050000D02*
X109050000Y-101050000D01*
G75*
G02*
X108900000Y-100900000I0J150000D01*
G01*
X108900000Y-100600000D01*
G75*
G02*
X109050000Y-100450000I150000J0D01*
G01*
X110450000Y-100450000D01*
G75*
G02*
X110600000Y-100600000I0J-150000D01*
G01*
X110600000Y-100900000D01*
G75*
G02*
X110450000Y-101050000I-150000J0D01*
G01*
G37*
G36*
G01*
X110450000Y-102300000D02*
X109050000Y-102300000D01*
G75*
G02*
X108900000Y-102150000I0J150000D01*
G01*
X108900000Y-101850000D01*
G75*
G02*
X109050000Y-101700000I150000J0D01*
G01*
X110450000Y-101700000D01*
G75*
G02*
X110600000Y-101850000I0J-150000D01*
G01*
X110600000Y-102150000D01*
G75*
G02*
X110450000Y-102300000I-150000J0D01*
G01*
G37*
G36*
G01*
X110450000Y-103550000D02*
X109050000Y-103550000D01*
G75*
G02*
X108900000Y-103400000I0J150000D01*
G01*
X108900000Y-103100000D01*
G75*
G02*
X109050000Y-102950000I150000J0D01*
G01*
X110450000Y-102950000D01*
G75*
G02*
X110600000Y-103100000I0J-150000D01*
G01*
X110600000Y-103400000D01*
G75*
G02*
X110450000Y-103550000I-150000J0D01*
G01*
G37*
%TD*%
D26*
%TO.C,J2*%
X192760000Y-85260000D03*
X197840000Y-85260000D03*
X197840000Y-90340000D03*
X192760000Y-90340000D03*
X195300000Y-87800000D03*
%TD*%
D23*
%TO.C,J1*%
X118200000Y-83600000D03*
D24*
X118200000Y-78600000D03*
D25*
X108200000Y-86600000D03*
X108200000Y-75600000D03*
%TD*%
D27*
%TO.C,D1*%
X133250000Y-92770000D03*
D28*
X137600000Y-91800000D03*
D27*
X133250000Y-90830000D03*
%TD*%
%TO.C,C49*%
G36*
G01*
X191650000Y-105425000D02*
X192150000Y-105425000D01*
G75*
G02*
X192375000Y-105650000I0J-225000D01*
G01*
X192375000Y-106100000D01*
G75*
G02*
X192150000Y-106325000I-225000J0D01*
G01*
X191650000Y-106325000D01*
G75*
G02*
X191425000Y-106100000I0J225000D01*
G01*
X191425000Y-105650000D01*
G75*
G02*
X191650000Y-105425000I225000J0D01*
G01*
G37*
G36*
G01*
X191650000Y-103875000D02*
X192150000Y-103875000D01*
G75*
G02*
X192375000Y-104100000I0J-225000D01*
G01*
X192375000Y-104550000D01*
G75*
G02*
X192150000Y-104775000I-225000J0D01*
G01*
X191650000Y-104775000D01*
G75*
G02*
X191425000Y-104550000I0J225000D01*
G01*
X191425000Y-104100000D01*
G75*
G02*
X191650000Y-103875000I225000J0D01*
G01*
G37*
%TD*%
%TO.C,C48*%
G36*
G01*
X189450000Y-103075000D02*
X188950000Y-103075000D01*
G75*
G02*
X188725000Y-102850000I0J225000D01*
G01*
X188725000Y-102400000D01*
G75*
G02*
X188950000Y-102175000I225000J0D01*
G01*
X189450000Y-102175000D01*
G75*
G02*
X189675000Y-102400000I0J-225000D01*
G01*
X189675000Y-102850000D01*
G75*
G02*
X189450000Y-103075000I-225000J0D01*
G01*
G37*
G36*
G01*
X189450000Y-104625000D02*
X188950000Y-104625000D01*
G75*
G02*
X188725000Y-104400000I0J225000D01*
G01*
X188725000Y-103950000D01*
G75*
G02*
X188950000Y-103725000I225000J0D01*
G01*
X189450000Y-103725000D01*
G75*
G02*
X189675000Y-103950000I0J-225000D01*
G01*
X189675000Y-104400000D01*
G75*
G02*
X189450000Y-104625000I-225000J0D01*
G01*
G37*
%TD*%
%TO.C,C47*%
G36*
G01*
X170550000Y-110225000D02*
X171050000Y-110225000D01*
G75*
G02*
X171275000Y-110450000I0J-225000D01*
G01*
X171275000Y-110900000D01*
G75*
G02*
X171050000Y-111125000I-225000J0D01*
G01*
X170550000Y-111125000D01*
G75*
G02*
X170325000Y-110900000I0J225000D01*
G01*
X170325000Y-110450000D01*
G75*
G02*
X170550000Y-110225000I225000J0D01*
G01*
G37*
G36*
G01*
X170550000Y-108675000D02*
X171050000Y-108675000D01*
G75*
G02*
X171275000Y-108900000I0J-225000D01*
G01*
X171275000Y-109350000D01*
G75*
G02*
X171050000Y-109575000I-225000J0D01*
G01*
X170550000Y-109575000D01*
G75*
G02*
X170325000Y-109350000I0J225000D01*
G01*
X170325000Y-108900000D01*
G75*
G02*
X170550000Y-108675000I225000J0D01*
G01*
G37*
%TD*%
%TO.C,C45*%
G36*
G01*
X187550000Y-105250000D02*
X187050000Y-105250000D01*
G75*
G02*
X186825000Y-105025000I0J225000D01*
G01*
X186825000Y-104575000D01*
G75*
G02*
X187050000Y-104350000I225000J0D01*
G01*
X187550000Y-104350000D01*
G75*
G02*
X187775000Y-104575000I0J-225000D01*
G01*
X187775000Y-105025000D01*
G75*
G02*
X187550000Y-105250000I-225000J0D01*
G01*
G37*
G36*
G01*
X187550000Y-106800000D02*
X187050000Y-106800000D01*
G75*
G02*
X186825000Y-106575000I0J225000D01*
G01*
X186825000Y-106125000D01*
G75*
G02*
X187050000Y-105900000I225000J0D01*
G01*
X187550000Y-105900000D01*
G75*
G02*
X187775000Y-106125000I0J-225000D01*
G01*
X187775000Y-106575000D01*
G75*
G02*
X187550000Y-106800000I-225000J0D01*
G01*
G37*
%TD*%
%TO.C,C44*%
G36*
G01*
X186950000Y-113625000D02*
X187450000Y-113625000D01*
G75*
G02*
X187675000Y-113850000I0J-225000D01*
G01*
X187675000Y-114300000D01*
G75*
G02*
X187450000Y-114525000I-225000J0D01*
G01*
X186950000Y-114525000D01*
G75*
G02*
X186725000Y-114300000I0J225000D01*
G01*
X186725000Y-113850000D01*
G75*
G02*
X186950000Y-113625000I225000J0D01*
G01*
G37*
G36*
G01*
X186950000Y-112075000D02*
X187450000Y-112075000D01*
G75*
G02*
X187675000Y-112300000I0J-225000D01*
G01*
X187675000Y-112750000D01*
G75*
G02*
X187450000Y-112975000I-225000J0D01*
G01*
X186950000Y-112975000D01*
G75*
G02*
X186725000Y-112750000I0J225000D01*
G01*
X186725000Y-112300000D01*
G75*
G02*
X186950000Y-112075000I225000J0D01*
G01*
G37*
%TD*%
%TO.C,C42*%
G36*
G01*
X191825000Y-113650000D02*
X191825000Y-113150000D01*
G75*
G02*
X192050000Y-112925000I225000J0D01*
G01*
X192500000Y-112925000D01*
G75*
G02*
X192725000Y-113150000I0J-225000D01*
G01*
X192725000Y-113650000D01*
G75*
G02*
X192500000Y-113875000I-225000J0D01*
G01*
X192050000Y-113875000D01*
G75*
G02*
X191825000Y-113650000I0J225000D01*
G01*
G37*
G36*
G01*
X190275000Y-113650000D02*
X190275000Y-113150000D01*
G75*
G02*
X190500000Y-112925000I225000J0D01*
G01*
X190950000Y-112925000D01*
G75*
G02*
X191175000Y-113150000I0J-225000D01*
G01*
X191175000Y-113650000D01*
G75*
G02*
X190950000Y-113875000I-225000J0D01*
G01*
X190500000Y-113875000D01*
G75*
G02*
X190275000Y-113650000I0J225000D01*
G01*
G37*
%TD*%
%TO.C,C40*%
G36*
G01*
X182350000Y-111650000D02*
X182850000Y-111650000D01*
G75*
G02*
X183075000Y-111875000I0J-225000D01*
G01*
X183075000Y-112325000D01*
G75*
G02*
X182850000Y-112550000I-225000J0D01*
G01*
X182350000Y-112550000D01*
G75*
G02*
X182125000Y-112325000I0J225000D01*
G01*
X182125000Y-111875000D01*
G75*
G02*
X182350000Y-111650000I225000J0D01*
G01*
G37*
G36*
G01*
X182350000Y-110100000D02*
X182850000Y-110100000D01*
G75*
G02*
X183075000Y-110325000I0J-225000D01*
G01*
X183075000Y-110775000D01*
G75*
G02*
X182850000Y-111000000I-225000J0D01*
G01*
X182350000Y-111000000D01*
G75*
G02*
X182125000Y-110775000I0J225000D01*
G01*
X182125000Y-110325000D01*
G75*
G02*
X182350000Y-110100000I225000J0D01*
G01*
G37*
%TD*%
%TO.C,C37*%
G36*
G01*
X188750000Y-113625000D02*
X189250000Y-113625000D01*
G75*
G02*
X189475000Y-113850000I0J-225000D01*
G01*
X189475000Y-114300000D01*
G75*
G02*
X189250000Y-114525000I-225000J0D01*
G01*
X188750000Y-114525000D01*
G75*
G02*
X188525000Y-114300000I0J225000D01*
G01*
X188525000Y-113850000D01*
G75*
G02*
X188750000Y-113625000I225000J0D01*
G01*
G37*
G36*
G01*
X188750000Y-112075000D02*
X189250000Y-112075000D01*
G75*
G02*
X189475000Y-112300000I0J-225000D01*
G01*
X189475000Y-112750000D01*
G75*
G02*
X189250000Y-112975000I-225000J0D01*
G01*
X188750000Y-112975000D01*
G75*
G02*
X188525000Y-112750000I0J225000D01*
G01*
X188525000Y-112300000D01*
G75*
G02*
X188750000Y-112075000I225000J0D01*
G01*
G37*
%TD*%
%TO.C,C36*%
G36*
G01*
X164550000Y-114875000D02*
X164050000Y-114875000D01*
G75*
G02*
X163825000Y-114650000I0J225000D01*
G01*
X163825000Y-114200000D01*
G75*
G02*
X164050000Y-113975000I225000J0D01*
G01*
X164550000Y-113975000D01*
G75*
G02*
X164775000Y-114200000I0J-225000D01*
G01*
X164775000Y-114650000D01*
G75*
G02*
X164550000Y-114875000I-225000J0D01*
G01*
G37*
G36*
G01*
X164550000Y-116425000D02*
X164050000Y-116425000D01*
G75*
G02*
X163825000Y-116200000I0J225000D01*
G01*
X163825000Y-115750000D01*
G75*
G02*
X164050000Y-115525000I225000J0D01*
G01*
X164550000Y-115525000D01*
G75*
G02*
X164775000Y-115750000I0J-225000D01*
G01*
X164775000Y-116200000D01*
G75*
G02*
X164550000Y-116425000I-225000J0D01*
G01*
G37*
%TD*%
%TO.C,C34*%
G36*
G01*
X164550000Y-110200000D02*
X164050000Y-110200000D01*
G75*
G02*
X163825000Y-109975000I0J225000D01*
G01*
X163825000Y-109525000D01*
G75*
G02*
X164050000Y-109300000I225000J0D01*
G01*
X164550000Y-109300000D01*
G75*
G02*
X164775000Y-109525000I0J-225000D01*
G01*
X164775000Y-109975000D01*
G75*
G02*
X164550000Y-110200000I-225000J0D01*
G01*
G37*
G36*
G01*
X164550000Y-111750000D02*
X164050000Y-111750000D01*
G75*
G02*
X163825000Y-111525000I0J225000D01*
G01*
X163825000Y-111075000D01*
G75*
G02*
X164050000Y-110850000I225000J0D01*
G01*
X164550000Y-110850000D01*
G75*
G02*
X164775000Y-111075000I0J-225000D01*
G01*
X164775000Y-111525000D01*
G75*
G02*
X164550000Y-111750000I-225000J0D01*
G01*
G37*
%TD*%
%TO.C,C32*%
G36*
G01*
X139650000Y-111550000D02*
X139150000Y-111550000D01*
G75*
G02*
X138925000Y-111325000I0J225000D01*
G01*
X138925000Y-110875000D01*
G75*
G02*
X139150000Y-110650000I225000J0D01*
G01*
X139650000Y-110650000D01*
G75*
G02*
X139875000Y-110875000I0J-225000D01*
G01*
X139875000Y-111325000D01*
G75*
G02*
X139650000Y-111550000I-225000J0D01*
G01*
G37*
G36*
G01*
X139650000Y-113100000D02*
X139150000Y-113100000D01*
G75*
G02*
X138925000Y-112875000I0J225000D01*
G01*
X138925000Y-112425000D01*
G75*
G02*
X139150000Y-112200000I225000J0D01*
G01*
X139650000Y-112200000D01*
G75*
G02*
X139875000Y-112425000I0J-225000D01*
G01*
X139875000Y-112875000D01*
G75*
G02*
X139650000Y-113100000I-225000J0D01*
G01*
G37*
%TD*%
%TO.C,C30*%
G36*
G01*
X153350000Y-81325000D02*
X153850000Y-81325000D01*
G75*
G02*
X154075000Y-81550000I0J-225000D01*
G01*
X154075000Y-82000000D01*
G75*
G02*
X153850000Y-82225000I-225000J0D01*
G01*
X153350000Y-82225000D01*
G75*
G02*
X153125000Y-82000000I0J225000D01*
G01*
X153125000Y-81550000D01*
G75*
G02*
X153350000Y-81325000I225000J0D01*
G01*
G37*
G36*
G01*
X153350000Y-79775000D02*
X153850000Y-79775000D01*
G75*
G02*
X154075000Y-80000000I0J-225000D01*
G01*
X154075000Y-80450000D01*
G75*
G02*
X153850000Y-80675000I-225000J0D01*
G01*
X153350000Y-80675000D01*
G75*
G02*
X153125000Y-80450000I0J225000D01*
G01*
X153125000Y-80000000D01*
G75*
G02*
X153350000Y-79775000I225000J0D01*
G01*
G37*
%TD*%
%TO.C,C25*%
G36*
G01*
X156750000Y-88550000D02*
X156750000Y-88050000D01*
G75*
G02*
X156975000Y-87825000I225000J0D01*
G01*
X157425000Y-87825000D01*
G75*
G02*
X157650000Y-88050000I0J-225000D01*
G01*
X157650000Y-88550000D01*
G75*
G02*
X157425000Y-88775000I-225000J0D01*
G01*
X156975000Y-88775000D01*
G75*
G02*
X156750000Y-88550000I0J225000D01*
G01*
G37*
G36*
G01*
X155200000Y-88550000D02*
X155200000Y-88050000D01*
G75*
G02*
X155425000Y-87825000I225000J0D01*
G01*
X155875000Y-87825000D01*
G75*
G02*
X156100000Y-88050000I0J-225000D01*
G01*
X156100000Y-88550000D01*
G75*
G02*
X155875000Y-88775000I-225000J0D01*
G01*
X155425000Y-88775000D01*
G75*
G02*
X155200000Y-88550000I0J225000D01*
G01*
G37*
%TD*%
%TO.C,C22*%
G36*
G01*
X138850000Y-106850000D02*
X138850000Y-107350000D01*
G75*
G02*
X138625000Y-107575000I-225000J0D01*
G01*
X138175000Y-107575000D01*
G75*
G02*
X137950000Y-107350000I0J225000D01*
G01*
X137950000Y-106850000D01*
G75*
G02*
X138175000Y-106625000I225000J0D01*
G01*
X138625000Y-106625000D01*
G75*
G02*
X138850000Y-106850000I0J-225000D01*
G01*
G37*
G36*
G01*
X140400000Y-106850000D02*
X140400000Y-107350000D01*
G75*
G02*
X140175000Y-107575000I-225000J0D01*
G01*
X139725000Y-107575000D01*
G75*
G02*
X139500000Y-107350000I0J225000D01*
G01*
X139500000Y-106850000D01*
G75*
G02*
X139725000Y-106625000I225000J0D01*
G01*
X140175000Y-106625000D01*
G75*
G02*
X140400000Y-106850000I0J-225000D01*
G01*
G37*
%TD*%
%TO.C,C21*%
G36*
G01*
X147450000Y-107450000D02*
X147450000Y-106950000D01*
G75*
G02*
X147675000Y-106725000I225000J0D01*
G01*
X148125000Y-106725000D01*
G75*
G02*
X148350000Y-106950000I0J-225000D01*
G01*
X148350000Y-107450000D01*
G75*
G02*
X148125000Y-107675000I-225000J0D01*
G01*
X147675000Y-107675000D01*
G75*
G02*
X147450000Y-107450000I0J225000D01*
G01*
G37*
G36*
G01*
X145900000Y-107450000D02*
X145900000Y-106950000D01*
G75*
G02*
X146125000Y-106725000I225000J0D01*
G01*
X146575000Y-106725000D01*
G75*
G02*
X146800000Y-106950000I0J-225000D01*
G01*
X146800000Y-107450000D01*
G75*
G02*
X146575000Y-107675000I-225000J0D01*
G01*
X146125000Y-107675000D01*
G75*
G02*
X145900000Y-107450000I0J225000D01*
G01*
G37*
%TD*%
%TO.C,C19*%
G36*
G01*
X156150000Y-81450000D02*
X156150000Y-81950000D01*
G75*
G02*
X155925000Y-82175000I-225000J0D01*
G01*
X155475000Y-82175000D01*
G75*
G02*
X155250000Y-81950000I0J225000D01*
G01*
X155250000Y-81450000D01*
G75*
G02*
X155475000Y-81225000I225000J0D01*
G01*
X155925000Y-81225000D01*
G75*
G02*
X156150000Y-81450000I0J-225000D01*
G01*
G37*
G36*
G01*
X157700000Y-81450000D02*
X157700000Y-81950000D01*
G75*
G02*
X157475000Y-82175000I-225000J0D01*
G01*
X157025000Y-82175000D01*
G75*
G02*
X156800000Y-81950000I0J225000D01*
G01*
X156800000Y-81450000D01*
G75*
G02*
X157025000Y-81225000I225000J0D01*
G01*
X157475000Y-81225000D01*
G75*
G02*
X157700000Y-81450000I0J-225000D01*
G01*
G37*
%TD*%
%TO.C,C16*%
G36*
G01*
X143650000Y-90350000D02*
X144750000Y-90350000D01*
G75*
G02*
X145000000Y-90600000I0J-250000D01*
G01*
X145000000Y-93600000D01*
G75*
G02*
X144750000Y-93850000I-250000J0D01*
G01*
X143650000Y-93850000D01*
G75*
G02*
X143400000Y-93600000I0J250000D01*
G01*
X143400000Y-90600000D01*
G75*
G02*
X143650000Y-90350000I250000J0D01*
G01*
G37*
G36*
G01*
X143650000Y-84950000D02*
X144750000Y-84950000D01*
G75*
G02*
X145000000Y-85200000I0J-250000D01*
G01*
X145000000Y-88200000D01*
G75*
G02*
X144750000Y-88450000I-250000J0D01*
G01*
X143650000Y-88450000D01*
G75*
G02*
X143400000Y-88200000I0J250000D01*
G01*
X143400000Y-85200000D01*
G75*
G02*
X143650000Y-84950000I250000J0D01*
G01*
G37*
%TD*%
%TO.C,C15*%
G36*
G01*
X150350000Y-95950000D02*
X149250000Y-95950000D01*
G75*
G02*
X149000000Y-95700000I0J250000D01*
G01*
X149000000Y-92700000D01*
G75*
G02*
X149250000Y-92450000I250000J0D01*
G01*
X150350000Y-92450000D01*
G75*
G02*
X150600000Y-92700000I0J-250000D01*
G01*
X150600000Y-95700000D01*
G75*
G02*
X150350000Y-95950000I-250000J0D01*
G01*
G37*
G36*
G01*
X150350000Y-101350000D02*
X149250000Y-101350000D01*
G75*
G02*
X149000000Y-101100000I0J250000D01*
G01*
X149000000Y-98100000D01*
G75*
G02*
X149250000Y-97850000I250000J0D01*
G01*
X150350000Y-97850000D01*
G75*
G02*
X150600000Y-98100000I0J-250000D01*
G01*
X150600000Y-101100000D01*
G75*
G02*
X150350000Y-101350000I-250000J0D01*
G01*
G37*
%TD*%
%TO.C,C14*%
G36*
G01*
X141500000Y-83025000D02*
X141500000Y-83975000D01*
G75*
G02*
X141250000Y-84225000I-250000J0D01*
G01*
X140750000Y-84225000D01*
G75*
G02*
X140500000Y-83975000I0J250000D01*
G01*
X140500000Y-83025000D01*
G75*
G02*
X140750000Y-82775000I250000J0D01*
G01*
X141250000Y-82775000D01*
G75*
G02*
X141500000Y-83025000I0J-250000D01*
G01*
G37*
G36*
G01*
X143400000Y-83025000D02*
X143400000Y-83975000D01*
G75*
G02*
X143150000Y-84225000I-250000J0D01*
G01*
X142650000Y-84225000D01*
G75*
G02*
X142400000Y-83975000I0J250000D01*
G01*
X142400000Y-83025000D01*
G75*
G02*
X142650000Y-82775000I250000J0D01*
G01*
X143150000Y-82775000D01*
G75*
G02*
X143400000Y-83025000I0J-250000D01*
G01*
G37*
%TD*%
%TO.C,C12*%
G36*
G01*
X139350000Y-75850000D02*
X139850000Y-75850000D01*
G75*
G02*
X140075000Y-76075000I0J-225000D01*
G01*
X140075000Y-76525000D01*
G75*
G02*
X139850000Y-76750000I-225000J0D01*
G01*
X139350000Y-76750000D01*
G75*
G02*
X139125000Y-76525000I0J225000D01*
G01*
X139125000Y-76075000D01*
G75*
G02*
X139350000Y-75850000I225000J0D01*
G01*
G37*
G36*
G01*
X139350000Y-74300000D02*
X139850000Y-74300000D01*
G75*
G02*
X140075000Y-74525000I0J-225000D01*
G01*
X140075000Y-74975000D01*
G75*
G02*
X139850000Y-75200000I-225000J0D01*
G01*
X139350000Y-75200000D01*
G75*
G02*
X139125000Y-74975000I0J225000D01*
G01*
X139125000Y-74525000D01*
G75*
G02*
X139350000Y-74300000I225000J0D01*
G01*
G37*
%TD*%
%TO.C,C10*%
G36*
G01*
X126600000Y-103575000D02*
X126600000Y-102625000D01*
G75*
G02*
X126850000Y-102375000I250000J0D01*
G01*
X127350000Y-102375000D01*
G75*
G02*
X127600000Y-102625000I0J-250000D01*
G01*
X127600000Y-103575000D01*
G75*
G02*
X127350000Y-103825000I-250000J0D01*
G01*
X126850000Y-103825000D01*
G75*
G02*
X126600000Y-103575000I0J250000D01*
G01*
G37*
G36*
G01*
X124700000Y-103575000D02*
X124700000Y-102625000D01*
G75*
G02*
X124950000Y-102375000I250000J0D01*
G01*
X125450000Y-102375000D01*
G75*
G02*
X125700000Y-102625000I0J-250000D01*
G01*
X125700000Y-103575000D01*
G75*
G02*
X125450000Y-103825000I-250000J0D01*
G01*
X124950000Y-103825000D01*
G75*
G02*
X124700000Y-103575000I0J250000D01*
G01*
G37*
%TD*%
%TO.C,C9*%
G36*
G01*
X129475000Y-102750000D02*
X129475000Y-103250000D01*
G75*
G02*
X129250000Y-103475000I-225000J0D01*
G01*
X128800000Y-103475000D01*
G75*
G02*
X128575000Y-103250000I0J225000D01*
G01*
X128575000Y-102750000D01*
G75*
G02*
X128800000Y-102525000I225000J0D01*
G01*
X129250000Y-102525000D01*
G75*
G02*
X129475000Y-102750000I0J-225000D01*
G01*
G37*
G36*
G01*
X131025000Y-102750000D02*
X131025000Y-103250000D01*
G75*
G02*
X130800000Y-103475000I-225000J0D01*
G01*
X130350000Y-103475000D01*
G75*
G02*
X130125000Y-103250000I0J225000D01*
G01*
X130125000Y-102750000D01*
G75*
G02*
X130350000Y-102525000I225000J0D01*
G01*
X130800000Y-102525000D01*
G75*
G02*
X131025000Y-102750000I0J-225000D01*
G01*
G37*
%TD*%
%TO.C,C8*%
G36*
G01*
X126450000Y-110050000D02*
X127550000Y-110050000D01*
G75*
G02*
X127800000Y-110300000I0J-250000D01*
G01*
X127800000Y-113300000D01*
G75*
G02*
X127550000Y-113550000I-250000J0D01*
G01*
X126450000Y-113550000D01*
G75*
G02*
X126200000Y-113300000I0J250000D01*
G01*
X126200000Y-110300000D01*
G75*
G02*
X126450000Y-110050000I250000J0D01*
G01*
G37*
G36*
G01*
X126450000Y-104650000D02*
X127550000Y-104650000D01*
G75*
G02*
X127800000Y-104900000I0J-250000D01*
G01*
X127800000Y-107900000D01*
G75*
G02*
X127550000Y-108150000I-250000J0D01*
G01*
X126450000Y-108150000D01*
G75*
G02*
X126200000Y-107900000I0J250000D01*
G01*
X126200000Y-104900000D01*
G75*
G02*
X126450000Y-104650000I250000J0D01*
G01*
G37*
%TD*%
%TO.C,C7*%
G36*
G01*
X135850000Y-85350000D02*
X136950000Y-85350000D01*
G75*
G02*
X137200000Y-85600000I0J-250000D01*
G01*
X137200000Y-88600000D01*
G75*
G02*
X136950000Y-88850000I-250000J0D01*
G01*
X135850000Y-88850000D01*
G75*
G02*
X135600000Y-88600000I0J250000D01*
G01*
X135600000Y-85600000D01*
G75*
G02*
X135850000Y-85350000I250000J0D01*
G01*
G37*
G36*
G01*
X135850000Y-79950000D02*
X136950000Y-79950000D01*
G75*
G02*
X137200000Y-80200000I0J-250000D01*
G01*
X137200000Y-83200000D01*
G75*
G02*
X136950000Y-83450000I-250000J0D01*
G01*
X135850000Y-83450000D01*
G75*
G02*
X135600000Y-83200000I0J250000D01*
G01*
X135600000Y-80200000D01*
G75*
G02*
X135850000Y-79950000I250000J0D01*
G01*
G37*
%TD*%
%TO.C,C6*%
G36*
G01*
X156150000Y-79650000D02*
X156150000Y-80150000D01*
G75*
G02*
X155925000Y-80375000I-225000J0D01*
G01*
X155475000Y-80375000D01*
G75*
G02*
X155250000Y-80150000I0J225000D01*
G01*
X155250000Y-79650000D01*
G75*
G02*
X155475000Y-79425000I225000J0D01*
G01*
X155925000Y-79425000D01*
G75*
G02*
X156150000Y-79650000I0J-225000D01*
G01*
G37*
G36*
G01*
X157700000Y-79650000D02*
X157700000Y-80150000D01*
G75*
G02*
X157475000Y-80375000I-225000J0D01*
G01*
X157025000Y-80375000D01*
G75*
G02*
X156800000Y-80150000I0J225000D01*
G01*
X156800000Y-79650000D01*
G75*
G02*
X157025000Y-79425000I225000J0D01*
G01*
X157475000Y-79425000D01*
G75*
G02*
X157700000Y-79650000I0J-225000D01*
G01*
G37*
%TD*%
%TO.C,C5*%
G36*
G01*
X120050000Y-103050000D02*
X121150000Y-103050000D01*
G75*
G02*
X121400000Y-103300000I0J-250000D01*
G01*
X121400000Y-106300000D01*
G75*
G02*
X121150000Y-106550000I-250000J0D01*
G01*
X120050000Y-106550000D01*
G75*
G02*
X119800000Y-106300000I0J250000D01*
G01*
X119800000Y-103300000D01*
G75*
G02*
X120050000Y-103050000I250000J0D01*
G01*
G37*
G36*
G01*
X120050000Y-97650000D02*
X121150000Y-97650000D01*
G75*
G02*
X121400000Y-97900000I0J-250000D01*
G01*
X121400000Y-100900000D01*
G75*
G02*
X121150000Y-101150000I-250000J0D01*
G01*
X120050000Y-101150000D01*
G75*
G02*
X119800000Y-100900000I0J250000D01*
G01*
X119800000Y-97900000D01*
G75*
G02*
X120050000Y-97650000I250000J0D01*
G01*
G37*
%TD*%
%TO.C,C4*%
G36*
G01*
X150250000Y-87750000D02*
X150750000Y-87750000D01*
G75*
G02*
X150975000Y-87975000I0J-225000D01*
G01*
X150975000Y-88425000D01*
G75*
G02*
X150750000Y-88650000I-225000J0D01*
G01*
X150250000Y-88650000D01*
G75*
G02*
X150025000Y-88425000I0J225000D01*
G01*
X150025000Y-87975000D01*
G75*
G02*
X150250000Y-87750000I225000J0D01*
G01*
G37*
G36*
G01*
X150250000Y-86200000D02*
X150750000Y-86200000D01*
G75*
G02*
X150975000Y-86425000I0J-225000D01*
G01*
X150975000Y-86875000D01*
G75*
G02*
X150750000Y-87100000I-225000J0D01*
G01*
X150250000Y-87100000D01*
G75*
G02*
X150025000Y-86875000I0J225000D01*
G01*
X150025000Y-86425000D01*
G75*
G02*
X150250000Y-86200000I225000J0D01*
G01*
G37*
%TD*%
%TO.C,C2*%
G36*
G01*
X148450000Y-87725000D02*
X148950000Y-87725000D01*
G75*
G02*
X149175000Y-87950000I0J-225000D01*
G01*
X149175000Y-88400000D01*
G75*
G02*
X148950000Y-88625000I-225000J0D01*
G01*
X148450000Y-88625000D01*
G75*
G02*
X148225000Y-88400000I0J225000D01*
G01*
X148225000Y-87950000D01*
G75*
G02*
X148450000Y-87725000I225000J0D01*
G01*
G37*
G36*
G01*
X148450000Y-86175000D02*
X148950000Y-86175000D01*
G75*
G02*
X149175000Y-86400000I0J-225000D01*
G01*
X149175000Y-86850000D01*
G75*
G02*
X148950000Y-87075000I-225000J0D01*
G01*
X148450000Y-87075000D01*
G75*
G02*
X148225000Y-86850000I0J225000D01*
G01*
X148225000Y-86400000D01*
G75*
G02*
X148450000Y-86175000I225000J0D01*
G01*
G37*
%TD*%
%TO.C,C1*%
G36*
G01*
X156150000Y-73850000D02*
X156150000Y-74350000D01*
G75*
G02*
X155925000Y-74575000I-225000J0D01*
G01*
X155475000Y-74575000D01*
G75*
G02*
X155250000Y-74350000I0J225000D01*
G01*
X155250000Y-73850000D01*
G75*
G02*
X155475000Y-73625000I225000J0D01*
G01*
X155925000Y-73625000D01*
G75*
G02*
X156150000Y-73850000I0J-225000D01*
G01*
G37*
G36*
G01*
X157700000Y-73850000D02*
X157700000Y-74350000D01*
G75*
G02*
X157475000Y-74575000I-225000J0D01*
G01*
X157025000Y-74575000D01*
G75*
G02*
X156800000Y-74350000I0J225000D01*
G01*
X156800000Y-73850000D01*
G75*
G02*
X157025000Y-73625000I225000J0D01*
G01*
X157475000Y-73625000D01*
G75*
G02*
X157700000Y-73850000I0J-225000D01*
G01*
G37*
%TD*%
M02*
