M48
; DRILL file {KiCad (5.1.10)-1} date 12/21/21 16:59:36
; FORMAT={-:-/ absolute / metric / decimal}
; #@! TF.CreationDate,2021-12-21T16:59:36+08:00
; #@! TF.GenerationSoftware,Kicad,Pcbnew,(5.1.10)-1
; #@! TF.FileFunction,Plated,1,4,PTH
FMAT,2
METRIC
T1C0.200
T2C0.300
T3C0.850
T4C1.000
T5C1.500
T6C1.900
%
G90
G05
T1
X108.0Y-111.5
X108.0Y-114.8
X110.0Y-88.7
X110.0Y-99.9
X110.6Y-99.3
X110.7Y-89.1
X113.6Y-74.0
X114.8Y-72.8
X117.8Y-111.0
X117.8Y-114.9
X119.2Y-104.8
X120.6Y-102.5
X122.0Y-104.8
X123.6Y-91.9
X124.6Y-92.9
X125.7Y-109.6
X125.7Y-110.7
X125.7Y-111.8
X126.1Y-95.3
X127.0Y-109.6
X127.6Y-92.0
X128.0Y-103.2
X128.1Y-104.0
X128.5Y-92.8
X128.9Y-88.3
X129.2Y-97.1
X129.2Y-101.1
X129.7Y-87.3
X130.4Y-97.1
X130.4Y-101.1
X131.155Y-84.927
X131.3Y-99.7
X131.826Y-91.059
X132.6Y-72.2
X132.7Y-74.5
X132.8Y-75.3
X133.3Y-89.9
X133.3Y-92.0
X133.3Y-93.6
X133.5Y-71.3
X133.6Y-98.5
X133.8Y-95.8
X134.5Y-74.1
X134.5Y-74.9
X135.1Y-87.1
X135.25Y-102.75
X135.9Y-72.2
X135.95Y-103.15
X136.4Y-84.8
X136.4Y-89.4
X136.5Y-103.7
X136.6Y-75.3
X137.1Y-104.2
X137.3Y-105.5
X137.7Y-87.1
X138.2Y-106.3
X139.6Y-105.0
X139.7Y-109.2
X140.0Y-111.0
X140.1Y-110.0
X140.1Y-111.6
X140.2Y-83.5
X140.7Y-105.1
X141.0Y-82.4
X141.0Y-84.5
X142.9Y-92.0
X142.9Y-109.4
X143.2Y-112.1
X144.2Y-90.0
X144.2Y-94.3
X144.25Y-99.9
X144.5Y-108.8
X144.5Y-110.2
X144.5Y-111.2
X144.6Y-104.8
X144.8Y-82.9
X145.4Y-83.5
X145.5Y-91.9
X145.9Y-84.0
X146.1Y-112.0
X146.6Y-105.8
X147.1Y-83.9
X147.3Y-105.8
X147.8Y-88.2
X148.0Y-105.8
X148.4Y-112.1
X148.5Y-94.3
X148.7Y-89.0
X149.0Y-83.9
X149.1Y-91.9
X149.4Y-112.1
X149.8Y-96.3
X150.2Y-111.4
X150.241Y-76.962
X150.3Y-102.7
X150.7Y-103.3
X151.0Y-94.8
X151.0Y-110.5
X151.5Y-88.1
X151.511Y-91.059
X151.546Y-96.1
X151.8Y-109.7
X152.5Y-73.6
X153.6Y-82.8
X154.3Y-94.146
X154.4Y-80.8
X154.4Y-84.9
X154.5Y-83.9
X154.5Y-86.1
X154.5Y-87.7
X154.5Y-89.3
X154.6Y-74.1
X154.7Y-82.4
X154.75Y-94.65
X154.9Y-79.8
X155.2Y-95.1
X155.5Y-77.7
X155.6Y-75.0
X155.6Y-82.7
X155.7Y-73.3
X155.8Y-95.502
X156.1Y-89.3
X156.2Y-77.5
X156.6Y-99.2
X157.1Y-87.3
X157.2Y-99.7
X157.3Y-89.3
X157.6Y-100.3
X158.1Y-87.4
X158.4Y-82.7
X158.4Y-83.8
X158.55Y-88.55
X158.6Y-81.4
X159.9Y-77.9
X160.8Y-75.7
X160.8Y-81.4
X161.0Y-80.1
X161.0Y-91.7
X161.1Y-88.1
X161.1Y-92.4
X161.1Y-93.5
X161.2Y-82.7
X161.8Y-90.7
X162.7Y-77.7
X162.9Y-75.3
X163.6Y-78.5
X163.7Y-75.3
X164.5Y-78.2
X164.8Y-95.4
X164.9Y-108.8
X165.2Y-78.2
X165.2Y-109.7
X165.3Y-79.1
X165.6Y-96.1
X165.9Y-110.7
X166.2Y-79.1
X166.6Y-109.6
X166.65Y-78.25
X167.0Y-74.4
X167.0Y-102.1
X167.2Y-108.5
X167.4Y-73.8
X167.7Y-100.8
X167.7Y-103.3
X168.0Y-79.1
X168.17Y-96.97
X168.2Y-78.4
X168.7Y-74.7
X169.1Y-77.7
X169.4Y-74.7
X170.1Y-110.5
X170.18Y-78.486
X170.3Y-74.81
X170.4Y-96.6
X170.7Y-103.0
X170.7Y-104.0
X170.7Y-105.1
X170.7Y-106.1
X170.7Y-107.3
X170.9Y-101.8
X171.0Y-96.1
X171.006Y-78.041
X171.9Y-78.4
X172.625Y-95.975
X173.2Y-77.9
X173.9Y-75.4
X174.1Y-77.6
X174.5Y-86.2
X174.9Y-100.8
X174.9Y-102.1
X174.9Y-103.3
X175.0Y-113.0
X175.1Y-111.6
X175.2Y-117.3
X175.3Y-109.8
X175.3Y-110.5
X175.3Y-117.9
X175.4Y-85.3
X175.5Y-104.4
X175.5Y-105.8
X175.5Y-107.1
X175.6Y-72.7
X176.0Y-112.2
X176.2Y-79.8
X176.2Y-100.7
X176.2Y-115.0
X176.3Y-86.2
X177.0Y-116.9
X177.1Y-75.1
X177.2Y-79.1
X177.2Y-113.9
X177.3Y-115.0
X177.5Y-116.9
X177.6Y-112.7
X178.2Y-72.7
X178.4Y-75.4
X178.5Y-77.9
X178.5Y-115.0
X178.6Y-92.6
X178.6Y-93.6
X178.6Y-94.4
X179.2Y-95.0
X179.3Y-71.8
X179.3Y-75.4
X179.9Y-104.7
X180.0Y-106.9
X180.2Y-72.7
X180.2Y-110.6
X181.4Y-113.9
X182.3Y-83.4
X182.3Y-88.9
X182.4Y-95.1
X182.5Y-94.3
X182.6Y-88.0
X182.7Y-96.0
X183.2Y-81.7
X183.3Y-87.2
X183.3Y-93.4
X183.3Y-110.6
X184.0Y-82.5
X184.2Y-94.3
X184.6Y-107.8
X185.2Y-104.6
X185.3Y-109.7
X185.6Y-101.8
X185.8Y-86.7
X186.5Y-114.3
X186.7Y-106.8
X186.9Y-101.8
X186.9Y-109.1
X187.2Y-112.0
X187.3Y-89.8
X187.6Y-109.7
X188.1Y-101.8
X188.2Y-104.5
X188.6Y-108.0
X188.6Y-112.1
X188.8Y-80.9
X189.0Y-114.8
X189.0Y-116.9
X189.3Y-104.7
X189.3Y-108.7
X189.4Y-101.8
X190.0Y-115.8
X190.1Y-81.7
X190.5Y-110.8
X190.5Y-113.0
X190.6Y-103.1
X190.6Y-106.9
X191.0Y-102.1
X191.3Y-80.9
X192.0Y-102.1
X192.3Y-103.9
X192.3Y-114.4
X192.5Y-108.8
X192.5Y-111.4
X192.8Y-105.9
X193.2Y-113.5
T2
X114.4Y-117.6
X121.5Y-88.3
X121.5Y-89.0
X122.2Y-88.3
X122.2Y-89.0
X122.9Y-88.3
X122.9Y-89.0
X123.6Y-88.3
X123.6Y-89.0
X126.4Y-80.8
X126.4Y-81.5
X127.1Y-80.8
X127.1Y-81.5
X127.8Y-80.8
X127.8Y-81.5
X128.5Y-80.8
X128.5Y-81.5
X132.8Y-78.6
X139.2Y-83.0
X145.4Y-108.8
X150.4Y-85.6
X153.5Y-99.4
X155.9Y-97.8
X156.8Y-97.8
X157.6Y-97.8
X161.2Y-89.7
X162.8Y-80.1
X164.0Y-96.2
X168.925Y-99.525
X170.1Y-109.1
X170.4Y-99.6
X174.2Y-96.5
X179.4Y-87.6
X179.5Y-85.8
T3
X115.0Y-92.95
T4
X108.2Y-75.6
X108.2Y-86.6
X108.2Y-96.6
X108.2Y-107.6
X161.7Y-108.82
X161.7Y-111.36
X161.7Y-113.9
X161.7Y-116.44
X192.9Y-76.0
X192.9Y-78.54
X192.9Y-81.08
T5
X192.76Y-85.26
X192.76Y-90.34
X195.3Y-87.8
X197.84Y-85.26
X197.84Y-90.34
T6
X113.2Y-99.6
X113.2Y-104.6
X118.2Y-78.6
X118.2Y-83.6
T0
M30
