%TF.GenerationSoftware,KiCad,Pcbnew,(5.1.10)-1*%
%TF.CreationDate,2021-12-05T20:13:46+08:00*%
%TF.ProjectId,project,70726f6a-6563-4742-9e6b-696361645f70,1.0.1*%
%TF.SameCoordinates,Original*%
%TF.FileFunction,Paste,Top*%
%TF.FilePolarity,Positive*%
%FSLAX46Y46*%
G04 Gerber Fmt 4.6, Leading zero omitted, Abs format (unit mm)*
G04 Created by KiCad (PCBNEW (5.1.10)-1) date 2021-12-05 20:13:46*
%MOMM*%
%LPD*%
G01*
G04 APERTURE LIST*
%ADD10C,0.300000*%
%ADD11R,1.060000X0.650000*%
%ADD12C,0.457200*%
%ADD13R,1.500000X1.500000*%
%ADD14R,0.740000X2.400000*%
%ADD15R,0.400000X2.000000*%
G04 APERTURE END LIST*
D10*
X168050000Y-88178571D02*
X168907142Y-88178571D01*
X168478571Y-89678571D02*
X168478571Y-88178571D01*
X169978571Y-89607142D02*
X169835714Y-89678571D01*
X169550000Y-89678571D01*
X169407142Y-89607142D01*
X169335714Y-89464285D01*
X169335714Y-88892857D01*
X169407142Y-88750000D01*
X169550000Y-88678571D01*
X169835714Y-88678571D01*
X169978571Y-88750000D01*
X170050000Y-88892857D01*
X170050000Y-89035714D01*
X169335714Y-89178571D01*
X171335714Y-89678571D02*
X171335714Y-88892857D01*
X171264285Y-88750000D01*
X171121428Y-88678571D01*
X170835714Y-88678571D01*
X170692857Y-88750000D01*
X171335714Y-89607142D02*
X171192857Y-89678571D01*
X170835714Y-89678571D01*
X170692857Y-89607142D01*
X170621428Y-89464285D01*
X170621428Y-89321428D01*
X170692857Y-89178571D01*
X170835714Y-89107142D01*
X171192857Y-89107142D01*
X171335714Y-89035714D01*
X172050000Y-89678571D02*
X172050000Y-88678571D01*
X172050000Y-88821428D02*
X172121428Y-88750000D01*
X172264285Y-88678571D01*
X172478571Y-88678571D01*
X172621428Y-88750000D01*
X172692857Y-88892857D01*
X172692857Y-89678571D01*
X172692857Y-88892857D02*
X172764285Y-88750000D01*
X172907142Y-88678571D01*
X173121428Y-88678571D01*
X173264285Y-88750000D01*
X173335714Y-88892857D01*
X173335714Y-89678571D01*
X165778571Y-85178571D02*
X165778571Y-86250000D01*
X165707142Y-86464285D01*
X165564285Y-86607142D01*
X165350000Y-86678571D01*
X165207142Y-86678571D01*
X167064285Y-86607142D02*
X166921428Y-86678571D01*
X166635714Y-86678571D01*
X166492857Y-86607142D01*
X166421428Y-86464285D01*
X166421428Y-85892857D01*
X166492857Y-85750000D01*
X166635714Y-85678571D01*
X166921428Y-85678571D01*
X167064285Y-85750000D01*
X167135714Y-85892857D01*
X167135714Y-86035714D01*
X166421428Y-86178571D01*
X167707142Y-86607142D02*
X167850000Y-86678571D01*
X168135714Y-86678571D01*
X168278571Y-86607142D01*
X168350000Y-86464285D01*
X168350000Y-86392857D01*
X168278571Y-86250000D01*
X168135714Y-86178571D01*
X167921428Y-86178571D01*
X167778571Y-86107142D01*
X167707142Y-85964285D01*
X167707142Y-85892857D01*
X167778571Y-85750000D01*
X167921428Y-85678571D01*
X168135714Y-85678571D01*
X168278571Y-85750000D01*
X169635714Y-85678571D02*
X169635714Y-86678571D01*
X168992857Y-85678571D02*
X168992857Y-86464285D01*
X169064285Y-86607142D01*
X169207142Y-86678571D01*
X169421428Y-86678571D01*
X169564285Y-86607142D01*
X169635714Y-86535714D01*
X170278571Y-86607142D02*
X170421428Y-86678571D01*
X170707142Y-86678571D01*
X170850000Y-86607142D01*
X170921428Y-86464285D01*
X170921428Y-86392857D01*
X170850000Y-86250000D01*
X170707142Y-86178571D01*
X170492857Y-86178571D01*
X170350000Y-86107142D01*
X170278571Y-85964285D01*
X170278571Y-85892857D01*
X170350000Y-85750000D01*
X170492857Y-85678571D01*
X170707142Y-85678571D01*
X170850000Y-85750000D01*
X181985714Y-74750000D02*
X181842857Y-74678571D01*
X181628571Y-74678571D01*
X181414285Y-74750000D01*
X181271428Y-74892857D01*
X181200000Y-75035714D01*
X181128571Y-75321428D01*
X181128571Y-75535714D01*
X181200000Y-75821428D01*
X181271428Y-75964285D01*
X181414285Y-76107142D01*
X181628571Y-76178571D01*
X181771428Y-76178571D01*
X181985714Y-76107142D01*
X182057142Y-76035714D01*
X182057142Y-75535714D01*
X181771428Y-75535714D01*
X182700000Y-76178571D02*
X182700000Y-74678571D01*
X183057142Y-74678571D01*
X183271428Y-74750000D01*
X183414285Y-74892857D01*
X183485714Y-75035714D01*
X183557142Y-75321428D01*
X183557142Y-75535714D01*
X183485714Y-75821428D01*
X183414285Y-75964285D01*
X183271428Y-76107142D01*
X183057142Y-76178571D01*
X182700000Y-76178571D01*
X184200000Y-74678571D02*
X184200000Y-75892857D01*
X184271428Y-76035714D01*
X184342857Y-76107142D01*
X184485714Y-76178571D01*
X184771428Y-76178571D01*
X184914285Y-76107142D01*
X184985714Y-76035714D01*
X185057142Y-75892857D01*
X185057142Y-74678571D01*
X185557142Y-74678571D02*
X186414285Y-74678571D01*
X185985714Y-76178571D02*
X185985714Y-74678571D01*
X181280714Y-72421428D02*
X181352142Y-72350000D01*
X181495000Y-72278571D01*
X181852142Y-72278571D01*
X181995000Y-72350000D01*
X182066428Y-72421428D01*
X182137857Y-72564285D01*
X182137857Y-72707142D01*
X182066428Y-72921428D01*
X181209285Y-73778571D01*
X182137857Y-73778571D01*
X183066428Y-72278571D02*
X183209285Y-72278571D01*
X183352142Y-72350000D01*
X183423571Y-72421428D01*
X183495000Y-72564285D01*
X183566428Y-72850000D01*
X183566428Y-73207142D01*
X183495000Y-73492857D01*
X183423571Y-73635714D01*
X183352142Y-73707142D01*
X183209285Y-73778571D01*
X183066428Y-73778571D01*
X182923571Y-73707142D01*
X182852142Y-73635714D01*
X182780714Y-73492857D01*
X182709285Y-73207142D01*
X182709285Y-72850000D01*
X182780714Y-72564285D01*
X182852142Y-72421428D01*
X182923571Y-72350000D01*
X183066428Y-72278571D01*
X184137857Y-72421428D02*
X184209285Y-72350000D01*
X184352142Y-72278571D01*
X184709285Y-72278571D01*
X184852142Y-72350000D01*
X184923571Y-72421428D01*
X184995000Y-72564285D01*
X184995000Y-72707142D01*
X184923571Y-72921428D01*
X184066428Y-73778571D01*
X184995000Y-73778571D01*
X186423571Y-73778571D02*
X185566428Y-73778571D01*
X185995000Y-73778571D02*
X185995000Y-72278571D01*
X185852142Y-72492857D01*
X185709285Y-72635714D01*
X185566428Y-72707142D01*
X188137857Y-72207142D02*
X186852142Y-74135714D01*
X189423571Y-73778571D02*
X188566428Y-73778571D01*
X188995000Y-73778571D02*
X188995000Y-72278571D01*
X188852142Y-72492857D01*
X188709285Y-72635714D01*
X188566428Y-72707142D01*
X189995000Y-72421428D02*
X190066428Y-72350000D01*
X190209285Y-72278571D01*
X190566428Y-72278571D01*
X190709285Y-72350000D01*
X190780714Y-72421428D01*
X190852142Y-72564285D01*
X190852142Y-72707142D01*
X190780714Y-72921428D01*
X189923571Y-73778571D01*
X190852142Y-73778571D01*
X192566428Y-72207142D02*
X191280714Y-74135714D01*
X193352142Y-72278571D02*
X193495000Y-72278571D01*
X193637857Y-72350000D01*
X193709285Y-72421428D01*
X193780714Y-72564285D01*
X193852142Y-72850000D01*
X193852142Y-73207142D01*
X193780714Y-73492857D01*
X193709285Y-73635714D01*
X193637857Y-73707142D01*
X193495000Y-73778571D01*
X193352142Y-73778571D01*
X193209285Y-73707142D01*
X193137857Y-73635714D01*
X193066428Y-73492857D01*
X192995000Y-73207142D01*
X192995000Y-72850000D01*
X193066428Y-72564285D01*
X193137857Y-72421428D01*
X193209285Y-72350000D01*
X193352142Y-72278571D01*
X195209285Y-72278571D02*
X194495000Y-72278571D01*
X194423571Y-72992857D01*
X194495000Y-72921428D01*
X194637857Y-72850000D01*
X194995000Y-72850000D01*
X195137857Y-72921428D01*
X195209285Y-72992857D01*
X195280714Y-73135714D01*
X195280714Y-73492857D01*
X195209285Y-73635714D01*
X195137857Y-73707142D01*
X194995000Y-73778571D01*
X194637857Y-73778571D01*
X194495000Y-73707142D01*
X194423571Y-73635714D01*
%TO.C,C57*%
G36*
G01*
X109475000Y-114550000D02*
X109475000Y-115050000D01*
G75*
G02*
X109250000Y-115275000I-225000J0D01*
G01*
X108800000Y-115275000D01*
G75*
G02*
X108575000Y-115050000I0J225000D01*
G01*
X108575000Y-114550000D01*
G75*
G02*
X108800000Y-114325000I225000J0D01*
G01*
X109250000Y-114325000D01*
G75*
G02*
X109475000Y-114550000I0J-225000D01*
G01*
G37*
G36*
G01*
X111025000Y-114550000D02*
X111025000Y-115050000D01*
G75*
G02*
X110800000Y-115275000I-225000J0D01*
G01*
X110350000Y-115275000D01*
G75*
G02*
X110125000Y-115050000I0J225000D01*
G01*
X110125000Y-114550000D01*
G75*
G02*
X110350000Y-114325000I225000J0D01*
G01*
X110800000Y-114325000D01*
G75*
G02*
X111025000Y-114550000I0J-225000D01*
G01*
G37*
%TD*%
%TO.C,C55*%
G36*
G01*
X109475000Y-111250000D02*
X109475000Y-111750000D01*
G75*
G02*
X109250000Y-111975000I-225000J0D01*
G01*
X108800000Y-111975000D01*
G75*
G02*
X108575000Y-111750000I0J225000D01*
G01*
X108575000Y-111250000D01*
G75*
G02*
X108800000Y-111025000I225000J0D01*
G01*
X109250000Y-111025000D01*
G75*
G02*
X109475000Y-111250000I0J-225000D01*
G01*
G37*
G36*
G01*
X111025000Y-111250000D02*
X111025000Y-111750000D01*
G75*
G02*
X110800000Y-111975000I-225000J0D01*
G01*
X110350000Y-111975000D01*
G75*
G02*
X110125000Y-111750000I0J225000D01*
G01*
X110125000Y-111250000D01*
G75*
G02*
X110350000Y-111025000I225000J0D01*
G01*
X110800000Y-111025000D01*
G75*
G02*
X111025000Y-111250000I0J-225000D01*
G01*
G37*
%TD*%
%TO.C,C52*%
G36*
G01*
X189525000Y-80350000D02*
X190475000Y-80350000D01*
G75*
G02*
X190725000Y-80600000I0J-250000D01*
G01*
X190725000Y-81100000D01*
G75*
G02*
X190475000Y-81350000I-250000J0D01*
G01*
X189525000Y-81350000D01*
G75*
G02*
X189275000Y-81100000I0J250000D01*
G01*
X189275000Y-80600000D01*
G75*
G02*
X189525000Y-80350000I250000J0D01*
G01*
G37*
G36*
G01*
X189525000Y-78450000D02*
X190475000Y-78450000D01*
G75*
G02*
X190725000Y-78700000I0J-250000D01*
G01*
X190725000Y-79200000D01*
G75*
G02*
X190475000Y-79450000I-250000J0D01*
G01*
X189525000Y-79450000D01*
G75*
G02*
X189275000Y-79200000I0J250000D01*
G01*
X189275000Y-78700000D01*
G75*
G02*
X189525000Y-78450000I250000J0D01*
G01*
G37*
%TD*%
%TO.C,U11*%
G36*
G01*
X186350000Y-80275000D02*
X186350000Y-79925000D01*
G75*
G02*
X186525000Y-79750000I175000J0D01*
G01*
X187975000Y-79750000D01*
G75*
G02*
X188150000Y-79925000I0J-175000D01*
G01*
X188150000Y-80275000D01*
G75*
G02*
X187975000Y-80450000I-175000J0D01*
G01*
X186525000Y-80450000D01*
G75*
G02*
X186350000Y-80275000I0J175000D01*
G01*
G37*
G36*
G01*
X186350000Y-81400000D02*
X186350000Y-81000000D01*
G75*
G02*
X186550000Y-80800000I200000J0D01*
G01*
X187950000Y-80800000D01*
G75*
G02*
X188150000Y-81000000I0J-200000D01*
G01*
X188150000Y-81400000D01*
G75*
G02*
X187950000Y-81600000I-200000J0D01*
G01*
X186550000Y-81600000D01*
G75*
G02*
X186350000Y-81400000I0J200000D01*
G01*
G37*
G36*
G01*
X186350000Y-82500000D02*
X186350000Y-82100000D01*
G75*
G02*
X186550000Y-81900000I200000J0D01*
G01*
X187950000Y-81900000D01*
G75*
G02*
X188150000Y-82100000I0J-200000D01*
G01*
X188150000Y-82500000D01*
G75*
G02*
X187950000Y-82700000I-200000J0D01*
G01*
X186550000Y-82700000D01*
G75*
G02*
X186350000Y-82500000I0J200000D01*
G01*
G37*
G36*
G01*
X186350000Y-83600000D02*
X186350000Y-83200000D01*
G75*
G02*
X186550000Y-83000000I200000J0D01*
G01*
X187950000Y-83000000D01*
G75*
G02*
X188150000Y-83200000I0J-200000D01*
G01*
X188150000Y-83600000D01*
G75*
G02*
X187950000Y-83800000I-200000J0D01*
G01*
X186550000Y-83800000D01*
G75*
G02*
X186350000Y-83600000I0J200000D01*
G01*
G37*
G36*
G01*
X186350000Y-84700000D02*
X186350000Y-84300000D01*
G75*
G02*
X186550000Y-84100000I200000J0D01*
G01*
X187950000Y-84100000D01*
G75*
G02*
X188150000Y-84300000I0J-200000D01*
G01*
X188150000Y-84700000D01*
G75*
G02*
X187950000Y-84900000I-200000J0D01*
G01*
X186550000Y-84900000D01*
G75*
G02*
X186350000Y-84700000I0J200000D01*
G01*
G37*
G36*
G01*
X186350000Y-85800000D02*
X186350000Y-85400000D01*
G75*
G02*
X186550000Y-85200000I200000J0D01*
G01*
X187950000Y-85200000D01*
G75*
G02*
X188150000Y-85400000I0J-200000D01*
G01*
X188150000Y-85800000D01*
G75*
G02*
X187950000Y-86000000I-200000J0D01*
G01*
X186550000Y-86000000D01*
G75*
G02*
X186350000Y-85800000I0J200000D01*
G01*
G37*
G36*
G01*
X186350000Y-86900000D02*
X186350000Y-86500000D01*
G75*
G02*
X186550000Y-86300000I200000J0D01*
G01*
X187950000Y-86300000D01*
G75*
G02*
X188150000Y-86500000I0J-200000D01*
G01*
X188150000Y-86900000D01*
G75*
G02*
X187950000Y-87100000I-200000J0D01*
G01*
X186550000Y-87100000D01*
G75*
G02*
X186350000Y-86900000I0J200000D01*
G01*
G37*
G36*
G01*
X186350000Y-88000000D02*
X186350000Y-87600000D01*
G75*
G02*
X186550000Y-87400000I200000J0D01*
G01*
X187950000Y-87400000D01*
G75*
G02*
X188150000Y-87600000I0J-200000D01*
G01*
X188150000Y-88000000D01*
G75*
G02*
X187950000Y-88200000I-200000J0D01*
G01*
X186550000Y-88200000D01*
G75*
G02*
X186350000Y-88000000I0J200000D01*
G01*
G37*
G36*
G01*
X186350000Y-89075000D02*
X186350000Y-88725000D01*
G75*
G02*
X186525000Y-88550000I175000J0D01*
G01*
X187975000Y-88550000D01*
G75*
G02*
X188150000Y-88725000I0J-175000D01*
G01*
X188150000Y-89075000D01*
G75*
G02*
X187975000Y-89250000I-175000J0D01*
G01*
X186525000Y-89250000D01*
G75*
G02*
X186350000Y-89075000I0J175000D01*
G01*
G37*
G36*
G01*
X176850000Y-89075000D02*
X176850000Y-88725000D01*
G75*
G02*
X177025000Y-88550000I175000J0D01*
G01*
X178475000Y-88550000D01*
G75*
G02*
X178650000Y-88725000I0J-175000D01*
G01*
X178650000Y-89075000D01*
G75*
G02*
X178475000Y-89250000I-175000J0D01*
G01*
X177025000Y-89250000D01*
G75*
G02*
X176850000Y-89075000I0J175000D01*
G01*
G37*
G36*
G01*
X176850000Y-88000000D02*
X176850000Y-87600000D01*
G75*
G02*
X177050000Y-87400000I200000J0D01*
G01*
X178450000Y-87400000D01*
G75*
G02*
X178650000Y-87600000I0J-200000D01*
G01*
X178650000Y-88000000D01*
G75*
G02*
X178450000Y-88200000I-200000J0D01*
G01*
X177050000Y-88200000D01*
G75*
G02*
X176850000Y-88000000I0J200000D01*
G01*
G37*
G36*
G01*
X176850000Y-86900000D02*
X176850000Y-86500000D01*
G75*
G02*
X177050000Y-86300000I200000J0D01*
G01*
X178450000Y-86300000D01*
G75*
G02*
X178650000Y-86500000I0J-200000D01*
G01*
X178650000Y-86900000D01*
G75*
G02*
X178450000Y-87100000I-200000J0D01*
G01*
X177050000Y-87100000D01*
G75*
G02*
X176850000Y-86900000I0J200000D01*
G01*
G37*
G36*
G01*
X176850000Y-85800000D02*
X176850000Y-85400000D01*
G75*
G02*
X177050000Y-85200000I200000J0D01*
G01*
X178450000Y-85200000D01*
G75*
G02*
X178650000Y-85400000I0J-200000D01*
G01*
X178650000Y-85800000D01*
G75*
G02*
X178450000Y-86000000I-200000J0D01*
G01*
X177050000Y-86000000D01*
G75*
G02*
X176850000Y-85800000I0J200000D01*
G01*
G37*
G36*
G01*
X176850000Y-84700000D02*
X176850000Y-84300000D01*
G75*
G02*
X177050000Y-84100000I200000J0D01*
G01*
X178450000Y-84100000D01*
G75*
G02*
X178650000Y-84300000I0J-200000D01*
G01*
X178650000Y-84700000D01*
G75*
G02*
X178450000Y-84900000I-200000J0D01*
G01*
X177050000Y-84900000D01*
G75*
G02*
X176850000Y-84700000I0J200000D01*
G01*
G37*
G36*
G01*
X176850000Y-83600000D02*
X176850000Y-83200000D01*
G75*
G02*
X177050000Y-83000000I200000J0D01*
G01*
X178450000Y-83000000D01*
G75*
G02*
X178650000Y-83200000I0J-200000D01*
G01*
X178650000Y-83600000D01*
G75*
G02*
X178450000Y-83800000I-200000J0D01*
G01*
X177050000Y-83800000D01*
G75*
G02*
X176850000Y-83600000I0J200000D01*
G01*
G37*
G36*
G01*
X176850000Y-82500000D02*
X176850000Y-82100000D01*
G75*
G02*
X177050000Y-81900000I200000J0D01*
G01*
X178450000Y-81900000D01*
G75*
G02*
X178650000Y-82100000I0J-200000D01*
G01*
X178650000Y-82500000D01*
G75*
G02*
X178450000Y-82700000I-200000J0D01*
G01*
X177050000Y-82700000D01*
G75*
G02*
X176850000Y-82500000I0J200000D01*
G01*
G37*
G36*
G01*
X176850000Y-81400000D02*
X176850000Y-81000000D01*
G75*
G02*
X177050000Y-80800000I200000J0D01*
G01*
X178450000Y-80800000D01*
G75*
G02*
X178650000Y-81000000I0J-200000D01*
G01*
X178650000Y-81400000D01*
G75*
G02*
X178450000Y-81600000I-200000J0D01*
G01*
X177050000Y-81600000D01*
G75*
G02*
X176850000Y-81400000I0J200000D01*
G01*
G37*
G36*
G01*
X176850000Y-80275000D02*
X176850000Y-79925000D01*
G75*
G02*
X177025000Y-79750000I175000J0D01*
G01*
X178475000Y-79750000D01*
G75*
G02*
X178650000Y-79925000I0J-175000D01*
G01*
X178650000Y-80275000D01*
G75*
G02*
X178475000Y-80450000I-175000J0D01*
G01*
X177025000Y-80450000D01*
G75*
G02*
X176850000Y-80275000I0J175000D01*
G01*
G37*
%TD*%
%TO.C,U10*%
G36*
G01*
X172900000Y-98405000D02*
X172900000Y-98105000D01*
G75*
G02*
X173050000Y-97955000I150000J0D01*
G01*
X174700000Y-97955000D01*
G75*
G02*
X174850000Y-98105000I0J-150000D01*
G01*
X174850000Y-98405000D01*
G75*
G02*
X174700000Y-98555000I-150000J0D01*
G01*
X173050000Y-98555000D01*
G75*
G02*
X172900000Y-98405000I0J150000D01*
G01*
G37*
G36*
G01*
X172900000Y-99675000D02*
X172900000Y-99375000D01*
G75*
G02*
X173050000Y-99225000I150000J0D01*
G01*
X174700000Y-99225000D01*
G75*
G02*
X174850000Y-99375000I0J-150000D01*
G01*
X174850000Y-99675000D01*
G75*
G02*
X174700000Y-99825000I-150000J0D01*
G01*
X173050000Y-99825000D01*
G75*
G02*
X172900000Y-99675000I0J150000D01*
G01*
G37*
G36*
G01*
X172900000Y-100945000D02*
X172900000Y-100645000D01*
G75*
G02*
X173050000Y-100495000I150000J0D01*
G01*
X174700000Y-100495000D01*
G75*
G02*
X174850000Y-100645000I0J-150000D01*
G01*
X174850000Y-100945000D01*
G75*
G02*
X174700000Y-101095000I-150000J0D01*
G01*
X173050000Y-101095000D01*
G75*
G02*
X172900000Y-100945000I0J150000D01*
G01*
G37*
G36*
G01*
X172900000Y-102215000D02*
X172900000Y-101915000D01*
G75*
G02*
X173050000Y-101765000I150000J0D01*
G01*
X174700000Y-101765000D01*
G75*
G02*
X174850000Y-101915000I0J-150000D01*
G01*
X174850000Y-102215000D01*
G75*
G02*
X174700000Y-102365000I-150000J0D01*
G01*
X173050000Y-102365000D01*
G75*
G02*
X172900000Y-102215000I0J150000D01*
G01*
G37*
G36*
G01*
X172900000Y-103485000D02*
X172900000Y-103185000D01*
G75*
G02*
X173050000Y-103035000I150000J0D01*
G01*
X174700000Y-103035000D01*
G75*
G02*
X174850000Y-103185000I0J-150000D01*
G01*
X174850000Y-103485000D01*
G75*
G02*
X174700000Y-103635000I-150000J0D01*
G01*
X173050000Y-103635000D01*
G75*
G02*
X172900000Y-103485000I0J150000D01*
G01*
G37*
G36*
G01*
X172900000Y-104755000D02*
X172900000Y-104455000D01*
G75*
G02*
X173050000Y-104305000I150000J0D01*
G01*
X174700000Y-104305000D01*
G75*
G02*
X174850000Y-104455000I0J-150000D01*
G01*
X174850000Y-104755000D01*
G75*
G02*
X174700000Y-104905000I-150000J0D01*
G01*
X173050000Y-104905000D01*
G75*
G02*
X172900000Y-104755000I0J150000D01*
G01*
G37*
G36*
G01*
X172900000Y-106025000D02*
X172900000Y-105725000D01*
G75*
G02*
X173050000Y-105575000I150000J0D01*
G01*
X174700000Y-105575000D01*
G75*
G02*
X174850000Y-105725000I0J-150000D01*
G01*
X174850000Y-106025000D01*
G75*
G02*
X174700000Y-106175000I-150000J0D01*
G01*
X173050000Y-106175000D01*
G75*
G02*
X172900000Y-106025000I0J150000D01*
G01*
G37*
G36*
G01*
X172900000Y-107295000D02*
X172900000Y-106995000D01*
G75*
G02*
X173050000Y-106845000I150000J0D01*
G01*
X174700000Y-106845000D01*
G75*
G02*
X174850000Y-106995000I0J-150000D01*
G01*
X174850000Y-107295000D01*
G75*
G02*
X174700000Y-107445000I-150000J0D01*
G01*
X173050000Y-107445000D01*
G75*
G02*
X172900000Y-107295000I0J150000D01*
G01*
G37*
G36*
G01*
X167950000Y-107295000D02*
X167950000Y-106995000D01*
G75*
G02*
X168100000Y-106845000I150000J0D01*
G01*
X169750000Y-106845000D01*
G75*
G02*
X169900000Y-106995000I0J-150000D01*
G01*
X169900000Y-107295000D01*
G75*
G02*
X169750000Y-107445000I-150000J0D01*
G01*
X168100000Y-107445000D01*
G75*
G02*
X167950000Y-107295000I0J150000D01*
G01*
G37*
G36*
G01*
X167950000Y-106025000D02*
X167950000Y-105725000D01*
G75*
G02*
X168100000Y-105575000I150000J0D01*
G01*
X169750000Y-105575000D01*
G75*
G02*
X169900000Y-105725000I0J-150000D01*
G01*
X169900000Y-106025000D01*
G75*
G02*
X169750000Y-106175000I-150000J0D01*
G01*
X168100000Y-106175000D01*
G75*
G02*
X167950000Y-106025000I0J150000D01*
G01*
G37*
G36*
G01*
X167950000Y-104755000D02*
X167950000Y-104455000D01*
G75*
G02*
X168100000Y-104305000I150000J0D01*
G01*
X169750000Y-104305000D01*
G75*
G02*
X169900000Y-104455000I0J-150000D01*
G01*
X169900000Y-104755000D01*
G75*
G02*
X169750000Y-104905000I-150000J0D01*
G01*
X168100000Y-104905000D01*
G75*
G02*
X167950000Y-104755000I0J150000D01*
G01*
G37*
G36*
G01*
X167950000Y-103485000D02*
X167950000Y-103185000D01*
G75*
G02*
X168100000Y-103035000I150000J0D01*
G01*
X169750000Y-103035000D01*
G75*
G02*
X169900000Y-103185000I0J-150000D01*
G01*
X169900000Y-103485000D01*
G75*
G02*
X169750000Y-103635000I-150000J0D01*
G01*
X168100000Y-103635000D01*
G75*
G02*
X167950000Y-103485000I0J150000D01*
G01*
G37*
G36*
G01*
X167950000Y-102215000D02*
X167950000Y-101915000D01*
G75*
G02*
X168100000Y-101765000I150000J0D01*
G01*
X169750000Y-101765000D01*
G75*
G02*
X169900000Y-101915000I0J-150000D01*
G01*
X169900000Y-102215000D01*
G75*
G02*
X169750000Y-102365000I-150000J0D01*
G01*
X168100000Y-102365000D01*
G75*
G02*
X167950000Y-102215000I0J150000D01*
G01*
G37*
G36*
G01*
X167950000Y-100945000D02*
X167950000Y-100645000D01*
G75*
G02*
X168100000Y-100495000I150000J0D01*
G01*
X169750000Y-100495000D01*
G75*
G02*
X169900000Y-100645000I0J-150000D01*
G01*
X169900000Y-100945000D01*
G75*
G02*
X169750000Y-101095000I-150000J0D01*
G01*
X168100000Y-101095000D01*
G75*
G02*
X167950000Y-100945000I0J150000D01*
G01*
G37*
G36*
G01*
X167950000Y-99675000D02*
X167950000Y-99375000D01*
G75*
G02*
X168100000Y-99225000I150000J0D01*
G01*
X169750000Y-99225000D01*
G75*
G02*
X169900000Y-99375000I0J-150000D01*
G01*
X169900000Y-99675000D01*
G75*
G02*
X169750000Y-99825000I-150000J0D01*
G01*
X168100000Y-99825000D01*
G75*
G02*
X167950000Y-99675000I0J150000D01*
G01*
G37*
G36*
G01*
X167950000Y-98405000D02*
X167950000Y-98105000D01*
G75*
G02*
X168100000Y-97955000I150000J0D01*
G01*
X169750000Y-97955000D01*
G75*
G02*
X169900000Y-98105000I0J-150000D01*
G01*
X169900000Y-98405000D01*
G75*
G02*
X169750000Y-98555000I-150000J0D01*
G01*
X168100000Y-98555000D01*
G75*
G02*
X167950000Y-98405000I0J150000D01*
G01*
G37*
%TD*%
%TO.C,U9*%
G36*
G01*
X172900000Y-109305000D02*
X172900000Y-109005000D01*
G75*
G02*
X173050000Y-108855000I150000J0D01*
G01*
X174700000Y-108855000D01*
G75*
G02*
X174850000Y-109005000I0J-150000D01*
G01*
X174850000Y-109305000D01*
G75*
G02*
X174700000Y-109455000I-150000J0D01*
G01*
X173050000Y-109455000D01*
G75*
G02*
X172900000Y-109305000I0J150000D01*
G01*
G37*
G36*
G01*
X172900000Y-110575000D02*
X172900000Y-110275000D01*
G75*
G02*
X173050000Y-110125000I150000J0D01*
G01*
X174700000Y-110125000D01*
G75*
G02*
X174850000Y-110275000I0J-150000D01*
G01*
X174850000Y-110575000D01*
G75*
G02*
X174700000Y-110725000I-150000J0D01*
G01*
X173050000Y-110725000D01*
G75*
G02*
X172900000Y-110575000I0J150000D01*
G01*
G37*
G36*
G01*
X172900000Y-111845000D02*
X172900000Y-111545000D01*
G75*
G02*
X173050000Y-111395000I150000J0D01*
G01*
X174700000Y-111395000D01*
G75*
G02*
X174850000Y-111545000I0J-150000D01*
G01*
X174850000Y-111845000D01*
G75*
G02*
X174700000Y-111995000I-150000J0D01*
G01*
X173050000Y-111995000D01*
G75*
G02*
X172900000Y-111845000I0J150000D01*
G01*
G37*
G36*
G01*
X172900000Y-113115000D02*
X172900000Y-112815000D01*
G75*
G02*
X173050000Y-112665000I150000J0D01*
G01*
X174700000Y-112665000D01*
G75*
G02*
X174850000Y-112815000I0J-150000D01*
G01*
X174850000Y-113115000D01*
G75*
G02*
X174700000Y-113265000I-150000J0D01*
G01*
X173050000Y-113265000D01*
G75*
G02*
X172900000Y-113115000I0J150000D01*
G01*
G37*
G36*
G01*
X172900000Y-114385000D02*
X172900000Y-114085000D01*
G75*
G02*
X173050000Y-113935000I150000J0D01*
G01*
X174700000Y-113935000D01*
G75*
G02*
X174850000Y-114085000I0J-150000D01*
G01*
X174850000Y-114385000D01*
G75*
G02*
X174700000Y-114535000I-150000J0D01*
G01*
X173050000Y-114535000D01*
G75*
G02*
X172900000Y-114385000I0J150000D01*
G01*
G37*
G36*
G01*
X172900000Y-115655000D02*
X172900000Y-115355000D01*
G75*
G02*
X173050000Y-115205000I150000J0D01*
G01*
X174700000Y-115205000D01*
G75*
G02*
X174850000Y-115355000I0J-150000D01*
G01*
X174850000Y-115655000D01*
G75*
G02*
X174700000Y-115805000I-150000J0D01*
G01*
X173050000Y-115805000D01*
G75*
G02*
X172900000Y-115655000I0J150000D01*
G01*
G37*
G36*
G01*
X172900000Y-116925000D02*
X172900000Y-116625000D01*
G75*
G02*
X173050000Y-116475000I150000J0D01*
G01*
X174700000Y-116475000D01*
G75*
G02*
X174850000Y-116625000I0J-150000D01*
G01*
X174850000Y-116925000D01*
G75*
G02*
X174700000Y-117075000I-150000J0D01*
G01*
X173050000Y-117075000D01*
G75*
G02*
X172900000Y-116925000I0J150000D01*
G01*
G37*
G36*
G01*
X172900000Y-118195000D02*
X172900000Y-117895000D01*
G75*
G02*
X173050000Y-117745000I150000J0D01*
G01*
X174700000Y-117745000D01*
G75*
G02*
X174850000Y-117895000I0J-150000D01*
G01*
X174850000Y-118195000D01*
G75*
G02*
X174700000Y-118345000I-150000J0D01*
G01*
X173050000Y-118345000D01*
G75*
G02*
X172900000Y-118195000I0J150000D01*
G01*
G37*
G36*
G01*
X167950000Y-118195000D02*
X167950000Y-117895000D01*
G75*
G02*
X168100000Y-117745000I150000J0D01*
G01*
X169750000Y-117745000D01*
G75*
G02*
X169900000Y-117895000I0J-150000D01*
G01*
X169900000Y-118195000D01*
G75*
G02*
X169750000Y-118345000I-150000J0D01*
G01*
X168100000Y-118345000D01*
G75*
G02*
X167950000Y-118195000I0J150000D01*
G01*
G37*
G36*
G01*
X167950000Y-116925000D02*
X167950000Y-116625000D01*
G75*
G02*
X168100000Y-116475000I150000J0D01*
G01*
X169750000Y-116475000D01*
G75*
G02*
X169900000Y-116625000I0J-150000D01*
G01*
X169900000Y-116925000D01*
G75*
G02*
X169750000Y-117075000I-150000J0D01*
G01*
X168100000Y-117075000D01*
G75*
G02*
X167950000Y-116925000I0J150000D01*
G01*
G37*
G36*
G01*
X167950000Y-115655000D02*
X167950000Y-115355000D01*
G75*
G02*
X168100000Y-115205000I150000J0D01*
G01*
X169750000Y-115205000D01*
G75*
G02*
X169900000Y-115355000I0J-150000D01*
G01*
X169900000Y-115655000D01*
G75*
G02*
X169750000Y-115805000I-150000J0D01*
G01*
X168100000Y-115805000D01*
G75*
G02*
X167950000Y-115655000I0J150000D01*
G01*
G37*
G36*
G01*
X167950000Y-114385000D02*
X167950000Y-114085000D01*
G75*
G02*
X168100000Y-113935000I150000J0D01*
G01*
X169750000Y-113935000D01*
G75*
G02*
X169900000Y-114085000I0J-150000D01*
G01*
X169900000Y-114385000D01*
G75*
G02*
X169750000Y-114535000I-150000J0D01*
G01*
X168100000Y-114535000D01*
G75*
G02*
X167950000Y-114385000I0J150000D01*
G01*
G37*
G36*
G01*
X167950000Y-113115000D02*
X167950000Y-112815000D01*
G75*
G02*
X168100000Y-112665000I150000J0D01*
G01*
X169750000Y-112665000D01*
G75*
G02*
X169900000Y-112815000I0J-150000D01*
G01*
X169900000Y-113115000D01*
G75*
G02*
X169750000Y-113265000I-150000J0D01*
G01*
X168100000Y-113265000D01*
G75*
G02*
X167950000Y-113115000I0J150000D01*
G01*
G37*
G36*
G01*
X167950000Y-111845000D02*
X167950000Y-111545000D01*
G75*
G02*
X168100000Y-111395000I150000J0D01*
G01*
X169750000Y-111395000D01*
G75*
G02*
X169900000Y-111545000I0J-150000D01*
G01*
X169900000Y-111845000D01*
G75*
G02*
X169750000Y-111995000I-150000J0D01*
G01*
X168100000Y-111995000D01*
G75*
G02*
X167950000Y-111845000I0J150000D01*
G01*
G37*
G36*
G01*
X167950000Y-110575000D02*
X167950000Y-110275000D01*
G75*
G02*
X168100000Y-110125000I150000J0D01*
G01*
X169750000Y-110125000D01*
G75*
G02*
X169900000Y-110275000I0J-150000D01*
G01*
X169900000Y-110575000D01*
G75*
G02*
X169750000Y-110725000I-150000J0D01*
G01*
X168100000Y-110725000D01*
G75*
G02*
X167950000Y-110575000I0J150000D01*
G01*
G37*
G36*
G01*
X167950000Y-109305000D02*
X167950000Y-109005000D01*
G75*
G02*
X168100000Y-108855000I150000J0D01*
G01*
X169750000Y-108855000D01*
G75*
G02*
X169900000Y-109005000I0J-150000D01*
G01*
X169900000Y-109305000D01*
G75*
G02*
X169750000Y-109455000I-150000J0D01*
G01*
X168100000Y-109455000D01*
G75*
G02*
X167950000Y-109305000I0J150000D01*
G01*
G37*
%TD*%
D11*
%TO.C,U8*%
X180200000Y-115950000D03*
X180200000Y-117850000D03*
X178000000Y-117850000D03*
X178000000Y-116900000D03*
X178000000Y-115950000D03*
%TD*%
D12*
%TO.C,U6*%
X183655000Y-101185000D03*
X184925000Y-101185000D03*
X186195000Y-101185000D03*
X187465000Y-101185000D03*
X188735000Y-101185000D03*
X190005000Y-101185000D03*
X191275000Y-101185000D03*
X192545000Y-101185000D03*
X186195000Y-102455000D03*
X187465000Y-102455000D03*
X188735000Y-102455000D03*
X190005000Y-102455000D03*
X184925000Y-103725000D03*
X186195000Y-103725000D03*
X190005000Y-103725000D03*
X191275000Y-103725000D03*
X186195000Y-104995000D03*
X190005000Y-104995000D03*
X184925000Y-106265000D03*
X186195000Y-106265000D03*
X190005000Y-106265000D03*
X191275000Y-106265000D03*
X183655000Y-107535000D03*
X186195000Y-107535000D03*
X190005000Y-107535000D03*
X192545000Y-107535000D03*
X184925000Y-108805000D03*
X186195000Y-108805000D03*
X190005000Y-108805000D03*
X191275000Y-108805000D03*
X183655000Y-110075000D03*
X186195000Y-110075000D03*
X190005000Y-110075000D03*
X192545000Y-110075000D03*
X184925000Y-111345000D03*
X186195000Y-111345000D03*
X187465000Y-111345000D03*
X188735000Y-111345000D03*
X190005000Y-111345000D03*
X191275000Y-111345000D03*
X183655000Y-112615000D03*
X186195000Y-112615000D03*
X190005000Y-112615000D03*
X192545000Y-112615000D03*
%TD*%
D13*
%TO.C,SW2*%
X168989600Y-72767667D03*
X176789600Y-72767667D03*
%TD*%
%TO.C,SW1*%
X121400000Y-72800000D03*
X113600000Y-72800000D03*
%TD*%
%TO.C,R19*%
G36*
G01*
X169900000Y-76275000D02*
X169900000Y-75725000D01*
G75*
G02*
X170100000Y-75525000I200000J0D01*
G01*
X170500000Y-75525000D01*
G75*
G02*
X170700000Y-75725000I0J-200000D01*
G01*
X170700000Y-76275000D01*
G75*
G02*
X170500000Y-76475000I-200000J0D01*
G01*
X170100000Y-76475000D01*
G75*
G02*
X169900000Y-76275000I0J200000D01*
G01*
G37*
G36*
G01*
X168250000Y-76275000D02*
X168250000Y-75725000D01*
G75*
G02*
X168450000Y-75525000I200000J0D01*
G01*
X168850000Y-75525000D01*
G75*
G02*
X169050000Y-75725000I0J-200000D01*
G01*
X169050000Y-76275000D01*
G75*
G02*
X168850000Y-76475000I-200000J0D01*
G01*
X168450000Y-76475000D01*
G75*
G02*
X168250000Y-76275000I0J200000D01*
G01*
G37*
%TD*%
%TO.C,R18*%
G36*
G01*
X162225000Y-74675000D02*
X162225000Y-74125000D01*
G75*
G02*
X162425000Y-73925000I200000J0D01*
G01*
X162825000Y-73925000D01*
G75*
G02*
X163025000Y-74125000I0J-200000D01*
G01*
X163025000Y-74675000D01*
G75*
G02*
X162825000Y-74875000I-200000J0D01*
G01*
X162425000Y-74875000D01*
G75*
G02*
X162225000Y-74675000I0J200000D01*
G01*
G37*
G36*
G01*
X160575000Y-74675000D02*
X160575000Y-74125000D01*
G75*
G02*
X160775000Y-73925000I200000J0D01*
G01*
X161175000Y-73925000D01*
G75*
G02*
X161375000Y-74125000I0J-200000D01*
G01*
X161375000Y-74675000D01*
G75*
G02*
X161175000Y-74875000I-200000J0D01*
G01*
X160775000Y-74875000D01*
G75*
G02*
X160575000Y-74675000I0J200000D01*
G01*
G37*
%TD*%
%TO.C,R17*%
G36*
G01*
X162250000Y-72675000D02*
X162250000Y-72125000D01*
G75*
G02*
X162450000Y-71925000I200000J0D01*
G01*
X162850000Y-71925000D01*
G75*
G02*
X163050000Y-72125000I0J-200000D01*
G01*
X163050000Y-72675000D01*
G75*
G02*
X162850000Y-72875000I-200000J0D01*
G01*
X162450000Y-72875000D01*
G75*
G02*
X162250000Y-72675000I0J200000D01*
G01*
G37*
G36*
G01*
X160600000Y-72675000D02*
X160600000Y-72125000D01*
G75*
G02*
X160800000Y-71925000I200000J0D01*
G01*
X161200000Y-71925000D01*
G75*
G02*
X161400000Y-72125000I0J-200000D01*
G01*
X161400000Y-72675000D01*
G75*
G02*
X161200000Y-72875000I-200000J0D01*
G01*
X160800000Y-72875000D01*
G75*
G02*
X160600000Y-72675000I0J200000D01*
G01*
G37*
%TD*%
%TO.C,R16*%
G36*
G01*
X165200000Y-95675000D02*
X165200000Y-95125000D01*
G75*
G02*
X165400000Y-94925000I200000J0D01*
G01*
X165800000Y-94925000D01*
G75*
G02*
X166000000Y-95125000I0J-200000D01*
G01*
X166000000Y-95675000D01*
G75*
G02*
X165800000Y-95875000I-200000J0D01*
G01*
X165400000Y-95875000D01*
G75*
G02*
X165200000Y-95675000I0J200000D01*
G01*
G37*
G36*
G01*
X163550000Y-95675000D02*
X163550000Y-95125000D01*
G75*
G02*
X163750000Y-94925000I200000J0D01*
G01*
X164150000Y-94925000D01*
G75*
G02*
X164350000Y-95125000I0J-200000D01*
G01*
X164350000Y-95675000D01*
G75*
G02*
X164150000Y-95875000I-200000J0D01*
G01*
X163750000Y-95875000D01*
G75*
G02*
X163550000Y-95675000I0J200000D01*
G01*
G37*
%TD*%
%TO.C,R13*%
G36*
G01*
X121875000Y-94875000D02*
X121325000Y-94875000D01*
G75*
G02*
X121125000Y-94675000I0J200000D01*
G01*
X121125000Y-94275000D01*
G75*
G02*
X121325000Y-94075000I200000J0D01*
G01*
X121875000Y-94075000D01*
G75*
G02*
X122075000Y-94275000I0J-200000D01*
G01*
X122075000Y-94675000D01*
G75*
G02*
X121875000Y-94875000I-200000J0D01*
G01*
G37*
G36*
G01*
X121875000Y-96525000D02*
X121325000Y-96525000D01*
G75*
G02*
X121125000Y-96325000I0J200000D01*
G01*
X121125000Y-95925000D01*
G75*
G02*
X121325000Y-95725000I200000J0D01*
G01*
X121875000Y-95725000D01*
G75*
G02*
X122075000Y-95925000I0J-200000D01*
G01*
X122075000Y-96325000D01*
G75*
G02*
X121875000Y-96525000I-200000J0D01*
G01*
G37*
%TD*%
%TO.C,R5*%
G36*
G01*
X123450000Y-76275000D02*
X123450000Y-75725000D01*
G75*
G02*
X123650000Y-75525000I200000J0D01*
G01*
X124050000Y-75525000D01*
G75*
G02*
X124250000Y-75725000I0J-200000D01*
G01*
X124250000Y-76275000D01*
G75*
G02*
X124050000Y-76475000I-200000J0D01*
G01*
X123650000Y-76475000D01*
G75*
G02*
X123450000Y-76275000I0J200000D01*
G01*
G37*
G36*
G01*
X121800000Y-76275000D02*
X121800000Y-75725000D01*
G75*
G02*
X122000000Y-75525000I200000J0D01*
G01*
X122400000Y-75525000D01*
G75*
G02*
X122600000Y-75725000I0J-200000D01*
G01*
X122600000Y-76275000D01*
G75*
G02*
X122400000Y-76475000I-200000J0D01*
G01*
X122000000Y-76475000D01*
G75*
G02*
X121800000Y-76275000I0J200000D01*
G01*
G37*
%TD*%
%TO.C,R4*%
G36*
G01*
X122675000Y-81625000D02*
X122675000Y-82175000D01*
G75*
G02*
X122475000Y-82375000I-200000J0D01*
G01*
X122075000Y-82375000D01*
G75*
G02*
X121875000Y-82175000I0J200000D01*
G01*
X121875000Y-81625000D01*
G75*
G02*
X122075000Y-81425000I200000J0D01*
G01*
X122475000Y-81425000D01*
G75*
G02*
X122675000Y-81625000I0J-200000D01*
G01*
G37*
G36*
G01*
X124325000Y-81625000D02*
X124325000Y-82175000D01*
G75*
G02*
X124125000Y-82375000I-200000J0D01*
G01*
X123725000Y-82375000D01*
G75*
G02*
X123525000Y-82175000I0J200000D01*
G01*
X123525000Y-81625000D01*
G75*
G02*
X123725000Y-81425000I200000J0D01*
G01*
X124125000Y-81425000D01*
G75*
G02*
X124325000Y-81625000I0J-200000D01*
G01*
G37*
%TD*%
D14*
%TO.C,M1*%
X113095000Y-114900000D03*
X114365000Y-111000000D03*
X115635000Y-114900000D03*
X115635000Y-111000000D03*
X116905000Y-114900000D03*
X114365000Y-114900000D03*
X113095000Y-111000000D03*
X116905000Y-111000000D03*
%TD*%
D15*
%TO.C,LCD1*%
X151800000Y-107500000D03*
X151000000Y-107500000D03*
X150200000Y-107500000D03*
X149400000Y-107500000D03*
X137400000Y-107500000D03*
X138200000Y-107500000D03*
X139000000Y-107500000D03*
X139800000Y-107500000D03*
X140600000Y-107500000D03*
X141400000Y-107500000D03*
X142200000Y-107500000D03*
X143000000Y-107500000D03*
X143800000Y-107500000D03*
X144600000Y-107500000D03*
X145400000Y-107500000D03*
X146200000Y-107500000D03*
X147000000Y-107500000D03*
X147800000Y-107500000D03*
%TD*%
%TO.C,L4*%
G36*
G01*
X189249999Y-87225000D02*
X190150001Y-87225000D01*
G75*
G02*
X190400000Y-87474999I0J-249999D01*
G01*
X190400000Y-88125001D01*
G75*
G02*
X190150001Y-88375000I-249999J0D01*
G01*
X189249999Y-88375000D01*
G75*
G02*
X189000000Y-88125001I0J249999D01*
G01*
X189000000Y-87474999D01*
G75*
G02*
X189249999Y-87225000I249999J0D01*
G01*
G37*
G36*
G01*
X189249999Y-85175000D02*
X190150001Y-85175000D01*
G75*
G02*
X190400000Y-85424999I0J-249999D01*
G01*
X190400000Y-86075001D01*
G75*
G02*
X190150001Y-86325000I-249999J0D01*
G01*
X189249999Y-86325000D01*
G75*
G02*
X189000000Y-86075001I0J249999D01*
G01*
X189000000Y-85424999D01*
G75*
G02*
X189249999Y-85175000I249999J0D01*
G01*
G37*
%TD*%
%TO.C,L3*%
G36*
G01*
X162232667Y-102890400D02*
X165162667Y-102890400D01*
G75*
G02*
X165397667Y-103125400I0J-235000D01*
G01*
X165397667Y-105005400D01*
G75*
G02*
X165162667Y-105240400I-235000J0D01*
G01*
X162232667Y-105240400D01*
G75*
G02*
X161997667Y-105005400I0J235000D01*
G01*
X161997667Y-103125400D01*
G75*
G02*
X162232667Y-102890400I235000J0D01*
G01*
G37*
G36*
G01*
X162232667Y-96840400D02*
X165162667Y-96840400D01*
G75*
G02*
X165397667Y-97075400I0J-235000D01*
G01*
X165397667Y-98955400D01*
G75*
G02*
X165162667Y-99190400I-235000J0D01*
G01*
X162232667Y-99190400D01*
G75*
G02*
X161997667Y-98955400I0J235000D01*
G01*
X161997667Y-97075400D01*
G75*
G02*
X162232667Y-96840400I235000J0D01*
G01*
G37*
%TD*%
%TO.C,D3*%
G36*
G01*
X164950000Y-74143750D02*
X164950000Y-74656250D01*
G75*
G02*
X164731250Y-74875000I-218750J0D01*
G01*
X164293750Y-74875000D01*
G75*
G02*
X164075000Y-74656250I0J218750D01*
G01*
X164075000Y-74143750D01*
G75*
G02*
X164293750Y-73925000I218750J0D01*
G01*
X164731250Y-73925000D01*
G75*
G02*
X164950000Y-74143750I0J-218750D01*
G01*
G37*
G36*
G01*
X166525000Y-74143750D02*
X166525000Y-74656250D01*
G75*
G02*
X166306250Y-74875000I-218750J0D01*
G01*
X165868750Y-74875000D01*
G75*
G02*
X165650000Y-74656250I0J218750D01*
G01*
X165650000Y-74143750D01*
G75*
G02*
X165868750Y-73925000I218750J0D01*
G01*
X166306250Y-73925000D01*
G75*
G02*
X166525000Y-74143750I0J-218750D01*
G01*
G37*
%TD*%
%TO.C,D2*%
G36*
G01*
X164950000Y-72143750D02*
X164950000Y-72656250D01*
G75*
G02*
X164731250Y-72875000I-218750J0D01*
G01*
X164293750Y-72875000D01*
G75*
G02*
X164075000Y-72656250I0J218750D01*
G01*
X164075000Y-72143750D01*
G75*
G02*
X164293750Y-71925000I218750J0D01*
G01*
X164731250Y-71925000D01*
G75*
G02*
X164950000Y-72143750I0J-218750D01*
G01*
G37*
G36*
G01*
X166525000Y-72143750D02*
X166525000Y-72656250D01*
G75*
G02*
X166306250Y-72875000I-218750J0D01*
G01*
X165868750Y-72875000D01*
G75*
G02*
X165650000Y-72656250I0J218750D01*
G01*
X165650000Y-72143750D01*
G75*
G02*
X165868750Y-71925000I218750J0D01*
G01*
X166306250Y-71925000D01*
G75*
G02*
X166525000Y-72143750I0J-218750D01*
G01*
G37*
%TD*%
%TO.C,C50*%
G36*
G01*
X175650000Y-86675000D02*
X175150000Y-86675000D01*
G75*
G02*
X174925000Y-86450000I0J225000D01*
G01*
X174925000Y-86000000D01*
G75*
G02*
X175150000Y-85775000I225000J0D01*
G01*
X175650000Y-85775000D01*
G75*
G02*
X175875000Y-86000000I0J-225000D01*
G01*
X175875000Y-86450000D01*
G75*
G02*
X175650000Y-86675000I-225000J0D01*
G01*
G37*
G36*
G01*
X175650000Y-88225000D02*
X175150000Y-88225000D01*
G75*
G02*
X174925000Y-88000000I0J225000D01*
G01*
X174925000Y-87550000D01*
G75*
G02*
X175150000Y-87325000I225000J0D01*
G01*
X175650000Y-87325000D01*
G75*
G02*
X175875000Y-87550000I0J-225000D01*
G01*
X175875000Y-88000000D01*
G75*
G02*
X175650000Y-88225000I-225000J0D01*
G01*
G37*
%TD*%
%TO.C,C46*%
G36*
G01*
X169225000Y-96750000D02*
X169225000Y-96250000D01*
G75*
G02*
X169450000Y-96025000I225000J0D01*
G01*
X169900000Y-96025000D01*
G75*
G02*
X170125000Y-96250000I0J-225000D01*
G01*
X170125000Y-96750000D01*
G75*
G02*
X169900000Y-96975000I-225000J0D01*
G01*
X169450000Y-96975000D01*
G75*
G02*
X169225000Y-96750000I0J225000D01*
G01*
G37*
G36*
G01*
X167675000Y-96750000D02*
X167675000Y-96250000D01*
G75*
G02*
X167900000Y-96025000I225000J0D01*
G01*
X168350000Y-96025000D01*
G75*
G02*
X168575000Y-96250000I0J-225000D01*
G01*
X168575000Y-96750000D01*
G75*
G02*
X168350000Y-96975000I-225000J0D01*
G01*
X167900000Y-96975000D01*
G75*
G02*
X167675000Y-96750000I0J225000D01*
G01*
G37*
%TD*%
%TO.C,C43*%
G36*
G01*
X175950000Y-110225000D02*
X176450000Y-110225000D01*
G75*
G02*
X176675000Y-110450000I0J-225000D01*
G01*
X176675000Y-110900000D01*
G75*
G02*
X176450000Y-111125000I-225000J0D01*
G01*
X175950000Y-111125000D01*
G75*
G02*
X175725000Y-110900000I0J225000D01*
G01*
X175725000Y-110450000D01*
G75*
G02*
X175950000Y-110225000I225000J0D01*
G01*
G37*
G36*
G01*
X175950000Y-108675000D02*
X176450000Y-108675000D01*
G75*
G02*
X176675000Y-108900000I0J-225000D01*
G01*
X176675000Y-109350000D01*
G75*
G02*
X176450000Y-109575000I-225000J0D01*
G01*
X175950000Y-109575000D01*
G75*
G02*
X175725000Y-109350000I0J225000D01*
G01*
X175725000Y-108900000D01*
G75*
G02*
X175950000Y-108675000I225000J0D01*
G01*
G37*
%TD*%
%TO.C,C41*%
G36*
G01*
X175950000Y-99325000D02*
X176450000Y-99325000D01*
G75*
G02*
X176675000Y-99550000I0J-225000D01*
G01*
X176675000Y-100000000D01*
G75*
G02*
X176450000Y-100225000I-225000J0D01*
G01*
X175950000Y-100225000D01*
G75*
G02*
X175725000Y-100000000I0J225000D01*
G01*
X175725000Y-99550000D01*
G75*
G02*
X175950000Y-99325000I225000J0D01*
G01*
G37*
G36*
G01*
X175950000Y-97775000D02*
X176450000Y-97775000D01*
G75*
G02*
X176675000Y-98000000I0J-225000D01*
G01*
X176675000Y-98450000D01*
G75*
G02*
X176450000Y-98675000I-225000J0D01*
G01*
X175950000Y-98675000D01*
G75*
G02*
X175725000Y-98450000I0J225000D01*
G01*
X175725000Y-98000000D01*
G75*
G02*
X175950000Y-97775000I225000J0D01*
G01*
G37*
%TD*%
%TO.C,C39*%
G36*
G01*
X178775000Y-113650000D02*
X178775000Y-114150000D01*
G75*
G02*
X178550000Y-114375000I-225000J0D01*
G01*
X178100000Y-114375000D01*
G75*
G02*
X177875000Y-114150000I0J225000D01*
G01*
X177875000Y-113650000D01*
G75*
G02*
X178100000Y-113425000I225000J0D01*
G01*
X178550000Y-113425000D01*
G75*
G02*
X178775000Y-113650000I0J-225000D01*
G01*
G37*
G36*
G01*
X180325000Y-113650000D02*
X180325000Y-114150000D01*
G75*
G02*
X180100000Y-114375000I-225000J0D01*
G01*
X179650000Y-114375000D01*
G75*
G02*
X179425000Y-114150000I0J225000D01*
G01*
X179425000Y-113650000D01*
G75*
G02*
X179650000Y-113425000I225000J0D01*
G01*
X180100000Y-113425000D01*
G75*
G02*
X180325000Y-113650000I0J-225000D01*
G01*
G37*
%TD*%
%TO.C,C38*%
G36*
G01*
X188525000Y-116050000D02*
X188525000Y-115550000D01*
G75*
G02*
X188750000Y-115325000I225000J0D01*
G01*
X189200000Y-115325000D01*
G75*
G02*
X189425000Y-115550000I0J-225000D01*
G01*
X189425000Y-116050000D01*
G75*
G02*
X189200000Y-116275000I-225000J0D01*
G01*
X188750000Y-116275000D01*
G75*
G02*
X188525000Y-116050000I0J225000D01*
G01*
G37*
G36*
G01*
X186975000Y-116050000D02*
X186975000Y-115550000D01*
G75*
G02*
X187200000Y-115325000I225000J0D01*
G01*
X187650000Y-115325000D01*
G75*
G02*
X187875000Y-115550000I0J-225000D01*
G01*
X187875000Y-116050000D01*
G75*
G02*
X187650000Y-116275000I-225000J0D01*
G01*
X187200000Y-116275000D01*
G75*
G02*
X186975000Y-116050000I0J225000D01*
G01*
G37*
%TD*%
%TO.C,C35*%
G36*
G01*
X176450000Y-116475000D02*
X175950000Y-116475000D01*
G75*
G02*
X175725000Y-116250000I0J225000D01*
G01*
X175725000Y-115800000D01*
G75*
G02*
X175950000Y-115575000I225000J0D01*
G01*
X176450000Y-115575000D01*
G75*
G02*
X176675000Y-115800000I0J-225000D01*
G01*
X176675000Y-116250000D01*
G75*
G02*
X176450000Y-116475000I-225000J0D01*
G01*
G37*
G36*
G01*
X176450000Y-118025000D02*
X175950000Y-118025000D01*
G75*
G02*
X175725000Y-117800000I0J225000D01*
G01*
X175725000Y-117350000D01*
G75*
G02*
X175950000Y-117125000I225000J0D01*
G01*
X176450000Y-117125000D01*
G75*
G02*
X176675000Y-117350000I0J-225000D01*
G01*
X176675000Y-117800000D01*
G75*
G02*
X176450000Y-118025000I-225000J0D01*
G01*
G37*
%TD*%
%TO.C,C33*%
G36*
G01*
X160700000Y-95150000D02*
X160700000Y-95650000D01*
G75*
G02*
X160475000Y-95875000I-225000J0D01*
G01*
X160025000Y-95875000D01*
G75*
G02*
X159800000Y-95650000I0J225000D01*
G01*
X159800000Y-95150000D01*
G75*
G02*
X160025000Y-94925000I225000J0D01*
G01*
X160475000Y-94925000D01*
G75*
G02*
X160700000Y-95150000I0J-225000D01*
G01*
G37*
G36*
G01*
X162250000Y-95150000D02*
X162250000Y-95650000D01*
G75*
G02*
X162025000Y-95875000I-225000J0D01*
G01*
X161575000Y-95875000D01*
G75*
G02*
X161350000Y-95650000I0J225000D01*
G01*
X161350000Y-95150000D01*
G75*
G02*
X161575000Y-94925000I225000J0D01*
G01*
X162025000Y-94925000D01*
G75*
G02*
X162250000Y-95150000I0J-225000D01*
G01*
G37*
%TD*%
%TO.C,C31*%
G36*
G01*
X161350000Y-81200000D02*
X161850000Y-81200000D01*
G75*
G02*
X162075000Y-81425000I0J-225000D01*
G01*
X162075000Y-81875000D01*
G75*
G02*
X161850000Y-82100000I-225000J0D01*
G01*
X161350000Y-82100000D01*
G75*
G02*
X161125000Y-81875000I0J225000D01*
G01*
X161125000Y-81425000D01*
G75*
G02*
X161350000Y-81200000I225000J0D01*
G01*
G37*
G36*
G01*
X161350000Y-79650000D02*
X161850000Y-79650000D01*
G75*
G02*
X162075000Y-79875000I0J-225000D01*
G01*
X162075000Y-80325000D01*
G75*
G02*
X161850000Y-80550000I-225000J0D01*
G01*
X161350000Y-80550000D01*
G75*
G02*
X161125000Y-80325000I0J225000D01*
G01*
X161125000Y-79875000D01*
G75*
G02*
X161350000Y-79650000I225000J0D01*
G01*
G37*
%TD*%
%TO.C,C29*%
G36*
G01*
X161550000Y-78050000D02*
X161550000Y-78550000D01*
G75*
G02*
X161325000Y-78775000I-225000J0D01*
G01*
X160875000Y-78775000D01*
G75*
G02*
X160650000Y-78550000I0J225000D01*
G01*
X160650000Y-78050000D01*
G75*
G02*
X160875000Y-77825000I225000J0D01*
G01*
X161325000Y-77825000D01*
G75*
G02*
X161550000Y-78050000I0J-225000D01*
G01*
G37*
G36*
G01*
X163100000Y-78050000D02*
X163100000Y-78550000D01*
G75*
G02*
X162875000Y-78775000I-225000J0D01*
G01*
X162425000Y-78775000D01*
G75*
G02*
X162200000Y-78550000I0J225000D01*
G01*
X162200000Y-78050000D01*
G75*
G02*
X162425000Y-77825000I225000J0D01*
G01*
X162875000Y-77825000D01*
G75*
G02*
X163100000Y-78050000I0J-225000D01*
G01*
G37*
%TD*%
%TO.C,C28*%
G36*
G01*
X183550000Y-94775000D02*
X183050000Y-94775000D01*
G75*
G02*
X182825000Y-94550000I0J225000D01*
G01*
X182825000Y-94100000D01*
G75*
G02*
X183050000Y-93875000I225000J0D01*
G01*
X183550000Y-93875000D01*
G75*
G02*
X183775000Y-94100000I0J-225000D01*
G01*
X183775000Y-94550000D01*
G75*
G02*
X183550000Y-94775000I-225000J0D01*
G01*
G37*
G36*
G01*
X183550000Y-96325000D02*
X183050000Y-96325000D01*
G75*
G02*
X182825000Y-96100000I0J225000D01*
G01*
X182825000Y-95650000D01*
G75*
G02*
X183050000Y-95425000I225000J0D01*
G01*
X183550000Y-95425000D01*
G75*
G02*
X183775000Y-95650000I0J-225000D01*
G01*
X183775000Y-96100000D01*
G75*
G02*
X183550000Y-96325000I-225000J0D01*
G01*
G37*
%TD*%
%TO.C,C27*%
G36*
G01*
X174250000Y-96750000D02*
X174250000Y-96250000D01*
G75*
G02*
X174475000Y-96025000I225000J0D01*
G01*
X174925000Y-96025000D01*
G75*
G02*
X175150000Y-96250000I0J-225000D01*
G01*
X175150000Y-96750000D01*
G75*
G02*
X174925000Y-96975000I-225000J0D01*
G01*
X174475000Y-96975000D01*
G75*
G02*
X174250000Y-96750000I0J225000D01*
G01*
G37*
G36*
G01*
X172700000Y-96750000D02*
X172700000Y-96250000D01*
G75*
G02*
X172925000Y-96025000I225000J0D01*
G01*
X173375000Y-96025000D01*
G75*
G02*
X173600000Y-96250000I0J-225000D01*
G01*
X173600000Y-96750000D01*
G75*
G02*
X173375000Y-96975000I-225000J0D01*
G01*
X172925000Y-96975000D01*
G75*
G02*
X172700000Y-96750000I0J225000D01*
G01*
G37*
%TD*%
%TO.C,C26*%
G36*
G01*
X179550000Y-73150000D02*
X179050000Y-73150000D01*
G75*
G02*
X178825000Y-72925000I0J225000D01*
G01*
X178825000Y-72475000D01*
G75*
G02*
X179050000Y-72250000I225000J0D01*
G01*
X179550000Y-72250000D01*
G75*
G02*
X179775000Y-72475000I0J-225000D01*
G01*
X179775000Y-72925000D01*
G75*
G02*
X179550000Y-73150000I-225000J0D01*
G01*
G37*
G36*
G01*
X179550000Y-74700000D02*
X179050000Y-74700000D01*
G75*
G02*
X178825000Y-74475000I0J225000D01*
G01*
X178825000Y-74025000D01*
G75*
G02*
X179050000Y-73800000I225000J0D01*
G01*
X179550000Y-73800000D01*
G75*
G02*
X179775000Y-74025000I0J-225000D01*
G01*
X179775000Y-74475000D01*
G75*
G02*
X179550000Y-74700000I-225000J0D01*
G01*
G37*
%TD*%
%TO.C,C24*%
G36*
G01*
X176650000Y-76250000D02*
X176650000Y-75750000D01*
G75*
G02*
X176875000Y-75525000I225000J0D01*
G01*
X177325000Y-75525000D01*
G75*
G02*
X177550000Y-75750000I0J-225000D01*
G01*
X177550000Y-76250000D01*
G75*
G02*
X177325000Y-76475000I-225000J0D01*
G01*
X176875000Y-76475000D01*
G75*
G02*
X176650000Y-76250000I0J225000D01*
G01*
G37*
G36*
G01*
X175100000Y-76250000D02*
X175100000Y-75750000D01*
G75*
G02*
X175325000Y-75525000I225000J0D01*
G01*
X175775000Y-75525000D01*
G75*
G02*
X176000000Y-75750000I0J-225000D01*
G01*
X176000000Y-76250000D01*
G75*
G02*
X175775000Y-76475000I-225000J0D01*
G01*
X175325000Y-76475000D01*
G75*
G02*
X175100000Y-76250000I0J225000D01*
G01*
G37*
%TD*%
%TO.C,C23*%
G36*
G01*
X161550000Y-89200000D02*
X162050000Y-89200000D01*
G75*
G02*
X162275000Y-89425000I0J-225000D01*
G01*
X162275000Y-89875000D01*
G75*
G02*
X162050000Y-90100000I-225000J0D01*
G01*
X161550000Y-90100000D01*
G75*
G02*
X161325000Y-89875000I0J225000D01*
G01*
X161325000Y-89425000D01*
G75*
G02*
X161550000Y-89200000I225000J0D01*
G01*
G37*
G36*
G01*
X161550000Y-87650000D02*
X162050000Y-87650000D01*
G75*
G02*
X162275000Y-87875000I0J-225000D01*
G01*
X162275000Y-88325000D01*
G75*
G02*
X162050000Y-88550000I-225000J0D01*
G01*
X161550000Y-88550000D01*
G75*
G02*
X161325000Y-88325000I0J225000D01*
G01*
X161325000Y-87875000D01*
G75*
G02*
X161550000Y-87650000I225000J0D01*
G01*
G37*
%TD*%
%TO.C,C20*%
G36*
G01*
X173050000Y-78050000D02*
X173050000Y-78550000D01*
G75*
G02*
X172825000Y-78775000I-225000J0D01*
G01*
X172375000Y-78775000D01*
G75*
G02*
X172150000Y-78550000I0J225000D01*
G01*
X172150000Y-78050000D01*
G75*
G02*
X172375000Y-77825000I225000J0D01*
G01*
X172825000Y-77825000D01*
G75*
G02*
X173050000Y-78050000I0J-225000D01*
G01*
G37*
G36*
G01*
X174600000Y-78050000D02*
X174600000Y-78550000D01*
G75*
G02*
X174375000Y-78775000I-225000J0D01*
G01*
X173925000Y-78775000D01*
G75*
G02*
X173700000Y-78550000I0J225000D01*
G01*
X173700000Y-78050000D01*
G75*
G02*
X173925000Y-77825000I225000J0D01*
G01*
X174375000Y-77825000D01*
G75*
G02*
X174600000Y-78050000I0J-225000D01*
G01*
G37*
%TD*%
%TO.C,C18*%
G36*
G01*
X162050000Y-92100000D02*
X161550000Y-92100000D01*
G75*
G02*
X161325000Y-91875000I0J225000D01*
G01*
X161325000Y-91425000D01*
G75*
G02*
X161550000Y-91200000I225000J0D01*
G01*
X162050000Y-91200000D01*
G75*
G02*
X162275000Y-91425000I0J-225000D01*
G01*
X162275000Y-91875000D01*
G75*
G02*
X162050000Y-92100000I-225000J0D01*
G01*
G37*
G36*
G01*
X162050000Y-93650000D02*
X161550000Y-93650000D01*
G75*
G02*
X161325000Y-93425000I0J225000D01*
G01*
X161325000Y-92975000D01*
G75*
G02*
X161550000Y-92750000I225000J0D01*
G01*
X162050000Y-92750000D01*
G75*
G02*
X162275000Y-92975000I0J-225000D01*
G01*
X162275000Y-93425000D01*
G75*
G02*
X162050000Y-93650000I-225000J0D01*
G01*
G37*
%TD*%
%TO.C,C17*%
G36*
G01*
X168000000Y-78050000D02*
X168000000Y-78550000D01*
G75*
G02*
X167775000Y-78775000I-225000J0D01*
G01*
X167325000Y-78775000D01*
G75*
G02*
X167100000Y-78550000I0J225000D01*
G01*
X167100000Y-78050000D01*
G75*
G02*
X167325000Y-77825000I225000J0D01*
G01*
X167775000Y-77825000D01*
G75*
G02*
X168000000Y-78050000I0J-225000D01*
G01*
G37*
G36*
G01*
X169550000Y-78050000D02*
X169550000Y-78550000D01*
G75*
G02*
X169325000Y-78775000I-225000J0D01*
G01*
X168875000Y-78775000D01*
G75*
G02*
X168650000Y-78550000I0J225000D01*
G01*
X168650000Y-78050000D01*
G75*
G02*
X168875000Y-77825000I225000J0D01*
G01*
X169325000Y-77825000D01*
G75*
G02*
X169550000Y-78050000I0J-225000D01*
G01*
G37*
%TD*%
%TO.C,C13*%
G36*
G01*
X121850000Y-91500000D02*
X121350000Y-91500000D01*
G75*
G02*
X121125000Y-91275000I0J225000D01*
G01*
X121125000Y-90825000D01*
G75*
G02*
X121350000Y-90600000I225000J0D01*
G01*
X121850000Y-90600000D01*
G75*
G02*
X122075000Y-90825000I0J-225000D01*
G01*
X122075000Y-91275000D01*
G75*
G02*
X121850000Y-91500000I-225000J0D01*
G01*
G37*
G36*
G01*
X121850000Y-93050000D02*
X121350000Y-93050000D01*
G75*
G02*
X121125000Y-92825000I0J225000D01*
G01*
X121125000Y-92375000D01*
G75*
G02*
X121350000Y-92150000I225000J0D01*
G01*
X121850000Y-92150000D01*
G75*
G02*
X122075000Y-92375000I0J-225000D01*
G01*
X122075000Y-92825000D01*
G75*
G02*
X121850000Y-93050000I-225000J0D01*
G01*
G37*
%TD*%
%TO.C,C11*%
G36*
G01*
X123850000Y-93400000D02*
X123350000Y-93400000D01*
G75*
G02*
X123125000Y-93175000I0J225000D01*
G01*
X123125000Y-92725000D01*
G75*
G02*
X123350000Y-92500000I225000J0D01*
G01*
X123850000Y-92500000D01*
G75*
G02*
X124075000Y-92725000I0J-225000D01*
G01*
X124075000Y-93175000D01*
G75*
G02*
X123850000Y-93400000I-225000J0D01*
G01*
G37*
G36*
G01*
X123850000Y-94950000D02*
X123350000Y-94950000D01*
G75*
G02*
X123125000Y-94725000I0J225000D01*
G01*
X123125000Y-94275000D01*
G75*
G02*
X123350000Y-94050000I225000J0D01*
G01*
X123850000Y-94050000D01*
G75*
G02*
X124075000Y-94275000I0J-225000D01*
G01*
X124075000Y-94725000D01*
G75*
G02*
X123850000Y-94950000I-225000J0D01*
G01*
G37*
%TD*%
%TO.C,C3*%
G36*
G01*
X123975000Y-78700000D02*
X123025000Y-78700000D01*
G75*
G02*
X122775000Y-78450000I0J250000D01*
G01*
X122775000Y-77950000D01*
G75*
G02*
X123025000Y-77700000I250000J0D01*
G01*
X123975000Y-77700000D01*
G75*
G02*
X124225000Y-77950000I0J-250000D01*
G01*
X124225000Y-78450000D01*
G75*
G02*
X123975000Y-78700000I-250000J0D01*
G01*
G37*
G36*
G01*
X123975000Y-80600000D02*
X123025000Y-80600000D01*
G75*
G02*
X122775000Y-80350000I0J250000D01*
G01*
X122775000Y-79850000D01*
G75*
G02*
X123025000Y-79600000I250000J0D01*
G01*
X123975000Y-79600000D01*
G75*
G02*
X124225000Y-79850000I0J-250000D01*
G01*
X124225000Y-80350000D01*
G75*
G02*
X123975000Y-80600000I-250000J0D01*
G01*
G37*
%TD*%
M02*
