%TF.GenerationSoftware,KiCad,Pcbnew,(6.0.1)*%
%TF.CreationDate,2022-01-18T02:16:12+08:00*%
%TF.ProjectId,project,70726f6a-6563-4742-9e6b-696361645f70,1.2.2*%
%TF.SameCoordinates,Original*%
%TF.FileFunction,Soldermask,Top*%
%TF.FilePolarity,Negative*%
%FSLAX46Y46*%
G04 Gerber Fmt 4.6, Leading zero omitted, Abs format (unit mm)*
G04 Created by KiCad (PCBNEW (6.0.1)) date 2022-01-18 02:16:12*
%MOMM*%
%LPD*%
G01*
G04 APERTURE LIST*
G04 Aperture macros list*
%AMRoundRect*
0 Rectangle with rounded corners*
0 $1 Rounding radius*
0 $2 $3 $4 $5 $6 $7 $8 $9 X,Y pos of 4 corners*
0 Add a 4 corners polygon primitive as box body*
4,1,4,$2,$3,$4,$5,$6,$7,$8,$9,$2,$3,0*
0 Add four circle primitives for the rounded corners*
1,1,$1+$1,$2,$3*
1,1,$1+$1,$4,$5*
1,1,$1+$1,$6,$7*
1,1,$1+$1,$8,$9*
0 Add four rect primitives between the rounded corners*
20,1,$1+$1,$2,$3,$4,$5,0*
20,1,$1+$1,$4,$5,$6,$7,0*
20,1,$1+$1,$6,$7,$8,$9,0*
20,1,$1+$1,$8,$9,$2,$3,0*%
G04 Aperture macros list end*
%ADD10C,0.400000*%
%ADD11RoundRect,0.225000X0.225000X0.250000X-0.225000X0.250000X-0.225000X-0.250000X0.225000X-0.250000X0*%
%ADD12R,0.740000X2.400000*%
%ADD13C,4.500000*%
%ADD14RoundRect,0.225000X-0.225000X-0.250000X0.225000X-0.250000X0.225000X0.250000X-0.225000X0.250000X0*%
%ADD15RoundRect,0.250000X-0.625000X0.350000X-0.625000X-0.350000X0.625000X-0.350000X0.625000X0.350000X0*%
%ADD16O,1.750000X1.200000*%
%ADD17RoundRect,0.225000X-0.250000X0.225000X-0.250000X-0.225000X0.250000X-0.225000X0.250000X0.225000X0*%
%ADD18RoundRect,0.225000X0.250000X-0.225000X0.250000X0.225000X-0.250000X0.225000X-0.250000X-0.225000X0*%
%ADD19RoundRect,0.200000X0.275000X-0.200000X0.275000X0.200000X-0.275000X0.200000X-0.275000X-0.200000X0*%
%ADD20RoundRect,0.150000X-0.825000X-0.150000X0.825000X-0.150000X0.825000X0.150000X-0.825000X0.150000X0*%
%ADD21R,1.700000X1.700000*%
%ADD22O,1.700000X1.700000*%
%ADD23R,0.760000X1.600000*%
%ADD24RoundRect,0.218750X0.256250X-0.218750X0.256250X0.218750X-0.256250X0.218750X-0.256250X-0.218750X0*%
%ADD25R,0.450000X0.300000*%
%ADD26R,0.300000X0.450000*%
%ADD27RoundRect,0.100000X0.100000X-0.637500X0.100000X0.637500X-0.100000X0.637500X-0.100000X-0.637500X0*%
%ADD28C,0.560000*%
%ADD29RoundRect,0.200000X0.700000X0.200000X-0.700000X0.200000X-0.700000X-0.200000X0.700000X-0.200000X0*%
%ADD30RoundRect,0.218750X-0.256250X0.218750X-0.256250X-0.218750X0.256250X-0.218750X0.256250X0.218750X0*%
%ADD31RoundRect,0.235000X-1.465000X0.940000X-1.465000X-0.940000X1.465000X-0.940000X1.465000X0.940000X0*%
%ADD32RoundRect,0.150000X-0.512500X-0.150000X0.512500X-0.150000X0.512500X0.150000X-0.512500X0.150000X0*%
%ADD33R,0.400000X2.000000*%
%ADD34C,2.250000*%
G04 APERTURE END LIST*
D10*
X62894285Y48453800D02*
X62703809Y48549039D01*
X62418095Y48549039D01*
X62132380Y48453800D01*
X61941904Y48263324D01*
X61846666Y48072848D01*
X61751428Y47691896D01*
X61751428Y47406181D01*
X61846666Y47025229D01*
X61941904Y46834753D01*
X62132380Y46644277D01*
X62418095Y46549039D01*
X62608571Y46549039D01*
X62894285Y46644277D01*
X62989523Y46739515D01*
X62989523Y47406181D01*
X62608571Y47406181D01*
X63846666Y46549039D02*
X63846666Y48549039D01*
X64322857Y48549039D01*
X64608571Y48453800D01*
X64799047Y48263324D01*
X64894285Y48072848D01*
X64989523Y47691896D01*
X64989523Y47406181D01*
X64894285Y47025229D01*
X64799047Y46834753D01*
X64608571Y46644277D01*
X64322857Y46549039D01*
X63846666Y46549039D01*
X65846666Y48549039D02*
X65846666Y46929991D01*
X65941904Y46739515D01*
X66037142Y46644277D01*
X66227619Y46549039D01*
X66608571Y46549039D01*
X66799047Y46644277D01*
X66894285Y46739515D01*
X66989523Y46929991D01*
X66989523Y48549039D01*
X67656190Y48549039D02*
X68799047Y48549039D01*
X68227619Y46549039D02*
X68227619Y48549039D01*
X56750761Y39913039D02*
X56750761Y38484467D01*
X56655523Y38198753D01*
X56465047Y38008277D01*
X56179333Y37913039D01*
X55988857Y37913039D01*
X58465047Y38008277D02*
X58274571Y37913039D01*
X57893619Y37913039D01*
X57703142Y38008277D01*
X57607904Y38198753D01*
X57607904Y38960658D01*
X57703142Y39151134D01*
X57893619Y39246372D01*
X58274571Y39246372D01*
X58465047Y39151134D01*
X58560285Y38960658D01*
X58560285Y38770181D01*
X57607904Y38579705D01*
X59322190Y38008277D02*
X59512666Y37913039D01*
X59893619Y37913039D01*
X60084095Y38008277D01*
X60179333Y38198753D01*
X60179333Y38293991D01*
X60084095Y38484467D01*
X59893619Y38579705D01*
X59607904Y38579705D01*
X59417428Y38674943D01*
X59322190Y38865420D01*
X59322190Y38960658D01*
X59417428Y39151134D01*
X59607904Y39246372D01*
X59893619Y39246372D01*
X60084095Y39151134D01*
X61893619Y39246372D02*
X61893619Y37913039D01*
X61036476Y39246372D02*
X61036476Y38198753D01*
X61131714Y38008277D01*
X61322190Y37913039D01*
X61607904Y37913039D01*
X61798380Y38008277D01*
X61893619Y38103515D01*
X62750761Y38008277D02*
X62941238Y37913039D01*
X63322190Y37913039D01*
X63512666Y38008277D01*
X63607904Y38198753D01*
X63607904Y38293991D01*
X63512666Y38484467D01*
X63322190Y38579705D01*
X63036476Y38579705D01*
X62846000Y38674943D01*
X62750761Y38865420D01*
X62750761Y38960658D01*
X62846000Y39151134D01*
X63036476Y39246372D01*
X63322190Y39246372D01*
X63512666Y39151134D01*
X70578666Y48358562D02*
X70673904Y48453800D01*
X70864380Y48549039D01*
X71340571Y48549039D01*
X71531047Y48453800D01*
X71626285Y48358562D01*
X71721523Y48168086D01*
X71721523Y47977610D01*
X71626285Y47691896D01*
X70483428Y46549039D01*
X71721523Y46549039D01*
X72959619Y48549039D02*
X73150095Y48549039D01*
X73340571Y48453800D01*
X73435809Y48358562D01*
X73531047Y48168086D01*
X73626285Y47787134D01*
X73626285Y47310943D01*
X73531047Y46929991D01*
X73435809Y46739515D01*
X73340571Y46644277D01*
X73150095Y46549039D01*
X72959619Y46549039D01*
X72769142Y46644277D01*
X72673904Y46739515D01*
X72578666Y46929991D01*
X72483428Y47310943D01*
X72483428Y47787134D01*
X72578666Y48168086D01*
X72673904Y48358562D01*
X72769142Y48453800D01*
X72959619Y48549039D01*
X74388190Y48358562D02*
X74483428Y48453800D01*
X74673904Y48549039D01*
X75150095Y48549039D01*
X75340571Y48453800D01*
X75435809Y48358562D01*
X75531047Y48168086D01*
X75531047Y47977610D01*
X75435809Y47691896D01*
X74292952Y46549039D01*
X75531047Y46549039D01*
X76292952Y48358562D02*
X76388190Y48453800D01*
X76578666Y48549039D01*
X77054857Y48549039D01*
X77245333Y48453800D01*
X77340571Y48358562D01*
X77435809Y48168086D01*
X77435809Y47977610D01*
X77340571Y47691896D01*
X76197714Y46549039D01*
X77435809Y46549039D01*
X79721523Y48644277D02*
X78007238Y46072848D01*
X80769142Y48549039D02*
X80959619Y48549039D01*
X81150095Y48453800D01*
X81245333Y48358562D01*
X81340571Y48168086D01*
X81435809Y47787134D01*
X81435809Y47310943D01*
X81340571Y46929991D01*
X81245333Y46739515D01*
X81150095Y46644277D01*
X80959619Y46549039D01*
X80769142Y46549039D01*
X80578666Y46644277D01*
X80483428Y46739515D01*
X80388190Y46929991D01*
X80292952Y47310943D01*
X80292952Y47787134D01*
X80388190Y48168086D01*
X80483428Y48358562D01*
X80578666Y48453800D01*
X80769142Y48549039D01*
X83340571Y46549039D02*
X82197714Y46549039D01*
X82769142Y46549039D02*
X82769142Y48549039D01*
X82578666Y48263324D01*
X82388190Y48072848D01*
X82197714Y47977610D01*
X85626285Y48644277D02*
X83912000Y46072848D01*
X87340571Y46549039D02*
X86197714Y46549039D01*
X86769142Y46549039D02*
X86769142Y48549039D01*
X86578666Y48263324D01*
X86388190Y48072848D01*
X86197714Y47977610D01*
X88483428Y47691896D02*
X88292952Y47787134D01*
X88197714Y47882372D01*
X88102476Y48072848D01*
X88102476Y48168086D01*
X88197714Y48358562D01*
X88292952Y48453800D01*
X88483428Y48549039D01*
X88864380Y48549039D01*
X89054857Y48453800D01*
X89150095Y48358562D01*
X89245333Y48168086D01*
X89245333Y48072848D01*
X89150095Y47882372D01*
X89054857Y47787134D01*
X88864380Y47691896D01*
X88483428Y47691896D01*
X88292952Y47596658D01*
X88197714Y47501420D01*
X88102476Y47310943D01*
X88102476Y46929991D01*
X88197714Y46739515D01*
X88292952Y46644277D01*
X88483428Y46549039D01*
X88864380Y46549039D01*
X89054857Y46644277D01*
X89150095Y46739515D01*
X89245333Y46929991D01*
X89245333Y47310943D01*
X89150095Y47501420D01*
X89054857Y47596658D01*
X88864380Y47691896D01*
X58719333Y36865039D02*
X59862190Y36865039D01*
X59290761Y34865039D02*
X59290761Y36865039D01*
X61290761Y34960277D02*
X61100285Y34865039D01*
X60719333Y34865039D01*
X60528857Y34960277D01*
X60433619Y35150753D01*
X60433619Y35912658D01*
X60528857Y36103134D01*
X60719333Y36198372D01*
X61100285Y36198372D01*
X61290761Y36103134D01*
X61386000Y35912658D01*
X61386000Y35722181D01*
X60433619Y35531705D01*
X63100285Y34865039D02*
X63100285Y35912658D01*
X63005047Y36103134D01*
X62814571Y36198372D01*
X62433619Y36198372D01*
X62243142Y36103134D01*
X63100285Y34960277D02*
X62909809Y34865039D01*
X62433619Y34865039D01*
X62243142Y34960277D01*
X62147904Y35150753D01*
X62147904Y35341229D01*
X62243142Y35531705D01*
X62433619Y35626943D01*
X62909809Y35626943D01*
X63100285Y35722181D01*
X64052666Y34865039D02*
X64052666Y36198372D01*
X64052666Y36007896D02*
X64147904Y36103134D01*
X64338380Y36198372D01*
X64624095Y36198372D01*
X64814571Y36103134D01*
X64909809Y35912658D01*
X64909809Y34865039D01*
X64909809Y35912658D02*
X65005047Y36103134D01*
X65195523Y36198372D01*
X65481238Y36198372D01*
X65671714Y36103134D01*
X65766952Y35912658D01*
X65766952Y34865039D01*
D11*
%TO.C,C22*%
X76877000Y6817600D03*
X75327000Y6817600D03*
%TD*%
D12*
%TO.C,M1*%
X8392200Y3348400D03*
X9662200Y3348400D03*
X10932200Y3348400D03*
X12202200Y3348400D03*
X12202200Y7248400D03*
X10932200Y7248400D03*
X9662200Y7248400D03*
X8392200Y7248400D03*
D13*
X10297200Y25298400D03*
%TD*%
D14*
%TO.C,C26*%
X65725800Y11948400D03*
X67275800Y11948400D03*
%TD*%
D15*
%TO.C,J2*%
X6314400Y42697400D03*
D16*
X6314400Y40697400D03*
X6314400Y38697400D03*
X6314400Y36697400D03*
X6314400Y34697400D03*
X6314400Y32697400D03*
X6314400Y30697400D03*
X6314400Y28697400D03*
%TD*%
D11*
%TO.C,C52*%
X67529800Y28513800D03*
X65979800Y28513800D03*
%TD*%
D17*
%TO.C,C2*%
X14481600Y33170400D03*
X14481600Y31620400D03*
%TD*%
D18*
%TO.C,C15*%
X72063400Y1699200D03*
X72063400Y3249200D03*
%TD*%
D19*
%TO.C,R2*%
X17631200Y42619400D03*
X17631200Y44269400D03*
%TD*%
D11*
%TO.C,C72*%
X85284400Y25842200D03*
X83734400Y25842200D03*
%TD*%
D18*
%TO.C,C18*%
X71022000Y10627600D03*
X71022000Y12177600D03*
%TD*%
D20*
%TO.C,U7*%
X64051200Y22260800D03*
X64051200Y20990800D03*
X64051200Y19720800D03*
X64051200Y18450800D03*
X64051200Y17180800D03*
X64051200Y15910800D03*
X64051200Y14640800D03*
X64051200Y13370800D03*
X69001200Y13370800D03*
X69001200Y14640800D03*
X69001200Y15910800D03*
X69001200Y17180800D03*
X69001200Y18450800D03*
X69001200Y19720800D03*
X69001200Y20990800D03*
X69001200Y22260800D03*
%TD*%
%TO.C,U6*%
X64025800Y10424400D03*
X64025800Y9154400D03*
X64025800Y7884400D03*
X64025800Y6614400D03*
X64025800Y5344400D03*
X64025800Y4074400D03*
X64025800Y2804400D03*
X64025800Y1534400D03*
X68975800Y1534400D03*
X68975800Y2804400D03*
X68975800Y4074400D03*
X68975800Y5344400D03*
X68975800Y6614400D03*
X68975800Y7884400D03*
X68975800Y9154400D03*
X68975800Y10424400D03*
%TD*%
D21*
%TO.C,U4*%
X56373600Y10895400D03*
D22*
X56373600Y8355400D03*
X56373600Y5815400D03*
X56373600Y3275400D03*
%TD*%
D23*
%TO.C,SW1*%
X11586000Y47965600D03*
X10316000Y47965600D03*
X10316000Y40345600D03*
X11586000Y40345600D03*
%TD*%
D19*
%TO.C,R5*%
X14761000Y42612800D03*
X14761000Y44262800D03*
%TD*%
D24*
%TO.C,L1*%
X84509400Y39786700D03*
X84509400Y41361700D03*
%TD*%
D25*
%TO.C,U13*%
X86587200Y26871600D03*
X86587200Y26371600D03*
X86587200Y25871600D03*
X86587200Y25371600D03*
D26*
X87112200Y24846600D03*
X87612200Y24846600D03*
X88112200Y24846600D03*
X88612200Y24846600D03*
D25*
X89137200Y25371600D03*
X89137200Y25871600D03*
X89137200Y26371600D03*
X89137200Y26871600D03*
D26*
X88612200Y27396600D03*
X88112200Y27396600D03*
X87612200Y27396600D03*
X87112200Y27396600D03*
%TD*%
D27*
%TO.C,U12*%
X14365600Y2558100D03*
X15015600Y2558100D03*
X15665600Y2558100D03*
X16315600Y2558100D03*
X16965600Y2558100D03*
X17615600Y2558100D03*
X18265600Y2558100D03*
X18915600Y2558100D03*
X18915600Y8283100D03*
X18265600Y8283100D03*
X17615600Y8283100D03*
X16965600Y8283100D03*
X16315600Y8283100D03*
X15665600Y8283100D03*
X15015600Y8283100D03*
X14365600Y8283100D03*
%TD*%
D28*
%TO.C,U3*%
X78845200Y18628600D03*
X80115200Y18628600D03*
X81385200Y18628600D03*
X82655200Y18628600D03*
X83925200Y18628600D03*
X85195200Y18628600D03*
X86465200Y18628600D03*
X87735200Y18628600D03*
X81385200Y17358600D03*
X82655200Y17358600D03*
X83925200Y17358600D03*
X85195200Y17358600D03*
X80115200Y16088600D03*
X81385200Y16088600D03*
X85195200Y16088600D03*
X86465200Y16088600D03*
X81385200Y14818600D03*
X85195200Y14818600D03*
X80115200Y13548600D03*
X81385200Y13548600D03*
X85195200Y13548600D03*
X86465200Y13548600D03*
X78845200Y12278600D03*
X81385200Y12278600D03*
X85195200Y12278600D03*
X87735200Y12278600D03*
X80115200Y11008600D03*
X81385200Y11008600D03*
X85195200Y11008600D03*
X86465200Y11008600D03*
X78845200Y9738600D03*
X81385200Y9738600D03*
X85195200Y9738600D03*
X87735200Y9738600D03*
X80115200Y8468600D03*
X81385200Y8468600D03*
X82655200Y8468600D03*
X83925200Y8468600D03*
X85195200Y8468600D03*
X86465200Y8468600D03*
X78845200Y7198600D03*
X81385200Y7198600D03*
X85195200Y7198600D03*
X87735200Y7198600D03*
%TD*%
D14*
%TO.C,C73*%
X88712800Y28814000D03*
X90262800Y28814000D03*
%TD*%
D11*
%TO.C,C47*%
X6481200Y3312400D03*
X4931200Y3312400D03*
%TD*%
D29*
%TO.C,U1*%
X81822600Y28443400D03*
X81822600Y29543400D03*
X81822600Y30643400D03*
X81822600Y31743400D03*
X81822600Y32843400D03*
X81822600Y33943400D03*
X81822600Y35043400D03*
X81822600Y38043400D03*
X81822600Y39143400D03*
X81822600Y40243400D03*
X81822600Y41343400D03*
X81822600Y42443400D03*
X69822600Y42443400D03*
X69822600Y41343400D03*
X69822600Y40243400D03*
X69822600Y39143400D03*
X69822600Y38043400D03*
X69822600Y35043400D03*
X69822600Y33943400D03*
X69822600Y32843400D03*
X69822600Y31743400D03*
X69822600Y30643400D03*
X69822600Y29543400D03*
X69822600Y28443400D03*
%TD*%
D30*
%TO.C,D1*%
X17631200Y47279900D03*
X17631200Y45704900D03*
%TD*%
D14*
%TO.C,C49*%
X65751200Y23734000D03*
X67301200Y23734000D03*
%TD*%
D31*
%TO.C,L2*%
X58601400Y22441000D03*
X58601400Y16391000D03*
%TD*%
D11*
%TO.C,C62*%
X67529800Y30084000D03*
X65979800Y30084000D03*
%TD*%
D32*
%TO.C,U5*%
X75624900Y3576600D03*
X75624900Y2626600D03*
X75624900Y1676600D03*
X77899900Y1676600D03*
X77899900Y3576600D03*
%TD*%
D17*
%TO.C,C17*%
X71377600Y22426200D03*
X71377600Y20876200D03*
%TD*%
D11*
%TO.C,C68*%
X6493600Y7224000D03*
X4943600Y7224000D03*
%TD*%
D17*
%TO.C,C23*%
X79759600Y3554000D03*
X79759600Y2004000D03*
%TD*%
D18*
%TO.C,C21*%
X76660800Y13764200D03*
X76660800Y15314200D03*
%TD*%
D14*
%TO.C,C45*%
X4054600Y20889200D03*
X5604600Y20889200D03*
%TD*%
D30*
%TO.C,D2*%
X14761000Y47254500D03*
X14761000Y45679500D03*
%TD*%
D17*
%TO.C,C6*%
X12754400Y33195800D03*
X12754400Y31645800D03*
%TD*%
D18*
%TO.C,C16*%
X73765200Y1711600D03*
X73765200Y3261600D03*
%TD*%
D11*
%TO.C,C63*%
X67529800Y31536400D03*
X65979800Y31536400D03*
%TD*%
D18*
%TO.C,C46*%
X9300000Y30452000D03*
X9300000Y32002000D03*
%TD*%
D33*
%TO.C,LCD1*%
X42922600Y12143600D03*
X42122600Y12143600D03*
X41322600Y12143600D03*
X40522600Y12143600D03*
X39722600Y12143600D03*
X38922600Y12143600D03*
X38122600Y12143600D03*
X37322600Y12143600D03*
X36522600Y12143600D03*
X35722600Y12143600D03*
X34922600Y12143600D03*
X34122600Y12143600D03*
X33322600Y12143600D03*
X32522600Y12143600D03*
X44522600Y12143600D03*
X45322600Y12143600D03*
X46122600Y12143600D03*
X46922600Y12143600D03*
%TD*%
D11*
%TO.C,C13*%
X57268200Y25054800D03*
X55718200Y25054800D03*
%TD*%
%TO.C,C14*%
X57268200Y14107400D03*
X55718200Y14107400D03*
%TD*%
D17*
%TO.C,C70*%
X92383400Y26439400D03*
X92383400Y24889400D03*
%TD*%
D34*
%TO.C,J1*%
X89614800Y41361600D03*
X92154800Y43901600D03*
X87074800Y43901600D03*
X92154800Y38821600D03*
X87074800Y38821600D03*
%TD*%
D18*
%TO.C,C71*%
X90757800Y24889400D03*
X90757800Y26439400D03*
%TD*%
M02*
