%TF.GenerationSoftware,KiCad,Pcbnew,(6.0.1)*%
%TF.CreationDate,2022-01-18T02:16:12+08:00*%
%TF.ProjectId,project,70726f6a-6563-4742-9e6b-696361645f70,1.2.2*%
%TF.SameCoordinates,Original*%
%TF.FileFunction,Paste,Bot*%
%TF.FilePolarity,Positive*%
%FSLAX46Y46*%
G04 Gerber Fmt 4.6, Leading zero omitted, Abs format (unit mm)*
G04 Created by KiCad (PCBNEW (6.0.1)) date 2022-01-18 02:16:12*
%MOMM*%
%LPD*%
G01*
G04 APERTURE LIST*
G04 Aperture macros list*
%AMRoundRect*
0 Rectangle with rounded corners*
0 $1 Rounding radius*
0 $2 $3 $4 $5 $6 $7 $8 $9 X,Y pos of 4 corners*
0 Add a 4 corners polygon primitive as box body*
4,1,4,$2,$3,$4,$5,$6,$7,$8,$9,$2,$3,0*
0 Add four circle primitives for the rounded corners*
1,1,$1+$1,$2,$3*
1,1,$1+$1,$4,$5*
1,1,$1+$1,$6,$7*
1,1,$1+$1,$8,$9*
0 Add four rect primitives between the rounded corners*
20,1,$1+$1,$2,$3,$4,$5,0*
20,1,$1+$1,$4,$5,$6,$7,0*
20,1,$1+$1,$6,$7,$8,$9,0*
20,1,$1+$1,$8,$9,$2,$3,0*%
G04 Aperture macros list end*
%ADD10RoundRect,0.200000X-0.200000X-0.275000X0.200000X-0.275000X0.200000X0.275000X-0.200000X0.275000X0*%
%ADD11RoundRect,0.225000X-0.250000X0.225000X-0.250000X-0.225000X0.250000X-0.225000X0.250000X0.225000X0*%
%ADD12RoundRect,0.225000X0.250000X-0.225000X0.250000X0.225000X-0.250000X0.225000X-0.250000X-0.225000X0*%
%ADD13RoundRect,0.225000X0.225000X0.250000X-0.225000X0.250000X-0.225000X-0.250000X0.225000X-0.250000X0*%
%ADD14RoundRect,0.225000X-0.225000X-0.250000X0.225000X-0.250000X0.225000X0.250000X-0.225000X0.250000X0*%
%ADD15RoundRect,0.150000X0.675000X0.150000X-0.675000X0.150000X-0.675000X-0.150000X0.675000X-0.150000X0*%
%ADD16RoundRect,0.200000X0.275000X-0.200000X0.275000X0.200000X-0.275000X0.200000X-0.275000X-0.200000X0*%
%ADD17RoundRect,0.150000X-0.512500X-0.150000X0.512500X-0.150000X0.512500X0.150000X-0.512500X0.150000X0*%
%ADD18RoundRect,0.150000X0.150000X-0.512500X0.150000X0.512500X-0.150000X0.512500X-0.150000X-0.512500X0*%
%ADD19RoundRect,0.075000X-0.662500X-0.075000X0.662500X-0.075000X0.662500X0.075000X-0.662500X0.075000X0*%
%ADD20RoundRect,0.075000X-0.075000X-0.662500X0.075000X-0.662500X0.075000X0.662500X-0.075000X0.662500X0*%
%ADD21RoundRect,0.075000X-0.075000X0.662500X-0.075000X-0.662500X0.075000X-0.662500X0.075000X0.662500X0*%
%ADD22RoundRect,0.075000X-0.662500X0.075000X-0.662500X-0.075000X0.662500X-0.075000X0.662500X0.075000X0*%
%ADD23RoundRect,0.200000X-0.275000X0.200000X-0.275000X-0.200000X0.275000X-0.200000X0.275000X0.200000X0*%
%ADD24RoundRect,0.100000X0.100000X-0.637500X0.100000X0.637500X-0.100000X0.637500X-0.100000X-0.637500X0*%
%ADD25R,1.400000X1.200000*%
%ADD26R,1.200000X1.400000*%
G04 APERTURE END LIST*
D10*
%TO.C,R7*%
X11523000Y5801600D03*
X13173000Y5801600D03*
%TD*%
D11*
%TO.C,C12*%
X71301400Y30122400D03*
X71301400Y28572400D03*
%TD*%
%TO.C,C65*%
X14410900Y28026600D03*
X14410900Y26476600D03*
%TD*%
D12*
%TO.C,C19*%
X77854600Y10487600D03*
X77854600Y12037600D03*
%TD*%
D13*
%TO.C,C11*%
X67707600Y45019200D03*
X66157600Y45019200D03*
%TD*%
%TO.C,C32*%
X45076200Y37551600D03*
X43526200Y37551600D03*
%TD*%
D14*
%TO.C,C24*%
X86223600Y6208000D03*
X87773600Y6208000D03*
%TD*%
D15*
%TO.C,U14*%
X79565200Y41031400D03*
X79565200Y39761400D03*
X79565200Y38491400D03*
X79565200Y37221400D03*
X74315200Y37221400D03*
X74315200Y38491400D03*
X74315200Y39761400D03*
X74315200Y41031400D03*
%TD*%
D13*
%TO.C,C48*%
X62703800Y44968400D03*
X61153800Y44968400D03*
%TD*%
D16*
%TO.C,R1*%
X52708600Y14718000D03*
X52708600Y16368000D03*
%TD*%
D13*
%TO.C,C50*%
X46447800Y6639800D03*
X44897800Y6639800D03*
%TD*%
D12*
%TO.C,C55*%
X25225800Y43304400D03*
X25225800Y44854400D03*
%TD*%
%TO.C,C9*%
X71301400Y22933600D03*
X71301400Y24483600D03*
%TD*%
D17*
%TO.C,U9*%
X26679100Y10973000D03*
X26679100Y11923000D03*
X26679100Y12873000D03*
X28954100Y12873000D03*
X28954100Y10973000D03*
%TD*%
D12*
%TO.C,C54*%
X32837934Y43304200D03*
X32837934Y44854200D03*
%TD*%
D11*
%TO.C,C57*%
X14410900Y31277800D03*
X14410900Y29727800D03*
%TD*%
D18*
%TO.C,U10*%
X12637600Y30013300D03*
X11687600Y30013300D03*
X10737600Y30013300D03*
X10737600Y32288300D03*
X12637600Y32288300D03*
%TD*%
D14*
%TO.C,C30*%
X56404000Y19289000D03*
X57954000Y19289000D03*
%TD*%
D19*
%TO.C,U8*%
X47761100Y23455666D03*
X47761100Y23955666D03*
X47761100Y24455666D03*
X47761100Y24955666D03*
X47761100Y25455666D03*
X47761100Y25955666D03*
X47761100Y26455666D03*
X47761100Y26955666D03*
X47761100Y27455666D03*
X47761100Y27955666D03*
X47761100Y28455666D03*
X47761100Y28955666D03*
X47761100Y29455666D03*
X47761100Y29955666D03*
X47761100Y30455666D03*
X47761100Y30955666D03*
X47761100Y31455666D03*
X47761100Y31955666D03*
X47761100Y32455666D03*
X47761100Y32955666D03*
X47761100Y33455666D03*
X47761100Y33955666D03*
X47761100Y34455666D03*
X47761100Y34955666D03*
X47761100Y35455666D03*
X47761100Y35955666D03*
X47761100Y36455666D03*
X47761100Y36955666D03*
X47761100Y37455666D03*
X47761100Y37955666D03*
X47761100Y38455666D03*
X47761100Y38955666D03*
X47761100Y39455666D03*
X47761100Y39955666D03*
X47761100Y40455666D03*
X47761100Y40955666D03*
D20*
X49673600Y42868166D03*
X50173600Y42868166D03*
X50673600Y42868166D03*
X51173600Y42868166D03*
X51673600Y42868166D03*
X52173600Y42868166D03*
X52673600Y42868166D03*
X53173600Y42868166D03*
X53673600Y42868166D03*
X54173600Y42868166D03*
X54673600Y42868166D03*
X55173600Y42868166D03*
X55673600Y42868166D03*
X56173600Y42868166D03*
X56673600Y42868166D03*
X57173600Y42868166D03*
X57673600Y42868166D03*
X58173600Y42868166D03*
X58673600Y42868166D03*
X59173600Y42868166D03*
X59673600Y42868166D03*
X60173600Y42868166D03*
X60673600Y42868166D03*
X61173600Y42868166D03*
X61673600Y42868166D03*
X62173600Y42868166D03*
X62673600Y42868166D03*
X63173600Y42868166D03*
X63673600Y42868166D03*
X64173600Y42868166D03*
X64673600Y42868166D03*
X65173600Y42868166D03*
X65673600Y42868166D03*
X66173600Y42868166D03*
X66673600Y42868166D03*
X67173600Y42868166D03*
D19*
X69086100Y40955666D03*
X69086100Y40455666D03*
X69086100Y39955666D03*
X69086100Y39455666D03*
X69086100Y38955666D03*
X69086100Y38455666D03*
X69086100Y37955666D03*
X69086100Y37455666D03*
X69086100Y36955666D03*
X69086100Y36455666D03*
X69086100Y35955666D03*
X69086100Y35455666D03*
X69086100Y34955666D03*
X69086100Y34455666D03*
X69086100Y33955666D03*
X69086100Y33455666D03*
X69086100Y32955666D03*
X69086100Y32455666D03*
X69086100Y31955666D03*
X69086100Y31455666D03*
X69086100Y30955666D03*
X69086100Y30455666D03*
X69086100Y29955666D03*
X69086100Y29455666D03*
X69086100Y28955666D03*
X69086100Y28455666D03*
X69086100Y27955666D03*
X69086100Y27455666D03*
X69086100Y26955666D03*
X69086100Y26455666D03*
X69086100Y25955666D03*
X69086100Y25455666D03*
X69086100Y24955666D03*
X69086100Y24455666D03*
X69086100Y23955666D03*
X69086100Y23455666D03*
D20*
X67173600Y21543166D03*
X66673600Y21543166D03*
X66173600Y21543166D03*
X65673600Y21543166D03*
X65173600Y21543166D03*
X64673600Y21543166D03*
X64173600Y21543166D03*
X63673600Y21543166D03*
X63173600Y21543166D03*
X62673600Y21543166D03*
X62173600Y21543166D03*
X61673600Y21543166D03*
X61173600Y21543166D03*
X60673600Y21543166D03*
X60173600Y21543166D03*
X59673600Y21543166D03*
X59173600Y21543166D03*
X58673600Y21543166D03*
X58173600Y21543166D03*
X57673600Y21543166D03*
X57173600Y21543166D03*
X56673600Y21543166D03*
X56173600Y21543166D03*
X55673600Y21543166D03*
X55173600Y21543166D03*
X54673600Y21543166D03*
X54173600Y21543166D03*
X53673600Y21543166D03*
X53173600Y21543166D03*
X52673600Y21543166D03*
X52173600Y21543166D03*
X51673600Y21543166D03*
X51173600Y21543166D03*
X50673600Y21543166D03*
X50173600Y21543166D03*
X49673600Y21543166D03*
%TD*%
D14*
%TO.C,C58*%
X17364200Y16952200D03*
X18914200Y16952200D03*
%TD*%
%TO.C,C69*%
X76292200Y42530000D03*
X77842200Y42530000D03*
%TD*%
%TO.C,C5*%
X24761100Y17548800D03*
X26311100Y17548800D03*
%TD*%
D11*
%TO.C,C7*%
X61547800Y16571200D03*
X61547800Y15021200D03*
%TD*%
%TO.C,C59*%
X26945134Y44854200D03*
X26945134Y43304200D03*
%TD*%
D14*
%TO.C,C25*%
X86122000Y14310600D03*
X87672000Y14310600D03*
%TD*%
D12*
%TO.C,C67*%
X24819400Y11198800D03*
X24819400Y12748800D03*
%TD*%
D16*
%TO.C,R9*%
X75771800Y32992800D03*
X75771800Y34642800D03*
%TD*%
D13*
%TO.C,C41*%
X57700000Y44993800D03*
X56150000Y44993800D03*
%TD*%
D14*
%TO.C,C4*%
X30272900Y17548800D03*
X31822900Y17548800D03*
%TD*%
D21*
%TO.C,U11*%
X18792700Y40936700D03*
X19292700Y40936700D03*
X19792700Y40936700D03*
X20292700Y40936700D03*
X20792700Y40936700D03*
X21292700Y40936700D03*
X21792700Y40936700D03*
X22292700Y40936700D03*
X22792700Y40936700D03*
X23292700Y40936700D03*
X23792700Y40936700D03*
X24292700Y40936700D03*
X24792700Y40936700D03*
X25292700Y40936700D03*
X25792700Y40936700D03*
X26292700Y40936700D03*
X26792700Y40936700D03*
X27292700Y40936700D03*
X27792700Y40936700D03*
X28292700Y40936700D03*
X28792700Y40936700D03*
X29292700Y40936700D03*
X29792700Y40936700D03*
X30292700Y40936700D03*
X30792700Y40936700D03*
X31292700Y40936700D03*
X31792700Y40936700D03*
X32292700Y40936700D03*
X32792700Y40936700D03*
X33292700Y40936700D03*
X33792700Y40936700D03*
X34292700Y40936700D03*
X34792700Y40936700D03*
X35292700Y40936700D03*
X35792700Y40936700D03*
X36292700Y40936700D03*
D22*
X38205200Y39024200D03*
X38205200Y38524200D03*
X38205200Y38024200D03*
X38205200Y37524200D03*
X38205200Y37024200D03*
X38205200Y36524200D03*
X38205200Y36024200D03*
X38205200Y35524200D03*
X38205200Y35024200D03*
X38205200Y34524200D03*
X38205200Y34024200D03*
X38205200Y33524200D03*
X38205200Y33024200D03*
X38205200Y32524200D03*
X38205200Y32024200D03*
X38205200Y31524200D03*
X38205200Y31024200D03*
X38205200Y30524200D03*
X38205200Y30024200D03*
X38205200Y29524200D03*
X38205200Y29024200D03*
X38205200Y28524200D03*
X38205200Y28024200D03*
X38205200Y27524200D03*
X38205200Y27024200D03*
X38205200Y26524200D03*
X38205200Y26024200D03*
X38205200Y25524200D03*
X38205200Y25024200D03*
X38205200Y24524200D03*
X38205200Y24024200D03*
X38205200Y23524200D03*
X38205200Y23024200D03*
X38205200Y22524200D03*
X38205200Y22024200D03*
X38205200Y21524200D03*
D21*
X36292700Y19611700D03*
X35792700Y19611700D03*
X35292700Y19611700D03*
X34792700Y19611700D03*
X34292700Y19611700D03*
X33792700Y19611700D03*
X33292700Y19611700D03*
X32792700Y19611700D03*
X32292700Y19611700D03*
X31792700Y19611700D03*
X31292700Y19611700D03*
X30792700Y19611700D03*
X30292700Y19611700D03*
X29792700Y19611700D03*
X29292700Y19611700D03*
X28792700Y19611700D03*
X28292700Y19611700D03*
X27792700Y19611700D03*
X27292700Y19611700D03*
X26792700Y19611700D03*
X26292700Y19611700D03*
X25792700Y19611700D03*
X25292700Y19611700D03*
X24792700Y19611700D03*
X24292700Y19611700D03*
X23792700Y19611700D03*
X23292700Y19611700D03*
X22792700Y19611700D03*
X22292700Y19611700D03*
X21792700Y19611700D03*
X21292700Y19611700D03*
X20792700Y19611700D03*
X20292700Y19611700D03*
X19792700Y19611700D03*
X19292700Y19611700D03*
X18792700Y19611700D03*
D22*
X16880200Y21524200D03*
X16880200Y22024200D03*
X16880200Y22524200D03*
X16880200Y23024200D03*
X16880200Y23524200D03*
X16880200Y24024200D03*
X16880200Y24524200D03*
X16880200Y25024200D03*
X16880200Y25524200D03*
X16880200Y26024200D03*
X16880200Y26524200D03*
X16880200Y27024200D03*
X16880200Y27524200D03*
X16880200Y28024200D03*
X16880200Y28524200D03*
X16880200Y29024200D03*
X16880200Y29524200D03*
X16880200Y30024200D03*
X16880200Y30524200D03*
X16880200Y31024200D03*
X16880200Y31524200D03*
X16880200Y32024200D03*
X16880200Y32524200D03*
X16880200Y33024200D03*
X16880200Y33524200D03*
X16880200Y34024200D03*
X16880200Y34524200D03*
X16880200Y35024200D03*
X16880200Y35524200D03*
X16880200Y36024200D03*
X16880200Y36524200D03*
X16880200Y37024200D03*
X16880200Y37524200D03*
X16880200Y38024200D03*
X16880200Y38524200D03*
X16880200Y39024200D03*
%TD*%
D12*
%TO.C,C28*%
X87735200Y15999400D03*
X87735200Y17549400D03*
%TD*%
D11*
%TO.C,C34*%
X34446000Y9853200D03*
X34446000Y8303200D03*
%TD*%
D14*
%TO.C,C61*%
X37582600Y42479200D03*
X39132600Y42479200D03*
%TD*%
D12*
%TO.C,C8*%
X71453800Y34236600D03*
X71453800Y35786600D03*
%TD*%
D13*
%TO.C,C10*%
X46422400Y21524200D03*
X44872400Y21524200D03*
%TD*%
%TO.C,C27*%
X45076200Y39075600D03*
X43526200Y39075600D03*
%TD*%
%TO.C,C36*%
X51223000Y45095400D03*
X49673000Y45095400D03*
%TD*%
%TO.C,C43*%
X28591600Y9560800D03*
X27041600Y9560800D03*
%TD*%
D23*
%TO.C,R8*%
X54207200Y8887200D03*
X54207200Y7237200D03*
%TD*%
D13*
%TO.C,C44*%
X45076200Y26756600D03*
X43526200Y26756600D03*
%TD*%
D12*
%TO.C,C40*%
X30737600Y11122600D03*
X30737600Y12672600D03*
%TD*%
D11*
%TO.C,C51*%
X41227800Y12317000D03*
X41227800Y10767000D03*
%TD*%
D24*
%TO.C,U2*%
X47439800Y8628700D03*
X46789800Y8628700D03*
X46139800Y8628700D03*
X45489800Y8628700D03*
X44839800Y8628700D03*
X44189800Y8628700D03*
X43539800Y8628700D03*
X42889800Y8628700D03*
X42889800Y14353700D03*
X43539800Y14353700D03*
X44189800Y14353700D03*
X44839800Y14353700D03*
X45489800Y14353700D03*
X46139800Y14353700D03*
X46789800Y14353700D03*
X47439800Y14353700D03*
%TD*%
D25*
%TO.C,Y2*%
X30974000Y43204000D03*
X28774000Y43204000D03*
X28774000Y44904000D03*
X30974000Y44904000D03*
%TD*%
D11*
%TO.C,C35*%
X36173200Y9866200D03*
X36173200Y8316200D03*
%TD*%
D14*
%TO.C,C37*%
X43551600Y31248266D03*
X45101600Y31248266D03*
%TD*%
D11*
%TO.C,C56*%
X14410900Y39558200D03*
X14410900Y38008200D03*
%TD*%
D12*
%TO.C,C1*%
X40242700Y21015600D03*
X40242700Y22565600D03*
%TD*%
%TO.C,C66*%
X40135600Y37462400D03*
X40135600Y39012400D03*
%TD*%
D11*
%TO.C,C31*%
X39678400Y9865600D03*
X39678400Y8315600D03*
%TD*%
%TO.C,C39*%
X32642600Y9853200D03*
X32642600Y8303200D03*
%TD*%
D14*
%TO.C,C29*%
X86210600Y9256000D03*
X87760600Y9256000D03*
%TD*%
D26*
%TO.C,Y1*%
X45151200Y35548666D03*
X45151200Y33348666D03*
X43451200Y33348666D03*
X43451200Y35548666D03*
%TD*%
D12*
%TO.C,C42*%
X45114000Y42047400D03*
X45114000Y43597400D03*
%TD*%
D13*
%TO.C,C33*%
X41748800Y44206400D03*
X40198800Y44206400D03*
%TD*%
D11*
%TO.C,C20*%
X79962800Y9091200D03*
X79962800Y7541200D03*
%TD*%
D23*
%TO.C,R4*%
X12652800Y39621200D03*
X12652800Y37971200D03*
%TD*%
D12*
%TO.C,C60*%
X40242700Y25994000D03*
X40242700Y27544000D03*
%TD*%
D16*
%TO.C,R10*%
X77676800Y32992800D03*
X77676800Y34642800D03*
%TD*%
D12*
%TO.C,C53*%
X40242700Y30997800D03*
X40242700Y32547800D03*
%TD*%
D13*
%TO.C,C3*%
X21281900Y42987200D03*
X19731900Y42987200D03*
%TD*%
D23*
%TO.C,R3*%
X43513800Y43685200D03*
X43513800Y42035200D03*
%TD*%
D13*
%TO.C,C38*%
X45076200Y29525200D03*
X43526200Y29525200D03*
%TD*%
D23*
%TO.C,R6*%
X35977800Y44943400D03*
X35977800Y43293400D03*
%TD*%
D12*
%TO.C,C64*%
X34428400Y43292600D03*
X34428400Y44842600D03*
%TD*%
M02*
