M48
; DRILL file {KiCad (6.0.1)} date Tue Jan 18 02:16:12 2022
; FORMAT={-:-/ absolute / metric / decimal}
; #@! TF.CreationDate,2022-01-18T02:16:12+08:00
; #@! TF.GenerationSoftware,Kicad,Pcbnew,(6.0.1)
; #@! TF.FileFunction,Plated,1,4,PTH
FMAT,2
METRIC
; #@! TA.AperFunction,Plated,PTH,ViaDrill
T1C0.200
; #@! TA.AperFunction,Plated,PTH,ViaDrill
T2C0.300
; #@! TA.AperFunction,Plated,PTH,ComponentDrill
T3C0.750
; #@! TA.AperFunction,Plated,PTH,ComponentDrill
T4C0.850
; #@! TA.AperFunction,Plated,PTH,ComponentDrill
T5C1.000
; #@! TA.AperFunction,Plated,PTH,ComponentDrill
T6C1.500
%
G90
G05
T1
X13.212Y9.662
X13.415Y30.719
X13.415Y30.008
X13.415Y29.17
X13.849Y28.588
X14.329Y3.363
X14.888Y4.481
X15.701Y3.668
X16.225Y10.805
X16.31Y9.104
X16.336Y6.738
X16.355Y4.985
X16.869Y4.227
X17.657Y12.202
X17.657Y3.693
X18.292Y9.104
X34.675Y42.251
X36.935Y42.479
X37.596Y43.47
X39.628Y46.823
X41.279Y47.432
X42.32Y23.48
X43.361Y24.217
X44.86Y9.713
X45.343Y10.297
X45.52Y25.461
X45.622Y24.598
X45.927Y42.047
X46.155Y9.739
X46.384Y35.85
X46.816Y10.272
X47.375Y16.495
X49.305Y23.937
X51.159Y20.051
X54.114Y20.203
X54.156Y18.324
X60.456Y7.427
X60.913Y18.451
X61.091Y7.808
X62.335Y7.884
X62.945Y17.181
X62.97Y19.695
X63.986Y24.09
X64.012Y24.979
X64.215Y27.061
X65.993Y26.045
X66.958Y34.123
X67.491Y33.056
X70.362Y5.344
X70.463Y7.884
X70.59Y18.451
X70.717Y17.181
X71.454Y8.824
X73.206Y17.714
X78.375Y10.208
X80.877Y11.771
X80.903Y10.501
X81.995Y10.399
X82.681Y9.129
X83.785Y6.144
X84.052Y9.002
X84.535Y11.669
X84.535Y10.399
X84.598Y14.222
X84.713Y7.961
X85.576Y33.259
X86.44Y32.345
X87.075Y16.089
X87.1Y31.532
T2
X4.042Y7.249
X4.245Y22.87
X4.245Y21.804
X4.245Y20.881
X4.656Y21.291
X4.706Y23.502
X4.931Y4.354
X5.404Y22.118
X5.963Y22.599
X6.506Y20.864
X7.384Y3.348
X9.732Y32.649
X12.17Y7.91
X12.475Y47.991
X12.958Y2.55
X13.186Y39.253
X13.415Y32.573
X14.202Y9.612
X14.583Y29.17
X15.091Y37.577
X15.218Y26.35
X15.396Y41.978
X15.416Y32.524
X15.418Y27.769
X15.497Y39.024
X15.853Y46.924
X17.809Y15.911
X18.266Y32.04
X18.419Y27.392
X18.495Y38.542
X18.59Y18.178
X19.028Y20.94
X19.308Y16.114
X19.536Y17.994
X19.739Y2.55
X19.841Y44.029
X21.293Y42.153
X23.638Y10.97
X23.651Y12.71
X24.21Y44.918
X24.261Y10.805
X25.293Y18.347
X25.48Y10.805
X25.785Y21.092
X26.14Y10.805
X26.318Y39.406
X26.559Y42.212
X27.029Y8.215
X27.385Y17.486
X27.664Y42.632
X28.838Y33.417
X30.159Y33.417
X30.793Y18.328
X31.22Y13.523
X31.252Y10.608
X31.271Y21.067
X31.696Y10.164
X31.708Y33.417
X32.008Y45.324
X32.592Y6.995
X32.795Y17.486
X33.151Y15.758
X33.258Y33.417
X33.608Y44.867
X33.608Y9.84
X34.497Y6.97
X34.852Y10.577
X34.934Y33.417
X35.31Y9.84
X35.868Y10.602
X36.122Y6.919
X36.199Y22.058
X36.534Y33.417
X36.58Y31.71
X36.681Y38.517
X37.037Y9.866
X37.799Y9.866
X38.612Y9.866
X39.291Y21.524
X39.376Y37.96
X39.446Y26.524
X39.518Y31.524
X39.602Y43.343
X39.687Y24.03
X40.085Y15.403
X40.085Y14.615
X40.161Y10.475
X40.186Y40.142
X40.39Y16.038
X40.872Y13.676
X40.872Y8.113
X41.253Y27.417
X41.279Y9.561
X41.304Y34.173
X41.964Y31.303
X42.295Y34.834
X42.574Y26.68
X42.752Y38.339
X43.082Y7.097
X43.526Y44.803
X43.526Y44.219
X43.742Y10.094
X43.742Y6.564
X45.552Y26.28
X45.673Y39.076
X45.851Y31.71
X45.978Y20.153
X46.181Y43.597
X47.089Y20.858
X48.289Y45.045
X49.305Y38.187
X49.483Y31.379
X49.61Y46.137
X50.118Y41.209
X50.674Y44.305
X52.658Y20.076
X52.709Y13.777
X52.734Y16.851
X54.842Y14.107
X54.918Y25.055
X56.112Y46.086
X56.174Y20.265
X56.646Y41.006
X57.174Y44.226
X59.973Y44.943
X61.345Y19.213
X61.573Y14.006
X61.675Y40.955
X62.174Y44.172
X62.411Y1.458
X62.538Y13.345
X62.538Y9.231
X64.901Y31.557
X64.926Y44.994
X65.002Y30.084
X65.726Y23.01
X65.726Y20.216
X66.577Y40.981
X66.983Y12.837
X67.174Y44.193
X67.415Y24.318
X69.32Y11.872
X69.549Y0.937
X70.312Y23.456
X70.438Y9.18
X70.463Y36.053
X70.997Y27.519
X71.124Y1.687
X71.174Y42.479
X71.454Y33.157
X71.454Y32.167
X71.911Y12.152
X72.063Y4.405
X72.394Y24.445
X72.775Y39.711
X72.902Y1.687
X73.765Y4.278
X74.172Y6.843
X74.339Y1.677
X76.0Y41.235
X76.737Y32.929
X77.042Y12.406
X78.134Y40.371
X78.134Y39.126
X78.134Y37.806
X78.871Y42.505
X80.014Y17.46
X80.039Y6.64
X82.452Y15.708
X82.579Y25.842
X83.29Y40.193
X83.443Y42.454
X84.509Y29.982
X85.246Y4.02
X85.246Y3.004
X85.246Y1.988
X85.246Y0.972
X86.338Y17.435
X87.126Y14.895
X87.761Y5.319
X87.862Y26.122
X88.472Y17.536
X88.675Y9.078
X88.7Y30.008
X88.802Y12.202
X91.215Y28.814
X91.291Y26.858
T3
X6.314Y42.697
X6.314Y40.697
X6.314Y38.697
X6.314Y36.697
X6.314Y34.697
X6.314Y32.697
X6.314Y30.697
X6.314Y28.697
T4
X10.297Y25.298
T5
X56.374Y10.895
X56.374Y8.355
X56.374Y5.815
X56.374Y3.275
T6
X87.075Y43.902
X87.075Y38.822
X89.615Y41.362
X92.155Y43.902
X92.155Y38.822
T0
M30
