%TF.GenerationSoftware,KiCad,Pcbnew,(5.1.10)-1*%
%TF.CreationDate,2021-12-21T16:59:36+08:00*%
%TF.ProjectId,project,70726f6a-6563-4742-9e6b-696361645f70,1.0.1*%
%TF.SameCoordinates,Original*%
%TF.FileFunction,Legend,Bot*%
%TF.FilePolarity,Positive*%
%FSLAX46Y46*%
G04 Gerber Fmt 4.6, Leading zero omitted, Abs format (unit mm)*
G04 Created by KiCad (PCBNEW (5.1.10)-1) date 2021-12-21 16:59:36*
%MOMM*%
%LPD*%
G01*
G04 APERTURE LIST*
%ADD10C,0.120000*%
%ADD11C,0.150000*%
G04 APERTURE END LIST*
D10*
%TO.C,C58*%
X154110000Y-74565580D02*
X154110000Y-74284420D01*
X153090000Y-74565580D02*
X153090000Y-74284420D01*
%TO.C,C56*%
X169990000Y-101334420D02*
X169990000Y-101615580D01*
X171010000Y-101334420D02*
X171010000Y-101615580D01*
%TO.C,C54*%
X183710000Y-83415580D02*
X183710000Y-83134420D01*
X182690000Y-83415580D02*
X182690000Y-83134420D01*
%TO.C,C53*%
X183810000Y-88915580D02*
X183810000Y-88634420D01*
X182790000Y-88915580D02*
X182790000Y-88634420D01*
%TO.C,C51*%
X148438748Y-104535000D02*
X148961252Y-104535000D01*
X148438748Y-103065000D02*
X148961252Y-103065000D01*
%TO.C,Y1*%
X154850000Y-83000000D02*
X158150000Y-83000000D01*
X158150000Y-83000000D02*
X158150000Y-87000000D01*
%TO.C,U12*%
X144300000Y-113735000D02*
X142100000Y-113735000D01*
X144300000Y-113735000D02*
X146500000Y-113735000D01*
X144300000Y-108265000D02*
X142100000Y-108265000D01*
X144300000Y-108265000D02*
X147900000Y-108265000D01*
%TO.C,U5*%
X179560000Y-77190000D02*
X180510000Y-77190000D01*
X180510000Y-77190000D02*
X180510000Y-78140000D01*
X161240000Y-77190000D02*
X160290000Y-77190000D01*
X160290000Y-77190000D02*
X160290000Y-78140000D01*
X179560000Y-97410000D02*
X180510000Y-97410000D01*
X180510000Y-97410000D02*
X180510000Y-96460000D01*
X161240000Y-97410000D02*
X160290000Y-97410000D01*
X160290000Y-97410000D02*
X160290000Y-96460000D01*
X160290000Y-96460000D02*
X159000000Y-96460000D01*
%TO.C,U4*%
X135700000Y-73520000D02*
X137500000Y-73520000D01*
X137500000Y-76740000D02*
X135050000Y-76740000D01*
D11*
%TO.C,U3*%
X127725000Y-101675000D02*
X127725000Y-101475000D01*
X131875000Y-101675000D02*
X131875000Y-101475000D01*
X131875000Y-96525000D02*
X131875000Y-96725000D01*
X127725000Y-96525000D02*
X127725000Y-96725000D01*
X127725000Y-101675000D02*
X131875000Y-101675000D01*
X127725000Y-96525000D02*
X131875000Y-96525000D01*
X127725000Y-101475000D02*
X126425000Y-101475000D01*
D10*
%TO.C,U2*%
X155740000Y-78580000D02*
X155740000Y-77650000D01*
X155740000Y-75420000D02*
X155740000Y-76350000D01*
X155740000Y-75420000D02*
X157900000Y-75420000D01*
X155740000Y-78580000D02*
X157200000Y-78580000D01*
%TO.C,U1*%
X148200000Y-82240000D02*
X150000000Y-82240000D01*
X150000000Y-85460000D02*
X147550000Y-85460000D01*
%TO.C,R20*%
X153089833Y-77453142D02*
X153089833Y-77927658D01*
X154134833Y-77453142D02*
X154134833Y-77927658D01*
%TO.C,R15*%
X128212258Y-94677500D02*
X127737742Y-94677500D01*
X128212258Y-95722500D02*
X127737742Y-95722500D01*
%TO.C,R14*%
X131962258Y-94677500D02*
X131487742Y-94677500D01*
X131962258Y-95722500D02*
X131487742Y-95722500D01*
%TO.C,R12*%
X136837742Y-78422500D02*
X137312258Y-78422500D01*
X136837742Y-77377500D02*
X137312258Y-77377500D01*
%TO.C,R11*%
X134562258Y-71677500D02*
X134087742Y-71677500D01*
X134562258Y-72722500D02*
X134087742Y-72722500D01*
%TO.C,R10*%
X125422500Y-96537258D02*
X125422500Y-96062742D01*
X124377500Y-96537258D02*
X124377500Y-96062742D01*
%TO.C,R9*%
X134122500Y-75562258D02*
X134122500Y-75087742D01*
X133077500Y-75562258D02*
X133077500Y-75087742D01*
%TO.C,R8*%
X134122500Y-78812258D02*
X134122500Y-78337742D01*
X133077500Y-78812258D02*
X133077500Y-78337742D01*
%TO.C,R7*%
X165662742Y-73322500D02*
X166137258Y-73322500D01*
X165662742Y-72277500D02*
X166137258Y-72277500D01*
%TO.C,R6*%
X162337742Y-73322500D02*
X162812258Y-73322500D01*
X162337742Y-72277500D02*
X162812258Y-72277500D01*
%TO.C,R3*%
X130824500Y-91359258D02*
X130824500Y-90884742D01*
X129779500Y-91359258D02*
X129779500Y-90884742D01*
%TO.C,R2*%
X128001500Y-90885742D02*
X128001500Y-91360258D01*
X129046500Y-90885742D02*
X129046500Y-91360258D01*
%TO.C,R1*%
X126737742Y-86822500D02*
X127212258Y-86822500D01*
X126737742Y-85777500D02*
X127212258Y-85777500D01*
%TO.C,Q2*%
X132325000Y-80345000D02*
X132325000Y-81845000D01*
X132325000Y-81845000D02*
X132055000Y-81845000D01*
X132055000Y-81845000D02*
X132055000Y-84675000D01*
X125425000Y-80345000D02*
X125425000Y-81845000D01*
X125425000Y-81845000D02*
X125695000Y-81845000D01*
X125695000Y-81845000D02*
X125695000Y-82945000D01*
%TO.C,Q1*%
X129020000Y-86540000D02*
X129950000Y-86540000D01*
X132180000Y-86540000D02*
X131250000Y-86540000D01*
X132180000Y-86540000D02*
X132180000Y-88700000D01*
X129020000Y-86540000D02*
X129020000Y-88000000D01*
%TO.C,L2*%
X147800000Y-74075000D02*
X147800000Y-81475000D01*
X147800000Y-81475000D02*
X146300000Y-81475000D01*
X147800000Y-74075000D02*
X146300000Y-74075000D01*
X141000000Y-81475000D02*
X141000000Y-74075000D01*
X141000000Y-74075000D02*
X142500000Y-74075000D01*
X141000000Y-81475000D02*
X142500000Y-81475000D01*
%TO.C,L1*%
X145400000Y-97800000D02*
X145400000Y-94600000D01*
X145400000Y-94600000D02*
X134800000Y-94600000D01*
X134800000Y-94600000D02*
X134800000Y-97800000D01*
X134800000Y-102000000D02*
X134800000Y-105200000D01*
X134800000Y-105200000D02*
X145400000Y-105200000D01*
X145400000Y-105200000D02*
X145400000Y-102000000D01*
%TO.C,J3*%
X108160000Y-105610000D02*
X109610000Y-105610000D01*
X109610000Y-105610000D02*
X109610000Y-103810000D01*
X109610000Y-103810000D02*
X110600000Y-103810000D01*
X108160000Y-98390000D02*
X109610000Y-98390000D01*
X109610000Y-98390000D02*
X109610000Y-100190000D01*
X105340000Y-104340000D02*
X105340000Y-99660000D01*
%TO.C,D1*%
X133590000Y-93910000D02*
X133590000Y-93500000D01*
X133590000Y-90100000D02*
X133590000Y-89690000D01*
X133590000Y-89690000D02*
X139210000Y-89690000D01*
X139210000Y-93910000D02*
X133590000Y-93910000D01*
X133590000Y-90100000D02*
X132800000Y-90100000D01*
X139210000Y-93910000D02*
X139210000Y-93650000D01*
X139210000Y-89950000D02*
X139210000Y-89690000D01*
%TO.C,C49*%
X191390000Y-104959420D02*
X191390000Y-105240580D01*
X192410000Y-104959420D02*
X192410000Y-105240580D01*
%TO.C,C48*%
X189710000Y-103540580D02*
X189710000Y-103259420D01*
X188690000Y-103540580D02*
X188690000Y-103259420D01*
%TO.C,C47*%
X170290000Y-109759420D02*
X170290000Y-110040580D01*
X171310000Y-109759420D02*
X171310000Y-110040580D01*
%TO.C,C45*%
X187810000Y-105715580D02*
X187810000Y-105434420D01*
X186790000Y-105715580D02*
X186790000Y-105434420D01*
%TO.C,C44*%
X186690000Y-113159420D02*
X186690000Y-113440580D01*
X187710000Y-113159420D02*
X187710000Y-113440580D01*
%TO.C,C42*%
X191359420Y-113910000D02*
X191640580Y-113910000D01*
X191359420Y-112890000D02*
X191640580Y-112890000D01*
%TO.C,C40*%
X182090000Y-111184420D02*
X182090000Y-111465580D01*
X183110000Y-111184420D02*
X183110000Y-111465580D01*
%TO.C,C37*%
X188490000Y-113159420D02*
X188490000Y-113440580D01*
X189510000Y-113159420D02*
X189510000Y-113440580D01*
%TO.C,C36*%
X164810000Y-115340580D02*
X164810000Y-115059420D01*
X163790000Y-115340580D02*
X163790000Y-115059420D01*
%TO.C,C34*%
X164810000Y-110665580D02*
X164810000Y-110384420D01*
X163790000Y-110665580D02*
X163790000Y-110384420D01*
%TO.C,C32*%
X139910000Y-112015580D02*
X139910000Y-111734420D01*
X138890000Y-112015580D02*
X138890000Y-111734420D01*
%TO.C,C30*%
X153090000Y-80859420D02*
X153090000Y-81140580D01*
X154110000Y-80859420D02*
X154110000Y-81140580D01*
%TO.C,C25*%
X156284420Y-88810000D02*
X156565580Y-88810000D01*
X156284420Y-87790000D02*
X156565580Y-87790000D01*
%TO.C,C22*%
X139315580Y-106590000D02*
X139034420Y-106590000D01*
X139315580Y-107610000D02*
X139034420Y-107610000D01*
%TO.C,C21*%
X146984420Y-107710000D02*
X147265580Y-107710000D01*
X146984420Y-106690000D02*
X147265580Y-106690000D01*
%TO.C,C19*%
X156615580Y-81190000D02*
X156334420Y-81190000D01*
X156615580Y-82210000D02*
X156334420Y-82210000D01*
%TO.C,C16*%
X147610000Y-92810000D02*
X145260000Y-92810000D01*
X140790000Y-92810000D02*
X143140000Y-92810000D01*
X140790000Y-87054437D02*
X140790000Y-92810000D01*
X147610000Y-87054437D02*
X147610000Y-92810000D01*
X146545563Y-85990000D02*
X145260000Y-85990000D01*
X141854437Y-85990000D02*
X143140000Y-85990000D01*
X141854437Y-85990000D02*
X140790000Y-87054437D01*
X146545563Y-85990000D02*
X147610000Y-87054437D01*
X142352500Y-84962500D02*
X142352500Y-85750000D01*
X141958750Y-85356250D02*
X142746250Y-85356250D01*
%TO.C,C15*%
X146390000Y-93490000D02*
X148740000Y-93490000D01*
X153210000Y-93490000D02*
X150860000Y-93490000D01*
X153210000Y-99245563D02*
X153210000Y-93490000D01*
X146390000Y-99245563D02*
X146390000Y-93490000D01*
X147454437Y-100310000D02*
X148740000Y-100310000D01*
X152145563Y-100310000D02*
X150860000Y-100310000D01*
X152145563Y-100310000D02*
X153210000Y-99245563D01*
X147454437Y-100310000D02*
X146390000Y-99245563D01*
X151647500Y-101337500D02*
X151647500Y-100550000D01*
X152041250Y-100943750D02*
X151253750Y-100943750D01*
%TO.C,C14*%
X142211252Y-82765000D02*
X141688748Y-82765000D01*
X142211252Y-84235000D02*
X141688748Y-84235000D01*
%TO.C,C12*%
X139090000Y-75384420D02*
X139090000Y-75665580D01*
X140110000Y-75384420D02*
X140110000Y-75665580D01*
%TO.C,C10*%
X125888748Y-103835000D02*
X126411252Y-103835000D01*
X125888748Y-102365000D02*
X126411252Y-102365000D01*
%TO.C,C9*%
X129940580Y-102490000D02*
X129659420Y-102490000D01*
X129940580Y-103510000D02*
X129659420Y-103510000D01*
%TO.C,C8*%
X130410000Y-112510000D02*
X128060000Y-112510000D01*
X123590000Y-112510000D02*
X125940000Y-112510000D01*
X123590000Y-106754437D02*
X123590000Y-112510000D01*
X130410000Y-106754437D02*
X130410000Y-112510000D01*
X129345563Y-105690000D02*
X128060000Y-105690000D01*
X124654437Y-105690000D02*
X125940000Y-105690000D01*
X124654437Y-105690000D02*
X123590000Y-106754437D01*
X129345563Y-105690000D02*
X130410000Y-106754437D01*
X125152500Y-104662500D02*
X125152500Y-105450000D01*
X124758750Y-105056250D02*
X125546250Y-105056250D01*
%TO.C,C7*%
X139810000Y-87810000D02*
X137460000Y-87810000D01*
X132990000Y-87810000D02*
X135340000Y-87810000D01*
X132990000Y-82054437D02*
X132990000Y-87810000D01*
X139810000Y-82054437D02*
X139810000Y-87810000D01*
X138745563Y-80990000D02*
X137460000Y-80990000D01*
X134054437Y-80990000D02*
X135340000Y-80990000D01*
X134054437Y-80990000D02*
X132990000Y-82054437D01*
X138745563Y-80990000D02*
X139810000Y-82054437D01*
X134552500Y-79962500D02*
X134552500Y-80750000D01*
X134158750Y-80356250D02*
X134946250Y-80356250D01*
%TO.C,C6*%
X156615580Y-79390000D02*
X156334420Y-79390000D01*
X156615580Y-80410000D02*
X156334420Y-80410000D01*
%TO.C,C5*%
X124010000Y-105510000D02*
X121660000Y-105510000D01*
X117190000Y-105510000D02*
X119540000Y-105510000D01*
X117190000Y-99754437D02*
X117190000Y-105510000D01*
X124010000Y-99754437D02*
X124010000Y-105510000D01*
X122945563Y-98690000D02*
X121660000Y-98690000D01*
X118254437Y-98690000D02*
X119540000Y-98690000D01*
X118254437Y-98690000D02*
X117190000Y-99754437D01*
X122945563Y-98690000D02*
X124010000Y-99754437D01*
X118752500Y-97662500D02*
X118752500Y-98450000D01*
X118358750Y-98056250D02*
X119146250Y-98056250D01*
%TO.C,C4*%
X149990000Y-87284420D02*
X149990000Y-87565580D01*
X151010000Y-87284420D02*
X151010000Y-87565580D01*
%TO.C,C2*%
X148190000Y-87259420D02*
X148190000Y-87540580D01*
X149210000Y-87259420D02*
X149210000Y-87540580D01*
%TO.C,C1*%
X156615580Y-73590000D02*
X156334420Y-73590000D01*
X156615580Y-74610000D02*
X156334420Y-74610000D01*
%TO.C,C58*%
D11*
X152557142Y-73757142D02*
X152604761Y-73709523D01*
X152652380Y-73566666D01*
X152652380Y-73471428D01*
X152604761Y-73328571D01*
X152509523Y-73233333D01*
X152414285Y-73185714D01*
X152223809Y-73138095D01*
X152080952Y-73138095D01*
X151890476Y-73185714D01*
X151795238Y-73233333D01*
X151700000Y-73328571D01*
X151652380Y-73471428D01*
X151652380Y-73566666D01*
X151700000Y-73709523D01*
X151747619Y-73757142D01*
X151652380Y-74661904D02*
X151652380Y-74185714D01*
X152128571Y-74138095D01*
X152080952Y-74185714D01*
X152033333Y-74280952D01*
X152033333Y-74519047D01*
X152080952Y-74614285D01*
X152128571Y-74661904D01*
X152223809Y-74709523D01*
X152461904Y-74709523D01*
X152557142Y-74661904D01*
X152604761Y-74614285D01*
X152652380Y-74519047D01*
X152652380Y-74280952D01*
X152604761Y-74185714D01*
X152557142Y-74138095D01*
X152080952Y-75280952D02*
X152033333Y-75185714D01*
X151985714Y-75138095D01*
X151890476Y-75090476D01*
X151842857Y-75090476D01*
X151747619Y-75138095D01*
X151700000Y-75185714D01*
X151652380Y-75280952D01*
X151652380Y-75471428D01*
X151700000Y-75566666D01*
X151747619Y-75614285D01*
X151842857Y-75661904D01*
X151890476Y-75661904D01*
X151985714Y-75614285D01*
X152033333Y-75566666D01*
X152080952Y-75471428D01*
X152080952Y-75280952D01*
X152128571Y-75185714D01*
X152176190Y-75138095D01*
X152271428Y-75090476D01*
X152461904Y-75090476D01*
X152557142Y-75138095D01*
X152604761Y-75185714D01*
X152652380Y-75280952D01*
X152652380Y-75471428D01*
X152604761Y-75566666D01*
X152557142Y-75614285D01*
X152461904Y-75661904D01*
X152271428Y-75661904D01*
X152176190Y-75614285D01*
X152128571Y-75566666D01*
X152080952Y-75471428D01*
%TO.C,C56*%
X169427142Y-100832142D02*
X169474761Y-100784523D01*
X169522380Y-100641666D01*
X169522380Y-100546428D01*
X169474761Y-100403571D01*
X169379523Y-100308333D01*
X169284285Y-100260714D01*
X169093809Y-100213095D01*
X168950952Y-100213095D01*
X168760476Y-100260714D01*
X168665238Y-100308333D01*
X168570000Y-100403571D01*
X168522380Y-100546428D01*
X168522380Y-100641666D01*
X168570000Y-100784523D01*
X168617619Y-100832142D01*
X168522380Y-101736904D02*
X168522380Y-101260714D01*
X168998571Y-101213095D01*
X168950952Y-101260714D01*
X168903333Y-101355952D01*
X168903333Y-101594047D01*
X168950952Y-101689285D01*
X168998571Y-101736904D01*
X169093809Y-101784523D01*
X169331904Y-101784523D01*
X169427142Y-101736904D01*
X169474761Y-101689285D01*
X169522380Y-101594047D01*
X169522380Y-101355952D01*
X169474761Y-101260714D01*
X169427142Y-101213095D01*
X168522380Y-102641666D02*
X168522380Y-102451190D01*
X168570000Y-102355952D01*
X168617619Y-102308333D01*
X168760476Y-102213095D01*
X168950952Y-102165476D01*
X169331904Y-102165476D01*
X169427142Y-102213095D01*
X169474761Y-102260714D01*
X169522380Y-102355952D01*
X169522380Y-102546428D01*
X169474761Y-102641666D01*
X169427142Y-102689285D01*
X169331904Y-102736904D01*
X169093809Y-102736904D01*
X168998571Y-102689285D01*
X168950952Y-102641666D01*
X168903333Y-102546428D01*
X168903333Y-102355952D01*
X168950952Y-102260714D01*
X168998571Y-102213095D01*
X169093809Y-102165476D01*
%TO.C,C54*%
X183557142Y-79557142D02*
X183604761Y-79509523D01*
X183652380Y-79366666D01*
X183652380Y-79271428D01*
X183604761Y-79128571D01*
X183509523Y-79033333D01*
X183414285Y-78985714D01*
X183223809Y-78938095D01*
X183080952Y-78938095D01*
X182890476Y-78985714D01*
X182795238Y-79033333D01*
X182700000Y-79128571D01*
X182652380Y-79271428D01*
X182652380Y-79366666D01*
X182700000Y-79509523D01*
X182747619Y-79557142D01*
X182652380Y-80461904D02*
X182652380Y-79985714D01*
X183128571Y-79938095D01*
X183080952Y-79985714D01*
X183033333Y-80080952D01*
X183033333Y-80319047D01*
X183080952Y-80414285D01*
X183128571Y-80461904D01*
X183223809Y-80509523D01*
X183461904Y-80509523D01*
X183557142Y-80461904D01*
X183604761Y-80414285D01*
X183652380Y-80319047D01*
X183652380Y-80080952D01*
X183604761Y-79985714D01*
X183557142Y-79938095D01*
X182985714Y-81366666D02*
X183652380Y-81366666D01*
X182604761Y-81128571D02*
X183319047Y-80890476D01*
X183319047Y-81509523D01*
%TO.C,C53*%
X183757142Y-91257142D02*
X183804761Y-91209523D01*
X183852380Y-91066666D01*
X183852380Y-90971428D01*
X183804761Y-90828571D01*
X183709523Y-90733333D01*
X183614285Y-90685714D01*
X183423809Y-90638095D01*
X183280952Y-90638095D01*
X183090476Y-90685714D01*
X182995238Y-90733333D01*
X182900000Y-90828571D01*
X182852380Y-90971428D01*
X182852380Y-91066666D01*
X182900000Y-91209523D01*
X182947619Y-91257142D01*
X182852380Y-92161904D02*
X182852380Y-91685714D01*
X183328571Y-91638095D01*
X183280952Y-91685714D01*
X183233333Y-91780952D01*
X183233333Y-92019047D01*
X183280952Y-92114285D01*
X183328571Y-92161904D01*
X183423809Y-92209523D01*
X183661904Y-92209523D01*
X183757142Y-92161904D01*
X183804761Y-92114285D01*
X183852380Y-92019047D01*
X183852380Y-91780952D01*
X183804761Y-91685714D01*
X183757142Y-91638095D01*
X182852380Y-92542857D02*
X182852380Y-93161904D01*
X183233333Y-92828571D01*
X183233333Y-92971428D01*
X183280952Y-93066666D01*
X183328571Y-93114285D01*
X183423809Y-93161904D01*
X183661904Y-93161904D01*
X183757142Y-93114285D01*
X183804761Y-93066666D01*
X183852380Y-92971428D01*
X183852380Y-92685714D01*
X183804761Y-92590476D01*
X183757142Y-92542857D01*
%TO.C,C51*%
X152542857Y-104157142D02*
X152590476Y-104204761D01*
X152733333Y-104252380D01*
X152828571Y-104252380D01*
X152971428Y-104204761D01*
X153066666Y-104109523D01*
X153114285Y-104014285D01*
X153161904Y-103823809D01*
X153161904Y-103680952D01*
X153114285Y-103490476D01*
X153066666Y-103395238D01*
X152971428Y-103300000D01*
X152828571Y-103252380D01*
X152733333Y-103252380D01*
X152590476Y-103300000D01*
X152542857Y-103347619D01*
X151638095Y-103252380D02*
X152114285Y-103252380D01*
X152161904Y-103728571D01*
X152114285Y-103680952D01*
X152019047Y-103633333D01*
X151780952Y-103633333D01*
X151685714Y-103680952D01*
X151638095Y-103728571D01*
X151590476Y-103823809D01*
X151590476Y-104061904D01*
X151638095Y-104157142D01*
X151685714Y-104204761D01*
X151780952Y-104252380D01*
X152019047Y-104252380D01*
X152114285Y-104204761D01*
X152161904Y-104157142D01*
X150638095Y-104252380D02*
X151209523Y-104252380D01*
X150923809Y-104252380D02*
X150923809Y-103252380D01*
X151019047Y-103395238D01*
X151114285Y-103490476D01*
X151209523Y-103538095D01*
%TO.C,Y1*%
X154026190Y-84523809D02*
X154502380Y-84523809D01*
X153502380Y-84190476D02*
X154026190Y-84523809D01*
X153502380Y-84857142D01*
X154502380Y-85714285D02*
X154502380Y-85142857D01*
X154502380Y-85428571D02*
X153502380Y-85428571D01*
X153645238Y-85333333D01*
X153740476Y-85238095D01*
X153788095Y-85142857D01*
%TO.C,U12*%
X145538095Y-110352380D02*
X145538095Y-111161904D01*
X145490476Y-111257142D01*
X145442857Y-111304761D01*
X145347619Y-111352380D01*
X145157142Y-111352380D01*
X145061904Y-111304761D01*
X145014285Y-111257142D01*
X144966666Y-111161904D01*
X144966666Y-110352380D01*
X143966666Y-111352380D02*
X144538095Y-111352380D01*
X144252380Y-111352380D02*
X144252380Y-110352380D01*
X144347619Y-110495238D01*
X144442857Y-110590476D01*
X144538095Y-110638095D01*
X143585714Y-110447619D02*
X143538095Y-110400000D01*
X143442857Y-110352380D01*
X143204761Y-110352380D01*
X143109523Y-110400000D01*
X143061904Y-110447619D01*
X143014285Y-110542857D01*
X143014285Y-110638095D01*
X143061904Y-110780952D01*
X143633333Y-111352380D01*
X143014285Y-111352380D01*
%TO.C,U5*%
X162861904Y-78152380D02*
X162861904Y-78961904D01*
X162814285Y-79057142D01*
X162766666Y-79104761D01*
X162671428Y-79152380D01*
X162480952Y-79152380D01*
X162385714Y-79104761D01*
X162338095Y-79057142D01*
X162290476Y-78961904D01*
X162290476Y-78152380D01*
X161338095Y-78152380D02*
X161814285Y-78152380D01*
X161861904Y-78628571D01*
X161814285Y-78580952D01*
X161719047Y-78533333D01*
X161480952Y-78533333D01*
X161385714Y-78580952D01*
X161338095Y-78628571D01*
X161290476Y-78723809D01*
X161290476Y-78961904D01*
X161338095Y-79057142D01*
X161385714Y-79104761D01*
X161480952Y-79152380D01*
X161719047Y-79152380D01*
X161814285Y-79104761D01*
X161861904Y-79057142D01*
%TO.C,U4*%
X136152380Y-74438095D02*
X136961904Y-74438095D01*
X137057142Y-74485714D01*
X137104761Y-74533333D01*
X137152380Y-74628571D01*
X137152380Y-74819047D01*
X137104761Y-74914285D01*
X137057142Y-74961904D01*
X136961904Y-75009523D01*
X136152380Y-75009523D01*
X136485714Y-75914285D02*
X137152380Y-75914285D01*
X136104761Y-75676190D02*
X136819047Y-75438095D01*
X136819047Y-76057142D01*
%TO.C,U3*%
X130461904Y-96452380D02*
X130461904Y-97261904D01*
X130414285Y-97357142D01*
X130366666Y-97404761D01*
X130271428Y-97452380D01*
X130080952Y-97452380D01*
X129985714Y-97404761D01*
X129938095Y-97357142D01*
X129890476Y-97261904D01*
X129890476Y-96452380D01*
X129509523Y-96452380D02*
X128890476Y-96452380D01*
X129223809Y-96833333D01*
X129080952Y-96833333D01*
X128985714Y-96880952D01*
X128938095Y-96928571D01*
X128890476Y-97023809D01*
X128890476Y-97261904D01*
X128938095Y-97357142D01*
X128985714Y-97404761D01*
X129080952Y-97452380D01*
X129366666Y-97452380D01*
X129461904Y-97404761D01*
X129509523Y-97357142D01*
%TO.C,U2*%
X158452380Y-75338095D02*
X159261904Y-75338095D01*
X159357142Y-75385714D01*
X159404761Y-75433333D01*
X159452380Y-75528571D01*
X159452380Y-75719047D01*
X159404761Y-75814285D01*
X159357142Y-75861904D01*
X159261904Y-75909523D01*
X158452380Y-75909523D01*
X158547619Y-76338095D02*
X158500000Y-76385714D01*
X158452380Y-76480952D01*
X158452380Y-76719047D01*
X158500000Y-76814285D01*
X158547619Y-76861904D01*
X158642857Y-76909523D01*
X158738095Y-76909523D01*
X158880952Y-76861904D01*
X159452380Y-76290476D01*
X159452380Y-76909523D01*
%TO.C,U1*%
X150952380Y-83138095D02*
X151761904Y-83138095D01*
X151857142Y-83185714D01*
X151904761Y-83233333D01*
X151952380Y-83328571D01*
X151952380Y-83519047D01*
X151904761Y-83614285D01*
X151857142Y-83661904D01*
X151761904Y-83709523D01*
X150952380Y-83709523D01*
X151952380Y-84709523D02*
X151952380Y-84138095D01*
X151952380Y-84423809D02*
X150952380Y-84423809D01*
X151095238Y-84328571D01*
X151190476Y-84233333D01*
X151238095Y-84138095D01*
%TO.C,R20*%
X152634713Y-77047542D02*
X152158523Y-76714209D01*
X152634713Y-76476114D02*
X151634713Y-76476114D01*
X151634713Y-76857066D01*
X151682333Y-76952304D01*
X151729952Y-76999923D01*
X151825190Y-77047542D01*
X151968047Y-77047542D01*
X152063285Y-76999923D01*
X152110904Y-76952304D01*
X152158523Y-76857066D01*
X152158523Y-76476114D01*
X151729952Y-77428495D02*
X151682333Y-77476114D01*
X151634713Y-77571352D01*
X151634713Y-77809447D01*
X151682333Y-77904685D01*
X151729952Y-77952304D01*
X151825190Y-77999923D01*
X151920428Y-77999923D01*
X152063285Y-77952304D01*
X152634713Y-77380876D01*
X152634713Y-77999923D01*
X151634713Y-78618971D02*
X151634713Y-78714209D01*
X151682333Y-78809447D01*
X151729952Y-78857066D01*
X151825190Y-78904685D01*
X152015666Y-78952304D01*
X152253761Y-78952304D01*
X152444237Y-78904685D01*
X152539475Y-78857066D01*
X152587094Y-78809447D01*
X152634713Y-78714209D01*
X152634713Y-78618971D01*
X152587094Y-78523733D01*
X152539475Y-78476114D01*
X152444237Y-78428495D01*
X152253761Y-78380876D01*
X152015666Y-78380876D01*
X151825190Y-78428495D01*
X151729952Y-78476114D01*
X151682333Y-78523733D01*
X151634713Y-78618971D01*
%TO.C,R15*%
X128617857Y-94222380D02*
X128951190Y-93746190D01*
X129189285Y-94222380D02*
X129189285Y-93222380D01*
X128808333Y-93222380D01*
X128713095Y-93270000D01*
X128665476Y-93317619D01*
X128617857Y-93412857D01*
X128617857Y-93555714D01*
X128665476Y-93650952D01*
X128713095Y-93698571D01*
X128808333Y-93746190D01*
X129189285Y-93746190D01*
X127665476Y-94222380D02*
X128236904Y-94222380D01*
X127951190Y-94222380D02*
X127951190Y-93222380D01*
X128046428Y-93365238D01*
X128141666Y-93460476D01*
X128236904Y-93508095D01*
X126760714Y-93222380D02*
X127236904Y-93222380D01*
X127284523Y-93698571D01*
X127236904Y-93650952D01*
X127141666Y-93603333D01*
X126903571Y-93603333D01*
X126808333Y-93650952D01*
X126760714Y-93698571D01*
X126713095Y-93793809D01*
X126713095Y-94031904D01*
X126760714Y-94127142D01*
X126808333Y-94174761D01*
X126903571Y-94222380D01*
X127141666Y-94222380D01*
X127236904Y-94174761D01*
X127284523Y-94127142D01*
%TO.C,R14*%
X132367857Y-94222380D02*
X132701190Y-93746190D01*
X132939285Y-94222380D02*
X132939285Y-93222380D01*
X132558333Y-93222380D01*
X132463095Y-93270000D01*
X132415476Y-93317619D01*
X132367857Y-93412857D01*
X132367857Y-93555714D01*
X132415476Y-93650952D01*
X132463095Y-93698571D01*
X132558333Y-93746190D01*
X132939285Y-93746190D01*
X131415476Y-94222380D02*
X131986904Y-94222380D01*
X131701190Y-94222380D02*
X131701190Y-93222380D01*
X131796428Y-93365238D01*
X131891666Y-93460476D01*
X131986904Y-93508095D01*
X130558333Y-93555714D02*
X130558333Y-94222380D01*
X130796428Y-93174761D02*
X131034523Y-93889047D01*
X130415476Y-93889047D01*
%TO.C,R12*%
X139142857Y-79752380D02*
X139476190Y-79276190D01*
X139714285Y-79752380D02*
X139714285Y-78752380D01*
X139333333Y-78752380D01*
X139238095Y-78800000D01*
X139190476Y-78847619D01*
X139142857Y-78942857D01*
X139142857Y-79085714D01*
X139190476Y-79180952D01*
X139238095Y-79228571D01*
X139333333Y-79276190D01*
X139714285Y-79276190D01*
X138190476Y-79752380D02*
X138761904Y-79752380D01*
X138476190Y-79752380D02*
X138476190Y-78752380D01*
X138571428Y-78895238D01*
X138666666Y-78990476D01*
X138761904Y-79038095D01*
X137809523Y-78847619D02*
X137761904Y-78800000D01*
X137666666Y-78752380D01*
X137428571Y-78752380D01*
X137333333Y-78800000D01*
X137285714Y-78847619D01*
X137238095Y-78942857D01*
X137238095Y-79038095D01*
X137285714Y-79180952D01*
X137857142Y-79752380D01*
X137238095Y-79752380D01*
%TO.C,R11*%
X132242857Y-72652380D02*
X132576190Y-72176190D01*
X132814285Y-72652380D02*
X132814285Y-71652380D01*
X132433333Y-71652380D01*
X132338095Y-71700000D01*
X132290476Y-71747619D01*
X132242857Y-71842857D01*
X132242857Y-71985714D01*
X132290476Y-72080952D01*
X132338095Y-72128571D01*
X132433333Y-72176190D01*
X132814285Y-72176190D01*
X131290476Y-72652380D02*
X131861904Y-72652380D01*
X131576190Y-72652380D02*
X131576190Y-71652380D01*
X131671428Y-71795238D01*
X131766666Y-71890476D01*
X131861904Y-71938095D01*
X130338095Y-72652380D02*
X130909523Y-72652380D01*
X130623809Y-72652380D02*
X130623809Y-71652380D01*
X130719047Y-71795238D01*
X130814285Y-71890476D01*
X130909523Y-71938095D01*
%TO.C,R10*%
X123752380Y-95657142D02*
X123276190Y-95323809D01*
X123752380Y-95085714D02*
X122752380Y-95085714D01*
X122752380Y-95466666D01*
X122800000Y-95561904D01*
X122847619Y-95609523D01*
X122942857Y-95657142D01*
X123085714Y-95657142D01*
X123180952Y-95609523D01*
X123228571Y-95561904D01*
X123276190Y-95466666D01*
X123276190Y-95085714D01*
X123752380Y-96609523D02*
X123752380Y-96038095D01*
X123752380Y-96323809D02*
X122752380Y-96323809D01*
X122895238Y-96228571D01*
X122990476Y-96133333D01*
X123038095Y-96038095D01*
X122752380Y-97228571D02*
X122752380Y-97323809D01*
X122800000Y-97419047D01*
X122847619Y-97466666D01*
X122942857Y-97514285D01*
X123133333Y-97561904D01*
X123371428Y-97561904D01*
X123561904Y-97514285D01*
X123657142Y-97466666D01*
X123704761Y-97419047D01*
X123752380Y-97323809D01*
X123752380Y-97228571D01*
X123704761Y-97133333D01*
X123657142Y-97085714D01*
X123561904Y-97038095D01*
X123371428Y-96990476D01*
X123133333Y-96990476D01*
X122942857Y-97038095D01*
X122847619Y-97085714D01*
X122800000Y-97133333D01*
X122752380Y-97228571D01*
%TO.C,R9*%
X132952380Y-75158333D02*
X132476190Y-74825000D01*
X132952380Y-74586904D02*
X131952380Y-74586904D01*
X131952380Y-74967857D01*
X132000000Y-75063095D01*
X132047619Y-75110714D01*
X132142857Y-75158333D01*
X132285714Y-75158333D01*
X132380952Y-75110714D01*
X132428571Y-75063095D01*
X132476190Y-74967857D01*
X132476190Y-74586904D01*
X132952380Y-75634523D02*
X132952380Y-75825000D01*
X132904761Y-75920238D01*
X132857142Y-75967857D01*
X132714285Y-76063095D01*
X132523809Y-76110714D01*
X132142857Y-76110714D01*
X132047619Y-76063095D01*
X132000000Y-76015476D01*
X131952380Y-75920238D01*
X131952380Y-75729761D01*
X132000000Y-75634523D01*
X132047619Y-75586904D01*
X132142857Y-75539285D01*
X132380952Y-75539285D01*
X132476190Y-75586904D01*
X132523809Y-75634523D01*
X132571428Y-75729761D01*
X132571428Y-75920238D01*
X132523809Y-76015476D01*
X132476190Y-76063095D01*
X132380952Y-76110714D01*
%TO.C,R8*%
X132952380Y-78433333D02*
X132476190Y-78100000D01*
X132952380Y-77861904D02*
X131952380Y-77861904D01*
X131952380Y-78242857D01*
X132000000Y-78338095D01*
X132047619Y-78385714D01*
X132142857Y-78433333D01*
X132285714Y-78433333D01*
X132380952Y-78385714D01*
X132428571Y-78338095D01*
X132476190Y-78242857D01*
X132476190Y-77861904D01*
X132380952Y-79004761D02*
X132333333Y-78909523D01*
X132285714Y-78861904D01*
X132190476Y-78814285D01*
X132142857Y-78814285D01*
X132047619Y-78861904D01*
X132000000Y-78909523D01*
X131952380Y-79004761D01*
X131952380Y-79195238D01*
X132000000Y-79290476D01*
X132047619Y-79338095D01*
X132142857Y-79385714D01*
X132190476Y-79385714D01*
X132285714Y-79338095D01*
X132333333Y-79290476D01*
X132380952Y-79195238D01*
X132380952Y-79004761D01*
X132428571Y-78909523D01*
X132476190Y-78861904D01*
X132571428Y-78814285D01*
X132761904Y-78814285D01*
X132857142Y-78861904D01*
X132904761Y-78909523D01*
X132952380Y-79004761D01*
X132952380Y-79195238D01*
X132904761Y-79290476D01*
X132857142Y-79338095D01*
X132761904Y-79385714D01*
X132571428Y-79385714D01*
X132476190Y-79338095D01*
X132428571Y-79290476D01*
X132380952Y-79195238D01*
%TO.C,R7*%
X166066666Y-71752380D02*
X166400000Y-71276190D01*
X166638095Y-71752380D02*
X166638095Y-70752380D01*
X166257142Y-70752380D01*
X166161904Y-70800000D01*
X166114285Y-70847619D01*
X166066666Y-70942857D01*
X166066666Y-71085714D01*
X166114285Y-71180952D01*
X166161904Y-71228571D01*
X166257142Y-71276190D01*
X166638095Y-71276190D01*
X165733333Y-70752380D02*
X165066666Y-70752380D01*
X165495238Y-71752380D01*
%TO.C,R6*%
X162741666Y-71752380D02*
X163075000Y-71276190D01*
X163313095Y-71752380D02*
X163313095Y-70752380D01*
X162932142Y-70752380D01*
X162836904Y-70800000D01*
X162789285Y-70847619D01*
X162741666Y-70942857D01*
X162741666Y-71085714D01*
X162789285Y-71180952D01*
X162836904Y-71228571D01*
X162932142Y-71276190D01*
X163313095Y-71276190D01*
X161884523Y-70752380D02*
X162075000Y-70752380D01*
X162170238Y-70800000D01*
X162217857Y-70847619D01*
X162313095Y-70990476D01*
X162360714Y-71180952D01*
X162360714Y-71561904D01*
X162313095Y-71657142D01*
X162265476Y-71704761D01*
X162170238Y-71752380D01*
X161979761Y-71752380D01*
X161884523Y-71704761D01*
X161836904Y-71657142D01*
X161789285Y-71561904D01*
X161789285Y-71323809D01*
X161836904Y-71228571D01*
X161884523Y-71180952D01*
X161979761Y-71133333D01*
X162170238Y-71133333D01*
X162265476Y-71180952D01*
X162313095Y-71228571D01*
X162360714Y-71323809D01*
%TO.C,R3*%
X132052380Y-91033333D02*
X131576190Y-90700000D01*
X132052380Y-90461904D02*
X131052380Y-90461904D01*
X131052380Y-90842857D01*
X131100000Y-90938095D01*
X131147619Y-90985714D01*
X131242857Y-91033333D01*
X131385714Y-91033333D01*
X131480952Y-90985714D01*
X131528571Y-90938095D01*
X131576190Y-90842857D01*
X131576190Y-90461904D01*
X131052380Y-91366666D02*
X131052380Y-91985714D01*
X131433333Y-91652380D01*
X131433333Y-91795238D01*
X131480952Y-91890476D01*
X131528571Y-91938095D01*
X131623809Y-91985714D01*
X131861904Y-91985714D01*
X131957142Y-91938095D01*
X132004761Y-91890476D01*
X132052380Y-91795238D01*
X132052380Y-91509523D01*
X132004761Y-91414285D01*
X131957142Y-91366666D01*
%TO.C,R2*%
X127752380Y-91033333D02*
X127276190Y-90700000D01*
X127752380Y-90461904D02*
X126752380Y-90461904D01*
X126752380Y-90842857D01*
X126800000Y-90938095D01*
X126847619Y-90985714D01*
X126942857Y-91033333D01*
X127085714Y-91033333D01*
X127180952Y-90985714D01*
X127228571Y-90938095D01*
X127276190Y-90842857D01*
X127276190Y-90461904D01*
X126847619Y-91414285D02*
X126800000Y-91461904D01*
X126752380Y-91557142D01*
X126752380Y-91795238D01*
X126800000Y-91890476D01*
X126847619Y-91938095D01*
X126942857Y-91985714D01*
X127038095Y-91985714D01*
X127180952Y-91938095D01*
X127752380Y-91366666D01*
X127752380Y-91985714D01*
%TO.C,R1*%
X127141666Y-88182380D02*
X127475000Y-87706190D01*
X127713095Y-88182380D02*
X127713095Y-87182380D01*
X127332142Y-87182380D01*
X127236904Y-87230000D01*
X127189285Y-87277619D01*
X127141666Y-87372857D01*
X127141666Y-87515714D01*
X127189285Y-87610952D01*
X127236904Y-87658571D01*
X127332142Y-87706190D01*
X127713095Y-87706190D01*
X126189285Y-88182380D02*
X126760714Y-88182380D01*
X126475000Y-88182380D02*
X126475000Y-87182380D01*
X126570238Y-87325238D01*
X126665476Y-87420476D01*
X126760714Y-87468095D01*
%TO.C,Q2*%
X130795238Y-82047619D02*
X130890476Y-82000000D01*
X130985714Y-81904761D01*
X131128571Y-81761904D01*
X131223809Y-81714285D01*
X131319047Y-81714285D01*
X131271428Y-81952380D02*
X131366666Y-81904761D01*
X131461904Y-81809523D01*
X131509523Y-81619047D01*
X131509523Y-81285714D01*
X131461904Y-81095238D01*
X131366666Y-81000000D01*
X131271428Y-80952380D01*
X131080952Y-80952380D01*
X130985714Y-81000000D01*
X130890476Y-81095238D01*
X130842857Y-81285714D01*
X130842857Y-81619047D01*
X130890476Y-81809523D01*
X130985714Y-81904761D01*
X131080952Y-81952380D01*
X131271428Y-81952380D01*
X130461904Y-81047619D02*
X130414285Y-81000000D01*
X130319047Y-80952380D01*
X130080952Y-80952380D01*
X129985714Y-81000000D01*
X129938095Y-81047619D01*
X129890476Y-81142857D01*
X129890476Y-81238095D01*
X129938095Y-81380952D01*
X130509523Y-81952380D01*
X129890476Y-81952380D01*
%TO.C,Q1*%
X130795238Y-87947619D02*
X130890476Y-87900000D01*
X130985714Y-87804761D01*
X131128571Y-87661904D01*
X131223809Y-87614285D01*
X131319047Y-87614285D01*
X131271428Y-87852380D02*
X131366666Y-87804761D01*
X131461904Y-87709523D01*
X131509523Y-87519047D01*
X131509523Y-87185714D01*
X131461904Y-86995238D01*
X131366666Y-86900000D01*
X131271428Y-86852380D01*
X131080952Y-86852380D01*
X130985714Y-86900000D01*
X130890476Y-86995238D01*
X130842857Y-87185714D01*
X130842857Y-87519047D01*
X130890476Y-87709523D01*
X130985714Y-87804761D01*
X131080952Y-87852380D01*
X131271428Y-87852380D01*
X129890476Y-87852380D02*
X130461904Y-87852380D01*
X130176190Y-87852380D02*
X130176190Y-86852380D01*
X130271428Y-86995238D01*
X130366666Y-87090476D01*
X130461904Y-87138095D01*
%TO.C,L2*%
X142352380Y-75233333D02*
X142352380Y-74757142D01*
X141352380Y-74757142D01*
X141447619Y-75519047D02*
X141400000Y-75566666D01*
X141352380Y-75661904D01*
X141352380Y-75900000D01*
X141400000Y-75995238D01*
X141447619Y-76042857D01*
X141542857Y-76090476D01*
X141638095Y-76090476D01*
X141780952Y-76042857D01*
X142352380Y-75471428D01*
X142352380Y-76090476D01*
%TO.C,L1*%
X144566666Y-104852380D02*
X145042857Y-104852380D01*
X145042857Y-103852380D01*
X143709523Y-104852380D02*
X144280952Y-104852380D01*
X143995238Y-104852380D02*
X143995238Y-103852380D01*
X144090476Y-103995238D01*
X144185714Y-104090476D01*
X144280952Y-104138095D01*
%TO.C,J3*%
X106747619Y-101033333D02*
X106033333Y-101033333D01*
X105890476Y-101080952D01*
X105795238Y-101176190D01*
X105747619Y-101319047D01*
X105747619Y-101414285D01*
X106747619Y-100652380D02*
X106747619Y-100033333D01*
X106366666Y-100366666D01*
X106366666Y-100223809D01*
X106319047Y-100128571D01*
X106271428Y-100080952D01*
X106176190Y-100033333D01*
X105938095Y-100033333D01*
X105842857Y-100080952D01*
X105795238Y-100128571D01*
X105747619Y-100223809D01*
X105747619Y-100509523D01*
X105795238Y-100604761D01*
X105842857Y-100652380D01*
%TO.C,D1*%
X134952380Y-91061904D02*
X133952380Y-91061904D01*
X133952380Y-91300000D01*
X134000000Y-91442857D01*
X134095238Y-91538095D01*
X134190476Y-91585714D01*
X134380952Y-91633333D01*
X134523809Y-91633333D01*
X134714285Y-91585714D01*
X134809523Y-91538095D01*
X134904761Y-91442857D01*
X134952380Y-91300000D01*
X134952380Y-91061904D01*
X134952380Y-92585714D02*
X134952380Y-92014285D01*
X134952380Y-92300000D02*
X133952380Y-92300000D01*
X134095238Y-92204761D01*
X134190476Y-92109523D01*
X134238095Y-92014285D01*
%TO.C,C49*%
X192257142Y-107457142D02*
X192304761Y-107409523D01*
X192352380Y-107266666D01*
X192352380Y-107171428D01*
X192304761Y-107028571D01*
X192209523Y-106933333D01*
X192114285Y-106885714D01*
X191923809Y-106838095D01*
X191780952Y-106838095D01*
X191590476Y-106885714D01*
X191495238Y-106933333D01*
X191400000Y-107028571D01*
X191352380Y-107171428D01*
X191352380Y-107266666D01*
X191400000Y-107409523D01*
X191447619Y-107457142D01*
X191685714Y-108314285D02*
X192352380Y-108314285D01*
X191304761Y-108076190D02*
X192019047Y-107838095D01*
X192019047Y-108457142D01*
X192352380Y-108885714D02*
X192352380Y-109076190D01*
X192304761Y-109171428D01*
X192257142Y-109219047D01*
X192114285Y-109314285D01*
X191923809Y-109361904D01*
X191542857Y-109361904D01*
X191447619Y-109314285D01*
X191400000Y-109266666D01*
X191352380Y-109171428D01*
X191352380Y-108980952D01*
X191400000Y-108885714D01*
X191447619Y-108838095D01*
X191542857Y-108790476D01*
X191780952Y-108790476D01*
X191876190Y-108838095D01*
X191923809Y-108885714D01*
X191971428Y-108980952D01*
X191971428Y-109171428D01*
X191923809Y-109266666D01*
X191876190Y-109314285D01*
X191780952Y-109361904D01*
%TO.C,C48*%
X189557142Y-105757142D02*
X189604761Y-105709523D01*
X189652380Y-105566666D01*
X189652380Y-105471428D01*
X189604761Y-105328571D01*
X189509523Y-105233333D01*
X189414285Y-105185714D01*
X189223809Y-105138095D01*
X189080952Y-105138095D01*
X188890476Y-105185714D01*
X188795238Y-105233333D01*
X188700000Y-105328571D01*
X188652380Y-105471428D01*
X188652380Y-105566666D01*
X188700000Y-105709523D01*
X188747619Y-105757142D01*
X188985714Y-106614285D02*
X189652380Y-106614285D01*
X188604761Y-106376190D02*
X189319047Y-106138095D01*
X189319047Y-106757142D01*
X189080952Y-107280952D02*
X189033333Y-107185714D01*
X188985714Y-107138095D01*
X188890476Y-107090476D01*
X188842857Y-107090476D01*
X188747619Y-107138095D01*
X188700000Y-107185714D01*
X188652380Y-107280952D01*
X188652380Y-107471428D01*
X188700000Y-107566666D01*
X188747619Y-107614285D01*
X188842857Y-107661904D01*
X188890476Y-107661904D01*
X188985714Y-107614285D01*
X189033333Y-107566666D01*
X189080952Y-107471428D01*
X189080952Y-107280952D01*
X189128571Y-107185714D01*
X189176190Y-107138095D01*
X189271428Y-107090476D01*
X189461904Y-107090476D01*
X189557142Y-107138095D01*
X189604761Y-107185714D01*
X189652380Y-107280952D01*
X189652380Y-107471428D01*
X189604761Y-107566666D01*
X189557142Y-107614285D01*
X189461904Y-107661904D01*
X189271428Y-107661904D01*
X189176190Y-107614285D01*
X189128571Y-107566666D01*
X189080952Y-107471428D01*
%TO.C,C47*%
X169727142Y-109257142D02*
X169774761Y-109209523D01*
X169822380Y-109066666D01*
X169822380Y-108971428D01*
X169774761Y-108828571D01*
X169679523Y-108733333D01*
X169584285Y-108685714D01*
X169393809Y-108638095D01*
X169250952Y-108638095D01*
X169060476Y-108685714D01*
X168965238Y-108733333D01*
X168870000Y-108828571D01*
X168822380Y-108971428D01*
X168822380Y-109066666D01*
X168870000Y-109209523D01*
X168917619Y-109257142D01*
X169155714Y-110114285D02*
X169822380Y-110114285D01*
X168774761Y-109876190D02*
X169489047Y-109638095D01*
X169489047Y-110257142D01*
X168822380Y-110542857D02*
X168822380Y-111209523D01*
X169822380Y-110780952D01*
%TO.C,C45*%
X187657142Y-107832142D02*
X187704761Y-107784523D01*
X187752380Y-107641666D01*
X187752380Y-107546428D01*
X187704761Y-107403571D01*
X187609523Y-107308333D01*
X187514285Y-107260714D01*
X187323809Y-107213095D01*
X187180952Y-107213095D01*
X186990476Y-107260714D01*
X186895238Y-107308333D01*
X186800000Y-107403571D01*
X186752380Y-107546428D01*
X186752380Y-107641666D01*
X186800000Y-107784523D01*
X186847619Y-107832142D01*
X187085714Y-108689285D02*
X187752380Y-108689285D01*
X186704761Y-108451190D02*
X187419047Y-108213095D01*
X187419047Y-108832142D01*
X186752380Y-109689285D02*
X186752380Y-109213095D01*
X187228571Y-109165476D01*
X187180952Y-109213095D01*
X187133333Y-109308333D01*
X187133333Y-109546428D01*
X187180952Y-109641666D01*
X187228571Y-109689285D01*
X187323809Y-109736904D01*
X187561904Y-109736904D01*
X187657142Y-109689285D01*
X187704761Y-109641666D01*
X187752380Y-109546428D01*
X187752380Y-109308333D01*
X187704761Y-109213095D01*
X187657142Y-109165476D01*
%TO.C,C44*%
X187557142Y-115657142D02*
X187604761Y-115609523D01*
X187652380Y-115466666D01*
X187652380Y-115371428D01*
X187604761Y-115228571D01*
X187509523Y-115133333D01*
X187414285Y-115085714D01*
X187223809Y-115038095D01*
X187080952Y-115038095D01*
X186890476Y-115085714D01*
X186795238Y-115133333D01*
X186700000Y-115228571D01*
X186652380Y-115371428D01*
X186652380Y-115466666D01*
X186700000Y-115609523D01*
X186747619Y-115657142D01*
X186985714Y-116514285D02*
X187652380Y-116514285D01*
X186604761Y-116276190D02*
X187319047Y-116038095D01*
X187319047Y-116657142D01*
X186985714Y-117466666D02*
X187652380Y-117466666D01*
X186604761Y-117228571D02*
X187319047Y-116990476D01*
X187319047Y-117609523D01*
%TO.C,C42*%
X192142857Y-115187142D02*
X192190476Y-115234761D01*
X192333333Y-115282380D01*
X192428571Y-115282380D01*
X192571428Y-115234761D01*
X192666666Y-115139523D01*
X192714285Y-115044285D01*
X192761904Y-114853809D01*
X192761904Y-114710952D01*
X192714285Y-114520476D01*
X192666666Y-114425238D01*
X192571428Y-114330000D01*
X192428571Y-114282380D01*
X192333333Y-114282380D01*
X192190476Y-114330000D01*
X192142857Y-114377619D01*
X191285714Y-114615714D02*
X191285714Y-115282380D01*
X191523809Y-114234761D02*
X191761904Y-114949047D01*
X191142857Y-114949047D01*
X190809523Y-114377619D02*
X190761904Y-114330000D01*
X190666666Y-114282380D01*
X190428571Y-114282380D01*
X190333333Y-114330000D01*
X190285714Y-114377619D01*
X190238095Y-114472857D01*
X190238095Y-114568095D01*
X190285714Y-114710952D01*
X190857142Y-115282380D01*
X190238095Y-115282380D01*
%TO.C,C40*%
X182957142Y-113857142D02*
X183004761Y-113809523D01*
X183052380Y-113666666D01*
X183052380Y-113571428D01*
X183004761Y-113428571D01*
X182909523Y-113333333D01*
X182814285Y-113285714D01*
X182623809Y-113238095D01*
X182480952Y-113238095D01*
X182290476Y-113285714D01*
X182195238Y-113333333D01*
X182100000Y-113428571D01*
X182052380Y-113571428D01*
X182052380Y-113666666D01*
X182100000Y-113809523D01*
X182147619Y-113857142D01*
X182385714Y-114714285D02*
X183052380Y-114714285D01*
X182004761Y-114476190D02*
X182719047Y-114238095D01*
X182719047Y-114857142D01*
X182052380Y-115428571D02*
X182052380Y-115523809D01*
X182100000Y-115619047D01*
X182147619Y-115666666D01*
X182242857Y-115714285D01*
X182433333Y-115761904D01*
X182671428Y-115761904D01*
X182861904Y-115714285D01*
X182957142Y-115666666D01*
X183004761Y-115619047D01*
X183052380Y-115523809D01*
X183052380Y-115428571D01*
X183004761Y-115333333D01*
X182957142Y-115285714D01*
X182861904Y-115238095D01*
X182671428Y-115190476D01*
X182433333Y-115190476D01*
X182242857Y-115238095D01*
X182147619Y-115285714D01*
X182100000Y-115333333D01*
X182052380Y-115428571D01*
%TO.C,C37*%
X189357142Y-115657142D02*
X189404761Y-115609523D01*
X189452380Y-115466666D01*
X189452380Y-115371428D01*
X189404761Y-115228571D01*
X189309523Y-115133333D01*
X189214285Y-115085714D01*
X189023809Y-115038095D01*
X188880952Y-115038095D01*
X188690476Y-115085714D01*
X188595238Y-115133333D01*
X188500000Y-115228571D01*
X188452380Y-115371428D01*
X188452380Y-115466666D01*
X188500000Y-115609523D01*
X188547619Y-115657142D01*
X188452380Y-115990476D02*
X188452380Y-116609523D01*
X188833333Y-116276190D01*
X188833333Y-116419047D01*
X188880952Y-116514285D01*
X188928571Y-116561904D01*
X189023809Y-116609523D01*
X189261904Y-116609523D01*
X189357142Y-116561904D01*
X189404761Y-116514285D01*
X189452380Y-116419047D01*
X189452380Y-116133333D01*
X189404761Y-116038095D01*
X189357142Y-115990476D01*
X188452380Y-116942857D02*
X188452380Y-117609523D01*
X189452380Y-117180952D01*
%TO.C,C36*%
X166087142Y-114557142D02*
X166134761Y-114509523D01*
X166182380Y-114366666D01*
X166182380Y-114271428D01*
X166134761Y-114128571D01*
X166039523Y-114033333D01*
X165944285Y-113985714D01*
X165753809Y-113938095D01*
X165610952Y-113938095D01*
X165420476Y-113985714D01*
X165325238Y-114033333D01*
X165230000Y-114128571D01*
X165182380Y-114271428D01*
X165182380Y-114366666D01*
X165230000Y-114509523D01*
X165277619Y-114557142D01*
X165182380Y-114890476D02*
X165182380Y-115509523D01*
X165563333Y-115176190D01*
X165563333Y-115319047D01*
X165610952Y-115414285D01*
X165658571Y-115461904D01*
X165753809Y-115509523D01*
X165991904Y-115509523D01*
X166087142Y-115461904D01*
X166134761Y-115414285D01*
X166182380Y-115319047D01*
X166182380Y-115033333D01*
X166134761Y-114938095D01*
X166087142Y-114890476D01*
X165182380Y-116366666D02*
X165182380Y-116176190D01*
X165230000Y-116080952D01*
X165277619Y-116033333D01*
X165420476Y-115938095D01*
X165610952Y-115890476D01*
X165991904Y-115890476D01*
X166087142Y-115938095D01*
X166134761Y-115985714D01*
X166182380Y-116080952D01*
X166182380Y-116271428D01*
X166134761Y-116366666D01*
X166087142Y-116414285D01*
X165991904Y-116461904D01*
X165753809Y-116461904D01*
X165658571Y-116414285D01*
X165610952Y-116366666D01*
X165563333Y-116271428D01*
X165563333Y-116080952D01*
X165610952Y-115985714D01*
X165658571Y-115938095D01*
X165753809Y-115890476D01*
%TO.C,C34*%
X166087142Y-109882142D02*
X166134761Y-109834523D01*
X166182380Y-109691666D01*
X166182380Y-109596428D01*
X166134761Y-109453571D01*
X166039523Y-109358333D01*
X165944285Y-109310714D01*
X165753809Y-109263095D01*
X165610952Y-109263095D01*
X165420476Y-109310714D01*
X165325238Y-109358333D01*
X165230000Y-109453571D01*
X165182380Y-109596428D01*
X165182380Y-109691666D01*
X165230000Y-109834523D01*
X165277619Y-109882142D01*
X165182380Y-110215476D02*
X165182380Y-110834523D01*
X165563333Y-110501190D01*
X165563333Y-110644047D01*
X165610952Y-110739285D01*
X165658571Y-110786904D01*
X165753809Y-110834523D01*
X165991904Y-110834523D01*
X166087142Y-110786904D01*
X166134761Y-110739285D01*
X166182380Y-110644047D01*
X166182380Y-110358333D01*
X166134761Y-110263095D01*
X166087142Y-110215476D01*
X165515714Y-111691666D02*
X166182380Y-111691666D01*
X165134761Y-111453571D02*
X165849047Y-111215476D01*
X165849047Y-111834523D01*
%TO.C,C32*%
X138457142Y-111232142D02*
X138504761Y-111184523D01*
X138552380Y-111041666D01*
X138552380Y-110946428D01*
X138504761Y-110803571D01*
X138409523Y-110708333D01*
X138314285Y-110660714D01*
X138123809Y-110613095D01*
X137980952Y-110613095D01*
X137790476Y-110660714D01*
X137695238Y-110708333D01*
X137600000Y-110803571D01*
X137552380Y-110946428D01*
X137552380Y-111041666D01*
X137600000Y-111184523D01*
X137647619Y-111232142D01*
X137552380Y-111565476D02*
X137552380Y-112184523D01*
X137933333Y-111851190D01*
X137933333Y-111994047D01*
X137980952Y-112089285D01*
X138028571Y-112136904D01*
X138123809Y-112184523D01*
X138361904Y-112184523D01*
X138457142Y-112136904D01*
X138504761Y-112089285D01*
X138552380Y-111994047D01*
X138552380Y-111708333D01*
X138504761Y-111613095D01*
X138457142Y-111565476D01*
X137647619Y-112565476D02*
X137600000Y-112613095D01*
X137552380Y-112708333D01*
X137552380Y-112946428D01*
X137600000Y-113041666D01*
X137647619Y-113089285D01*
X137742857Y-113136904D01*
X137838095Y-113136904D01*
X137980952Y-113089285D01*
X138552380Y-112517857D01*
X138552380Y-113136904D01*
%TO.C,C30*%
X152527142Y-80357142D02*
X152574761Y-80309523D01*
X152622380Y-80166666D01*
X152622380Y-80071428D01*
X152574761Y-79928571D01*
X152479523Y-79833333D01*
X152384285Y-79785714D01*
X152193809Y-79738095D01*
X152050952Y-79738095D01*
X151860476Y-79785714D01*
X151765238Y-79833333D01*
X151670000Y-79928571D01*
X151622380Y-80071428D01*
X151622380Y-80166666D01*
X151670000Y-80309523D01*
X151717619Y-80357142D01*
X151622380Y-80690476D02*
X151622380Y-81309523D01*
X152003333Y-80976190D01*
X152003333Y-81119047D01*
X152050952Y-81214285D01*
X152098571Y-81261904D01*
X152193809Y-81309523D01*
X152431904Y-81309523D01*
X152527142Y-81261904D01*
X152574761Y-81214285D01*
X152622380Y-81119047D01*
X152622380Y-80833333D01*
X152574761Y-80738095D01*
X152527142Y-80690476D01*
X151622380Y-81928571D02*
X151622380Y-82023809D01*
X151670000Y-82119047D01*
X151717619Y-82166666D01*
X151812857Y-82214285D01*
X152003333Y-82261904D01*
X152241428Y-82261904D01*
X152431904Y-82214285D01*
X152527142Y-82166666D01*
X152574761Y-82119047D01*
X152622380Y-82023809D01*
X152622380Y-81928571D01*
X152574761Y-81833333D01*
X152527142Y-81785714D01*
X152431904Y-81738095D01*
X152241428Y-81690476D01*
X152003333Y-81690476D01*
X151812857Y-81738095D01*
X151717619Y-81785714D01*
X151670000Y-81833333D01*
X151622380Y-81928571D01*
%TO.C,C25*%
X154042857Y-88657142D02*
X154090476Y-88704761D01*
X154233333Y-88752380D01*
X154328571Y-88752380D01*
X154471428Y-88704761D01*
X154566666Y-88609523D01*
X154614285Y-88514285D01*
X154661904Y-88323809D01*
X154661904Y-88180952D01*
X154614285Y-87990476D01*
X154566666Y-87895238D01*
X154471428Y-87800000D01*
X154328571Y-87752380D01*
X154233333Y-87752380D01*
X154090476Y-87800000D01*
X154042857Y-87847619D01*
X153661904Y-87847619D02*
X153614285Y-87800000D01*
X153519047Y-87752380D01*
X153280952Y-87752380D01*
X153185714Y-87800000D01*
X153138095Y-87847619D01*
X153090476Y-87942857D01*
X153090476Y-88038095D01*
X153138095Y-88180952D01*
X153709523Y-88752380D01*
X153090476Y-88752380D01*
X152185714Y-87752380D02*
X152661904Y-87752380D01*
X152709523Y-88228571D01*
X152661904Y-88180952D01*
X152566666Y-88133333D01*
X152328571Y-88133333D01*
X152233333Y-88180952D01*
X152185714Y-88228571D01*
X152138095Y-88323809D01*
X152138095Y-88561904D01*
X152185714Y-88657142D01*
X152233333Y-88704761D01*
X152328571Y-88752380D01*
X152566666Y-88752380D01*
X152661904Y-88704761D01*
X152709523Y-88657142D01*
%TO.C,C22*%
X136842857Y-107457142D02*
X136890476Y-107504761D01*
X137033333Y-107552380D01*
X137128571Y-107552380D01*
X137271428Y-107504761D01*
X137366666Y-107409523D01*
X137414285Y-107314285D01*
X137461904Y-107123809D01*
X137461904Y-106980952D01*
X137414285Y-106790476D01*
X137366666Y-106695238D01*
X137271428Y-106600000D01*
X137128571Y-106552380D01*
X137033333Y-106552380D01*
X136890476Y-106600000D01*
X136842857Y-106647619D01*
X136461904Y-106647619D02*
X136414285Y-106600000D01*
X136319047Y-106552380D01*
X136080952Y-106552380D01*
X135985714Y-106600000D01*
X135938095Y-106647619D01*
X135890476Y-106742857D01*
X135890476Y-106838095D01*
X135938095Y-106980952D01*
X136509523Y-107552380D01*
X135890476Y-107552380D01*
X135509523Y-106647619D02*
X135461904Y-106600000D01*
X135366666Y-106552380D01*
X135128571Y-106552380D01*
X135033333Y-106600000D01*
X134985714Y-106647619D01*
X134938095Y-106742857D01*
X134938095Y-106838095D01*
X134985714Y-106980952D01*
X135557142Y-107552380D01*
X134938095Y-107552380D01*
%TO.C,C21*%
X150742857Y-107557142D02*
X150790476Y-107604761D01*
X150933333Y-107652380D01*
X151028571Y-107652380D01*
X151171428Y-107604761D01*
X151266666Y-107509523D01*
X151314285Y-107414285D01*
X151361904Y-107223809D01*
X151361904Y-107080952D01*
X151314285Y-106890476D01*
X151266666Y-106795238D01*
X151171428Y-106700000D01*
X151028571Y-106652380D01*
X150933333Y-106652380D01*
X150790476Y-106700000D01*
X150742857Y-106747619D01*
X150361904Y-106747619D02*
X150314285Y-106700000D01*
X150219047Y-106652380D01*
X149980952Y-106652380D01*
X149885714Y-106700000D01*
X149838095Y-106747619D01*
X149790476Y-106842857D01*
X149790476Y-106938095D01*
X149838095Y-107080952D01*
X150409523Y-107652380D01*
X149790476Y-107652380D01*
X148838095Y-107652380D02*
X149409523Y-107652380D01*
X149123809Y-107652380D02*
X149123809Y-106652380D01*
X149219047Y-106795238D01*
X149314285Y-106890476D01*
X149409523Y-106938095D01*
%TO.C,C19*%
X160142857Y-82057142D02*
X160190476Y-82104761D01*
X160333333Y-82152380D01*
X160428571Y-82152380D01*
X160571428Y-82104761D01*
X160666666Y-82009523D01*
X160714285Y-81914285D01*
X160761904Y-81723809D01*
X160761904Y-81580952D01*
X160714285Y-81390476D01*
X160666666Y-81295238D01*
X160571428Y-81200000D01*
X160428571Y-81152380D01*
X160333333Y-81152380D01*
X160190476Y-81200000D01*
X160142857Y-81247619D01*
X159190476Y-82152380D02*
X159761904Y-82152380D01*
X159476190Y-82152380D02*
X159476190Y-81152380D01*
X159571428Y-81295238D01*
X159666666Y-81390476D01*
X159761904Y-81438095D01*
X158714285Y-82152380D02*
X158523809Y-82152380D01*
X158428571Y-82104761D01*
X158380952Y-82057142D01*
X158285714Y-81914285D01*
X158238095Y-81723809D01*
X158238095Y-81342857D01*
X158285714Y-81247619D01*
X158333333Y-81200000D01*
X158428571Y-81152380D01*
X158619047Y-81152380D01*
X158714285Y-81200000D01*
X158761904Y-81247619D01*
X158809523Y-81342857D01*
X158809523Y-81580952D01*
X158761904Y-81676190D01*
X158714285Y-81723809D01*
X158619047Y-81771428D01*
X158428571Y-81771428D01*
X158333333Y-81723809D01*
X158285714Y-81676190D01*
X158238095Y-81580952D01*
%TO.C,C16*%
X142357142Y-88757142D02*
X142404761Y-88709523D01*
X142452380Y-88566666D01*
X142452380Y-88471428D01*
X142404761Y-88328571D01*
X142309523Y-88233333D01*
X142214285Y-88185714D01*
X142023809Y-88138095D01*
X141880952Y-88138095D01*
X141690476Y-88185714D01*
X141595238Y-88233333D01*
X141500000Y-88328571D01*
X141452380Y-88471428D01*
X141452380Y-88566666D01*
X141500000Y-88709523D01*
X141547619Y-88757142D01*
X142452380Y-89709523D02*
X142452380Y-89138095D01*
X142452380Y-89423809D02*
X141452380Y-89423809D01*
X141595238Y-89328571D01*
X141690476Y-89233333D01*
X141738095Y-89138095D01*
X141452380Y-90566666D02*
X141452380Y-90376190D01*
X141500000Y-90280952D01*
X141547619Y-90233333D01*
X141690476Y-90138095D01*
X141880952Y-90090476D01*
X142261904Y-90090476D01*
X142357142Y-90138095D01*
X142404761Y-90185714D01*
X142452380Y-90280952D01*
X142452380Y-90471428D01*
X142404761Y-90566666D01*
X142357142Y-90614285D01*
X142261904Y-90661904D01*
X142023809Y-90661904D01*
X141928571Y-90614285D01*
X141880952Y-90566666D01*
X141833333Y-90471428D01*
X141833333Y-90280952D01*
X141880952Y-90185714D01*
X141928571Y-90138095D01*
X142023809Y-90090476D01*
%TO.C,C15*%
X147857142Y-96257142D02*
X147904761Y-96209523D01*
X147952380Y-96066666D01*
X147952380Y-95971428D01*
X147904761Y-95828571D01*
X147809523Y-95733333D01*
X147714285Y-95685714D01*
X147523809Y-95638095D01*
X147380952Y-95638095D01*
X147190476Y-95685714D01*
X147095238Y-95733333D01*
X147000000Y-95828571D01*
X146952380Y-95971428D01*
X146952380Y-96066666D01*
X147000000Y-96209523D01*
X147047619Y-96257142D01*
X147952380Y-97209523D02*
X147952380Y-96638095D01*
X147952380Y-96923809D02*
X146952380Y-96923809D01*
X147095238Y-96828571D01*
X147190476Y-96733333D01*
X147238095Y-96638095D01*
X146952380Y-98114285D02*
X146952380Y-97638095D01*
X147428571Y-97590476D01*
X147380952Y-97638095D01*
X147333333Y-97733333D01*
X147333333Y-97971428D01*
X147380952Y-98066666D01*
X147428571Y-98114285D01*
X147523809Y-98161904D01*
X147761904Y-98161904D01*
X147857142Y-98114285D01*
X147904761Y-98066666D01*
X147952380Y-97971428D01*
X147952380Y-97733333D01*
X147904761Y-97638095D01*
X147857142Y-97590476D01*
%TO.C,C14*%
X145742857Y-83857142D02*
X145790476Y-83904761D01*
X145933333Y-83952380D01*
X146028571Y-83952380D01*
X146171428Y-83904761D01*
X146266666Y-83809523D01*
X146314285Y-83714285D01*
X146361904Y-83523809D01*
X146361904Y-83380952D01*
X146314285Y-83190476D01*
X146266666Y-83095238D01*
X146171428Y-83000000D01*
X146028571Y-82952380D01*
X145933333Y-82952380D01*
X145790476Y-83000000D01*
X145742857Y-83047619D01*
X144790476Y-83952380D02*
X145361904Y-83952380D01*
X145076190Y-83952380D02*
X145076190Y-82952380D01*
X145171428Y-83095238D01*
X145266666Y-83190476D01*
X145361904Y-83238095D01*
X143933333Y-83285714D02*
X143933333Y-83952380D01*
X144171428Y-82904761D02*
X144409523Y-83619047D01*
X143790476Y-83619047D01*
%TO.C,C12*%
X139957142Y-71757142D02*
X140004761Y-71709523D01*
X140052380Y-71566666D01*
X140052380Y-71471428D01*
X140004761Y-71328571D01*
X139909523Y-71233333D01*
X139814285Y-71185714D01*
X139623809Y-71138095D01*
X139480952Y-71138095D01*
X139290476Y-71185714D01*
X139195238Y-71233333D01*
X139100000Y-71328571D01*
X139052380Y-71471428D01*
X139052380Y-71566666D01*
X139100000Y-71709523D01*
X139147619Y-71757142D01*
X140052380Y-72709523D02*
X140052380Y-72138095D01*
X140052380Y-72423809D02*
X139052380Y-72423809D01*
X139195238Y-72328571D01*
X139290476Y-72233333D01*
X139338095Y-72138095D01*
X139147619Y-73090476D02*
X139100000Y-73138095D01*
X139052380Y-73233333D01*
X139052380Y-73471428D01*
X139100000Y-73566666D01*
X139147619Y-73614285D01*
X139242857Y-73661904D01*
X139338095Y-73661904D01*
X139480952Y-73614285D01*
X140052380Y-73042857D01*
X140052380Y-73661904D01*
%TO.C,C10*%
X125457142Y-99957142D02*
X125504761Y-99909523D01*
X125552380Y-99766666D01*
X125552380Y-99671428D01*
X125504761Y-99528571D01*
X125409523Y-99433333D01*
X125314285Y-99385714D01*
X125123809Y-99338095D01*
X124980952Y-99338095D01*
X124790476Y-99385714D01*
X124695238Y-99433333D01*
X124600000Y-99528571D01*
X124552380Y-99671428D01*
X124552380Y-99766666D01*
X124600000Y-99909523D01*
X124647619Y-99957142D01*
X125552380Y-100909523D02*
X125552380Y-100338095D01*
X125552380Y-100623809D02*
X124552380Y-100623809D01*
X124695238Y-100528571D01*
X124790476Y-100433333D01*
X124838095Y-100338095D01*
X124552380Y-101528571D02*
X124552380Y-101623809D01*
X124600000Y-101719047D01*
X124647619Y-101766666D01*
X124742857Y-101814285D01*
X124933333Y-101861904D01*
X125171428Y-101861904D01*
X125361904Y-101814285D01*
X125457142Y-101766666D01*
X125504761Y-101719047D01*
X125552380Y-101623809D01*
X125552380Y-101528571D01*
X125504761Y-101433333D01*
X125457142Y-101385714D01*
X125361904Y-101338095D01*
X125171428Y-101290476D01*
X124933333Y-101290476D01*
X124742857Y-101338095D01*
X124647619Y-101385714D01*
X124600000Y-101433333D01*
X124552380Y-101528571D01*
%TO.C,C9*%
X132466666Y-103357142D02*
X132514285Y-103404761D01*
X132657142Y-103452380D01*
X132752380Y-103452380D01*
X132895238Y-103404761D01*
X132990476Y-103309523D01*
X133038095Y-103214285D01*
X133085714Y-103023809D01*
X133085714Y-102880952D01*
X133038095Y-102690476D01*
X132990476Y-102595238D01*
X132895238Y-102500000D01*
X132752380Y-102452380D01*
X132657142Y-102452380D01*
X132514285Y-102500000D01*
X132466666Y-102547619D01*
X131990476Y-103452380D02*
X131800000Y-103452380D01*
X131704761Y-103404761D01*
X131657142Y-103357142D01*
X131561904Y-103214285D01*
X131514285Y-103023809D01*
X131514285Y-102642857D01*
X131561904Y-102547619D01*
X131609523Y-102500000D01*
X131704761Y-102452380D01*
X131895238Y-102452380D01*
X131990476Y-102500000D01*
X132038095Y-102547619D01*
X132085714Y-102642857D01*
X132085714Y-102880952D01*
X132038095Y-102976190D01*
X131990476Y-103023809D01*
X131895238Y-103071428D01*
X131704761Y-103071428D01*
X131609523Y-103023809D01*
X131561904Y-102976190D01*
X131514285Y-102880952D01*
%TO.C,C8*%
X124757142Y-108933333D02*
X124804761Y-108885714D01*
X124852380Y-108742857D01*
X124852380Y-108647619D01*
X124804761Y-108504761D01*
X124709523Y-108409523D01*
X124614285Y-108361904D01*
X124423809Y-108314285D01*
X124280952Y-108314285D01*
X124090476Y-108361904D01*
X123995238Y-108409523D01*
X123900000Y-108504761D01*
X123852380Y-108647619D01*
X123852380Y-108742857D01*
X123900000Y-108885714D01*
X123947619Y-108933333D01*
X124280952Y-109504761D02*
X124233333Y-109409523D01*
X124185714Y-109361904D01*
X124090476Y-109314285D01*
X124042857Y-109314285D01*
X123947619Y-109361904D01*
X123900000Y-109409523D01*
X123852380Y-109504761D01*
X123852380Y-109695238D01*
X123900000Y-109790476D01*
X123947619Y-109838095D01*
X124042857Y-109885714D01*
X124090476Y-109885714D01*
X124185714Y-109838095D01*
X124233333Y-109790476D01*
X124280952Y-109695238D01*
X124280952Y-109504761D01*
X124328571Y-109409523D01*
X124376190Y-109361904D01*
X124471428Y-109314285D01*
X124661904Y-109314285D01*
X124757142Y-109361904D01*
X124804761Y-109409523D01*
X124852380Y-109504761D01*
X124852380Y-109695238D01*
X124804761Y-109790476D01*
X124757142Y-109838095D01*
X124661904Y-109885714D01*
X124471428Y-109885714D01*
X124376190Y-109838095D01*
X124328571Y-109790476D01*
X124280952Y-109695238D01*
%TO.C,C7*%
X134357142Y-84233333D02*
X134404761Y-84185714D01*
X134452380Y-84042857D01*
X134452380Y-83947619D01*
X134404761Y-83804761D01*
X134309523Y-83709523D01*
X134214285Y-83661904D01*
X134023809Y-83614285D01*
X133880952Y-83614285D01*
X133690476Y-83661904D01*
X133595238Y-83709523D01*
X133500000Y-83804761D01*
X133452380Y-83947619D01*
X133452380Y-84042857D01*
X133500000Y-84185714D01*
X133547619Y-84233333D01*
X133452380Y-84566666D02*
X133452380Y-85233333D01*
X134452380Y-84804761D01*
%TO.C,C6*%
X159066666Y-80357142D02*
X159114285Y-80404761D01*
X159257142Y-80452380D01*
X159352380Y-80452380D01*
X159495238Y-80404761D01*
X159590476Y-80309523D01*
X159638095Y-80214285D01*
X159685714Y-80023809D01*
X159685714Y-79880952D01*
X159638095Y-79690476D01*
X159590476Y-79595238D01*
X159495238Y-79500000D01*
X159352380Y-79452380D01*
X159257142Y-79452380D01*
X159114285Y-79500000D01*
X159066666Y-79547619D01*
X158209523Y-79452380D02*
X158400000Y-79452380D01*
X158495238Y-79500000D01*
X158542857Y-79547619D01*
X158638095Y-79690476D01*
X158685714Y-79880952D01*
X158685714Y-80261904D01*
X158638095Y-80357142D01*
X158590476Y-80404761D01*
X158495238Y-80452380D01*
X158304761Y-80452380D01*
X158209523Y-80404761D01*
X158161904Y-80357142D01*
X158114285Y-80261904D01*
X158114285Y-80023809D01*
X158161904Y-79928571D01*
X158209523Y-79880952D01*
X158304761Y-79833333D01*
X158495238Y-79833333D01*
X158590476Y-79880952D01*
X158638095Y-79928571D01*
X158685714Y-80023809D01*
%TO.C,C5*%
X118557142Y-101933333D02*
X118604761Y-101885714D01*
X118652380Y-101742857D01*
X118652380Y-101647619D01*
X118604761Y-101504761D01*
X118509523Y-101409523D01*
X118414285Y-101361904D01*
X118223809Y-101314285D01*
X118080952Y-101314285D01*
X117890476Y-101361904D01*
X117795238Y-101409523D01*
X117700000Y-101504761D01*
X117652380Y-101647619D01*
X117652380Y-101742857D01*
X117700000Y-101885714D01*
X117747619Y-101933333D01*
X117652380Y-102838095D02*
X117652380Y-102361904D01*
X118128571Y-102314285D01*
X118080952Y-102361904D01*
X118033333Y-102457142D01*
X118033333Y-102695238D01*
X118080952Y-102790476D01*
X118128571Y-102838095D01*
X118223809Y-102885714D01*
X118461904Y-102885714D01*
X118557142Y-102838095D01*
X118604761Y-102790476D01*
X118652380Y-102695238D01*
X118652380Y-102457142D01*
X118604761Y-102361904D01*
X118557142Y-102314285D01*
%TO.C,C4*%
X150957142Y-89733333D02*
X151004761Y-89685714D01*
X151052380Y-89542857D01*
X151052380Y-89447619D01*
X151004761Y-89304761D01*
X150909523Y-89209523D01*
X150814285Y-89161904D01*
X150623809Y-89114285D01*
X150480952Y-89114285D01*
X150290476Y-89161904D01*
X150195238Y-89209523D01*
X150100000Y-89304761D01*
X150052380Y-89447619D01*
X150052380Y-89542857D01*
X150100000Y-89685714D01*
X150147619Y-89733333D01*
X150385714Y-90590476D02*
X151052380Y-90590476D01*
X150004761Y-90352380D02*
X150719047Y-90114285D01*
X150719047Y-90733333D01*
%TO.C,C2*%
X149157142Y-89733333D02*
X149204761Y-89685714D01*
X149252380Y-89542857D01*
X149252380Y-89447619D01*
X149204761Y-89304761D01*
X149109523Y-89209523D01*
X149014285Y-89161904D01*
X148823809Y-89114285D01*
X148680952Y-89114285D01*
X148490476Y-89161904D01*
X148395238Y-89209523D01*
X148300000Y-89304761D01*
X148252380Y-89447619D01*
X148252380Y-89542857D01*
X148300000Y-89685714D01*
X148347619Y-89733333D01*
X148347619Y-90114285D02*
X148300000Y-90161904D01*
X148252380Y-90257142D01*
X148252380Y-90495238D01*
X148300000Y-90590476D01*
X148347619Y-90638095D01*
X148442857Y-90685714D01*
X148538095Y-90685714D01*
X148680952Y-90638095D01*
X149252380Y-90066666D01*
X149252380Y-90685714D01*
%TO.C,C1*%
X156641666Y-73027142D02*
X156689285Y-73074761D01*
X156832142Y-73122380D01*
X156927380Y-73122380D01*
X157070238Y-73074761D01*
X157165476Y-72979523D01*
X157213095Y-72884285D01*
X157260714Y-72693809D01*
X157260714Y-72550952D01*
X157213095Y-72360476D01*
X157165476Y-72265238D01*
X157070238Y-72170000D01*
X156927380Y-72122380D01*
X156832142Y-72122380D01*
X156689285Y-72170000D01*
X156641666Y-72217619D01*
X155689285Y-73122380D02*
X156260714Y-73122380D01*
X155975000Y-73122380D02*
X155975000Y-72122380D01*
X156070238Y-72265238D01*
X156165476Y-72360476D01*
X156260714Y-72408095D01*
%TD*%
M02*
